<?xml version="1.0" encoding="utf-8"?>
<!-- Generator: Adobe Illustrator 27.3.1, SVG Export Plug-In . SVG Version: 6.00 Build 0)  -->
<svg version="1.1" id="Layer_1" xmlns="http://www.w3.org/2000/svg" xmlns:xlink="http://www.w3.org/1999/xlink" x="0px" y="0px"
	 viewBox="0 0 864 432" style="enable-background:new 0 0 864 432;" xml:space="preserve">
<style type="text/css">
	.st0{fill:url(#SVGID_1_);}
	.st1{fill:url(#SVGID_00000008121452524616216430000012544978902515113882_);}
	.st2{fill:url(#SVGID_00000119836314435379532410000011188630044305329327_);}
	.st3{fill:url(#SVGID_00000064339812175403134200000006260327884901481620_);}
	.st4{fill:url(#SVGID_00000151543250930253688150000010430570909212650931_);}
	.st5{fill:url(#SVGID_00000017501027283173875390000007627862416839222692_);}
	.st6{fill:url(#SVGID_00000063591467218584160220000001423787120656630963_);}
	.st7{fill:url(#SVGID_00000026133755735372754310000011353366791191872935_);}
	.st8{fill:url(#SVGID_00000013155906899186075950000012351796420752234154_);}
	.st9{fill:url(#XMLID_00000109724759740632936820000004033888511263994528_);}
	.st10{fill:url(#SVGID_00000093155751781646017530000001206922847509986721_);}
	.st11{fill:url(#SVGID_00000005987805392571206060000013762878356398615482_);}
	.st12{fill:url(#SVGID_00000036952774095903117030000011451857861231870890_);}
	.st13{fill:url(#SVGID_00000001662114850150336180000016650826731016893077_);}
	.st14{fill:url(#SVGID_00000176044237895877413700000009683548796665596342_);}
	.st15{fill:url(#SVGID_00000036252846428810770410000011001784078092065707_);}
	.st16{fill:url(#SVGID_00000137121319040373311050000007712314343995125385_);}
	.st17{fill:url(#XMLID_00000023266687767706557870000008625667294991722118_);}
	.st18{fill:url(#SVGID_00000029013355579536221260000003401834446894205372_);}
	.st19{fill:url(#SVGID_00000145037065663806044190000016322148494229876130_);}
	.st20{fill:url(#SVGID_00000091732891227082113440000016639744632344782755_);}
	.st21{fill:url(#SVGID_00000009561820493569506710000005628148790405825189_);}
	.st22{fill:#3777BC;}
</style>
<g>
	<g>
		<g>
			<g>
				<linearGradient id="SVGID_1_" gradientUnits="userSpaceOnUse" x1="331.5532" y1="269.6459" x2="808.8771" y2="269.6459">
					<stop  offset="0" style="stop-color:#68C9D0"/>
					<stop  offset="0.1276" style="stop-color:#65C5CC"/>
					<stop  offset="0.2514" style="stop-color:#5ABCC2"/>
					<stop  offset="0.3736" style="stop-color:#45AEB3"/>
					<stop  offset="0.4942" style="stop-color:#199C9F"/>
					<stop  offset="0.5" style="stop-color:#149B9E"/>
					<stop  offset="0.5844" style="stop-color:#1998A2"/>
					<stop  offset="0.7254" style="stop-color:#258FAA"/>
					<stop  offset="0.9046" style="stop-color:#3280B5"/>
					<stop  offset="1" style="stop-color:#3777BC"/>
				</linearGradient>
				<path class="st0" d="M383.86,312.81h16.56c-3.7-1.94-4.05-4.05-4.05-8.1v-47.74c0-21.84-13.91-30.48-28.89-30.48
					c-11.1,0-21.84,5.64-26.96,11.45v-9.86h-12.68c3.7,1.76,4.05,3.87,4.05,8.1v68.52c0,4.05-0.35,6.16-4.05,8.1h16.73
					c-3.7-1.94-4.05-4.05-4.05-8.1v-65.53c5.63-6.52,16.38-11.1,25.37-11.1c14.8,0.18,22.02,12.51,22.02,27.13v49.5
					C387.73,308.75,387.38,310.87,383.86,312.81z"/>
				
					<linearGradient id="SVGID_00000027585263829227141700000012123844087299847601_" gradientUnits="userSpaceOnUse" x1="331.5532" y1="281.2292" x2="808.8771" y2="281.2292">
					<stop  offset="0" style="stop-color:#68C9D0"/>
					<stop  offset="0.1276" style="stop-color:#65C5CC"/>
					<stop  offset="0.2514" style="stop-color:#5ABCC2"/>
					<stop  offset="0.3736" style="stop-color:#45AEB3"/>
					<stop  offset="0.4942" style="stop-color:#199C9F"/>
					<stop  offset="0.5" style="stop-color:#149B9E"/>
					<stop  offset="0.5844" style="stop-color:#1998A2"/>
					<stop  offset="0.7254" style="stop-color:#258FAA"/>
					<stop  offset="0.9046" style="stop-color:#3280B5"/>
					<stop  offset="1" style="stop-color:#3777BC"/>
				</linearGradient>
				<path style="fill:url(#SVGID_00000027585263829227141700000012123844087299847601_);" d="M432.82,312.81h-16.56
					c3.53-1.76,4.05-3.87,4.05-8.1v-55.05c2.85,1.16,5.71,1.71,8.46,1.55v53.5C428.77,308.93,429.3,311.04,432.82,312.81z"/>
				
					<linearGradient id="SVGID_00000143591164175262608610000001163297365126080950_" gradientUnits="userSpaceOnUse" x1="331.5532" y1="269.6459" x2="808.8771" y2="269.6459">
					<stop  offset="0" style="stop-color:#68C9D0"/>
					<stop  offset="0.1276" style="stop-color:#65C5CC"/>
					<stop  offset="0.2514" style="stop-color:#5ABCC2"/>
					<stop  offset="0.3736" style="stop-color:#45AEB3"/>
					<stop  offset="0.4942" style="stop-color:#199C9F"/>
					<stop  offset="0.5" style="stop-color:#149B9E"/>
					<stop  offset="0.5844" style="stop-color:#1998A2"/>
					<stop  offset="0.7254" style="stop-color:#258FAA"/>
					<stop  offset="0.9046" style="stop-color:#3280B5"/>
					<stop  offset="1" style="stop-color:#3777BC"/>
				</linearGradient>
				<path style="fill:url(#SVGID_00000143591164175262608610000001163297365126080950_);" d="M511.74,237.59
					c-3.7-7.22-12.15-11.1-20.08-11.1c-7.92,0-12.51,0.88-15.85,1.41v5.99c3.34-2.11,9.16-6.16,15.85-6.16
					c8.11,0,15.5,3.52,19.03,10.57c5.28,10.57,0.18,21.67-8.99,39.46c-3.87,7.75-8.63,17.09-12.34,24.13l-29.77-66.06
					c-2.46-5.63,0.88-7.75,1.59-7.75h-17.79c0,0,0.75,0.28,1.82,1.07c1.46,1.08,3.52,3.12,5.05,6.68l34.7,76.98
					c0,0,10.75-20.43,17.96-34.7C512.27,260.14,517.2,248.51,511.74,237.59z"/>
				
					<linearGradient id="SVGID_00000127729099827435972210000003564607036223921326_" gradientUnits="userSpaceOnUse" x1="331.5532" y1="270.5261" x2="808.8771" y2="270.5261">
					<stop  offset="0" style="stop-color:#68C9D0"/>
					<stop  offset="0.1276" style="stop-color:#65C5CC"/>
					<stop  offset="0.2514" style="stop-color:#5ABCC2"/>
					<stop  offset="0.3736" style="stop-color:#45AEB3"/>
					<stop  offset="0.4942" style="stop-color:#199C9F"/>
					<stop  offset="0.5" style="stop-color:#149B9E"/>
					<stop  offset="0.5844" style="stop-color:#1998A2"/>
					<stop  offset="0.7254" style="stop-color:#258FAA"/>
					<stop  offset="0.9046" style="stop-color:#3280B5"/>
					<stop  offset="1" style="stop-color:#3777BC"/>
				</linearGradient>
				<path style="fill:url(#SVGID_00000127729099827435972210000003564607036223921326_);" d="M587.13,312.81
					c-3.52-1.76-4.05-3.87-4.05-8.1v-53.02c0-21.31-14.27-25.2-23.6-25.2c-11.1,0-22.9,4.4-30.82,10.22v7.22
					c7.22-9.51,16.73-16.38,28.71-16.38c11.98,0.53,17.97,7.22,17.26,14.97c-1.05,9.34-21.31,17.97-25.72,20.44
					c-11.8,6.69-26.42,14.44-29.06,26.42c-3.17,14.8,9.51,25.19,25.9,25.19c11.27,0,21.31-4.4,28.89-12.86v11.1H587.13z
					 M550.66,312.98c-18.32,0-22.37-14.27-21.14-22.72c1.41-9.16,7.4-14.8,25.02-27.48c6.86-4.93,16.73-10.57,20.08-17.79v55.84
					C566.52,309.81,557.53,312.98,550.66,312.98z"/>
				
					<linearGradient id="SVGID_00000156563923406216056880000013326418949925050786_" gradientUnits="userSpaceOnUse" x1="331.5532" y1="269.615" x2="808.8771" y2="269.615">
					<stop  offset="0" style="stop-color:#68C9D0"/>
					<stop  offset="0.1276" style="stop-color:#65C5CC"/>
					<stop  offset="0.2514" style="stop-color:#5ABCC2"/>
					<stop  offset="0.3736" style="stop-color:#45AEB3"/>
					<stop  offset="0.4942" style="stop-color:#199C9F"/>
					<stop  offset="0.5" style="stop-color:#149B9E"/>
					<stop  offset="0.5844" style="stop-color:#1998A2"/>
					<stop  offset="0.7254" style="stop-color:#258FAA"/>
					<stop  offset="0.9046" style="stop-color:#3280B5"/>
					<stop  offset="1" style="stop-color:#3777BC"/>
				</linearGradient>
				<path style="fill:url(#SVGID_00000156563923406216056880000013326418949925050786_);" d="M630.28,228.08
					c-9.86,3.7-13.91,14.09-14.8,17.96v-17.96h-12.51c3.52,1.76,3.87,3.87,4.05,8.1v68.52c-0.18,4.05-0.53,6.16-4.05,8.1h16.56
					c-3.7-1.94-4.05-4.05-4.05-8.1v-51.08c0-8.81,4.93-20.78,15.15-24.67c8.46-3.34,17.79,1.24,25.01,5.82v-6.52
					C647.36,226.32,637.5,225.43,630.28,228.08z"/>
				
					<linearGradient id="SVGID_00000036209717016957663030000009947993018473837241_" gradientUnits="userSpaceOnUse" x1="331.5532" y1="270.5261" x2="808.8771" y2="270.5261">
					<stop  offset="0" style="stop-color:#68C9D0"/>
					<stop  offset="0.1276" style="stop-color:#65C5CC"/>
					<stop  offset="0.2514" style="stop-color:#5ABCC2"/>
					<stop  offset="0.3736" style="stop-color:#45AEB3"/>
					<stop  offset="0.4942" style="stop-color:#199C9F"/>
					<stop  offset="0.5" style="stop-color:#149B9E"/>
					<stop  offset="0.5844" style="stop-color:#1998A2"/>
					<stop  offset="0.7254" style="stop-color:#258FAA"/>
					<stop  offset="0.9046" style="stop-color:#3280B5"/>
					<stop  offset="1" style="stop-color:#3777BC"/>
				</linearGradient>
				<path style="fill:url(#SVGID_00000036209717016957663030000009947993018473837241_);" d="M728.75,312.81
					c-3.52-1.76-4.05-3.87-4.05-8.1v-53.02c0-21.31-14.27-25.2-23.61-25.2c-11.1,0-22.9,4.4-30.83,10.22v7.22
					c7.22-9.51,16.74-16.38,28.72-16.38c11.98,0.53,17.97,7.22,17.26,14.97c-1.06,9.34-21.31,17.97-25.72,20.44
					c-11.81,6.69-26.43,14.44-29.07,26.42c-3.17,14.8,9.52,25.19,25.9,25.19c11.28,0,21.31-4.4,28.89-12.86v11.1H728.75z
					 M692.28,312.98c-18.32,0-22.37-14.27-21.14-22.72c1.41-9.16,7.4-14.8,25.01-27.48c6.87-4.93,16.73-10.57,20.08-17.79v55.84
					C708.14,309.81,699.16,312.98,692.28,312.98z"/>
				
					<linearGradient id="SVGID_00000008840971191335566960000015966876669698325677_" gradientUnits="userSpaceOnUse" x1="331.5532" y1="269.6459" x2="808.8771" y2="269.6459">
					<stop  offset="0" style="stop-color:#68C9D0"/>
					<stop  offset="0.1276" style="stop-color:#65C5CC"/>
					<stop  offset="0.2514" style="stop-color:#5ABCC2"/>
					<stop  offset="0.3736" style="stop-color:#45AEB3"/>
					<stop  offset="0.4942" style="stop-color:#199C9F"/>
					<stop  offset="0.5" style="stop-color:#149B9E"/>
					<stop  offset="0.5844" style="stop-color:#1998A2"/>
					<stop  offset="0.7254" style="stop-color:#258FAA"/>
					<stop  offset="0.9046" style="stop-color:#3280B5"/>
					<stop  offset="1" style="stop-color:#3777BC"/>
				</linearGradient>
				<path style="fill:url(#SVGID_00000008840971191335566960000015966876669698325677_);" d="M800.62,312.81h16.56
					c-3.7-1.94-4.05-4.05-4.05-8.1v-47.74c0-21.84-13.92-30.48-28.89-30.48c-11.09,0-21.84,5.64-26.95,11.45v-9.86H744.6
					c3.7,1.76,4.05,3.87,4.05,8.1v68.52c0,4.05-0.35,6.16-4.05,8.1h16.73c-3.7-1.94-4.05-4.05-4.05-8.1v-65.53
					c5.63-6.52,16.38-11.1,25.37-11.1c14.8,0.18,22.02,12.51,22.02,27.13v49.5C804.49,308.75,804.14,310.87,800.62,312.81z"/>
			</g>
			
				<radialGradient id="SVGID_00000067953314706474919980000000298087382158693260_" cx="408.5569" cy="188.5854" r="72.1526" fx="392.9821" fy="188.605" gradientUnits="userSpaceOnUse">
				<stop  offset="0" style="stop-color:#A52E66"/>
				<stop  offset="0.1636" style="stop-color:#B63A5E"/>
				<stop  offset="0.3887" style="stop-color:#CC4751"/>
				<stop  offset="0.5822" style="stop-color:#DD5142"/>
				<stop  offset="0.734" style="stop-color:#EA5735"/>
				<stop  offset="0.8254" style="stop-color:#F15A31"/>
			</radialGradient>
			<path style="fill:url(#SVGID_00000067953314706474919980000000298087382158693260_);" d="M431.73,245.03
				c-0.96,0.41-1.95,0.68-2.96,0.84c-2.72,0.43-5.6,0-8.46-1.16c-7.1-2.86-14.11-10.22-18.3-20.18
				c-6.52-15.49-3.78-31.43,6.13-35.59c9.9-4.16,23.21,5.01,29.72,20.5C444.38,224.94,441.63,240.87,431.73,245.03z"/>
		</g>
		<g>
			
				<radialGradient id="SVGID_00000150824874868238640090000012665074742960566173_" cx="127.2397" cy="151.1867" r="120.5135" fx="94.4207" fy="151.9977" gradientUnits="userSpaceOnUse">
				<stop  offset="0" style="stop-color:#A52E66"/>
				<stop  offset="0.1636" style="stop-color:#B63A5E"/>
				<stop  offset="0.3887" style="stop-color:#CC4751"/>
				<stop  offset="0.5822" style="stop-color:#DD5142"/>
				<stop  offset="0.734" style="stop-color:#EA5735"/>
				<stop  offset="0.8254" style="stop-color:#F15A31"/>
			</radialGradient>
			<path style="fill:url(#SVGID_00000150824874868238640090000012665074742960566173_);" d="M165.69,244.79
				c1.56-0.63,3.02-1.46,4.38-2.44c3.61-2.63,6.43-6.43,8.39-11.05c4.87-11.45,4.48-27.96-2.16-44.24
				c-10.31-25.3-31.78-40.46-47.95-33.87c-16.17,6.6-20.92,32.44-10.6,57.73C128.06,236.23,149.52,251.39,165.69,244.79z"/>
		</g>
		<g>
			
				<radialGradient id="XMLID_00000095312431809349731780000013745647447555874727_" cx="55.0901" cy="247.4965" r="265.1875" gradientUnits="userSpaceOnUse">
				<stop  offset="0.1746" style="stop-color:#F15A31"/>
				<stop  offset="0.266" style="stop-color:#EA5735"/>
				<stop  offset="0.4178" style="stop-color:#DD5142"/>
				<stop  offset="0.6113" style="stop-color:#CC4751"/>
				<stop  offset="0.8364" style="stop-color:#B63A5E"/>
				<stop  offset="1" style="stop-color:#A52E66"/>
			</radialGradient>
			
				<polygon id="XMLID_00000014600622366979193160000000855814961446165893_" style="fill:url(#XMLID_00000095312431809349731780000013745647447555874727_);" points="
				54.94,242.56 53.91,238.6 49.82,238.35 53.27,236.15 52.24,232.18 55.4,234.79 58.86,232.58 57.36,236.39 60.53,238.99 
				56.44,238.75 			"/>
			
				<radialGradient id="SVGID_00000057130289114480674980000006514468644189291164_" cx="55.0901" cy="247.4965" r="265.1875" gradientUnits="userSpaceOnUse">
				<stop  offset="0.1746" style="stop-color:#F15A31"/>
				<stop  offset="0.266" style="stop-color:#EA5735"/>
				<stop  offset="0.4178" style="stop-color:#DD5142"/>
				<stop  offset="0.6113" style="stop-color:#CC4751"/>
				<stop  offset="0.8364" style="stop-color:#B63A5E"/>
				<stop  offset="1" style="stop-color:#A52E66"/>
			</radialGradient>
			<polygon style="fill:url(#SVGID_00000057130289114480674980000006514468644189291164_);" points="46.83,206.29 51.63,203.89 
				50.84,198.58 54.6,202.41 59.4,200.02 56.92,204.78 60.68,208.61 55.39,207.72 52.91,212.48 52.12,207.17 			"/>
			
				<radialGradient id="SVGID_00000052812257417295571450000001871346537067531136_" cx="55.0901" cy="247.4965" r="265.1875" gradientUnits="userSpaceOnUse">
				<stop  offset="0.1746" style="stop-color:#F15A31"/>
				<stop  offset="0.266" style="stop-color:#EA5735"/>
				<stop  offset="0.4178" style="stop-color:#DD5142"/>
				<stop  offset="0.6113" style="stop-color:#CC4751"/>
				<stop  offset="0.8364" style="stop-color:#B63A5E"/>
				<stop  offset="1" style="stop-color:#A52E66"/>
			</radialGradient>
			<polygon style="fill:url(#SVGID_00000052812257417295571450000001871346537067531136_);" points="49.73,175.5 55.88,172.92 
				55.33,166.27 59.69,171.32 65.84,168.74 62.38,174.45 66.74,179.5 60.24,177.97 56.78,183.68 56.23,177.03 			"/>
			
				<radialGradient id="SVGID_00000001653246403671913150000002418723121543480765_" cx="55.0901" cy="247.4965" r="265.1387" gradientUnits="userSpaceOnUse">
				<stop  offset="0.1746" style="stop-color:#F15A31"/>
				<stop  offset="0.266" style="stop-color:#EA5735"/>
				<stop  offset="0.4178" style="stop-color:#DD5142"/>
				<stop  offset="0.6113" style="stop-color:#CC4751"/>
				<stop  offset="0.8364" style="stop-color:#B63A5E"/>
				<stop  offset="1" style="stop-color:#A52E66"/>
			</radialGradient>
			<polygon style="fill:url(#SVGID_00000001653246403671913150000002418723121543480765_);" points="58.65,146.64 66.16,143.87 
				65.84,135.87 70.8,142.16 78.31,139.39 73.86,146.04 78.82,152.32 71.11,150.15 66.67,156.81 66.35,148.81 			"/>
			
				<radialGradient id="SVGID_00000095309061549661788380000011170250595316604084_" cx="55.0901" cy="247.4965" r="265.1875" gradientUnits="userSpaceOnUse">
				<stop  offset="0.1746" style="stop-color:#F15A31"/>
				<stop  offset="0.266" style="stop-color:#EA5735"/>
				<stop  offset="0.4178" style="stop-color:#DD5142"/>
				<stop  offset="0.6113" style="stop-color:#CC4751"/>
				<stop  offset="0.8364" style="stop-color:#B63A5E"/>
				<stop  offset="1" style="stop-color:#A52E66"/>
			</radialGradient>
			<polygon style="fill:url(#SVGID_00000095309061549661788380000011170250595316604084_);" points="73.43,120.39 82.29,117.43 
				82.21,108.09 87.76,115.6 96.62,112.64 91.19,120.24 96.75,127.75 87.84,124.94 82.41,132.54 82.33,123.2 			"/>
			
				<radialGradient id="SVGID_00000047747282652618331990000008340773471484495021_" cx="55.0901" cy="247.4965" r="265.1875" gradientUnits="userSpaceOnUse">
				<stop  offset="0.1746" style="stop-color:#F15A31"/>
				<stop  offset="0.266" style="stop-color:#EA5735"/>
				<stop  offset="0.4178" style="stop-color:#DD5142"/>
				<stop  offset="0.6113" style="stop-color:#CC4751"/>
				<stop  offset="0.8364" style="stop-color:#B63A5E"/>
				<stop  offset="1" style="stop-color:#A52E66"/>
			</radialGradient>
			<polygon style="fill:url(#SVGID_00000047747282652618331990000008340773471484495021_);" points="93.87,97.43 104.08,94.29 
				104.24,83.6 110.39,92.34 120.6,89.19 114.19,97.74 120.34,106.48 110.23,103.02 103.82,111.57 103.98,100.89 			"/>
			
				<radialGradient id="SVGID_00000127725480417932801510000000821582605991297710_" cx="55.0901" cy="247.4965" r="265.1875" gradientUnits="userSpaceOnUse">
				<stop  offset="0.1746" style="stop-color:#F15A31"/>
				<stop  offset="0.266" style="stop-color:#EA5735"/>
				<stop  offset="0.4178" style="stop-color:#DD5142"/>
				<stop  offset="0.6113" style="stop-color:#CC4751"/>
				<stop  offset="0.8364" style="stop-color:#B63A5E"/>
				<stop  offset="1" style="stop-color:#A52E66"/>
			</radialGradient>
			<polygon style="fill:url(#SVGID_00000127725480417932801510000000821582605991297710_);" points="119.79,78.46 131.36,75.12 
				131.76,63.09 138.5,73.06 150.07,69.72 142.67,79.22 149.42,89.19 138.1,85.09 130.71,94.59 131.11,82.56 			"/>
			
				<radialGradient id="SVGID_00000017484745990598122560000015796740426096091308_" cx="55.0901" cy="247.4965" r="265.1875" gradientUnits="userSpaceOnUse">
				<stop  offset="0.1746" style="stop-color:#F15A31"/>
				<stop  offset="0.266" style="stop-color:#EA5735"/>
				<stop  offset="0.4178" style="stop-color:#DD5142"/>
				<stop  offset="0.6113" style="stop-color:#CC4751"/>
				<stop  offset="0.8364" style="stop-color:#B63A5E"/>
				<stop  offset="1" style="stop-color:#A52E66"/>
			</radialGradient>
			<polygon style="fill:url(#SVGID_00000017484745990598122560000015796740426096091308_);" points="151.01,64.15 163.93,60.62 
				164.57,47.25 171.91,58.45 184.83,54.92 176.45,65.37 183.79,76.56 171.27,71.82 162.9,82.26 163.53,68.89 			"/>
			
				<radialGradient id="XMLID_00000112622116793789002510000007217417443752471734_" cx="55.0901" cy="247.4965" r="265.1875" gradientUnits="userSpaceOnUse">
				<stop  offset="0.1746" style="stop-color:#F15A31"/>
				<stop  offset="0.266" style="stop-color:#EA5735"/>
				<stop  offset="0.4178" style="stop-color:#DD5142"/>
				<stop  offset="0.6113" style="stop-color:#CC4751"/>
				<stop  offset="0.8364" style="stop-color:#B63A5E"/>
				<stop  offset="1" style="stop-color:#A52E66"/>
			</radialGradient>
			
				<polygon id="XMLID_00000050633632363623294830000010107418344108959934_" style="fill:url(#XMLID_00000112622116793789002510000007217417443752471734_);" points="
				187.35,55.19 201.61,51.48 202.49,36.76 210.43,49.19 224.7,45.47 215.34,56.86 223.28,69.29 209.56,63.9 200.19,75.29 
				201.07,60.58 			"/>
		</g>
	</g>
	<g>
		<g>
			<g>
				
					<radialGradient id="SVGID_00000121996458550728741310000005116619421255425964_" cx="129.1546" cy="367.3388" r="259.8138" gradientUnits="userSpaceOnUse">
					<stop  offset="0" style="stop-color:#68C9D0"/>
					<stop  offset="0.1276" style="stop-color:#65C5CC"/>
					<stop  offset="0.2514" style="stop-color:#5ABCC2"/>
					<stop  offset="0.3736" style="stop-color:#45AEB3"/>
					<stop  offset="0.4942" style="stop-color:#199C9F"/>
					<stop  offset="0.5" style="stop-color:#149B9E"/>
					<stop  offset="0.5844" style="stop-color:#1998A2"/>
					<stop  offset="0.7254" style="stop-color:#258FAA"/>
					<stop  offset="0.9046" style="stop-color:#3280B5"/>
					<stop  offset="1" style="stop-color:#3777BC"/>
				</radialGradient>
				<path style="fill:url(#SVGID_00000121996458550728741310000005116619421255425964_);" d="M194.41,387.84
					c-10.65-24.69-35-42.08-63.47-42.6c0.09,0,0.2-0.01,0.31-0.01c22.89-0.92,36.31-8.1,36.31-8.1
					c-36.08-0.92-58.05-4.38-58.05-8.55c0-4.17,28.9-3.24,33.99-28.21c4.75-23.36-20.62-56.02-23.91-60.15
					C161.79,276.6,189.84,328.93,194.41,387.84z"/>
			</g>
			<g>
				
					<radialGradient id="SVGID_00000142171816470657785160000008823919318066089879_" cx="109.2969" cy="392.4919" r="259.8138" gradientUnits="userSpaceOnUse">
					<stop  offset="0" style="stop-color:#68C9D0"/>
					<stop  offset="0.1276" style="stop-color:#65C5CC"/>
					<stop  offset="0.2514" style="stop-color:#5ABCC2"/>
					<stop  offset="0.3736" style="stop-color:#45AEB3"/>
					<stop  offset="0.4942" style="stop-color:#199C9F"/>
					<stop  offset="0.5" style="stop-color:#149B9E"/>
					<stop  offset="0.5844" style="stop-color:#1998A2"/>
					<stop  offset="0.7254" style="stop-color:#258FAA"/>
					<stop  offset="0.9046" style="stop-color:#3280B5"/>
					<stop  offset="1" style="stop-color:#3777BC"/>
				</radialGradient>
				<circle style="fill:url(#SVGID_00000142171816470657785160000008823919318066089879_);" cx="116.22" cy="295.97" r="16.42"/>
			</g>
		</g>
		<g>
			<g>
				
					<radialGradient id="SVGID_00000180324202479292062650000007022520581315962795_" cx="109.2969" cy="392.4919" r="259.8138" gradientUnits="userSpaceOnUse">
					<stop  offset="0" style="stop-color:#68C9D0"/>
					<stop  offset="0.1276" style="stop-color:#65C5CC"/>
					<stop  offset="0.2514" style="stop-color:#5ABCC2"/>
					<stop  offset="0.3736" style="stop-color:#45AEB3"/>
					<stop  offset="0.4942" style="stop-color:#199C9F"/>
					<stop  offset="0.5" style="stop-color:#149B9E"/>
					<stop  offset="0.5844" style="stop-color:#1998A2"/>
					<stop  offset="0.7254" style="stop-color:#258FAA"/>
					<stop  offset="0.9046" style="stop-color:#3280B5"/>
					<stop  offset="1" style="stop-color:#3777BC"/>
				</radialGradient>
				<path style="fill:url(#SVGID_00000180324202479292062650000007022520581315962795_);" d="M220.67,395.24
					c-2.94-44.67,19.97-88.9,61.77-111.26c-0.14,0.07-0.31,0.13-0.46,0.22c-34.63,15.99-59.95,15.53-59.95,15.53
					c52.78-28.73,82.71-50.51,79.55-56.68c-3.16-6.18-45.29,17.11-71.77-16.04c-24.75-31.01-11.91-98.67-10.17-107.28
					C184.67,205.64,182.78,304.46,220.67,395.24z"/>
			</g>
			<g>
				
					<radialGradient id="SVGID_00000018933967381271007790000017847040611081055678_" cx="109.2969" cy="392.4919" r="259.8138" gradientUnits="userSpaceOnUse">
					<stop  offset="0" style="stop-color:#68C9D0"/>
					<stop  offset="0.1276" style="stop-color:#65C5CC"/>
					<stop  offset="0.2514" style="stop-color:#5ABCC2"/>
					<stop  offset="0.3736" style="stop-color:#45AEB3"/>
					<stop  offset="0.4942" style="stop-color:#199C9F"/>
					<stop  offset="0.5" style="stop-color:#149B9E"/>
					<stop  offset="0.5844" style="stop-color:#1998A2"/>
					<stop  offset="0.7254" style="stop-color:#258FAA"/>
					<stop  offset="0.9046" style="stop-color:#3280B5"/>
					<stop  offset="1" style="stop-color:#3777BC"/>
				</radialGradient>
				<circle style="fill:url(#SVGID_00000018933967381271007790000017847040611081055678_);" cx="266.91" cy="199.79" r="27.33"/>
			</g>
		</g>
	</g>
	<g>
		<path class="st22" d="M824.21,216.12H828v0.07c-0.36,0-0.65,0.16-0.86,0.48c-0.21,0.32-0.36,0.83-0.46,1.53
			c-0.09,0.7-0.14,1.65-0.14,2.84v2.81c0,0.93-0.21,1.73-0.63,2.39c-0.42,0.66-0.96,1.15-1.63,1.48c-0.67,0.33-1.37,0.5-2.09,0.5
			c-0.69,0-1.35-0.17-1.98-0.52c-0.63-0.35-1.14-0.81-1.53-1.39c-0.39-0.58-0.58-1.22-0.58-1.9v-7.29c0-0.28-0.04-0.49-0.12-0.62
			c-0.08-0.13-0.18-0.21-0.3-0.25c-0.12-0.04-0.29-0.06-0.5-0.06v-0.07h3.21v0.07c-0.31,0.01-0.53,0.07-0.67,0.18
			c-0.14,0.11-0.21,0.36-0.22,0.74v7.01c0,0.85,0.14,1.56,0.41,2.13s0.64,0.99,1.11,1.26c0.46,0.27,0.97,0.41,1.52,0.41
			c0.64,0,1.27-0.17,1.88-0.51c0.61-0.34,1.1-0.82,1.48-1.44s0.57-1.33,0.57-2.12v-2.81c0-1.25-0.06-2.22-0.19-2.9
			s-0.35-1.18-0.68-1.48c-0.33-0.31-0.79-0.46-1.4-0.46V216.12z"/>
		<path class="st22" d="M830.58,216.08c-0.42,0-0.8,0.08-1.13,0.24s-0.59,0.38-0.78,0.65s-0.29,0.58-0.29,0.92
			c0,0.36,0.11,0.72,0.32,1.06c0.23,0.4,0.56,0.75,0.98,1.05c0.42,0.3,0.99,0.65,1.71,1.06c0.74,0.42,1.32,0.79,1.75,1.1
			c0.43,0.31,0.8,0.7,1.1,1.16c0.3,0.46,0.46,1.01,0.46,1.63c0,0.65-0.17,1.22-0.51,1.7s-0.8,0.85-1.39,1.12
			c-0.59,0.27-1.25,0.41-2,0.44c-0.23,0.01-0.46,0-0.68-0.04s-0.49-0.08-0.82-0.15c-0.43-0.09-0.72-0.14-0.88-0.14
			c-0.35,0-0.6,0.15-0.74,0.45h-0.08l-0.56-4.65h0.07c0.24,1.65,0.69,2.82,1.33,3.5c0.64,0.68,1.43,1,2.37,0.95
			c1.1-0.06,1.89-0.31,2.35-0.76c0.47-0.45,0.7-0.97,0.7-1.55c0-0.15-0.01-0.29-0.04-0.43c-0.08-0.44-0.26-0.84-0.56-1.19
			c-0.3-0.35-0.64-0.67-1.02-0.93c-0.38-0.27-0.89-0.59-1.53-0.96c-0.58-0.34-1.05-0.63-1.41-0.88s-0.69-0.53-0.99-0.85
			c-0.3-0.32-0.52-0.66-0.67-1.04c-0.09-0.27-0.14-0.54-0.14-0.81c0-0.49,0.15-0.95,0.44-1.38c0.29-0.42,0.7-0.76,1.21-1.01
			c0.51-0.25,1.08-0.38,1.69-0.38c0.31,0,0.71,0.05,1.22,0.14c0.35,0.07,0.63,0.1,0.83,0.1c0.36,0,0.58-0.13,0.69-0.38h0.08
			l0.52,4.13h-0.07c-0.07-0.77-0.26-1.44-0.58-2.04c-0.32-0.59-0.74-1.05-1.25-1.37C831.76,216.24,831.2,216.08,830.58,216.08z"/>
		<path class="st22" d="M838.21,216.86c-0.1-0.2-0.19-0.33-0.25-0.41c-0.07-0.08-0.17-0.14-0.32-0.19s-0.37-0.07-0.66-0.07v-0.07
			h2.42l4.07,10.57c0.19,0.49,0.38,0.83,0.59,1.02c0.21,0.2,0.46,0.29,0.76,0.29v0.07h-3.28V228c0.24,0,0.42-0.04,0.52-0.11
			s0.16-0.19,0.16-0.34c0-0.12-0.04-0.28-0.11-0.48l-1.13-3.02c-0.07-0.19-0.31-0.39-0.71-0.6c-0.4-0.21-0.87-0.39-1.41-0.53
			c-0.54-0.14-1.04-0.21-1.48-0.21c-0.6,0-1,0.14-1.2,0.41c-0.29,0.84-0.51,1.53-0.65,2.06c-0.14,0.54-0.22,1-0.22,1.38
			c0,0.49,0.14,0.85,0.42,1.09c0.28,0.24,0.75,0.36,1.4,0.36v0.07h-3.61V228c0.29-0.01,0.54-0.12,0.74-0.34
			c0.21-0.22,0.38-0.49,0.52-0.81c0.14-0.32,0.32-0.79,0.53-1.39l0.13-0.38l-0.15,0.46L838.21,216.86z M836.28,222.77
			c0.31-0.07,0.66-0.11,1.05-0.11c0.45,0,0.87,0.04,1.27,0.13c0.4,0.09,0.82,0.2,1.25,0.34c0.36,0.11,0.59,0.17,0.69,0.17
			c0.09,0,0.12-0.06,0.08-0.17l-2.3-6.03l-0.06-0.17L836.28,222.77z"/>
	</g>
</g>
</svg>
