<?xml version="1.0" encoding="utf-8"?>
<!-- Generator: Adobe Illustrator 27.3.1, SVG Export Plug-In . SVG Version: 6.00 Build 0)  -->
<svg version="1.0" id="Layer_1" xmlns="http://www.w3.org/2000/svg" xmlns:xlink="http://www.w3.org/1999/xlink" x="0px" y="0px"
	 viewBox="0 0 780.5 524.1" style="enable-background:new 0 0 780.5 524.1;" xml:space="preserve">
<style type="text/css">
	.st0{fill:#DF6341;}
	.st1{fill:#F4B02B;}
	.st2{fill:none;stroke:#010101;stroke-width:0.75;stroke-linecap:round;stroke-linejoin:round;stroke-miterlimit:10;}
	.st3{fill:none;stroke:#AADCD8;stroke-width:0.75;stroke-linecap:round;stroke-linejoin:round;stroke-miterlimit:10;}
	.st4{fill:#AADCD8;}
	.st5{fill:#F8A789;}
	.st6{fill:#F18D73;}
	.st7{fill:#130E0E;}
	.st8{fill:#006BA8;}
	.st9{fill:#4BC0B3;}
	.st10{fill:none;stroke:#130E0E;stroke-width:0.75;stroke-linecap:round;stroke-linejoin:round;stroke-miterlimit:10;}
	.st11{clip-path:url(#SVGID_00000104679626269239011540000010351273253309720736_);fill:#130E0E;}
	.st12{fill:none;stroke:#010101;stroke-width:2;stroke-linecap:round;stroke-linejoin:round;stroke-miterlimit:10;}
	.st13{fill:none;stroke:#010101;stroke-linecap:round;stroke-linejoin:round;stroke-miterlimit:10;}
	.st14{fill:none;stroke:#010101;stroke-width:5;stroke-linejoin:round;stroke-miterlimit:10;}
	.st15{fill:#010101;}
	.st16{fill:none;stroke:#EBBAB9;stroke-width:7;stroke-linejoin:round;stroke-miterlimit:10;}
	.st17{fill:#EBBAB9;}
	.st18{fill:#3465AC;}
	.st19{clip-path:url(#SVGID_00000084491539339069523660000017066647112179444666_);fill:#010101;}
	.st20{fill:none;stroke:#1D1D1B;stroke-width:0.75;stroke-linecap:round;stroke-linejoin:round;stroke-miterlimit:10;}
	.st21{fill:none;stroke:#4BC0B3;stroke-width:3;stroke-linejoin:round;stroke-miterlimit:10;}
	.st22{clip-path:url(#SVGID_00000121982651428545260960000005074338799725642628_);fill:#130E0E;}
	.st23{fill:#5D3594;}
	.st24{fill:#1D1D1B;}
	.st25{fill:none;stroke:#130E0E;stroke-linecap:round;stroke-linejoin:round;stroke-miterlimit:10;}
	.st26{clip-path:url(#SVGID_00000008118486361153281480000000742808462006593210_);fill:#F4B02B;}
	.st27{clip-path:url(#SVGID_00000108280218518154487510000001906245787900453047_);fill:#F4B02B;}
	.st28{fill:#D47B62;}
	.st29{fill:none;stroke:#1B203E;stroke-width:0.75;stroke-linecap:round;stroke-linejoin:round;stroke-miterlimit:10;}
	.st30{fill:#009ABB;}
	.st31{clip-path:url(#SVGID_00000000938592818936508930000000621143017649293711_);fill:#010101;}
	.st32{clip-path:url(#SVGID_00000093167536519010559100000007026562743187863193_);fill:#010101;}
	.st33{clip-path:url(#SVGID_00000094611685058272725290000014915291447245003950_);fill:#010101;}
</style>
<g>
	<path class="st0" d="M561.7,170.7h19.4l15,61.4h0.3v-61.4h13.7v102.5h-15.9l-18.5-74.8h-0.3v74.8h-13.7V170.7z"/>
	<path class="st0" d="M490.9,287.6v-18c0-11.6-2.5-19.2-10.2-21.7v-0.3c1-0.4,1.8-0.9,2.7-1.5c5-3.4,7.4-9.7,7.4-18.8v-6.3
		c0-15.8-6.9-23.6-22.9-23.6h-22.9v102.5h15.4v-43.9h5.3c7,0,9.7,3.1,9.7,12.6v18.8c0,8.3,0.6,9.9,1.4,12.6h15.7
		C491.1,296.3,490.9,292.6,490.9,287.6z M466.1,241.5h-5.6v-29.3h7c5.5,0,7.9,3.2,7.9,10.5v7.9c0,1.3-0.1,2.5-0.3,3.5
		C474.2,239.6,470.9,241.5,466.1,241.5z"/>
	<path class="st1" d="M379.1,168.5H400L416,271h-15.4l-2.8-20.4v0.3h-17.5l-2.8,20.1h-14.3L379.1,168.5z M395.9,237l-6.9-50.7h-0.3
		L382,237H395.9z"/>
	<g>
		<g>
			<line class="st2" x1="86.6" y1="487.6" x2="221" y2="487.6"/>
			<line class="st2" x1="239.6" y1="453.1" x2="374" y2="453.1"/>
		</g>
		<g>
			<path class="st3" d="M657.5,241.6c1.7,14,3.1,28,3.4,42.1c0.5,20.8-1.6,41.7-5.9,61.9c-10.6,49.5-33.6,98-65,137.6"/>
			<path class="st4" d="M654.3,232c0.4-1,0.9-2.1,1.4-3.1c0.1-0.2,3.8,3.6,4.1,4c1.2,1.5,2.4,3.5,3,5.4c1.2,4.3-0.5,9.8-1.8,13.9
				c-1.2,3.9-4.3,0.8-5.7-1c-1.9-2.6-2.9-5.9-3-9.3C652.2,238.6,653.1,235.2,654.3,232z"/>
			<path class="st4" d="M674.5,257.1c1.3-0.7,2.5-1.3,3.8-2c-0.8,4.7-1.4,9.7-4.2,13.6c-1.7,2.3-8.4,9.4-11,5.9
				c-3.8-5.1,2.7-11.6,6.2-14.3C671,259.1,672.7,258,674.5,257.1z"/>
			<path class="st4" d="M678.8,282.8c1.2-0.1,2.4-0.2,3.5-0.3c0.8,0-1.7,5.6-1.9,6.1c-1.1,2.1-2.3,4.2-3.8,6
				c-2.3,2.9-5.5,5.5-9.1,5.1c-1.4-0.2-2.8-0.9-3.5-2.3c-0.5-1-0.4-2.3-0.2-3.4c0.7-3.6,3.3-6.6,6.3-8.4
				C672.8,283.9,675.8,283.1,678.8,282.8z"/>
			<path class="st4" d="M679.8,311.8c1.1,0.1,2.2,0.2,3.3,0.3c-0.1,0-1.5,3.2-1.7,3.5c-0.8,1.3-1.8,2.4-3,3.4
				c-2.3,2.1-5.1,3.5-8,4.4c-2,0.6-6.4,1.6-7.8-0.6c-1-1.5-1-3.7-0.3-5.3c0.9-1.8,2.4-3,4.1-3.9
				C670.6,311.5,675.3,311.4,679.8,311.8z"/>
			<path class="st4" d="M676.9,338.8c1.1,0.4,2.2,0.8,3.2,1.3c-3.6,6.1-9.1,9.6-15.8,9.6c-1.5,0-3-0.2-4.2-1c-3-1.9-2.9-5.9-0.6-8.4
				c2.7-2.8,6.7-3.3,10.4-3C672.2,337.6,674.6,338.1,676.9,338.8z"/>
			<path class="st4" d="M647.9,257.5c-1-0.6-2.4-1.4-2.4-1.6c-0.1,3-0.4,6-0.3,9.1c0.1,3,0.6,6.1,2.1,8.6c1.5,2.5,4,4.4,6.8,4.4
				c4.7-0.1,4.1-6.2,2.9-9.6c-1-2.7-3.2-5.4-5.1-7.4c-1-1-2-2-3.2-2.9C648.7,258,648.3,257.8,647.9,257.5z"/>
			<path class="st4" d="M643.6,283c-0.6-0.2-1.2-0.4-1.9-0.5c0.3,3.1,0.5,6.2,1.4,9.1c0.9,2.9,2.4,5.7,4.7,7.5c1.8,1.4,6,2.7,8,1
				c1.3-1.1,1.2-3.8,0.9-5.4c-0.4-2.3-1.5-4.4-3.1-6c-2.4-2.5-5.5-3.9-8.6-5.2C644.7,283.4,644.2,283.2,643.6,283z"/>
			<path class="st4" d="M639.1,310.5c0.6,2.1,1.3,4.3,2.2,6.3c1.4,3.1,3.5,6,6.4,7.3c1.7,0.8,3.8,0.8,5.6,0.1c1.7-0.7,3.4-2,3.2-4.2
				c-0.2-2.3-1.7-4.5-3.2-5.9c-1.6-1.6-3.6-2.7-5.6-3.7c-3.1-1.5-6.3-2.6-9.6-3.4C638.4,308.2,638.8,309.3,639.1,310.5z"/>
			<path class="st4" d="M647,345.1c3.6,0.2,7-0.4,5.9-5.4c-0.8-3.9-4.2-6.8-7.4-8.1c-4.1-1.7-8.6-1.5-13-1.3c1,2.7,2,5.5,3.5,8
				c1.5,2.5,3.5,4.6,6,5.7C643.6,344.8,645.3,345,647,345.1z"/>
			<path class="st3" d="M654.5,272.7c1.9,4.1,4,8,6.5,11.8"/>
			<path class="st3" d="M653.1,296.6c2,3.2,5.4,5.1,7.4,8.2"/>
			<path class="st3" d="M658.7,323.9c-3.3-2.9-6.9-5.9-11.1-6.7"/>
			<path class="st3" d="M654.9,346.7c-0.7-1.1-1-2.3-1.8-3.3c-0.4-0.5-1-1-1.5-1.4c-0.7-0.6-1.4-1.1-2.3-1.4"/>
			<path class="st3" d="M658.6,323.7c1.1-0.8,2.2-1.5,3.4-2.1c0.1-0.1,0.2-0.1,0.3-0.1c0.4,0,0.6,0.3,0.8,0.6"/>
			<path class="st3" d="M659.7,343.6c-1,0.4-2,0.9-2.9,1.4c-0.6,0.3-1.3,0.7-1.7,1.3"/>
			<path class="st3" d="M667.2,296.9c-2.5,2-4.7,4.5-6.5,7.4"/>
			<path class="st3" d="M660.7,281.3c0.6-3.8,2.1-7.5,4.4-10.5"/>
		</g>
		<path class="st4" d="M411.7,414.4c0.9,1.6,2,3.1,3.1,4.6c1.2,1.6,2.4,3.1,3.8,4.6c2.4,2.8,5.1,5.5,7.9,7.9
			c-0.6,1.8-1.2,3.6-1.7,5.4c-1.2-2.3-2.7-4.5-4.3-6.5c-1.7-1.9-3.6-3.7-5.9-4.8c-0.8-0.4-2.2-1.3-2.9-0.2c-0.6,1,0.3,2.2,0.8,2.9
			c2.9,4.4,7,8,11.8,10.4c-0.2,0.7-0.4,1.3-0.6,2c-1.7,6.5-3.1,13.1-3.5,19.8h1.2c0-0.1,0-0.3,0-0.4c0.6-6.9,1.9-13.7,3.8-20.4
			c3.8,1.5,7.7,2.5,11.7,3c3.1,0.4,6.4,0.6,9.3-0.7c1.2-0.6,2.6-1.7,1.7-3.2c-0.8-1.3-2.4-2.1-3.7-2.6c-3.1-1.1-6.6-0.9-9.9-0.6
			c-3,0.4-5.9,1-8.6,2.5c0.6-2.1,1.2-4.1,1.9-6.1c2.4,0,4.9-0.1,7.3,0c2.5,0.1,4.9,0.4,7.3,0.7c3.4,0.5,7.2,1.7,10.5,0.3
			c0.7-0.3,1.6-0.7,1.8-1.5c0.2-0.8-0.5-1.6-1.1-2.1c-1.4-1.3-3.3-2.1-5.2-2.3c-2.1-0.3-4.2-0.1-6.3,0c-1.8,0.1-3.6,0.3-5.4,0.6
			c-1.7,0.3-3.5,0.7-5.1,1.3c-0.8,0.3-1.6,0.7-2.4,1.1c-0.3,0.2-0.7,0.4-1,0.7c0.9-2.6,1.8-5.1,2.8-7.6c5.7,0.5,11.3,0.9,17,1.4
			c2.6,0.2,5.1,0.4,7.7,0.6c1.9,0.2,4,0.3,5.8-0.3c1.7-0.5,3.7-1.9,2.9-3.9c-0.8-2-3.2-2.8-5.1-3.1c-2.4-0.4-4.8-0.1-7.2,0
			c-2.4,0.2-4.7,0.5-7,0.8c-4.5,0.7-9,1.7-13.5,2.9c0.5-1.2,1-2.4,1.5-3.6c0.3-0.6,0.5-1.2,0.8-1.7c1.1-0.2,2.2-0.5,3.3-0.7
			c1.2-0.2,2.4-0.2,3.6-0.3c2.5,0,4.9,0.1,7.4,0.3c4.3,0.3,8.7,0.7,13-0.1c1.1-0.2,2.1-0.4,3.1-0.8c1-0.3,2-0.9,2.5-1.8
			c1-2-0.9-3.7-2.6-4.2c-1.2-0.3-2.5-0.3-3.7-0.2c-1.3,0.1-2.5,0.2-3.8,0.4c-2.6,0.4-5.1,1-7.6,1.6c-4.4,1.2-8.7,2.5-13,4
			c-0.6,0.1-1.2,0.2-1.8,0.4c0-0.1,0.1-0.2,0.1-0.2c0.2-0.1,0.3-0.3,0.2-0.5c0,0,0,0,0-0.1c0,0,0,0,0,0c0,0,0,0,0,0
			c1.3-2.7,2.6-5.4,4-8c5,0.1,10,0.6,15.1,0.6c2.3,0,4.5-0.1,6.8-0.4c2-0.3,4.3-0.5,6.1-1.7c1.4-0.9,2.4-2.6,2-4.3
			c-0.5-2.2-2.8-2.5-4.7-2.5c-2.3,0-4.6,0.3-6.9,0.7c-2.2,0.4-4.4,0.9-6.5,1.5c-2.1,0.6-4.2,1.4-6.2,2.2c-1,0.4-2,0.9-3,1.4
			c-0.6,0.3-1.2,0.7-1.8,1c1-1.9,2.1-3.8,3.2-5.6c0.2-0.3,0.3-0.5,0.5-0.8c4.9-0.9,9.9-1.1,14.9-1.4c2.3-0.1,4.6-0.3,6.9-0.7
			c1.9-0.3,3.9-0.7,5.5-1.8c1.5-1,3.1-2.9,2.4-4.8c-0.7-1.9-3.2-2.2-4.9-2.2c-2.3-0.1-4.7,0.4-6.9,0.9c-2.1,0.5-4.2,1.2-6.2,2
			c-3.5,1.3-6.9,3.1-9.9,5.3c1.4-2.2,2.8-4.3,4.3-6.4c4.6-1.6,9.2-2.8,13.9-3.8c2.1-0.4,4.3-0.8,6.4-1.1c1.1-0.2,2.2-0.3,3.2-0.4
			c0.9-0.1,1.8-0.2,2.7-0.6c1.6-0.8,2.2-2.8,0.8-4.1c-1.6-1.4-3.9-1.2-5.8-0.9c-6.7,1.2-13.2,3.7-18.9,7.6c1-1.4,2-2.7,3-4
			c0.2-0.3,0.5-0.6,0.7-0.9c4.3-1.5,8.6-3,12.8-4.5c2.2-0.8,4.5-1.6,6.7-2.3c1.6-0.6,3.4-1.3,4.3-3c0.1-0.2,0.1-0.4-0.1-0.5
			c-1.3-1.1-3.1-1.1-4.7-0.5c-1.6,0.6-3,1.5-4.5,2.3c-1.7,0.9-3.3,1.8-5,2.7c-2.8,1.5-5.5,3.1-8.3,4.6c-0.1,0-0.2,0.1-0.3,0.1
			c0.3-0.4,0.6-0.8,1-1.2c0.1-0.1,0.2-0.2,0.3-0.3c0.1-0.1,0.1-0.2,0.1-0.2c0.4-0.5,0.8-0.9,1.1-1.4c0.1,0.1,0.2,0.1,0.3,0.1
			c3.4-1.9,6.8-3.9,9.8-6.4c2.7-2.1,5.3-4.6,7.1-7.6c0.8-1.4,1.3-3.1,0.4-4.5c-0.9-1.3-2.7-1.5-4-0.7c-1.5,0.8-2.5,2.4-3.6,3.7
			c-1.2,1.5-2.5,3.1-3.7,4.7c-2.2,2.9-4.3,6-6.4,9c1.1-3.3,1.8-6.7,2.2-10.1c0.4-3.3,0.5-6.6-0.2-9.9c-0.2-1.2-1.1-2.7-2.6-2.3
			c-0.6,0.2-1,0.8-1.3,1.3c-0.4,0.8-0.6,1.6-0.8,2.4c-0.3,1.7-0.4,3.5-0.5,5.2c-0.1,1.7-0.1,3.5-0.1,5.2c0.1,2,0.2,4,0.4,5.9
			c-0.3-1.4-0.7-2.8-1.2-4.1c-0.8-2.5-1.5-5.2-3.3-7.2c-0.6-0.6-1.7-1.9-2.7-1.5c-0.6,0.3-0.5,0.9-0.4,1.4c0.1,0.8,0.3,1.5,0.4,2.2
			c0.6,2.8,1.4,5.6,2.5,8.3c0.5,1.4,1.1,2.7,1.8,4c0.6,1.2,1.2,2.4,1.9,3.5c-0.8,0.8-1.6,1.6-2.3,2.5c-0.7,0.8-1.4,1.7-2.2,2.5
			c-0.2-3.4-0.7-6.8-1.5-10.2c-0.7-3-1.4-6.1-3.4-8.5c-0.4-0.5-0.9-1.1-1.6-1.2c-0.6-0.1-1.1,0.2-1.3,0.7c-0.3,0.6-0.2,1.3-0.1,2
			c0.1,0.8,0.2,1.7,0.3,2.5c1,5.9,3.3,11.5,5.8,16.9c-0.9,1.2-1.7,2.3-2.5,3.5c-0.6,0.8-1.1,1.7-1.6,2.5c0.2-2.7,0-5.4-0.4-8.1
			c-0.3-1.7-0.7-3.4-1.2-5.1c-0.5-1.5-1-3-1.9-4.4c-0.7-1.1-1.7-2.6-3.1-2.7c-1.7-0.2-1.9,1.7-1.8,3c0.2,1.8,0.9,3.6,1.5,5.4
			c0.6,1.9,1.2,3.9,1.7,5.8c0.6,1.9,1.1,3.8,1.7,5.7c0.4,1.4,0.8,2.9,1.3,4.4c-0.2,0.4-0.4,0.8-0.6,1.2c0,0,0,0,0,0
			c-0.3,0.1-0.4,0.4-0.4,0.6c-0.4,0.5-0.8,1-1.1,1.6c-0.1-3-0.4-6.1-1.1-9.1c-0.7-3-1.7-6-3.3-8.6c-0.7-1.1-1.7-2.8-3.2-2.3
			c-1.4,0.5-1.8,2.1-1.5,3.4c0.3,1.7,1,3.5,1.5,5.1c0.6,1.6,1.2,3.3,1.8,4.9c1.3,3.1,2.7,6.1,4.3,9c-0.4,0.7-0.8,1.5-1.2,2.3
			c-1.1,2-2,4.2-2.8,6.3c-1.1-4.2-1.9-8.6-3-12.8c-0.5-2-1.1-3.9-1.8-5.8c-0.7-1.9-1.4-3.9-2.5-5.6c-0.5-0.7-1.1-1.5-2-1.4
			c-0.8,0-1.4,0.7-1.6,1.4c-0.3,1-0.2,2.1-0.2,3.1c0,1,0.1,2.1,0.3,3.1c0.6,4.2,2.1,8.3,3.7,12.2c1.4,3.5,3.2,6.8,5.8,9.5
			c-0.9,1.9-1.7,3.8-2.5,5.7c-0.1,0.2-0.2,0.4-0.2,0.6c-1.2-1.7-2.1-3.6-3-5.5c-0.9-1.9-1.7-3.9-2.4-5.8c-0.7-1.7-1.4-3.5-2.2-5.1
			c-0.4-0.8-0.8-1.7-1.3-2.5c-0.5-0.8-0.9-1.5-1.6-2.1c-0.5-0.5-1.2-0.8-1.9-0.6c-0.7,0.2-1.1,0.8-1.3,1.5c-0.2,0.8,0,1.7,0.2,2.5
			c0.2,0.9,0.4,1.7,0.6,2.5c2,6.7,6.4,12.6,12.3,16.4c0.1,0,0.1,0.1,0.2,0.1c-1.1,2.8-2.2,5.6-3.2,8.5c-1.5-3.9-3.1-7.7-5.1-11.4
			c-1.7-3.1-3.8-6.4-6.6-8.6c-1-0.8-3.4-2.1-4.3-0.6c-0.4,0.6-0.3,1.5-0.1,2.2C410.9,412.8,411.3,413.6,411.7,414.4z"/>
		<path class="st4" d="M51.7,333.8c0.6,0.5,1.4,0.8,2.2,1c2.5,0.7,5.2,1,7.9,1.1c2.8,0.1,5.7,0.1,8.5,0c0.9,0,1.1,0.1,1.5,0.8
			c0.4,0.8,0.8,1.8,1.1,2.6c0.8,1.9,1.6,3.8,2.4,5.7c-0.2-0.4-1.4-1-1.8-1.3c-0.6-0.4-1.2-0.9-1.9-1.3c-1.3-0.7-2.5-1.5-3.8-2
			c-1.3-0.6-2.8-0.8-4.2-1.2c-3.2-0.7-6.4-1.3-9.6-1.6c-1-0.1-2.2-0.1-2.8,0.6c-0.6,0.7-0.5,1.8,0.2,2.3c0.5,0.4,1.3,0.4,2,0.5
			c3,0.1,6,0.3,8.8,1.2c2.2,0.7,4.2,1.6,6.3,2.5c1.3,0.5,2.6,1,3.9,1.3c0.8,0.2,1.9,0.5,2.8,0.2c0.2,0.1,0.4,0.1,0.6-0.1
			c0.6,1.6,1.2,3.1,1.8,4.7c0.6,1.7,1.2,3.4,1.8,5.1c0,0-0.1-0.1-0.1-0.1c-3.7-2.7-7.2-5.7-11.1-8.2c-3.8-2.4-8.7-5-13.3-4.3
			c-0.9,0.1-1.7,0.4-2.3,1.1c-0.8,0.9-0.6,2.3,0.4,2.8c1.4,0.8,3,1.2,4.7,1.3c0.9,0,1.8,0,2.6,0.1c1.6,0.3,2.9,1.2,4.3,2.1
			c1.4,0.9,2.9,1.7,4.5,2.4c1.7,0.8,3.4,1.5,5.2,2.1c1.3,0.4,2.7,0.7,4,1c0.1,0.1,0.3,0.2,0.4,0.3c0.3,0.2,0.5,0.1,0.7-0.1
			c0.1,0,0.1,0,0.2,0c0.7,1.9,1.3,3.9,1.9,5.8c-3.2-1.7-6.4-3.5-9.4-5.4c-2.6-1.7-5.3-3.9-8.3-4.8c-1-0.3-3.3-0.8-3.3,0.9
			c0,1.5,1.6,2.7,2.7,3.5c2.6,1.9,5.6,3.5,8.6,4.7c1.7,0.7,3.4,1.2,5.2,1.7c0.9,0.2,1.9,0.4,2.8,0.5c0.7,0.1,1.4,0.1,2.2,0.1
			c0.7,2.2,1.3,4.3,1.9,6.5c-1.3-0.8-2.6-1.5-4-2.3c-1.7-1-3.5-2-5.2-3c-2.8-1.6-5.6-3.6-8.8-4.2c-1.3-0.3-3.2-0.4-4.2,0.6
			c-1,0.9-0.6,2.3,0.2,3.2c0.6,0.6,1.3,0.9,2,1.1c0.9,0.4,1.9,0.7,2.8,1c1.8,0.6,3.6,1.3,5.5,1.9c4,1.3,8.1,2.5,12.2,3.5
			c0.5,2.1,1,4.1,1.5,6.2c-0.1,0-0.1,0.1-0.2,0.2c0,0,0,0-0.1,0c-1.1-0.9-2.4-1.6-3.6-2.4c-1.4-0.9-2.9-1.6-4.4-2.3
			c-3.1-1.5-6.3-2.7-9.5-3.6c-1.3-0.3-2.8-0.6-3.8,0.5c-1,0.9-0.8,2.3,0.3,3.1c0.6,0.4,1.3,0.7,2,0.9c0.9,0.3,1.8,0.6,2.7,0.9
			c1.6,0.5,3.3,1,4.9,1.4c3.7,1,7.5,1.7,11.3,2.2c0,0,0,0,0,0c0.1,0.1,0.2,0.2,0.3,0.2c0.1,0.1,0.2,0.1,0.3,0.2c0,0,0,0,0,0
			c0.2,0.9,0.4,1.9,0.6,2.8c0.2,1.1,0.4,2.1,0.6,3.2c-2.5-1.7-5.3-3.2-8.1-4.4c-3.4-1.5-6.9-2.6-10.5-3.4c-1.5-0.3-3.6-0.8-5.1,0
			c-1.2,0.7-1.2,2.4,0.1,3c0.8,0.3,1.7,0.6,2.5,0.8c1,0.3,2.1,0.6,3.1,0.9c1.9,0.5,3.7,1.1,5.6,1.5c4.2,1.1,8.4,2,12.6,2.7
			c0.5,2.9,1,5.7,1.4,8.6c-0.4-0.1-0.9-0.2-1.3-0.2c-1.4-0.6-2.8-1.1-4.2-1.6c-2.1-0.8-4.1-1.6-6.2-2.3c-2.1-0.8-4.2-1.6-6.3-2.4
			c-1-0.4-2.1-0.8-3.1-1.2c-0.9-0.3-1.8-0.8-2.7-0.9c-1.3-0.2-2.9,0.6-2.7,2.1c0.2,1.6,2.4,2.3,3.6,2.8c3.4,1.5,6.9,2.6,10.5,3.3
			c2.1,0.4,4.1,0.7,6.2,0.9c1.1,0.1,2.1,0.1,3.2,0.2c0.5,0,1.1,0,1.6,0c0.5,0.2,1,0.3,1.5,0.4c0.4,2.5,0.7,5.1,0.9,7.6
			c-1.9-0.6-3.7-1.2-5.5-1.9c-2-0.8-3.9-1.6-5.8-2.5c-3.5-1.5-7.2-2.9-11.1-3.3c-0.9-0.1-1.9-0.1-2.8-0.1c-0.7,0-1.4,0.2-1.9,0.7
			c-1.3,1.4,1.4,2.8,2.4,3.3c1.8,1,3.9,1.6,5.8,2.2c1.9,0.6,3.8,1.1,5.8,1.5c4.4,0.9,8.8,1.4,13.3,1.5c0.2,1.7,0.3,3.3,0.4,5
			c-0.7-0.3-1.4-0.5-2.2-0.7c-0.9-0.3-1.9-0.5-2.8-0.8c-1.7-0.5-3.5-1-5.2-1.5c-1.7-0.5-3.5-1-5.2-1.5c-0.8-0.2-1.7-0.5-2.5-0.7
			c-0.8-0.2-1.5-0.5-2.3-0.5c-1.1,0-2.3,0.7-2.3,1.9c-0.1,1.3,1.4,2.2,2.5,2.7c1.4,0.6,3,0.8,4.6,1c1.6,0.2,3.2,0.4,4.8,0.5
			c3.6,0.3,7.1,0.3,10.7,0.3c0.1,1.2,0.2,2.4,0.2,3.6c0,0.8,0.1,1.6,0.1,2.4c-4.6-0.8-8.8-3.4-13.6-3.9c-1.2-0.1-2.5-0.1-3.7,0.2
			c-1.1,0.3-2.3,1.2-2,2.5c0.2,1.4,2,1.7,3.2,1.8c1.6,0.2,3.3,0.2,4.9,0.2c3.8,0.1,7.5,0.1,11.3,0.2c0.1,2.7,0.1,5.3,0.2,8
			c-0.2,0-0.4,0-0.6,0c-2.6-1.6-5.4-2.8-8.3-3.7c-3.2-1.1-6.7-2-10.1-2.1c-1.5-0.1-3.1,0.1-4.2,1.2c-1.1,1-0.7,2.4,0.5,3.2
			c0.6,0.4,1.3,0.5,2,0.6c1,0.2,2,0.3,3,0.4c2,0.3,3.9,0.6,5.9,0.8c2,0.3,4.1,0.6,6.1,0.6c1.8,0,3.7-0.4,5.5-0.2c0,0,0.1,0,0.1,0
			c0,2.2,0,4.4,0,6.6c-0.6-0.1-1.1-0.1-1.7-0.2c-3.1-0.8-6.2-1.6-9.3-2.4c-1.9-0.5-3.7-1-5.6-1.4c-1.3-0.3-2.7-0.6-4-0.2
			c-1,0.3-2.2,1.3-1.9,2.5c0.4,1.3,2.4,1.6,3.6,1.8c2.9,0.6,6,0.6,8.9,0.6c3.3,0,6.5-0.1,9.8,0.2c0,0,0,0,0,0c0,4,0,8,0,12
			c0.1,4.6,0.3,9.4,1,14h1.4c-0.5-3.6-0.8-7.2-1-10.9c-0.2-5.2-0.2-10.4-0.1-15.5c3.5-1.1,6.8-2.3,10.1-3.8c1.7-0.8,3.3-1.6,4.9-2.4
			c1.6-0.8,3.1-1.7,4.6-2.7c0.7-0.5,1.3-1.1,1.9-1.7c0.4-0.4,0.9-1,0.8-1.6c-0.3-1.5-2-1.1-3-0.7c-3.4,1.4-6.7,3-9.8,4.9
			c-1.8,1.1-3.6,2.2-5.3,3.5c-1.4,1.1-3,2.1-4.2,3.5c0-1.9,0-3.8,0-5.7c0.1,0,0.1,0,0.2,0c4.7-2.1,9.3-4.7,13.7-7.4
			c4.4-2.7,8.8-5.5,12.6-9c0.9-0.8,1.8-1.7,2.6-2.7c0.6-0.7,1.7-1.6,1.8-2.6c0.4-2.4-4.1-0.1-4.8,0.4c-2.1,1.2-4.1,2.7-6,4.2
			c-2.1,1.6-4.1,3.4-6.1,5.1c-2.2,1.9-4.5,3.8-6.8,5.6c-2.3,1.8-4.9,3.3-7.3,5c0-2.5-0.1-5-0.2-7.6c0-0.1,0-0.2,0-0.3c0,0,0,0,0-0.1
			c1.8-0.4,3.4-1.3,4.9-2.3c2.1-1.3,4.2-2.4,6.4-3.4c2.1-1,4.2-2.1,6.2-3.4c1.6-1,3.7-2.4,4.2-4.3c0-0.2-0.2-0.5-0.4-0.5
			c-3.9-0.1-7.2,2.1-10.3,4.2c-3.7,2.6-7.5,5.2-11.1,8c-0.1-1.7-0.2-3.4-0.3-5.1c3.5-1.8,7-3.6,10.4-5.5c1.8-0.9,3.5-1.8,5.3-2.8
			c1.6-0.8,3.2-1.7,4.6-2.9c0.6-0.5,1.2-1.1,1.8-1.7c0.5-0.5,1.1-1.1,1-1.9c0-1.7-2.4-0.6-3.2-0.2c-3.4,1.5-6.5,3.8-9.5,5.9
			c-1.8,1.3-3.6,2.6-5.4,3.9c-1.7,1.3-3.6,2.5-5.2,4c-0.1-1.5-0.3-3.1-0.4-4.6c4-2.4,8.1-4.7,12.1-7.1c4.1-2.4,8.3-4.7,12.2-7.4
			c0.9-0.6,1.7-1.2,2.4-2c0.5-0.6,1.3-1.5,1.1-2.3c-0.2-0.8-1.2-0.7-1.9-0.6c-1,0.2-2,0.6-2.9,1c-4.2,2-8.2,4.5-12,7.2
			c-2.1,1.5-4.2,3.2-6.2,4.9c-1.7,1.5-3.5,3.1-5,4.9c-0.3-2.6-0.6-5.1-1-7.7c6.5-3.7,12.7-8,18.2-13.1c0.7-0.6,1.9-1.7,1.4-2.8
			c-0.6-1.2-2.1-0.7-3-0.3c-3.3,1.5-6.1,4.2-8.7,6.6c-1.5,1.4-3,2.9-4.5,4.4c-1.2,1.3-2.5,2.6-3.6,4.1c-0.4-2.7-0.9-5.4-1.4-8.1
			c0.1-0.1,0.2-0.3,0-0.4c3.5-2.2,7-4.5,10.4-7c3.3-2.4,6.6-4.9,9.5-7.8c0.6-0.6,1.3-1.3,1.8-2.1c0.3-0.5,0.7-1.2,0.3-1.8
			c-0.8-1.5-2.8-0.2-3.8,0.4c-3.6,2.1-6.8,4.7-9.7,7.5c-3.1,3-6,6.3-8.8,9.5c-0.5-2.3-0.9-4.6-1.5-6.9c3.5-2.7,6.9-5.5,10.2-8.4
			c1.8-1.6,3.6-3.2,5.3-4.9c1.3-1.3,2.6-2.6,3.7-4c0.9-1.2,3.4-5.3,0.3-5.3c-1.6,0-4.3,2.9-5.4,4c-1.7,1.7-3.3,3.5-4.8,5.4
			c-3.3,3.9-6.4,7.9-9.3,12c-0.1,0.1-0.2,0.1-0.3,0.2c-0.5-2-1-4-1.5-6c3-3.6,6.2-6.9,9.6-10c1.7-1.6,3.4-3.1,5.1-4.7
			c1.5-1.3,3-2.6,4.2-4.1c0.6-0.7,1.1-1.6,1.4-2.5c0.3-0.7,0.6-1.6,0-2.2c-1.1-1.2-3-0.4-4.1,0.4c-1.6,1.2-2.9,2.8-4.1,4.2
			c-1.4,1.6-2.8,3.3-4.2,5.1c-2.9,3.7-5.4,7.6-7.6,11.8c-0.2,0.2-0.4,0.5-0.6,0.8c-0.8-3-1.7-5.9-2.6-8.9c2.9-2.9,5.7-5.8,8.4-8.8
			c2.4-2.7,5-5.4,6.8-8.6c0.4-0.7,0.8-1.5,1.1-2.3c0.3-0.7,0.6-1.7,0.5-2.5c-0.1-1.5-1.8-1.3-2.7-0.6c-1.5,1.1-2.8,2.7-3.9,4.2
			c-1.2,1.6-2.3,3.4-3.4,5.1c-1.3,2-2.6,4-3.8,6c-0.7,1-1.3,2.1-2,3.1c-0.6,0.9-1.1,1.8-1.6,2.7c-0.5-1.4-0.9-2.8-1.4-4.2
			c1-1.7,2.2-3.2,3.2-4.9c1.1-1.6,2.1-3.3,3.2-5c2-3.4,3.8-6.9,5.5-10.4c0.5-1,1.6-3,0.2-3.8c-1.3-0.7-2.4,0.9-3.1,1.7
			c-2.2,2.9-4,6.2-5.5,9.6c-1.6,3.7-2.9,7.5-4.1,11.4c-1.1-3.1-2.3-6.2-3.6-9.2c1-1,1.8-2.2,2.5-3.5c0.9-1.5,1.7-3.1,2.6-4.6
			c0.8-1.5,1.7-3,2.6-4.5c0.7-1.2,1.5-2.5,1.9-3.9c0.3-1.1,0.6-2.4-0.4-3.3c-1-0.9-2.1-0.2-2.9,0.6c-2.1,2.1-3.1,5.2-4,7.9
			c-1.1,3.2-2.1,6.4-2.8,9.8c-0.7-1.7-1.5-3.5-2.3-5.2c-0.5-1.1-1.5-2.5-1.2-3.7c0.2-0.8,0.5-1.6,0.8-2.4c0.6-1.6,1.4-3,2.2-4.5
			c1.6-2.9,3.2-6,3.3-9.3c0.1-1.2,0.1-3-0.9-3.8c-1.1-0.8-2.6-0.1-3.4,0.7c-1.1,1.1-1.6,2.7-2,4.1c-0.4,1.5-0.8,3-1,4.5
			c-0.3,1.7-0.5,3.4-0.5,5.1c0,1.1-0.1,2.3,0.1,3.4c-0.1-0.3-0.2-0.5-0.4-0.8c-0.3-1.4-0.7-2.8-1.2-4.2c-0.5-1.7-1.1-3.4-1.7-5.1
			c-0.6-1.7-1.4-3.4-2.1-5.1c-0.7-1.6-1.4-3.4-2.4-4.8c-0.7-1.1-2-2-3.3-1.6c-1.4,0.4-1.7,1.9-1.5,3.1c0.4,3.3,2.2,6.3,4.1,8.9
			c1.9,2.7,4.1,5.2,6.1,7.8c-0.5-0.3-0.9-0.7-1.4-1c-1.3-1-2.7-1.9-4-2.9c-1.4-0.9-2.7-1.9-4.1-2.8c-0.6-0.4-1.3-0.9-1.9-1.3
			c-0.6-0.4-1.2-0.9-1.8-1c-1.2-0.2-2.3,0.6-2.1,1.9c0.2,1.3,1.2,2.4,2.1,3.3c2.1,2,4.9,3,7.6,3.8c2.9,0.9,7.3,1.7,8.7,4.7
			c-0.1-0.2-3.6-0.8-4-0.9c-2.1-0.5-4.2-1-6.3-1.6c-2.2-0.6-4.3-1.6-6.6-2.1c-1-0.2-2.2-0.2-2.9,0.5
			C50.2,331.7,50.9,333.1,51.7,333.8z"/>
		<path class="st4" d="M645.1,424.2c1.1,2,2.5,3.9,3.9,5.8c1.5,2,3.1,3.9,4.7,5.8c3.1,3.5,6.3,6.9,9.9,9.9c-0.8,2.3-1.5,4.5-2.1,6.8
			c-1.5-2.9-3.3-5.7-5.5-8.1c-2.1-2.4-4.5-4.6-7.4-6.1c-1-0.5-2.8-1.6-3.6-0.3c-0.7,1.2,0.4,2.7,1,3.7c3.7,5.5,8.8,10,14.8,13
			c-0.2,0.8-0.5,1.7-0.7,2.5c-2.2,8.1-3.8,16.5-4.4,24.9h1.5c0-0.2,0-0.3,0-0.5c0.8-8.7,2.4-17.2,4.8-25.6c4.7,1.8,9.6,3.1,14.6,3.8
			c3.9,0.5,8,0.8,11.7-0.9c1.6-0.7,3.3-2.2,2.1-4c-1-1.6-3-2.7-4.7-3.3c-3.9-1.4-8.3-1.2-12.4-0.7c-3.7,0.4-7.5,1.3-10.7,3.1
			c0.7-2.6,1.6-5.2,2.4-7.7c3.1,0,6.1-0.2,9.2,0c3.1,0.1,6.1,0.4,9.2,0.9c4.3,0.6,9,2.1,13.2,0.4c0.8-0.3,2-0.9,2.2-1.9
			c0.2-1.1-0.7-2-1.4-2.7c-1.8-1.7-4.1-2.6-6.5-2.9c-2.6-0.4-5.3-0.2-7.9,0c-2.3,0.2-4.6,0.4-6.8,0.7c-2.2,0.3-4.4,0.9-6.4,1.6
			c-1,0.4-2,0.8-3,1.4c-0.4,0.3-0.8,0.5-1.2,0.8c1.1-3.2,2.3-6.4,3.6-9.6c7.1,0.6,14.2,1.2,21.4,1.8c3.2,0.3,6.4,0.5,9.6,0.8
			c2.4,0.2,5,0.4,7.3-0.3c2.1-0.7,4.6-2.4,3.6-4.9c-1-2.5-4-3.5-6.4-3.9c-2.9-0.4-6-0.2-9,0c-3,0.2-5.9,0.6-8.8,1
			c-5.7,0.9-11.3,2.1-16.9,3.6c0.6-1.5,1.3-3.1,1.9-4.6c0.3-0.7,0.7-1.5,1-2.2c1.4-0.3,2.8-0.6,4.2-0.8c1.5-0.2,3-0.3,4.5-0.3
			c3.1-0.1,6.2,0.2,9.3,0.4c5.4,0.4,11,0.9,16.4-0.1c1.3-0.2,2.6-0.6,3.9-1c1.2-0.4,2.6-1.1,3.2-2.3c1.3-2.4-1.1-4.6-3.3-5.2
			c-1.5-0.4-3.1-0.4-4.7-0.3c-1.6,0.1-3.2,0.3-4.7,0.5c-3.2,0.5-6.4,1.2-9.5,2.1c-5.5,1.5-10.9,3.1-16.3,5c-0.7,0.1-1.5,0.3-2.2,0.5
			c0-0.1,0.1-0.2,0.1-0.3c0.2-0.1,0.3-0.4,0.3-0.6c0,0,0,0,0-0.1c0,0,0,0,0,0c0,0,0,0,0,0c1.6-3.4,3.3-6.7,5-10.1
			c6.3,0.1,12.6,0.7,18.9,0.7c2.8,0,5.7-0.1,8.5-0.5c2.6-0.3,5.4-0.7,7.6-2.1c1.8-1.2,3-3.2,2.5-5.4c-0.6-2.8-3.5-3.2-5.9-3.2
			c-2.9,0-5.8,0.4-8.6,0.9c-2.7,0.5-5.5,1.1-8.1,1.9c-2.6,0.8-5.3,1.7-7.8,2.8c-1.3,0.5-2.5,1.1-3.8,1.8c-0.8,0.4-1.5,0.8-2.2,1.3
			c1.3-2.4,2.6-4.7,4-7c0.2-0.3,0.4-0.7,0.6-1c6.2-1.2,12.4-1.4,18.7-1.8c2.9-0.2,5.8-0.4,8.6-0.8c2.4-0.4,4.9-0.9,6.9-2.3
			c1.9-1.2,3.9-3.7,3-6.1c-0.9-2.3-4-2.7-6.1-2.8c-2.9-0.1-5.9,0.5-8.7,1.2c-2.7,0.6-5.3,1.5-7.8,2.4c-4.4,1.7-8.7,3.8-12.5,6.6
			c1.7-2.7,3.5-5.4,5.4-8.1c5.7-2,11.5-3.6,17.5-4.8c2.7-0.6,5.4-1,8.1-1.4c1.4-0.2,2.7-0.4,4.1-0.5c1.1-0.1,2.3-0.2,3.4-0.8
			c2.1-1,2.8-3.6,1-5.2c-2-1.8-4.9-1.5-7.3-1.1c-8.4,1.5-16.6,4.7-23.7,9.6c1.2-1.7,2.5-3.4,3.8-5c0.3-0.4,0.6-0.7,0.9-1.1
			c5.4-1.9,10.7-3.8,16.1-5.7c2.8-1,5.6-1.9,8.4-2.9c2.1-0.7,4.3-1.7,5.4-3.7c0.1-0.3,0.1-0.5-0.1-0.7c-1.7-1.4-4-1.4-5.9-0.7
			c-2,0.7-3.8,1.9-5.7,2.9c-2.1,1.1-4.2,2.3-6.2,3.4c-3.5,1.9-6.9,3.9-10.4,5.8c-0.1,0-0.2,0.1-0.4,0.1c0.4-0.5,0.8-1,1.2-1.5
			c0.1-0.1,0.2-0.3,0.4-0.4c0.1-0.1,0.1-0.2,0.2-0.3c0.5-0.6,0.9-1.1,1.4-1.7c0.1,0.1,0.2,0.2,0.3,0.1c4.3-2.4,8.5-4.9,12.4-8
			c3.4-2.7,6.6-5.8,8.9-9.5c1-1.7,1.6-3.9,0.5-5.7c-1.1-1.7-3.3-1.8-5-0.9c-1.9,1-3.2,3-4.5,4.7c-1.6,1.9-3.1,3.9-4.6,5.8
			c-2.8,3.7-5.4,7.5-8,11.3c1.4-4.1,2.2-8.4,2.7-12.7c0.5-4.1,0.6-8.3-0.2-12.4c-0.3-1.5-1.4-3.4-3.2-2.9c-0.8,0.2-1.3,1-1.6,1.6
			c-0.5,1-0.8,2-1,3c-0.4,2.1-0.6,4.3-0.7,6.5c-0.1,2.2-0.1,4.4-0.1,6.5c0.1,2.5,0.2,5,0.5,7.5c-0.4-1.7-0.9-3.5-1.5-5.1
			c-1-3.1-1.9-6.5-4.1-9c-0.7-0.8-2.2-2.4-3.4-1.9c-0.7,0.3-0.6,1.1-0.5,1.7c0.1,0.9,0.3,1.9,0.5,2.8c0.7,3.5,1.8,7,3.1,10.4
			c0.7,1.7,1.4,3.4,2.2,5c0.7,1.4,1.5,3,2.4,4.3c-1,1-2,2-2.9,3.1c-0.9,1-1.8,2.1-2.7,3.2c-0.2-4.3-0.9-8.6-1.8-12.8
			c-0.8-3.7-1.8-7.6-4.3-10.6c-0.5-0.6-1.1-1.3-2-1.5c-0.7-0.2-1.4,0.2-1.7,0.9c-0.3,0.8-0.2,1.7-0.1,2.5c0.1,1,0.2,2.1,0.4,3.1
			c1.2,7.4,4.1,14.4,7.3,21.2c-1.1,1.4-2.2,2.9-3.2,4.4c-0.7,1-1.4,2.1-2.1,3.2c0.3-3.4,0.1-6.8-0.5-10.2c-0.3-2.2-0.8-4.3-1.5-6.4
			c-0.6-1.9-1.3-3.8-2.3-5.5c-0.9-1.4-2.2-3.2-3.9-3.4c-2.1-0.2-2.4,2.2-2.2,3.7c0.3,2.3,1.2,4.5,1.8,6.7c0.7,2.4,1.5,4.8,2.2,7.2
			c0.7,2.4,1.4,4.7,2.1,7.1c0.5,1.8,1,3.7,1.6,5.5c-0.2,0.5-0.5,1-0.7,1.5c0,0,0,0,0,0c-0.4,0.1-0.6,0.4-0.5,0.8
			c-0.5,0.6-1,1.3-1.4,2c-0.1-3.8-0.5-7.6-1.4-11.4c-0.8-3.8-2.1-7.5-4.2-10.8c-0.9-1.4-2.1-3.5-4.1-2.8c-1.8,0.6-2.2,2.6-1.9,4.2
			c0.4,2.2,1.2,4.3,1.9,6.4c0.7,2.1,1.5,4.1,2.3,6.1c1.6,3.9,3.4,7.6,5.4,11.3c-0.5,0.9-1.1,1.9-1.6,2.8c-1.3,2.6-2.5,5.2-3.5,7.9
			c-1.4-5.3-2.4-10.8-3.8-16.1c-0.6-2.5-1.4-4.9-2.2-7.3c-0.8-2.4-1.7-4.9-3.1-7c-0.6-0.9-1.3-1.9-2.5-1.8c-1,0.1-1.7,0.8-2.1,1.7
			c-0.4,1.2-0.3,2.6-0.2,3.9c0.1,1.3,0.2,2.6,0.4,3.9c0.8,5.3,2.6,10.4,4.6,15.4c1.8,4.3,4,8.5,7.2,11.9c-1.1,2.4-2.2,4.7-3.2,7.1
			c-0.1,0.2-0.2,0.5-0.3,0.7c-1.5-2.1-2.7-4.5-3.7-6.9c-1.1-2.4-2.1-4.9-3.1-7.3c-0.9-2.2-1.8-4.3-2.8-6.5c-0.5-1-1.1-2.1-1.7-3.1
			c-0.6-1-1.1-1.9-2-2.7c-0.7-0.6-1.5-1-2.4-0.8c-0.9,0.2-1.4,1-1.6,1.9c-0.2,1,0,2.1,0.2,3.1c0.2,1.1,0.5,2.1,0.8,3.2
			c2.5,8.4,8,15.8,15.4,20.6c0.1,0.1,0.2,0.1,0.2,0.1c-1.4,3.5-2.8,7.1-4,10.6c-1.8-4.9-3.9-9.7-6.4-14.3c-2.2-4-4.7-8-8.3-10.8
			c-1.3-1-4.2-2.6-5.4-0.7c-0.5,0.8-0.4,1.9-0.1,2.8C644.2,422.3,644.6,423.3,645.1,424.2z"/>
		<g>
			<g>
				<g>
					<g>
						<path class="st5" d="M337.3,247.8c2-1.2,3.7-4.2,5.1-6.2c0.9-1.3,1.4-3.5,1.9-5.1c0.6-1.8,1.2-3.6,1.7-5.5
							c1.1-4,1.9-9.2,2.3-13.4c0.3-3.1-0.1-6.3-1.1-9.2c-1-2.8-2.7-5.3-5-6.5c-0.3-0.2-0.7-0.3-1-0.3c-0.6,0.1-1.1,0.6-1.5,1.2
							c-1.3,2.4-0.7,5.5,0.1,8.3c0.7,2.7,1.8,7,0,9.5c-2.9,4.2-5.9,8.5-8.8,12.7c-0.8,1.2-1.7,2.5-2.2,3.9c-0.8,2.7-0.1,5.9,1.5,7.8
							C331.9,247,335,249.1,337.3,247.8z"/>
						<path class="st6" d="M261.2,442.5c-0.1,0.3-0.1,0.6-0.3,0.8c-0.2,0.2-0.5,0.3-0.8,0.4c-2.5,0.7-5,1.3-7.5,1.6
							c0.7-9.9-0.4-19.9,0.4-29.8c0.2-2.6,0.6-5.2,1.5-7.5c0.9-2.3,2.6-4.3,4.7-4.9c2.1-0.6,4.6,0.5,5.6,2.8
							c0.7,1.6,0.7,3.4,0.6,5.2C265,422,263.5,432.2,261.2,442.5z"/>
						<path class="st7" d="M261.9,442.4c-1.2,0.3-2.5,0.3-3.7,0.3c-1.9-0.1-3.8-0.5-5.6-1.5c-0.6,0.4-1.2,1.3-1.9,1.7
							c-2.4,1.3-4.8,2.6-7.1,3.8c-1.8,1-3.6,1.9-5.1,3.4c-0.4,0.3-0.7,0.8-0.8,1.3c-0.4,2.4,4.5,1.7,5.5,1.7c2.6,0,5.3-0.3,7.9-0.4
							c2.2,0,4.5,0,6.7-0.1c1.3-0.1,3.5,0.7,4.4-0.6c0.7-1,0.6-3,0.4-4.2C262,446.1,261.9,444.2,261.9,442.4z"/>
						<path class="st6" d="M293.2,443.8c0,0.3,0.1,0.6,0.2,0.8c0.2,0.2,0.5,0.3,0.8,0.4c2.4,0.6,4.9,1.1,7.4,1.5
							c0.7,0.1-0.1-33.3-0.4-36.2c-0.2-1.4-0.4-2.7-0.8-4c-0.2-0.6-0.4-1.1-0.8-1.5c-0.4-0.4-0.9-0.6-1.4-0.7
							c-1.4-0.2-2.7,0.5-3.8,1.6c-1,1.1-1.7,2.6-2.3,4.1c-1.9,5.3-2.3,11.4-1.1,17.1C292.1,432.4,292.5,438,293.2,443.8z"/>
						<path class="st8" d="M303.1,351.3c-0.1-12.2-0.3-24-2.3-36.1c-2.1-13.1-8.7-34.1-21.2-36.5c-3.7-0.7-7.6,0.8-10.6,3.6
							c-9.8,8.9-9.8,26.9-10.7,40.3c-0.9,12.3-1.8,24.5-2.7,36.8c-1.8,23.3-3.8,46.6-6,69.8c2,0.6,4,1,6,1.3
							c3.5,0.5,10.6,0.7,14.1,0.2c2.7-21.1,3.7-38.9,6.2-61.6c1.2-10.6,1.9-22.7,3.6-32.6c1.9,16.3,7.1,87.8,7.1,94.6
							c4.1,0.9,10.3,0.7,14.4,0.3c0.5,0,6.4-0.1,6.4-0.6c0.6-14.6-2.3-26.9-2.6-42.3C304.7,376.8,303.3,362.6,303.1,351.3z"/>
						<path class="st9" d="M233.9,269.7c0.3,1.7,0.9,3.2,1.8,4.6c1.8,2.7,4.7,4.4,7.7,4.3c3.6-0.2,6.8-3,9.6-5.7
							c2.6-2.4,5.4-7.1,6.1-1.5c0.5,4-0.4,9-0.7,13c-0.4,4.4-0.8,8.8-1.3,13.2c-0.4,4.1-1.5,9-1.1,13.1c7.4-0.5,15.1,0.6,22.5,0.7
							c8.3,0.1,16.6-0.1,24.9-0.6c1.4-10.2,0.1-20.6-1.2-30.7c-1.4-11.5-3.1-22.9-3.7-34.5c-0.1-2.1-0.2-4.2-0.9-6.2
							c-1.3-4-5.9-5.6-9.1-6.8c-3.8-1.4-7.9-1.6-11.9-1.5c-3.9,0.1-7.9,0.5-11.7,2c-5.5,2.1-8.6,6.5-11.9,11.8
							c-2.7,4.3-5.2,8.1-9.5,10.3c-2.7,1.4-5.9,2-7.9,4.6c-1,1.3-1.6,3.1-1.9,4.8C233.5,266.2,233.5,268,233.9,269.7z"/>
						<path class="st7" d="M292.2,451.6C292.2,451.6,292.2,451.6,292.2,451.6c0.1,0.4,0.1,0.6,0.3,0.8c0.1,0.1,0.3,0.1,0.4,0.1
							c5.9,0.3,11.7,0.6,17.6,0.8c1.3,0,7,0.1,7.2-2.3c0.1-0.5-0.2-1.1-0.5-1.5c-0.4-0.4-0.8-0.6-1.2-0.8c-2.7-1.2-5.7-2-8.3-3.5
							c-1-0.6-1.9-1.4-2.8-2c-0.5-0.3-2.7-2.3-3.1-2.2c-2.9,0.8-6.2,1.4-9.1,0.8C291.8,444.9,291.7,448.3,292.2,451.6z"/>
						<path class="st9" d="M284.7,231.5c1.9,0.1,3.8,0.2,5.8,0.4c4.8,0.6,9.4,3.1,13.9,4.9c5.3,2.1,10.8,2.9,16.1,5
							c3.3-5.2,6.8-10.2,10.3-15.2c4.6,3.6,9,7.5,13.3,11.8c1,1-3.6,9.5-4.2,10.6c-2,3.8-4.4,7.2-7,10.4c-2,2.6-5,3.9-7.9,4.3
							c-2.9,0.4-5.9-0.1-8.8-0.7c-5.7-1.1-11.4-2.5-17-4.3c-2.2-0.7-4.5-1.3-6.5-2.7c-1.4-1-1.5-1.4-2.2-3.4c-0.5-1.4-1-2.8-1.7-4.1
							c-1.1-2.1-2.2-4-2.9-6.4C285,239,284.7,234.9,284.7,231.5z"/>
						<g id="XMLID_606_">
							<path class="st5" d="M283.5,221.1c0,2,0,3.9,0,5.9c0,1.6,0.1,3.5,0.9,4.8c-0.8,1-1.8,1.9-2.9,2.3c-0.4,0.2-0.9,0.2-1.4,0.3
								c-0.6,0.1-1.2,0.1-1.9,0.1c-1.9-0.1-3.8-1.3-5-3.1c0.9,0,0.6-1.9,0.7-2.5c0-1.2,0.1-2.4,0.1-3.6c0-0.9,0.1-1.7,0.2-2.6
								c0.2-1.5,0.7-3,1.5-4.2c0.9-1.4,2.3-2.1,3.7-2.4c0.7-0.2,1.5-0.2,2.2-0.3c0.6-0.1,1.2-0.4,1.6,0.5c0.2,0.4,0.2,0.9,0.2,1.4
								C283.5,218.8,283.5,220,283.5,221.1z"/>
							<g id="XMLID_607_">
								<path id="XMLID_610_" class="st8" d="M270.8,215.8c0.2,0.1,0.4,0.1,0.5,0.2c0.7,0.4,1.2,1.1,1.9,1c0.3,0,0.6-0.3,0.9-0.5
									c0.4-0.3,0.7-0.7,0.9-1.2c0.4-0.8,0.3-1.9,0.5-2.8c0.2-0.9,0.5-1.9,0-2.7c-0.1-0.2-0.3-0.4-0.4-0.6c-0.2-0.5,0-1.1,0.1-1.6
									c0.2-1,0-2.8-0.6-3.6c-0.3-0.4-0.8-0.7-1.2-0.9c-0.7-0.3-1.5-0.6-2.3-0.6c-0.9-0.1-1.9,0.1-2.5,1c-0.4,0.7-0.4,1.6-0.3,2.5
									c0.1,0.8,0.4,1.7,0.4,2.5c0,0.6-0.1,1.3-0.1,1.9C268.7,212.5,269,215.2,270.8,215.8z"/>
								<path id="XMLID_620_" class="st5" d="M273.5,205.2c0.9,0.1,1.8-2.9,2.8-2.6c0.8,0.3,2.6,0.3,3.4,0.5
									c1.4,0.4,2.5,4.5,3.6,5.7c1.1,1.4,1.1,3.4,1,5.2c-0.1,1.7-0.8,3.7-1.1,5.4c-0.3,2.1-0.6,3.7-2.4,4.5
									c-1.5,0.6-3.1,0.4-4.7,0.3c-0.7-0.1-1.3-0.1-2-0.5c-3.7-1.9-3.1-9.2-2.8-13.1c0.1-1.6,0.2-3.3,0.7-4.8
									c0.1-0.2,0.1-0.4,0.3-0.5c0.2-0.2,0.5-0.2,0.8-0.2C273.1,205.1,273.3,205.1,273.5,205.2z"/>
								<path id="XMLID_611_" class="st8" d="M272.8,199.2c0.5-0.1,1.1,0,1.7,0.1c0.7,0.2,1.5,0.4,2.2,0.4c0.7-0.1,1.5-0.4,2.2-0.5
									c1.5-0.1,2.7,1.1,4,1.9c1.1,0.7,2.1,1.8,2.5,3.3c0.2,0.6,0.2,1.3,0.4,1.8c0.3,0.8,1,1.3,1.5,1.9c0.5,0.6,1.1,1.4,1,2.3
									c0,0.6-0.3,1.2-0.4,1.8c-0.1,1.4,0.6,3-0.3,4.1c-0.3,0.4-0.8,0.6-1.2,0.8c-0.9,0.4-1.9,0.6-2.9,0.5c-0.1,0-0.2,0-0.3-0.1
									c0,0-0.1-0.1-0.1-0.2c-0.3-0.7-0.6-1.3-0.9-2c-0.6-1.3-1-2.4-1-3.8c0-1.2-0.2-2.5-0.9-3.3c-0.6-0.7-1.4-0.9-2.1-1
									c-2.7-0.5-8.1,1.5-8.5-3.6c-0.1-1.6,0.6-3.3,1.7-4C271.8,199.4,272.3,199.3,272.8,199.2z"/>
								<path id="XMLID_3_" class="st5" d="M281.3,217c0.2,0.2,0.4,0.3,0.7,0.4c0.7,0.2,2-1,2.3-1.7c0.5-0.9,0.5-2.3,0-3.2
									c-0.4-0.6-1.1-1-1.8-0.9C280.3,211.7,279.7,215.6,281.3,217z"/>
							</g>
						</g>
						<path class="st7" d="M273.4,231c1.4,1.9,3.4,3.1,5.5,3.1c1,0,2-0.2,2.9-0.7c1-0.5,1.9-1.3,2.7-2.2c0.2-0.2,0.5,0,0.3,0.3
							c-1.2,2.2-3.7,3.3-5.8,3.3c-2.3,0-4.5-1.3-6-3.4C272.7,231.1,273.1,230.6,273.4,231z"/>
						<path class="st6" d="M342.6,214.5c-0.3-0.7-0.6-1.3-0.8-2.1c-0.3-0.8-0.5-1.5-1-2.2c-0.4-0.6-1.1-1.1-1.8-1
							c-0.3,0,0.5,4.3,0.5,4.8c0.2,1.5,0,3.6,0.9,4.8c0.5,0.6,1.3,0.6,1.8,0.2c1.3-1.1,1.1-2.8,0.4-4.2
							C342.7,214.6,342.6,214.6,342.6,214.5z"/>
						<path class="st7" d="M320.3,241.6c0-0.4,0.5-0.4,0.5,0c0,1.5,0,3-0.1,4.5c0,0.5-0.6,0.5-0.6,0
							C320.1,244.6,320.2,243.1,320.3,241.6z"/>
						<path class="st7" d="M259,266.1c0.1-0.8,0.2-1.5,0.4-2.3c0.1-0.5,0.7-0.3,0.7,0.2c-0.2,1.4-0.4,2.9-0.5,4.3
							c0,0.4-0.6,0.5-0.6,0C258.9,267.6,258.9,266.8,259,266.1z"/>
						<path class="st5" d="M244,233.3c0.3,2.6,0.4,5.3,0.5,7.9c0.1,3.7,0.1,9.2-2.3,12.1c-0.7,0.9-1.8,1.2-2.8,1.3
							c-1.2,0.1-2.4-0.2-3.5-1c-1.8-1.3-2.7-3.9-3.1-6.5c-1.1-0.7-0.2-8.5,0-9.8c0.5-3.5,1.2-6.9,1.8-10.4c0.4-2.2,0.3-4.5,0.5-6.7
							c0.3-2.3,1.1-4.7,2.7-6.1c1.1-0.9,2.5-1.2,3.9-1.4c0.9-0.1,1.9-0.3,2.8-0.3c0.5,0,1.2,0,1.5,0.5c0.2,0.4,0.2,0.9,0.1,1.4
							c-0.5,3.2-0.6,6.6-1.1,9.7c-0.2,1.5-1,2.6-1.2,4.2c-0.1,1.5,0,3.2,0.2,4.7C244,233,244,233.2,244,233.3z"/>
						<path class="st9" d="M247.5,252.3c0.2,4.4,1.9,10.4,1.6,14.8c-0.2,2.9-2.5,5.3-4.6,6.5c-3.3,1.8-7.5,0.8-9.9-2.4
							c-2.5-3.3-2.8-8.2-3-12.7c-0.1-2.2-0.2-4.3-0.3-6.5c-0.2-4.8-0.5-9.7,0.1-14.6c3.4-0.4,6.7-0.7,10.1-1.1c1-0.1,4-1.1,4.8-0.6
							C247.1,236.2,247.2,247.6,247.5,252.3z"/>
						<path class="st7" d="M279,322.8c0.6,5.2,0.7,10.4,0.5,15.6c0,0.3-0.2,0.4-0.4,0.4c0,0,0,0,0,0c0,0,0,0,0,0
							c-0.1,0-0.2-0.2-0.2-0.4c-0.1-5.2-0.3-10.3-0.5-15.5C278.3,322.4,278.9,322.3,279,322.8z"/>
						<path class="st10" d="M299.2,258.9c-1.1-1-2.2-2.1-3.1-3.4"/>
						<g>
							<defs>
								<path id="SVGID_1_" d="M283.5,221.1c0,2,0,3.9,0,5.9c0,1.6,0.1,3.5,0.9,4.8c-0.8,1-1.8,1.9-2.9,2.3
									c-0.4,0.2-0.9,0.2-1.4,0.3c-0.6,0.1-1.2,0.1-1.9,0.1c-1.9-0.1-3.8-1.3-5-3.1c0.9,0,0.6-1.9,0.7-2.5c0-1.2,0.1-2.4,0.1-3.6
									c0-0.9,0.1-1.7,0.2-2.6c0.2-1.5,0.7-3,1.5-4.2c0.9-1.4,2.3-2.1,3.7-2.4c0.7-0.2,1.5-0.2,2.2-0.3c0.6-0.1,1.2-0.4,1.6,0.5
									c0.2,0.4,0.2,0.9,0.2,1.4C283.5,218.8,283.5,220,283.5,221.1z"/>
							</defs>
							<clipPath id="SVGID_00000172418616363228285610000017053064259572546193_">
								<use xlink:href="#SVGID_1_"  style="overflow:visible;"/>
							</clipPath>
							<path style="clip-path:url(#SVGID_00000172418616363228285610000017053064259572546193_);fill:#130E0E;" d="M277.4,223
								c0.1,0,0.2,0,0.3,0c0.2,0.1,0.2,0.3,0.1,0.5c-0.1,0.4-0.5,0.6-0.8,0.7c-0.3,0.2-0.7,0.4-0.7,0.8c0,0.3,0.1,0.6,0,0.8
								c-0.1,0.2-0.3,0.3-0.5,0.3c-0.6,0.1-1.1,0.2-1.7,0.3c-0.3,0-0.6,0-0.8-0.2c-0.2-0.2-0.3-0.6-0.3-0.9c0-1.2,0.3-1.9,1.3-2
								C275.3,223.5,276.3,223.2,277.4,223z"/>
						</g>
						<path class="st10" d="M283.2,213c-0.4-0.2-0.8-0.2-1.2,0c-0.4,0.2-0.7,0.6-0.7,1.1"/>
						<path class="st10" d="M247.4,252.3c-1.8,4.2-3.3,8.6-4.5,13.1"/>
					</g>
					<path class="st13" d="M271,430.5c-5.3,0.4-10.5,0.4-15.8-0.2c-2.4-0.2-4.9-0.6-7.1-1.6"/>
					<path class="st13" d="M308.4,430.7c-7.3,1.4-15.3,1.7-22.6,0.7"/>
				</g>
				<g>
					<g>
						<path class="st5" d="M243.9,217.5c-1.1-0.4-2.3-1.3-2.7-1.5c0.9,0.5,2.6,3.6,0.7,3.7c-0.9,0-1.9-0.8-2.6-1.5
							c-0.6-0.7-1.7-2.1-1.5-3.2c0.2-1,1.1-1.5,1.9-1.8c1.5-0.5,3.1-0.8,4.6-0.9c0.4,0,0.8,0,1.2,0.1c1.1,0.3,2,1.5,2.8,2.5
							c0.2,0.3,0.5,0.8,0.3,1.2c-0.1,0.2-0.2,0.3-0.4,0.3c-0.8,0.4-1.8,0-2.6-0.5c-0.5-0.3-1-0.7-1.4-1.1c0.4,0.4,0.7,0.9,1,1.4
							c0.2,0.3,0.3,0.6,0.3,1C245.3,217.8,244.6,217.8,243.9,217.5z"/>
						<path class="st10" d="M242.1,219.7c-1.3-0.1-2.5-0.8-3.3-2.1c0.3,1.3,0.6,2.7,0.6,4.1c0.1,1.4-0.1,2.8-0.7,4"/>
					</g>
					<g>
						<path class="st5" d="M342.4,206.1c0,0,0.1,0.1,0.1,0.1c-1.1-0.6-2.3-1.2-3.4-1.7c-0.2-0.1-0.5-0.3-0.8-0.1
							c-0.2,0.1-0.3,0.4-0.3,0.7c0,0.3,0.1,0.5,0.3,0.8c0.4,0.7,1,1.4,1.6,1.9c0.6,0.6,1.2,1.3,1.8,1.9c-0.6-0.4-1.3-0.8-2-1.1
							c-0.3-0.2-0.7-0.3-1-0.1c-0.2,0.2-0.3,0.5-0.3,0.9s0.2,0.6,0.3,0.9c0.9,1.6,2.5,3.1,3.9,4.1c0.7,0.6,1.6,1.1,2.4,0.8
							c2.6-1.2,1.2-6.8,0.4-8.8c-0.5-1.3-1.2-2.5-2.1-3.4c-1-1.1-2.1-1.6-3.2-2.5c-0.3-0.2-0.7-0.5-1-0.6c-0.4-0.1-0.8,0-1,0.4
							c-0.6,1.1,1,2.1,1.5,2.7C340.6,204,341.5,205,342.4,206.1z"/>
						<path class="st10" d="M341.7,214c0.4,0.3,0.8,0.7,1.2,1c0.1,0.1,0.2,0.2,0.3,0.4c0,0.1,0,0.3,0,0.4c-0.3,2.4,0.1,4.9,1.3,6.9"
							/>
						<path class="st10" d="M340.8,209.2c0.7,0.6,1.4,1.3,2.1,1.9"/>
						<path class="st10" d="M342,205.7c1.1,1,2.1,2.2,3,3.5"/>
					</g>
				</g>
			</g>
			<path class="st0" d="M291.1,168.1h15.6l10.1,79.5h0.3l10.1-79.5h14.2l-14.9,102.5H306L291.1,168.1z"/>
			<path class="st0" d="M252.3,166.8l15.4,1.3l-8.4,102.2l-15.4-1.3L252.3,166.8z"/>
			<g>
				<g>
					<line class="st14" x1="232.7" y1="268.9" x2="349.6" y2="275"/>
					<line class="st14" x1="241.1" y1="165.6" x2="350.7" y2="171.3"/>
				</g>
				<g>
					<g>
						<line class="st13" x1="347.9" y1="170.5" x2="244.2" y2="265.6"/>
						<line class="st13" x1="343.7" y1="271.6" x2="248.4" y2="164.6"/>
						<path class="st13" d="M345.6,170.3l-40.4-93.2c0-0.3-0.4-0.4-0.5-0.1l-58.9,88"/>
					</g>
					<line class="st13" x1="306.8" y1="34.5" x2="305.2" y2="77.1"/>
					<ellipse class="st15" cx="304.9" cy="77.9" rx="3.1" ry="3.8"/>
					<polyline class="st13" points="272.7,168.4 304.9,77.9 320,169.4 					"/>
				</g>
			</g>
		</g>
		<g>
			<path class="st1" d="M490.8,221.2v6.3c0,9.1-2.4,15.3-7.4,18.8c-3.6-2.5-6.7-4.9-7-6.1c-0.6-2-0.9-4-1.2-6c0.2-1,0.3-2.2,0.3-3.5
				v-7.9c0-7.3-2.4-10.5-7.9-10.5h0c-0.1-0.1-0.2-0.2-0.3-0.2c-1.5-1-3.4-0.2-4.7-1c-0.5-0.3-0.8-1-1.3-1.3c-0.8-0.6-2-0.5-3.1-0.7
				c-1.5-0.4-2.6-1.8-3-3.3c-0.4-1.5-0.2-3.1,0.3-4.6c0.3-1.2,0.8-2.3,1.4-3.4h11.2C483.9,197.6,490.8,205.3,490.8,221.2z"/>
		</g>
		<g>
			<g>
				<line class="st16" x1="129.7" y1="312.9" x2="129.7" y2="461"/>
				<line class="st16" x1="254" y1="312.9" x2="254" y2="461"/>
				<line class="st16" x1="128.6" y1="335.7" x2="254" y2="415.4"/>
				<line class="st16" x1="254" y1="335.7" x2="128.6" y2="415.4"/>
			</g>
			<g>
				<line class="st16" x1="493.3" y1="312.9" x2="493.3" y2="461"/>
				<line class="st16" x1="617.6" y1="312.9" x2="617.6" y2="461"/>
				<line class="st16" x1="492.3" y1="335.7" x2="617.6" y2="415.4"/>
				<line class="st16" x1="617.6" y1="335.7" x2="492.3" y2="415.4"/>
			</g>
			<path class="st17" d="M635.9,320.1c-9.2-12.2-23.8-20-40.3-20H129.4c-16.4,0-31,7.9-40.3,20H635.9z"/>
			<path class="st2" d="M489.1,320.2c4.4,0,8.8-0.1,13.1-0.1"/>
			<path class="st2" d="M240.8,320.1c7.1,0,14.1,0.1,21.2,0.1"/>
			<line class="st2" x1="108.1" y1="304.2" x2="623" y2="304.2"/>
			<line class="st2" x1="69.5" y1="461.2" x2="626.1" y2="461.2"/>
		</g>
		<g>
			<path class="st9" d="M596.8,251.6c0.1-2-0.2-4-1.2-5.7c-1.1-1.9-3.2-3.3-5.3-3.1c-1.4,0.1-2.8,0.9-3.8,1.9
				c-1.1,1-1.9,2.2-2.7,3.4c-1.5,2.1-3.2,4.1-4.9,6.1c-2,2.2-4.6,3.7-7.3,4.9c-10.3,4.5-22.1,3.4-33.3,2.1c0,3.5-0.3,7.1-0.9,10.6
				c7.1,2.2,14.4,4.5,21.8,4.5c0.4,0,0.8,0,1.2,0c6.5-0.1,12.9-1.9,18.9-4.3c3-1.2,6.2-2.4,8.9-4.1c2.4-1.5,3.9-3.4,5.2-5.8
				c0.8-1.5,1.6-3,2.2-4.6c0.6-1.7,1.1-3.5,1.2-5.3C596.8,252,596.8,251.8,596.8,251.6z"/>
			<path class="st1" d="M500.7,197.8l19.5-7.4l51.3,90.1l-14.4,5.5l-9.8-18l0.1,0.3l-16.4,6.2l4.5,19.8l-13.4,5.1L500.7,197.8z
				 M540.8,255.9L516.4,211l-0.3,0.1l11.7,49.8L540.8,255.9z"/>
			<path class="st15" d="M579,356.8c0.3-0.8,0.2-1.8,0.1-2.6c-0.7-5-1-10.7-2.3-15.3c-0.6-2.2-2.4-1-4.3-0.6
				c-2.2,0.5-4.6,1.2-6.6,1.1c0.4,0.6,0.8,1.2,0.9,1.9c0.3,1.5,0.7,3,1,4.5c0.2,1,0.4,2.1-0.1,3.1c-0.4,0.8-1.2,1.4-2,1.7
				c-2.8,1.2-5.7,0.5-8.5,1c-2.5,0.4-4.8,3.1-4.2,5.3H579z"/>
			<path class="st15" d="M671.7,346.8c1.2,1.2,3.7,2.6,2.9,4.6c-0.6,1.7-3.1,2.4-3.6,4.3c-0.1,0.4-0.1,0.8,0.3,1
				c0.2,0.1,0.3,0.1,0.5,0.1c2,0,6,0.1,7.7-1.2c1.4-1.1,2-4.3,2-6c0-3.6-0.9-7.7-2.1-11.1c-0.5-1.4-1.2-4.5-2.5-5.3
				c-1.2-0.7-3.5,0.6-4.6,1.1c-3,1.3-5.8,2.8-8.6,4.5c-1.1,0.7-2.3,1.4-2.6,2.7c-0.1,0.6-0.1,1.2,0,1.7c0.3,1.5,1,3.7,2.5,4.3
				c2.7,1,5-2.6,7.1-1.7c0.2,0.1,0.4,0.3,0.6,0.5C671.4,346.5,671.5,346.6,671.7,346.8z"/>
			<path class="st18" d="M627.3,296c0.1-1.2,0.1-2.5-0.1-3.7c-0.4-2.4-1.3-4.7-3.1-6.3c-1.4-1.3-3.3-2-5.2-2.6
				c-4.9-1.6-9.7-1.9-14.7-2.8c-4-0.7-8-1.3-12.1-1.7c-3.6-0.4-7.2-0.9-10.8-1c-1.5,0-3.1-0.1-4.7-0.1c-6.4-0.2-10.8,3.5-12.8,9.6
				c-1,2.9-1.1,5.9-1.1,8.9c-0.4,16.9,0.8,33.8,3.5,50.4c0.1,0.5,17.5-1.9,19-2.5c-0.1-7.7-0.4-15.3-0.9-23c-0.1-1-1-18.5-0.8-18.5
				c8.7,1,23.6,6.5,32.3,7.5c4.7,0.5,3.7-3.6,7.5-6.4C625.7,302.1,627,299.1,627.3,296z"/>
			<path class="st5" d="M571.5,226.4C571.5,226.4,571.5,226.4,571.5,226.4c-1,0.9-2.3,1.9-2.4,3.2c-0.2,2.2,0.9,4.5,1.9,6.4
				c0.9,1.8,2.3,3.4,4,4.4c1.5,0.9,4,1.4,5.6,0.4c0.1,0,0.1-0.1,0.2-0.1c0.1,0,0.1,0,0.2,0.1c1.2,0.6,2.2,1.2,3.2,2.2
				c2,2.1,3.8,4.3,5.4,6.7c2.7-0.9,6.6-4.4,8.4-6.6c-4.1-6.4-9.9-10.1-15-15.8C579.9,224,575.1,223.4,571.5,226.4z"/>
			<g>
				<g>
					<path class="st18" d="M667.8,334.7c-5.8,0.3-11.5,0.5-17.3,0.8c-5.8,0.3-11.8,1-17.6,1.2c-0.9,0-1.7,0.1-2.6,0.1
						c2.5-4.9,4.9-9.9,7.2-14.9c2.2-4.7,4.4-9.5,5.6-14.6c1.6-6.5,1.6-13.2-0.3-19.6c-0.9-3.2-2.3-6.3-4-9.2c-0.6-1-1.6-3.5-2.7-4
						c-1.2-0.6-3.8,0.2-5.1,0.4c-10.4,1.5-20.9,3.1-30.6,7.1c0.4-0.2,3.7,3.7,4.3,4.3c2,2,3.7,4.5,5.4,6.8c2.3,3.2,1.9,6.4,1.7,10.2
						c-0.7,10.6-2.8,21.1-4.1,31.6c-0.4,3.5-1.3,10-0.5,13.4c2.6,10.9,28.4,8.4,37.6,7.9c12.4-0.6,18.9-2.1,21.5-2.9
						C667.4,347.2,667.9,340.9,667.8,334.7z"/>
				</g>
				<g>
					<defs>
						<path id="SVGID_00000105400146260930070390000015736624757369402777_" d="M667.8,334.7c-5.8,0.3-11.5,0.5-17.3,0.8
							c-5.8,0.3-11.8,1-17.6,1.2c-0.9,0-1.7,0.1-2.6,0.1c2.5-4.9,4.9-9.9,7.2-14.9c2.2-4.7,4.4-9.5,5.6-14.6
							c1.6-6.5,1.6-13.2-0.3-19.6c-0.9-3.2-2.3-6.3-4-9.2c-0.6-1-1.6-3.5-2.7-4c-1.2-0.6-3.8,0.2-5.1,0.4
							c-10.4,1.5-20.9,3.1-30.6,7.1c0.4-0.2,3.7,3.7,4.3,4.3c2,2,3.7,4.5,5.4,6.8c2.3,3.2,1.9,6.4,1.7,10.2
							c-0.7,10.6-2.8,21.1-4.1,31.6c-0.4,3.5-1.3,10-0.5,13.4c2.6,10.9,28.4,8.4,37.6,7.9c12.4-0.6,18.9-2.1,21.5-2.9
							C667.4,347.2,667.9,340.9,667.8,334.7z"/>
					</defs>
					<clipPath id="SVGID_00000008113772263289513660000017213621707224533686_">
						<use xlink:href="#SVGID_00000105400146260930070390000015736624757369402777_"  style="overflow:visible;"/>
					</clipPath>
					<path style="clip-path:url(#SVGID_00000008113772263289513660000017213621707224533686_);fill:#010101;" d="M612.5,347
						c0.3,0.1,0.6,0.2,0.9,0.4c0.5,0.4,0.8,0.9,1.3,1.3c0.6,0.5,1.5,0.8,2,1.6c0.4,0.7,0.4,1.6,0.9,2.2c0.6,0.7,1.7,0.7,2.6,0.6
						s1.8-0.4,2.7-0.1c1,0.4,1.6,1.5,1.7,2.6c0.1,1.4-0.4,3-1.3,4c-0.8,1-2,1.6-3.3,2c-3.2,1-6.8,0.5-9.7-1.3
						c-2.6-1.6-7.6-6.4-5-9.7c0.6-0.7,1.3-1.3,2-1.8c0.9-0.7,1.8-1.4,2.9-1.7C610.9,346.9,611.7,346.8,612.5,347z"/>
				</g>
			</g>
			<path class="st6" d="M559.6,288.7c-0.4-0.3-0.9-0.5-1.4-0.7c-0.4-0.1-0.8-0.2-1.3-0.3c-3.4-0.6-6.9-0.2-10.2,0.4
				c-2.5,0.4-4.4,0-6.8-1.2c-1.7-0.8-3.4-1.5-5.1-2.4c-0.3-0.1-0.5-0.3-0.8-0.3c-0.2,0-0.4,0-0.6,0.1c-0.2,0.1-0.4,0.3-0.4,0.5
				c-0.1,0.7,1.1,1.1,1.5,1.3c0.7,0.3,1.9,0.8,2.1,1.6c0.1,0.3-0.1,0.5-0.4,0.5c-1.2-0.5-2.4-0.7-3.7-1c-0.6-0.2-1.2-0.4-1.7-0.6
				c-0.7-0.3-1.3-0.7-2-0.9c-0.5-0.2-1.1,0.2-1.2,0.7c-0.2,0.6,0.2,1,0.7,1.2c0.6,0.2,1.1,0.6,1.7,0.8c0.4,0.2,0.8,0.4,1.2,0.5
				c-0.1,0.2-0.1,0.3-0.2,0.5c-0.1,0-0.1,0,0,0c-0.1,0-0.1,0-0.2,0c-0.3-0.1-0.5-0.1-0.8-0.2c0,0-0.4-0.1-0.2-0.1
				c-0.1-0.1-0.3-0.1-0.4-0.2c-0.2-0.1-0.5-0.3-0.7-0.4c-0.2-0.1-0.5-0.3-0.7-0.5c-0.1-0.1-0.2-0.2-0.3-0.2c0.1,0.1-0.2-0.1-0.2-0.2
				c-0.4-0.3-1-0.4-1.4,0c-0.3,0.4-0.4,1.1,0,1.4c1,0.8,2,1.5,3.2,2c0.4,0.2,0.8,0.3,1.2,0.3c-0.1,0.2-0.1,0.5-0.1,0.7
				c-0.7-0.3-1.3-0.6-2-1c-1.1-0.7-2-1.5-3-2.3c-0.4-0.4-1-0.4-1.4,0c-0.4,0.4-0.4,1.1,0,1.4c1.1,0.9,2.2,1.9,3.4,2.6
				c0.9,0.5,1.8,1,2.8,1.3c0,0,0,0.1,0,0.1c-2.5-0.4-4.9-0.7-7.4-1c-0.5-0.1-1,0.5-1,1c0,0.6,0.5,0.9,1,1c2.1,0.2,4.3,0.5,6.4,0.8
				c2,0.3,3.9,0.8,5.9,0.7c2.1-0.1,4.1-0.2,6.1-0.7c4.2-0.9,8.2-2.3,12.4-2.9c1.1-0.2,2.2-0.3,3.2-0.6c0.9-0.3,1.8-0.7,2.6-1.3
				c0.3-0.2,0.6-0.5,0.8-0.9C560.5,289.7,560.1,289.1,559.6,288.7z"/>
			<path class="st9" d="M616.6,285.3c3.4-1.1,6.6-2.6,10-3.6c2.5-0.8,5.1-1.3,7.7-1.7c1.7-0.2,3.8-0.4,5.8-0.4
				c-1.8-3.1-3.6-6.2-5.3-9.3c-0.7-1.2-1.4-2.4-2.2-3.5c-1.4-2-3-3.8-4.7-5.5c-4.7-4.9-9.7-9.5-14.9-13.9
				c-4.9-4.1-9.7-8.8-15.9-10.7c-1.5-0.5-3.3-0.6-4.7,0.1c-1.1,0.6-1.9,1.6-2.7,2.7c-1.8,2.5-4.3,5.3-5.6,8.2c-1,2.3-0.5,5.2,0,7.6
				c0.8,3.5,2.7,6.7,4.5,9.8c2,3.3,4.3,6.4,6.7,9.4c3.6,4.3,7.6,8.4,11.4,12.5C610.1,287.3,613.5,286.4,616.6,285.3z"/>
			<g>
				<path class="st7" d="M591,239c1.8,1.8,3.7,3.5,5.8,5c1.6,1.1,3.3,2.1,5.1,2.5c2.7,0.5,5.5-0.4,7.8-1.9c1.2-0.8,2.4-1.8,3.1-3.1
					c1.4-2.5,0.9-5.8-0.8-8.2c-1.7-2.3-4.5-3.7-7.3-4.4c-3.2-0.7-6.9-0.5-9.9-1.8c-2.1-0.9-3.9-2.3-5.7-3.6
					c-1.7-1.2-2.3-3.2-4.4-4.1c-1.5-0.6-3.1-0.7-4.7-0.4c-2.3,0.5-4.3,1.9-6.6,2.7c-0.9,0.3-1.8,0.6-2.5,1.1c-1,0.7-1.6,1.9-2.5,2.8
					c-0.6,0.6-1.4,1.1-1.7,1.9c-0.3,0.7-0.2,1.5,0,2.2c0.4,1.5,1,3.1,2.7,3.2c1.3,0.1,2.6-0.5,3.6-1.3c1-0.8,2.1-1.3,3.4-0.7
					c0.5,0.2,1,0.7,1.5,1c0.5,0.3,1.2,0.4,1.6,0c0.5-0.5,0.3-1.3,0.7-1.8c0.6-0.8,1.9-0.6,2.5-0.1c0.8,0.6,1.4,1.5,2,2.3
					c1.6,2.1,3.7,3.7,5.4,5.6C590.5,238.5,590.7,238.8,591,239z"/>
			</g>
			<g>
				<path class="st9" d="M599.2,251.5c-0.5-1.3-1.4-2.5-2.3-3.6c-1.3-1.5-3-2.8-5-3.3c-2-0.5-4.2-0.1-5.5,1.5
					c-1.1,1.2-2.3,1.8-2.6,3.2c-1,5.6-1.1,12-3.1,17.2c-0.8,2.1-1.2,3.8-2.6,5.5c-1.7,2.1-3.7,3.8-6.1,5.3c-1.6,1.1-3.2,2-5.1,2.8
					c-7.4,3.2-15.2,4.8-23.1,6.1c0.2,4.2,0.1,6.2,0,10.4c1.5-0.1,2.9-0.2,4.4-0.4c11.1-1.3,21.7-0.4,31.4-6.4
					c7.6-4.7,13-10.9,17.4-18.8C600.4,265,601.7,258.2,599.2,251.5z"/>
			</g>
			<path class="st20" d="M611.3,312.5c1.6-6.4,2.5-13,2.8-19.7"/>
			<path class="st20" d="M583.4,303.5c-0.8-2.6-1.7-5.1-2.9-7.5"/>
			<path class="st20" d="M595.5,274.4c3.1-4.8,4.6-10.4,5.9-16"/>
			<path class="st20" d="M630.4,336.9c-1.4,1-2.8,2.2-4,3.4"/>
			<path class="st5" d="M580,230.9c0-1,0.2-2.1,1-2.6c1.3-0.8,3.6-0.2,4,1.3c0.3,1.2-0.4,2.6-1.6,2.9"/>
			<path class="st20" d="M582.2,261.4c-1,6.2-4.5,12-9.5,15.8"/>
			<path class="st20" d="M573.8,290.5c3.3-0.8,6.3-2.5,8.6-4.9"/>
			<path class="st20" d="M641.6,304.9c-0.2,2.3-0.9,4.6-1.9,6.7"/>
			<path class="st20" d="M656.3,336.6c2.7-0.1,5.5-0.2,8.2-0.4"/>
			<rect x="538.5" y="356.4" class="st9" width="139.9" height="4.1"/>
			<line class="st21" x1="549.9" y1="356.6" x2="549.9" y2="481.8"/>
			<line class="st21" x1="671.8" y1="356.6" x2="671.8" y2="481.8"/>
			<line class="st21" x1="672.2" y1="369" x2="549.9" y2="451.9"/>
			<line class="st21" x1="672.5" y1="449.3" x2="549.9" y2="372.6"/>
			<g>
				<defs>
					<path id="SVGID_00000002374965868892317920000012150238864148247473_" d="M571.5,226.4C571.5,226.4,571.5,226.4,571.5,226.4
						c-1,0.9-2.3,1.9-2.4,3.2c-0.2,2.2,0.9,4.5,1.9,6.4c0.9,1.8,2.3,3.4,4,4.4c1.5,0.9,4,1.4,5.6,0.4c0.1,0,0.1-0.1,0.2-0.1
						c0.1,0,0.1,0,0.2,0.1c1.2,0.6,2.2,1.2,3.2,2.2c2,2.1,3.8,4.3,5.4,6.7c2.7-0.9,6.6-4.4,8.4-6.6c-4.1-6.4-9.9-10.1-15-15.8
						C579.9,224,575.1,223.4,571.5,226.4z"/>
				</defs>
				<clipPath id="SVGID_00000140730614019805592050000017291434625349427089_">
					<use xlink:href="#SVGID_00000002374965868892317920000012150238864148247473_"  style="overflow:visible;"/>
				</clipPath>
				<path style="clip-path:url(#SVGID_00000140730614019805592050000017291434625349427089_);fill:#130E0E;" d="M580.6,241.1
					c-0.5,0.4-1,0.9-1,1.6c-0.1,0.6,0.2,1.2,0.7,1.5c0.5,0.3,1.2,0.2,1.7-0.2c0.5-0.5,0.5-1.3,1-1.8c0.7-0.5,0.8-1.1,0.4-2
					c-0.1-0.1-0.1-0.3-0.1-0.4c0-0.4,0.5-0.7,0.6-1.1c0-0.2-0.1-0.5-0.2-0.6c-0.2-0.1-0.5-0.1-0.6,0c-0.1,0.1-0.2,0.2-0.3,0.4
					C582,239.6,581.5,240.3,580.6,241.1z"/>
			</g>
			<path class="st20" d="M583.4,229.1c-0.6-0.3-1.4,0-1.8,0.6c-0.4,0.6-0.4,1.4-0.2,2"/>
			<path class="st20" d="M565.5,346.6c6.9-0.2,14-0.5,20.4-2.9"/>
			<path class="st20" d="M668,334.1c-0.3,0.6-0.3,1.3-0.3,2c0.1,6.1-0.5,12.1-1.8,18"/>
		</g>
		<g>
			<line class="st12" x1="223.5" y1="291.7" x2="193.7" y2="481.2"/>
			<line class="st12" x1="267.3" y1="293.2" x2="239.5" y2="481.2"/>
			<g>
				<line class="st12" x1="217.7" y1="332.4" x2="261.5" y2="332.4"/>
				<line class="st12" x1="212.5" y1="362" x2="256.2" y2="362"/>
				<line class="st12" x1="208.4" y1="391.3" x2="252.1" y2="391.3"/>
				<line class="st12" x1="203.7" y1="420.7" x2="247.4" y2="420.7"/>
				<line class="st12" x1="199.6" y1="449.3" x2="243.3" y2="449.3"/>
			</g>
		</g>
		<g>
			<line class="st12" x1="603" y1="320.6" x2="576.2" y2="489.1"/>
			<line class="st12" x1="646.8" y1="322" x2="622" y2="489.1"/>
			<g>
				<line class="st12" x1="595" y1="369.9" x2="638.7" y2="369.9"/>
				<line class="st12" x1="590.9" y1="399.2" x2="634.6" y2="399.2"/>
				<line class="st12" x1="586.2" y1="428.5" x2="629.9" y2="428.5"/>
				<line class="st12" x1="582.1" y1="457.2" x2="625.8" y2="457.2"/>
			</g>
		</g>
		<g>
			<path class="st15" d="M471,215.8c-1.2-2.1-3.2-4.2-5.8-3.5c0,0,0,0,0,0c-0.7,0.8-1.5,1.6-2.3,2.5c-1.3,1.6-2.6,3.1-4,4.7
				c-1.7,2.1-1,3.5,0.9,4.9c1.4,1.1,3.1,2.3,4.9,1.9c1-0.2,1.8-0.9,2.5-1.5c1.4-1.3,3.4-2.7,4.6-4.5
				C471.9,218.8,471.8,217.3,471,215.8z"/>
			<path class="st1" d="M471.2,213.1c-1.1-1.3-2.8-2-3.8-3.3c-1.2,1.2-2.4,2.6-3.5,3.9c-0.2,0.2-0.4,0.4-0.4,0.7
				c-0.2,0.5,0.2,1.1,0.6,1.4c0.3,0.2,0.2,0.2,0.6,0.4c1.9,1.2,4.4,2.2,4.8,4.7c0.2,1.1,0.2,2.2,0.1,3.4c-0.1,0.8-0.2,1.6,0,2.4
				c0.1,0.2,0.2,0.5,0.4,0.6c0.4,0.2,0.8-0.1,1-0.5c0.5-0.9,0-1.9-0.1-2.9c-0.2-2.4,1.6-3.8,2-6.1
				C473.1,216.1,472.3,214.4,471.2,213.1z"/>
			<path class="st15" d="M461,221.3c-2.2,2.1-4.3,4.2-6.4,6.4c-1.4,1.4-2.8,2.8-4.2,4.3c-1,1.1-3.1,2.7-1.3,4.1
				c0.5,0.4,1.2,0.5,1.8,0.2c0.5-0.2,0.8-0.6,1.2-1c3.1-3.5,6.2-7.1,9.4-10.6c0.6-0.7,1.5-1.6,1.3-2.6
				C462.7,221.3,461.8,220.6,461,221.3z"/>
			<path class="st5" d="M409.2,282c-1.9-0.7-4.8-1.4-5.9-3.2c-1.8-2.8-3-6.2-2.5-9.6c0.4-3,2.4-6.4,5.4-7.5c3.5-1.2,7.2,0,10.6,0.9
				c4,1,8.2,1.4,12.4,1.3c2.2-3.5,4.2-7.3,5.9-11.1c1.6-3.6,2.5-7.5,3.9-11.2c0.6-1.5,1.1-3.1,1.9-4.5c1.2-2.2,3.3-3.6,5.4-5
				c1.6-1.1,3.3-2,4.9-3.2c1.4-1,2.6-2.7,4.2-3.4c0.3-0.1,0.6-0.2,0.9-0.1c0.4,0.1,0.6,0.6,0.5,1c0,0.4-0.2,0.8-0.4,1.1
				c-0.9,1.6-2,3.1-3.2,4.5c0.6-0.3,1.4-0.4,1.9,0c0.4,0.3,0.5,0.9,0.4,1.4s-0.4,0.9-0.7,1.4c0.3-0.4,0.9-0.3,1.2,0
				c0.3,0.4,0.3,0.9,0.1,1.3c-0.2,0.4-0.5,0.8-0.9,1.1c0.5-0.4,1.1,0.3,1.1,0.7c0,0.7-0.9,1.5-1.4,1.9c-1.7,1.5-3.7,2.7-5.8,3.4
				c-0.2,0.1-0.4,3-0.4,3.4c-0.2,1.3-0.3,2.5-0.5,3.8c-0.3,2.5-0.7,4.9-1.1,7.4c-0.7,4.8-2,9.5-3.1,14.2c-1.1,5-6,13.7-12.1,13.7
				c-3.3,0.7-6.7,0.2-9.9-0.4C417.4,284.6,413.2,283.4,409.2,282z"/>
			<path class="st15" d="M388.5,231.4c-6-8.3-14.5-1.4-17.4,5.6c-1.1,2.5-1.9,5.2-3.5,7.4c-1.5,2.1-3.7,3.7-5.6,5.5
				c-2.3,2.2-4.1,4.7-5.5,7.6c-1.5,3.1-4,5.6-5.4,8.8c-0.8,1.7-1.3,3.6-0.6,5.3c0.2,0.5,0.5,0.9,0.9,1.2c0.9,0.6,2.1,0.4,3.1,0.1
				c1.7-0.4,3.3-0.7,4.8-1.6c1.5-0.9,2.8-2.2,4.5-2.8c3.9-1.6,8.4,0.5,12.6,0.4c2.1,0,4.2-0.6,6.3-1.2c2.4-0.7,4.9-1.4,7.3-2.1
				c1.2-0.3,2.4-0.7,3.4-1.5c4-3.3,1.8-10.8,0.7-14.9c-1.1-3.9-2.4-7.8-3.4-11.7c-0.3-1.3-0.5-2.5-0.9-3.7
				C389.4,232.9,389,232.1,388.5,231.4z"/>
			<path class="st5" d="M406.6,420.5c0.6,0.8,1.1,1.7,1.6,2.7c3,5.9,3.6,12.7,3.4,19.2c-0.2,5.6-0.9,11.1-1.7,16.6
				c-0.7,4.9-1.3,9.7-2,14.6c-0.1,0.6-0.2,1.2-0.5,1.7c-0.6,0.8-1.7,1-2.8,1c-5.2-0.1-5.7-2.5-6.7-6.7c-0.9-4-1.8-8-2.5-12.1
				c-1.5-8.2-2.9-16.6-3.5-24.9c-0.4-5.9-1.3-19.2,8.5-16.7C403,416.6,405,418.4,406.6,420.5z"/>
			<path class="st5" d="M357.2,426.8c-2.6-5.4-8.2-8.2-11.9-3.4c-4.4,5.6-4.5,12.7-5.9,19.7c-1.3,6.5-2.7,13-4,19.5
				c-0.4,2.2-2.3,7.1-1.5,9.3c1.1,3,6.5,2,8.6,0.7c2-1.2,3.5-3.2,4.8-5.2c7-10.6,15.3-26.7,10.4-39.4
				C357.5,427.4,357.4,427.1,357.2,426.8z"/>
			<path class="st18" d="M388.3,455.7c-0.1,0-0.2,0-0.3,0c-0.8,0-1.7-6.2-2.6-15.2c-2.2-21.4-0.9-56.9-1.2-61.2
				c-0.8-11.7-0.6-23.9-2.2-35.6c-1.4-9.9-2.2-19.2-2-29.4c0.1-6,0.9-12.6,5.2-16.5c13.8-12.2,20.2,8.7,22.1,19.4
				c5,27.7,7.4,53.6,8.5,81.7c0.1,3.2-2.4,48.8-0.9,57.9C404.6,459.4,399,454.7,388.3,455.7z"/>
			<path class="st18" d="M334.3,448.9c7.8-30.4,13-66.1,19.9-96.7c2.6-11.8,5.5-23.5,8.9-35.1c4.1-14,15.2-12.4,19.5,0
				c4.9,13.8,3.8,29.1,1.8,43.3c-1.9,13.6-4.7,27-8.4,40.2c-4.7,16.9-10.4,37.8-15.4,54.8C351.8,453.8,343,451.1,334.3,448.9z"/>
			<g>
				<path class="st23" d="M385.8,254.3c0,0.1,0,0.2,0,0.3c0.1,0,0.1-0.1,0.2-0.1L385.8,254.3z"/>
				<path class="st9" d="M412,285c5,1.5,10.1,2.4,15.5,2.5c5.1,0,10.5-1.2,14-4.9c2.4-2.5,3.8-5.8,4.9-9c2-5.6,3.6-11.4,4.9-17.2
					c0.1-0.2,0.1-0.5,0-0.7c-0.1-0.4-0.6-0.7-1.1-0.8c-5.2-1.9-10.5-3.8-15.7-5.7c-2.5,4.8-4.8,9.7-6.6,14.8
					c-6.3-1.2-13.3-1.7-19.4-3.9c-5.6-2-11.7-3.5-17.6-3.6c-2.1-0.1-4.6-1-5.8,1.6c-0.1,0.2-0.2,0.4-0.1,0.6c0,0.2,0.1,0.3,0.1,0.4
					c0.1,0.2,0.9,3,1,3c0.5,1.8,1,3.5,1.6,5.3c1.2,3.8,2.8,7.6,5.7,10.3c3.2,3,9.5,4.3,13.4,5.7C408.6,284,410.3,284.5,412,285z"/>
			</g>
			<path class="st9" d="M409.1,315c-1-11.1-2.1-22.6-5.4-33c-2.8-8.9-4.9-20.8-13.6-25.4c-0.2-0.1-0.4-0.2-0.6-0.3
				c-0.5-0.3-2.7,0.5-3.3,0.6c-1,0.1-2,0.1-3,0.3c-2.3,0.4-4.7,0.7-7,0c-0.6-0.2-1.1-0.4-1.7-0.5c-0.9-0.1-1.8,0.3-2.6,0.6
				c-0.4,0.2-0.8,0.3-1.1,0.6c-0.3,0.3-0.5,0.7-0.6,1.1c-0.7,1.8-1.3,3.6-1.9,5.5c-0.5,1.5-0.8,3.3-1.4,4.7
				c-3.6,8.5-3.8,18.1-4.7,27.3c-0.4,4-0.8,8-1.2,12c-0.4,3.5-0.5,7.6-1.9,10.8c7.1,1.7,15.3,2.4,22.6,2.2
				c9.7-0.3,19.6,0.4,28.2,0.6C409.5,319.7,409.3,317.3,409.1,315z"/>
			<path class="st15" d="M399.8,482.3c-3.2-0.6-2.3-3-2.3-5.4c0-2.3-0.2-4.4-0.4-6.7c0-0.2,0-0.4,0.1-0.6c0.1-0.2,0.4-0.2,0.7-0.2
				c3.6-0.1,7.2-0.1,10.8-0.2c0.2,0,0.4,0,0.6,0.1c0.2,0.1,0.3,0.2,0.4,0.4c1.7,2,2.5,4.3,5,5.4c2,0.9,4.3,1,6.5,1.4
				c2.2,0.4,4.4,1.1,5.9,2.8c0.3,0.3,0.5,0.7,0.6,1.1c0.4,3.2-12.9,2.1-15.1,2.1C408.3,482.3,404.1,482.3,399.8,482.3z"/>
			<path class="st5" d="M387.3,249.7C387.3,249.7,387.3,249.7,387.3,249.7c-0.1,0.2-0.1,0.3-0.1,0.4c0,1.6-0.1,3.3,0.2,4.8
				c0,0.2,0.1,0.4,0.2,0.5c0.3,0.4,0.8,0.5,1.3,0.6c0.1,0,0.1,0.1,0.2,0.1c0,0.1,0,0.1,0,0.2c-0.5,1.8-1.9,2.9-3.5,3.5
				c-1.5,0.6-3.2,0.6-4.8,0.4c-0.7-0.1-1.3-0.2-2-0.4c-0.8-0.3-1.5-0.7-2.2-1.2c-0.4-0.3-1.8-1.4-1.8-1.9c0-0.2,0.6-0.7,0.8-1
				c0.2-0.4,0.4-0.8,0.5-1.2c0.3-0.8,0.4-1.7,0.5-2.6c0.5-3.9,0.5-7.7,0.2-11.5c-0.2-2.9,0.8-6.3,2.9-8.2c2.6-2.3,7-1.6,9,1.2
				c0.6,0.9,1,2,1.3,3c0.5,2,0.7,4.1,0.5,6.1c-0.2,2.4-1.1,5-2.9,6.7C387.5,249.5,387.4,249.5,387.3,249.7z"/>
			<path class="st15" d="M318.3,482.2c-1.5,0-3.1-0.1-3.8-0.6c-0.7-0.5-0.7-1.6-0.3-2.3c0.5-0.7,1.2-1.2,2-1.5c3.9-1.5,8.3-1.1,12-3
				c3-1.5,5.5-4.7,5.8-8.1c4.1-0.4,8.5,0.4,12.5,1c0.2,0,0.5,0.1,0.6,0.2c0.3,0.3,0.1,0.8-0.1,1.1c-1.3,2.3-1.8,4.9-2.1,7.5
				c-0.1,1.2-0.2,2.4-0.7,3.5c-1.6,3.6-11.2,2-14.5,2c-2.9,0-5.9,0-8.8,0C320.4,482.1,319.4,482.2,318.3,482.2z"/>
			<path class="st15" d="M380.9,227.4c-1.5,0.3-3.3,1.2-4,2c-0.8,1-1.2,2.3-2,3.2c-1.1,1.3-1.6,3.1-1.5,4.9c0.1,1.4,0.8,4.8,2.5,4.9
				c1.3,0.1,1.9-1,2.3-2.1c0.5-1.4,0-3.9,1.8-4.6c1-0.4,2.1,0.1,3.2,0.5c1.7,0.7,3.5,1.4,5.4,1.1c1.8-0.2,3.7-1.5,3.9-3.4
				c0.1-1.2-0.4-2.3-1.2-3.2c-0.8-0.8-1.9-1.3-3.1-1.6c-1.4-0.4-2.9-0.4-4.2-1.1c-0.5-0.3-1-0.6-1.5-0.7
				C382,227.3,381.5,227.3,380.9,227.4z"/>
			<path class="st5" d="M377.8,243.8c-1.2,0.2-2.4-0.9-2.7-2c-0.1-0.5,0-1.1,0.2-1.6c0.5-1.2,1.5-2.3,3-2.1c1.1,0.1,2.1,1,2.3,2.1
				c0.1,0.4,0,0.9-0.1,1.3C380,242.8,379,243.6,377.8,243.8z"/>
			<path class="st24" d="M386.7,335.9c0-0.3-0.5-0.2-0.5,0.1c-0.1,2.6,0.1,5.2,0.1,7.8c0,2.6-0.2,5.3-0.4,7.9
				c-0.4,5.3-1.3,10.5-2.3,15.8c-0.1,0.3,0.4,0.5,0.5,0.1c1.2-5.1,1.9-10.5,2.4-15.8c0.2-2.7,0.4-5.4,0.4-8.1
				C387,341.2,387.1,338.5,386.7,335.9z"/>
			<path class="st24" d="M366.9,335.7c-1.6,1.1-3.4,1.8-5.2,2.3c-0.9,0.2-1.9,0.3-2.8,0.4c-0.9,0-1.9-0.1-2.8-0.1
				c-0.6,0-0.7,0.9-0.1,1.1c1.9,0.4,4.1,0,5.9-0.5c1.9-0.5,3.8-1.4,5.4-2.6C367.6,336,367.3,335.5,366.9,335.7z"/>
			<path class="st24" d="M411.2,338.6c-0.7,0-1.4,0-2.1,0c-0.7-0.1-1.3-0.2-2-0.5c-1.3-0.5-2.4-1.5-3.1-2.7c-0.3-0.5-1-0.1-0.8,0.5
				c0.7,1.5,2,2.7,3.4,3.4c1.5,0.7,3.3,1.1,4.8,0.4C411.9,339.3,411.7,338.6,411.2,338.6z"/>
			<path class="st24" d="M361.7,454.9c-0.5-0.3-1.1-0.3-1.6-0.4c-0.6-0.1-1.2-0.2-1.8-0.3c-1.1-0.2-2.2-0.4-3.4-0.6
				c-2.4-0.5-4.8-1-7.1-1.6c-2.3-0.6-4.6-1.2-6.9-1.8c-2.3-0.6-4.7-1.5-7-2c-0.5-0.1-0.6,0.6-0.2,0.8c2.2,1,4.6,1.6,7,2.2
				c2.3,0.7,4.7,1.3,7.1,1.9c2.3,0.6,4.6,1.1,7,1.6c1.2,0.3,2.4,0.5,3.6,0.8c1,0.2,2.3,0.7,3.4,0.5
				C362,455.9,362.1,455.2,361.7,454.9z"/>
			<path class="st24" d="M415.6,456.1c-1.2,0-2.4,0.4-3.6,0.5c-1.2,0.1-2.3,0.2-3.5,0.2c-2.4,0.1-4.8-0.1-7.2-0.6
				c-4.5-0.8-9-2.9-13.6-1.8c-0.7,0.2-0.4,1.2,0.3,1.1c4.8-0.8,9.5,1.5,14.2,2.2c2.3,0.3,4.6,0.5,6.8,0.4c1.2,0,2.4-0.1,3.6-0.3
				c1.1-0.1,2.3-0.2,3.3-0.7C416.5,457,416.2,456.2,415.6,456.1z"/>
			<g>
				<path class="st25" d="M326.9,375.2c-0.3-4.7,0.3-9.5,2.4-13.7c3.4-7,10.5-10.8,18.3-8.9c11.5,2.8,13.4,14.9,11.7,23.7"/>
				<polygon class="st7" points="359.2,395.2 327.3,395.2 325.3,372.2 361.2,372.2 				"/>
			</g>
			<path class="st5" d="M339.3,316.3c0.2-3.3,0.5-6.6,0.8-10c0.9-10.4,4.4-20.2,9.5-29.3c1.6-2.8,5-6.6,8.5-6.2
				c1.9,0.3,3.7,1.4,5.1,2.7c0.8,0.7,1.6,1.5,2.1,2.5c1.8,3.2,0.8,7.2-0.5,10.6c-1.3,3.2-3,6.1-4.5,9.2c-1.2,2.4-1.8,5.1-3.1,7.5
				c-0.5,1-1,1.9-1.4,3c-0.4,1.2-0.5,2.5-0.6,3.8c-0.4,3.6-0.9,7.1-1.5,10.7c-0.6,3.8-1.2,7.6-1.9,11.4c-0.3,1.6-0.6,3.2-0.9,4.8
				c-0.4,2.3-1.3,4.4-0.9,6.8c0.3,1.8,1.2,3.4,2,5.1c0.6,1.4,1.2,2.8,1.7,4.2c0.2,0.5,0.3,1.1,0.1,1.6c-0.4,0.6-1.2,0.6-1.8,0.2
				c-0.6-0.4-0.9-1-1.2-1.6c0.1,0.2-0.4,1.8-0.4,2.2c0,0.7,0,1.3-0.2,2c-0.3,1-0.9,2.2-2.2,2c-0.9-0.2-1.3-1.2-1.3-2.1
				c-0.1,0.5-0.2,1-0.6,1.4c-0.3,0.4-0.9,0.6-1.3,0.4c-0.2-0.1-0.4-0.3-0.5-0.5c-0.4-0.6-0.6-1.3-0.5-2c-0.2,0.5-0.4,1.1-0.8,1.5
				c-0.4,0.4-1,0.7-1.6,0.5c-1-0.3-1.2-1.6-1.1-2.7c-0.4,0.8-1.3,1.8-2.2,1.1c-0.8-0.7-0.6-2.6-0.6-3.5c0.1-2.7,0.4-5.5,0.7-8.2
				c0.3-2.4,0.2-4.7,0.3-7.1c0.1-1.9,0.1-3.7,0.2-5.6C338.8,327.3,338.9,321.8,339.3,316.3z"/>
			<path class="st9" d="M382,261.5c-1.3-0.1-2.6-0.5-3.8-1.3c-1.5-1-2.6-2.3-3.8-3.6c-2.9,0.6-5.8,1.1-8.7,1.8
				c-2.6,0.6-5.6,1.9-7.9,3.3c-10.8,6.7-14.1,22.4-16.9,33.9c-3.3,13.7-4.7,27.8-4.1,41.9c0,0.4,9.6,0.8,10.5,0.9
				c2.7,0.1,5.3,1.4,6-2.1c2.8-13.4,2.2-27.7,8-40.1c3-6.4,7.6-10.2,12.1-15.4c2.1-2.4,4.2-5.2,6.6-7.2c1.9-1.6,2.9-2.8,2.7-5.6
				c-0.1-1.5-0.3-3-0.7-4.5C382,262.9,382,262.2,382,261.5z"/>
			<path class="st15" d="M389.4,255.6c-0.8,1.2-1.6,2.4-2.8,3.2c-1.2,0.9-2.7,1.4-4.1,1.5c-1.5,0.1-3.1-0.3-4.4-1.1
				c-1.4-0.9-2.3-2.2-3.5-3.4c-0.5-0.5-1.1,0.2-0.7,0.8c2.2,2.7,5.4,4.9,9,4.6c2.9-0.2,6.3-2.2,7.1-5.3
				C390.1,255.4,389.6,255.3,389.4,255.6z"/>
			<path class="st25" d="M362,295.4c1.3-3.2,2.8-6.4,4.3-9.6"/>
			<path class="st25" d="M404,282.4c-1.5-2.2-3.1-4.3-4.7-6.4"/>
			<path class="st25" d="M378.1,239.8c-0.7-0.1-1.4,0.2-1.7,0.8c-0.3,0.6-0.2,1.4,0.3,1.9"/>
			<g>
				<defs>
					<polygon id="SVGID_00000031181070292566830950000004797595501537437851_" points="359.2,395.2 327.3,395.2 325.3,372.2 
						361.2,372.2 					"/>
				</defs>
				<clipPath id="SVGID_00000116946107539806129240000009746603328654264756_">
					<use xlink:href="#SVGID_00000031181070292566830950000004797595501537437851_"  style="overflow:visible;"/>
				</clipPath>
				<path style="clip-path:url(#SVGID_00000116946107539806129240000009746603328654264756_);fill:#F4B02B;" d="M332.6,370.1
					c0.9,3,1.4,6.1,1.3,9.2c0,1-0.1,2.1,0.3,3.1c0.4,1,1.4,1.8,2.4,1.6c0.9-0.2,1.5-1.1,1.7-2c0.2-0.9,0-1.8,0-2.8
					c0-1.5,0.5-3,1.6-3.9c0.2-0.2,0.5-0.3,0.8-0.3c0.6,0.1,0.8,0.8,0.9,1.4c0,0.6,0,1.3,0.4,1.7c0.5,0.5,1.4,0.2,1.8-0.4
					c0.4-0.6,0.4-1.3,0.5-2c0.1-2.1,0.2-4.3,0.2-6.4"/>
			</g>
			<path class="st25" d="M467.2,209.6c1,0.8,2.1,1.7,3.1,2.5c0.8,0.6,1.6,1.3,2.1,2.1c0.8,1.2,1.2,3.3,0.5,4.7
				c-0.4,0.7-0.9,1.2-1.2,1.9c-0.6,1.2-0.6,2.5-0.7,3.8c0,0.9,0.2,2.5-1,2.8"/>
			<path class="st15" d="M388.3,249.1c-0.8,0.5-1.6,0.5-2.4,0.4c-0.5-0.1-2.1-0.3-2.1,0.6c0,0.7,1.5,1.3,2,1.4c0.2,0,0.4,0,0.5,0
				c0.5,0.1,0.9,0.5,1.4,0.5c0.5,0.1,1-0.2,1.4-0.6c0.3-0.4,0.5-0.9,0.6-1.4c0.1-0.4,0.2-0.8-0.1-1.1c-0.2-0.2-0.5-0.1-0.7-0.1
				C388.7,248.9,388.5,249,388.3,249.1z"/>
			<g>
				<defs>
					<path id="SVGID_00000127757324188424002490000009634583990069970104_" d="M388.3,455.7c-0.1,0-0.2,0-0.3,0
						c-0.8,0-1.7-6.2-2.6-15.2c-2.2-21.4-0.9-56.9-1.2-61.2c-0.8-11.7-0.6-23.9-2.2-35.6c-1.4-9.9-2.2-19.2-2-29.4
						c0.1-6,0.9-12.6,5.2-16.5c13.8-12.2,20.2,8.7,22.1,19.4c5,27.7,7.4,53.6,8.5,81.7c0.1,3.2-2.4,48.8-0.9,57.9
						C404.6,459.4,399,454.7,388.3,455.7z"/>
				</defs>
				<clipPath id="SVGID_00000116918463998329066150000012804657204140084653_">
					<use xlink:href="#SVGID_00000127757324188424002490000009634583990069970104_"  style="overflow:visible;"/>
				</clipPath>
				<path style="clip-path:url(#SVGID_00000116918463998329066150000012804657204140084653_);fill:#F4B02B;" d="M409.5,434.2
					c-1.2,4.2,1.5,9.2-0.8,12.9c-0.7,1.2-1.9,2-2.7,3.1c-0.8,1.1-1.2,2.8-0.2,3.8c0.7,0.8,2,0.8,3,0.8c2.6-0.1,5.3-0.5,7.3-2.1
					c2.7-2.2,3.3-6,3.4-9.5c0.1-2.9,0.8-11.4-1.7-13.5C415,427.4,410.3,431.4,409.5,434.2z"/>
			</g>
		</g>
		<g>
			<path class="st28" d="M179.8,297.8c3.4-4.1,7.3-7.8,11.5-11.1c1.2-0.9,2.4-1.8,3.8-2.1c1.4-0.3,3.1,0.1,3.9,1.3
				c1,1.5,0.5,3.5-0.1,5.2c-3.3,9.4-8.2,18.2-14.3,25.9c-1.4,1.7-2.9,3.5-5,4c-3.7,0.9-8.4-5.2-11.1-7.2c-4.8-3.5-9.6-7.1-14.1-11
				c-4.5-3.8-9.2-8.3-10-14.3c-0.6-3.9,0.8-8.1,3.5-10.9c3.4-3.6,7.2-5.2,10.9-1.6c3.1,3,5.2,7,7.5,10.7c3.2,5.2,6.9,10,11,14.4
				C178,300,178.8,298.9,179.8,297.8z"/>
			<path class="st2" d="M177,300.9c0.4,2.8,0.8,5.6,1,8.5"/>
			<path class="st6" d="M119.4,311.5c0.6-5.7,1.6-11.4,1.8-17.1c0.1-2.9,0-5.8-0.5-8.7c-0.4-2.4,0.3-4.8-1-7.1
				c-0.8-1.5-2.4-2.7-4.1-2.9c-1-0.1-2,0.1-3,0.4c-1.9,0.5-3.8,1.1-5.6,2.1c-3.1,1.7-5.5,4.4-7.1,7.5c-1.7,3.1-2.6,6.5-3.2,9.9
				c-1.2,7.5-0.8,15.4,2.1,22.4c2.2,5.4,10.3,9.4,15.6,5.7C118.3,321.1,119,316,119.4,311.5z"/>
			<path class="st6" d="M160.8,462.5c0.1-1.3,0.2-2.6,0.3-3.9c0.2-3.1,0.5-6.4-0.7-9.3c-1.1-2.9-4-5.4-7.1-5
				c-1.8,0.2-3.4,1.4-4.5,2.9c-1.8,2.3-2.6,5.4-2.8,8.3c-0.3,6.4,1.2,13.1,2.3,19.4c0.4,2.7,1.9,5.7,4.7,6.5
				c5.3,1.7,6.8-5.5,7.1-9.2C160.3,469,160.5,465.8,160.8,462.5z"/>
			<path class="st15" d="M179.4,484.1c-0.1-0.1-0.2-0.2-0.4-0.4c-1.5-1.4-3.6-1.8-5.5-2.1c-3.1-0.6-5.4-1.4-8.1-2.8
				c-1.8-0.9-3.5-1.6-4.3-3.6c-0.1-0.3-0.3-0.7-0.7-0.9c-0.2-0.1-0.3,0-0.5,0c-4.3,0.6-8.4,0.2-12.4-1.6c0.2,0.1-0.3,11-0.3,12
				c-0.1,1.8-0.7,2.4,1.4,3c1.7,0.5,3.6,0.4,5.4,0.3c8-0.4,16.1-0.3,24-0.8c0.5,0,1.1-0.1,1.5-0.4c0.5-0.4,0.6-1.1,0.5-1.6
				C179.9,484.8,179.7,484.4,179.4,484.1z"/>
			<path class="st6" d="M108,459.2c0.8-2.4,1.6-4.8,2.3-7.2c1.2-4.1,2.5-8,0.9-12.2c-0.9-2.5-3.3-4.7-5.9-4.4c-1.4,0.2-2.6,1-3.7,2
				c-5.1,4.6-6.9,11.6-7.7,18.2c-0.4,3.8-0.7,7.6-1.3,11.4c-0.6,3.6,0.7,8,5.3,7.8c2.1-0.1,4-1.5,5.3-3.2c1.2-1.7,2-3.7,2.7-5.7
				C106.5,463.6,107.2,461.4,108,459.2z"/>
			<path class="st18" d="M133.6,375.1c1.9,12.6,2.7,25.4,3.5,38.1c1,16.6,1.4,33.1,0.8,49.8c8.2,0.3,18.9,0.1,27.1-0.8
				c0.7-2.6,0.1-7.2,0.1-9c0.1-4.2,0.3-8.4,0.5-12.6c0.7-17-0.8-33.4-2.3-50.4c-1.1-11.9-2.4-23.7-4-35.6c-0.7-5.1-1-10.5-2.4-15.4
				c-1.5-5.1-4.1-9.7-5-15.1c-0.8-4.8-0.7-10.4-6.1-12.4c-3.1-1.1-6.6,0.2-8.9,2.6c-2.3,2.4-3.5,5.7-4.4,8.9
				c-1.9,7-3.6,14.2-3.9,21.5c-0.4,7.3,2.3,14,3.7,21.1C132.6,368.9,133.1,372,133.6,375.1z"/>
			<g>
				<path class="st18" d="M132.2,312.3c-6.5-1.2-16.4-2.5-19.5,5c-3.3,7.8-5.8,15.9-7.6,24.2c-2.2,10.3-2.4,20.7-3.6,31.1
					c-2.6,22.2-7.1,44.2-10.3,66.3c-0.8,5.4-1.6,10.8-2.3,16.2c0.6,0.4,1.2,0.7,1.8,1c3.7,0.8,7.4,1.6,11,2.5
					c0.7,0.2,1.5,0.4,2.2,0.6c0,0,0,0,0,0c3.5,0.5,6.9,1,10.4,1.2c1.3,0.1,2.5,0.1,3.8,0.1c6.9-42.4,12.9-84.9,18.8-127.5
					C137.9,325.3,142.4,314.3,132.2,312.3z"/>
			</g>
			<path class="st9" d="M110.7,316.1c-1,3.9-2,7.9-3.3,11.8c-0.4,1.2-0.8,2.4-1.1,3.6c-0.4,1.3-0.6,1.6,0.4,1.8
				c2.2,0.5,5.2,0.2,7.5,0.3c10.7,0.7,21.5,1,32.2,0.8c3,0,6-0.1,9-0.2c-0.8-8.6-1.5-17.2-2.2-25.9c-0.6-7.7,0-15,0.7-22.6
				c0.4-3.9,0.9-7.9-2.1-10.8c-2.5-2.4-5.5-4.2-8.8-5.1c-0.9-0.2-1.7-0.4-2.6-0.4c-2,0-3.8,1-5.7,1.4c-2.7,0.6-5.4,0-8.1-0.7
				c-0.5-0.1-1.1-0.3-1.6-0.3c-0.7,0-1.3,0.2-2,0.4c-2.3,0.7-4.6,1.5-6.9,2.2c-2.7,0.9-4.8,3.5-4.7,6.4c0.1,1.7,0.7,3.3,1.2,4.9
				c2.5,8,2.6,16.8,0.1,24.8C112.1,310.9,111.4,313.5,110.7,316.1z"/>
			<path class="st9" d="M165.6,284.1c-2.2-3.1-4.9-6.4-7.8-8.4c-3.4-2.3-7.7-4.1-11.5-5.6c-1.5-0.6-3.7-1.8-5.3-1.8
				c-2.3-0.1-3.3,1.7-5.2,2.7c1.2,1.7,2,3.6,2.3,5.6c0.9,6.1,2.1,12.4,4.5,18.2c1.1,2.6,2.6,5.7,5,7.2c1.4,0.9,2.5,1,4,0.8
				c2.2-0.3,3.9-0.3,6.1-0.1c0.3,0,0.6,0.1,0.8-0.1c0.2-0.1,0.4-0.3,0.5-0.5c3.1-4.5,5.8-9.3,8.1-14.4c0.1-0.2,0.2-0.5,0.2-0.7
				c0-0.4-0.2-0.7-0.4-1C166.5,285.4,166.1,284.8,165.6,284.1z"/>
			<path class="st6" d="M139.5,259.4c-0.2,0.3-0.3,0.6-0.3,1c-0.1,1.3,0.3,2.6,0.4,4c0.1,1.3,0.3,3.1,1.4,3.9
				c-2.7,2.5-6.5,2.9-10.1,2.9c-1,0-2.1,0-3.1-0.4c-1-0.3-1.9-1-2.3-2c0.7-0.2,1.2-0.9,1.5-1.6c0.3-0.7,0.3-1.5,0.4-2.2
				c0.2-3.5,0.5-7,0-10.5c-0.4-2.9-0.6-5.8,0.7-8.6c1.3-3,4.2-5.1,7.3-5.7c1.4-0.3,3-0.2,4.3,0.5c1,0.5,2.6,1.1,3.1,2.2
				c0.4,0.9,0.5,2.3,0.7,3.2c0.5,3,0.4,6-0.3,8.9c-0.3,1.1-0.7,2.3-1.6,2.9C140.7,258.5,139.9,258.7,139.5,259.4z"/>
			<path class="st15" d="M143,240.5c-0.3-0.2-0.7-0.4-1.1-0.6c-2.6-1.2-5.6-1.3-8.4-1c-1.4,0.1-2.9,0.4-4.3,0.7
				c-0.6,0.2-1.3,0.3-1.8,0.7c-0.5,0.3-0.9,0.8-1.3,1.3c-1.1,1.3-1.9,3-2.3,4.6c-0.4,1.6-0.3,3.3-0.2,5c0,0.5,0,0.9,0.2,1.4
				c0.2,0.8,0.7,1.5,1.2,2.2c0.5,0.7,1.7,2,2.6,1.5c0.6-0.3,0.9-1.2,1.1-1.8c0.2-0.8,0.2-1.6,0.1-2.4c-0.1-0.9,0-1.9,0.5-2.7
				c0.2-0.3,0.4-0.5,0.7-0.6c0.6-0.2,1.2,0.1,1.7,0.3c0.6,0.2,1.3,0.4,1.7,0c0.3-0.3,0.4-0.8,0.4-1.2c0.1-0.8,0-1.7,0.7-2.2
				c0.5-0.4,1.1-0.4,1.7-0.3c1.4,0,2.8,0,4.2-0.2c0.7-0.1,1.5-0.2,2.2-0.5c0.5-0.2,1.2-0.6,1.5-1.2c0.3-0.6,0.2-1.5-0.2-2.1
				C143.8,241.1,143.4,240.8,143,240.5z"/>
			<path class="st5" d="M112.3,367.4c0-0.1,0-0.2,0-0.4"/>
			<path class="st6" d="M131.7,250.1c-0.4-1.7-2.1-1.7-3-1.5c-2.9,0.9-2.7,4.5-0.1,5.7c0.6,0.3,1.5,0.3,2-0.2"/>
			<path class="st15" d="M151,290.7c-0.1-0.4-0.6-0.2-0.5,0.2c0.7,4.2,1.3,8.4,2.2,12.5c0.1,0.4,0.6,0.2,0.6-0.2
				C152.7,299,151.8,294.9,151,290.7z"/>
			<path class="st15" d="M117,486.6c-0.3-0.6-0.8-1-1.2-1.4c-3.5-3.1-8.3-6.1-9.9-10.8c-0.5-1.6-0.7-3.2-0.8-4.9
				c-2.3-0.3-4.6-0.8-6.9-1.4c-1.2-0.3-4.9-2.5-5.9-2.1c-1.1,0.4-2.1,4.4-2.5,5.5c-0.8,2.1-1.5,4.3-2,6.5c0,0.2-0.1,0.3,0,0.5
				c0.1,0.1,0.2,0.2,0.3,0.2c0.1,0,0.1,0,0.2,0.1c2.7,1,5.3,2.2,7.9,3.2c2.8,1,5.5,2,8.3,3.1c2.5,1,5,2.4,7.5,3.2
				C113.4,488.6,118.5,489.5,117,486.6z"/>
			<path class="st9" d="M105.1,277.8c-3.1,2.5-5.8,5.5-8.1,8.7c-0.6,0.8-6.2,10.3-5.7,10.4c8.5,3.1,17.1,6.3,25.6,9.4
				c1.2-2.7,15.1-34.8,14.6-34.9c-1.4-0.5-2.8-0.8-4.1-1.3c-1.3-0.5-2-1-3.5-0.6c-4.5,1-8.9,2.4-13,4.4
				C108.8,275,106.9,276.3,105.1,277.8z"/>
			<path class="st15" d="M140.8,267.7c-2.1,2-4.8,3.2-7.7,3.3c-1.4,0.1-2.8-0.1-4.2-0.5c-0.7-0.2-1.4-0.5-2.1-0.8
				c-0.6-0.3-1.1-0.7-1.7-0.9c-0.4-0.1-0.5,0.3-0.3,0.6c0.8,1.1,2.6,1.8,3.9,2.2c1.5,0.5,3.1,0.7,4.7,0.6c3-0.2,5.9-1.5,8.2-3.5
				C142.1,268,141.3,267.2,140.8,267.7z"/>
			<g>
				<path class="st30" d="M132.9,246.7c0,0.1,0.1,0.2,0.2,0.2c4.4,0.6,8.8,1.3,13.2,0.8c1.1-0.1,2.3-0.3,3.3-0.9
					c0.8-0.5,1.6-1.3,1.4-2.2c-0.1-0.9-1-1.5-1.9-2c-1.6-0.8-3.3-1.4-5-1.7c-0.6-0.1-1.3-0.5-1.9-0.5c-0.8,0-1.7,0.4-2.4,0.7
					c-1.7,0.7-3.4,1.6-4.9,2.7C134.7,244.1,132.9,246,132.9,246.7z"/>
				<path class="st1" d="M126.2,249.8c2.4-0.7,4.8-1.7,7-2.8c3.6-1.8,7.3-3.7,10.2-6.5c-1.7-2.7-4.6-4.7-7.8-5.2
					c-4.2-0.6-8.6,1.5-10.9,5c-1.8,2.9-2.1,6.7-0.9,9.9C124.6,250.2,125.4,250,126.2,249.8z"/>
			</g>
			<g>
				<defs>
					<path id="SVGID_00000033364143829451013490000010149526970106119329_" d="M139.5,259.4c-0.2,0.3-0.3,0.6-0.3,1
						c-0.1,1.3,0.3,2.6,0.4,4c0.1,1.3,0.3,3.1,1.4,3.9c-2.7,2.5-6.5,2.9-10.1,2.9c-1,0-2.1,0-3.1-0.4c-1-0.3-1.9-1-2.3-2
						c0.7-0.2,1.2-0.9,1.5-1.6c0.3-0.7,0.3-1.5,0.4-2.2c0.2-3.5,0.5-7,0-10.5c-0.4-2.9-0.6-5.8,0.7-8.6c1.3-3,4.2-5.1,7.3-5.7
						c1.4-0.3,3-0.2,4.3,0.5c1,0.5,2.6,1.1,3.1,2.2c0.4,0.9,0.5,2.3,0.7,3.2c0.5,3,0.4,6-0.3,8.9c-0.3,1.1-0.7,2.3-1.6,2.9
						C140.7,258.5,139.9,258.7,139.5,259.4z"/>
				</defs>
				<clipPath id="SVGID_00000182488855247930506310000012501240483138238108_">
					<use xlink:href="#SVGID_00000033364143829451013490000010149526970106119329_"  style="overflow:visible;"/>
				</clipPath>
				<path style="clip-path:url(#SVGID_00000182488855247930506310000012501240483138238108_);fill:#010101;" d="M137.8,259.4
					c-0.6,0-1.2-0.1-1.8-0.1c-0.2,0-0.4,0-0.5,0.1c-0.2,0.1-0.3,0.3-0.2,0.5c0,0.1,0.1,0.2,0.2,0.3c0.5,0.3,0.9,0.6,1.4,0.9
					c0.7,0.4,1.5,0.8,2.3,0.9c0.8,0.1,1.7,0,2.4-0.6c0.7-0.6,1.3-2.1,0.1-2.5c-0.5-0.2-1.2,0.2-1.7,0.3
					C139.3,259.4,138.5,259.5,137.8,259.4z"/>
			</g>
			<g>
				<defs>
					<path id="SVGID_00000167368161934537751650000003359530150855377284_" d="M132.2,312.3c-6.5-1.2-16.4-2.5-19.5,5
						c-3.3,7.8-5.8,15.9-7.6,24.2c-2.2,10.3-2.4,20.7-3.6,31.1c-2.6,22.2-7.1,44.2-10.3,66.3c-0.8,5.4-1.6,10.8-2.3,16.2
						c0.6,0.4,1.2,0.7,1.8,1c3.7,0.8,7.4,1.6,11,2.5c0.7,0.2,1.5,0.4,2.2,0.6c0,0,0,0,0,0c3.5,0.5,6.9,1,10.4,1.2
						c1.3,0.1,2.5,0.1,3.8,0.1c6.9-42.4,12.9-84.9,18.8-127.5C137.9,325.3,142.4,314.3,132.2,312.3z"/>
				</defs>
				<clipPath id="SVGID_00000076604368946359134820000011918304768330154893_">
					<use xlink:href="#SVGID_00000167368161934537751650000003359530150855377284_"  style="overflow:visible;"/>
				</clipPath>
				<path style="clip-path:url(#SVGID_00000076604368946359134820000011918304768330154893_);fill:#010101;" d="M83.5,447.9
					c2.2,0.1,13.9,0.3,14-3.6c0-0.9-0.7-1.6-0.9-2.5c-0.6-2.2,2.3-4.5,1.3-6.6c-0.5-1.1-1.9-1.5-2.5-2.5c-0.8-1.2-0.4-2.8,0.1-4.2
					c0.7-2.2,1.1-4.5,1.5-6.8c0.5-3.1-2-6.7-5.4-6.7c-1.1,0-0.9,0.2-1.5,1.1c-1.1,1.8-1.3,4-1.5,6.1c-0.3,5.8,0.2,11.8-1.9,17.2
					c-0.5,1.4-1.2,2.8-1.5,4.2C84.9,445.2,82.5,446.8,83.5,447.9z"/>
			</g>
			<g>
				<defs>
					<path id="SVGID_00000173869670796365065870000004510250314174779326_" d="M133.6,375.1c1.9,12.6,2.7,25.4,3.5,38.1
						c1,16.6,1.4,33.1,0.8,49.8c8.2,0.3,18.9,0.1,27.1-0.8c0.7-2.6,0.1-7.2,0.1-9c0.1-4.2,0.3-8.4,0.5-12.6
						c0.7-17-0.8-33.4-2.3-50.4c-1.1-11.9-2.4-23.7-4-35.6c-0.7-5.1-1-10.5-2.4-15.4c-1.5-5.1-4.1-9.7-5-15.1
						c-0.8-4.8-0.7-10.4-6.1-12.4c-3.1-1.1-6.6,0.2-8.9,2.6c-2.3,2.4-3.5,5.7-4.4,8.9c-1.9,7-3.6,14.2-3.9,21.5
						c-0.4,7.3,2.3,14,3.7,21.1C132.6,368.9,133.1,372,133.6,375.1z"/>
				</defs>
				<clipPath id="SVGID_00000065771514878385557800000015261934745269581456_">
					<use xlink:href="#SVGID_00000173869670796365065870000004510250314174779326_"  style="overflow:visible;"/>
				</clipPath>
				<path style="clip-path:url(#SVGID_00000065771514878385557800000015261934745269581456_);fill:#010101;" d="M141.9,455.5
					c0.7,0.8,1.2,1.9,2.2,2.1c0.6,0.2,1.2,0,1.8-0.2c1.7-0.4,3.6-0.5,4.8,0.7c0.9,0.9,1.1,2.3,1.3,3.6c0.1,0.7,0.2,1.5-0.1,2.2
					c-0.3,0.9-1.1,1.5-1.9,2c-4.1,2.4-9.2,1.9-14,1.4c-0.4,0-0.9-0.1-1.3-0.3c-0.4-0.2-0.7-0.6-1-1
					C130.2,460.6,135.6,448.1,141.9,455.5z"/>
			</g>
			<path class="st2" d="M132.2,366.9c1.2-9.1,2.2-18.1,3.1-27.2"/>
			<path class="st2" d="M112.8,406.7c0.4,1.4,2,2.2,3.4,2.3c1.5,0.1,2.9-0.5,4.2-1"/>
			<path class="st2" d="M160.7,404.9c-0.4,1.7-2.3,2.9-4,2.5"/>
			<path class="st2" d="M136.9,462.9c9.6,0.7,19.7,0.5,29.2-0.9"/>
			<path class="st2" d="M119,460.3c-10.5,0.1-21.1-1.7-30.9-5.4"/>
			<path class="st1" d="M173.7,219.6l18.5,5.8l-4.2,63l0.3,0.1l18.5-58.5l13.1,4.2l-31,97.7l-15.1-4.8l5-76.9l-0.3-0.1l-22.6,71.3
				l-13.1-4.2L173.7,219.6z"/>
			<path class="st28" d="M206.5,285.2c-0.1-0.2-0.3-0.4-0.5-0.5c0.6-0.9,1.2-3-0.4-3.3c-1.9-0.4-3.7-0.4-5.6-0.3
				c-0.8,0-1.5,0.7-1.5,1.5c0,0.8,0.7,1.5,1.5,1.5c1,0,1.9-0.1,2.9,0c-0.1,0-0.3,0-0.4,0c-1.1,0.1-2.1,0.1-3.2,0.2
				c-0.8,0-1.5,0.7-1.5,1.5c0,0.5,0.3,1,0.7,1.3c-0.3,0.2-0.6,0.5-0.6,0.9c-0.2,0.8,0.2,1.6,1,1.8c0.9,0.2,1.7,0.4,2.6,0.5
				c-0.8,0-1.6-0.1-2.4-0.2c-0.1,0-0.3,0-0.4-0.1c-0.4-0.1-0.8-0.1-1.2,0.2c-0.3,0.2-0.6,0.5-0.7,0.9c-0.1,0.4-0.1,0.8,0.2,1.2
				c0.2,0.3,0.5,0.6,0.9,0.7c1.8,0.3,3.7,0.4,5.6,0.4c0.8,0,1.5-0.7,1.5-1.5c0-0.5-0.3-0.9-0.6-1.2c0.3,0,0.7-0.2,0.9-0.4
				c0.3-0.3,0.8-2.6,0-2.6c0.7,0,1.3-0.5,1.4-1.2C206.8,286,206.7,285.6,206.5,285.2z"/>
			<path class="st6" d="M167.2,310.4c0-0.1,0-0.1,0-0.2c-0.1-0.5-0.6-0.9-1.1-0.7c0.5-0.3,0.5-1,0.1-1.4c-0.3-0.4-0.9-0.6-1.4-0.6
				c0.6,0,1-0.7,0.8-1.3c-0.2-0.6-0.7-0.9-1.3-1.1c0.4-0.1,0.6-0.6,0.4-1c-0.2-0.3-0.5-0.4-0.9-0.4c-2.1-0.2-4.1,0.8-6.2,0.8
				c-0.4,0-0.7,0-0.9-0.4c-0.7-1.1,1.2-1,1.7-1c0.4,0,0.9-0.1,1.2-0.3c0.4-0.2,0.6-0.8,0.3-1.1c-0.2-0.4-0.7-0.4-1.1-0.4
				c-3.1,0.3-5.9,1.4-8.9,2.2c-3,0.9-6.1,1.4-9.2,1.9c-3,0.5-6,0.9-9,1.3c-3.8,0.5-7.6,0.9-11.5,1.2c-4.2,0.3-8.5,0.6-12.2,2.5
				c-3.5,1.7-8.4,7.2-5.7,11.3c3.7,5.8,16.3,3.9,21.6,2.4c5.4-1.5,10.7-3.7,15.9-5.9c5.7-2.4,11.2-4.1,17.4-4.6c0.2,0,0.4,0,0.6-0.1
				c2.6-0.4,6.5-0.3,8.7-2C166.9,311.3,167.2,310.9,167.2,310.4z"/>
			<path class="st2" d="M113.3,309.2c0.6-6.8,4.7-16.7,8.4-22.4"/>
			<path class="st2" d="M115,308.5c-3.5,1.1-6.8,3-9.5,5.6"/>
		</g>
	</g>
</g>
</svg>
