<?xml version="1.0" encoding="UTF-8"?>
<svg id="Layer_1" data-name="Layer 1" xmlns="http://www.w3.org/2000/svg" viewBox="0 0 693.96 591.25">
  <defs>
    <style>
      .cls-1, .cls-2, .cls-3, .cls-4, .cls-5, .cls-6, .cls-7, .cls-8, .cls-9, .cls-10, .cls-11, .cls-12, .cls-13, .cls-14, .cls-15, .cls-16, .cls-17, .cls-18 {
        fill-rule: evenodd;
      }

      .cls-1, .cls-19 {
        fill: #00a0dc;
      }

      .cls-2 {
        fill: #e47c64;
      }

      .cls-3 {
        fill: #282a2b;
      }

      .cls-4 {
        fill: #c4d87a;
      }

      .cls-5 {
        fill: #d84865;
      }

      .cls-6 {
        fill: #ed9172;
      }

      .cls-7 {
        fill: #f15a31;
      }

      .cls-8 {
        fill: #149b9e;
      }

      .cls-9 {
        fill: #77cab9;
      }

      .cls-10 {
        fill: #885630;
      }

      .cls-11 {
        fill: #ec6d48;
      }

      .cls-12 {
        fill: #333535;
      }

      .cls-13 {
        fill: #f3ae84;
      }

      .cls-14 {
        fill: #525251;
      }

      .cls-15 {
        fill: #a0b359;
      }

      .cls-16 {
        fill: #a1d5db;
      }

      .cls-17 {
        fill: #f8ebc4;
      }

      .cls-18 {
        fill: #a52e66;
      }
    </style>
  </defs>
  <path class="cls-18" d="m70.91,534.02h93.08c6.21,0,11.28,4.03,11.28,8.96h0c0,4.93-5.08,8.96-11.28,8.96h-32.45c-4.93,0-8.96,3.2-8.96,7.11h0c0,3.91,4.03,7.11,8.96,7.11h485.13c4.93,0,8.96-3.2,8.96-7.11h0c0-3.91-4.03-7.11-8.96-7.11h-8.17c-6.21,0-11.28-4.03-11.28-8.96h0c0-4.93,5.08-8.96,11.28-8.96h11.25c9.85,0,17.91-6.4,17.91-14.22h0c0-7.82-8.06-14.22-17.91-14.22H70.91c-9.85,0-17.91,6.4-17.91,14.22h0c0,7.82,8.06,14.22,17.91,14.22h0Zm36.42,32.13c-4.95,0-8.96-3.18-8.96-7.11s4.01-7.11,8.96-7.11,8.96,3.18,8.96,7.11-4.01,7.11-8.96,7.11Z"/>
  <path class="cls-9" d="m497.72,204.09c-47.34,0-76.37,29.92-76.37,79.05v163.46c0,49.13,29.03,79.05,76.37,79.05,11.16,0,21.88-1.79,30.82-4.91,11.17,18.31,29.03,25.9,52.25,25.9l4.47-43.77c-10.27,0-18.76-1.79-24.12-7.59,8.48-12.95,12.95-29.48,12.95-48.68v-163.46c0-49.13-29.03-79.05-76.37-79.05h0Zm0,43.77c18.76,0,29.03,12.51,29.03,35.73v162.57c0,23.22-10.27,35.73-29.03,35.73s-29.03-12.5-29.03-35.73v-162.57c0-23.22,10.27-35.73,29.03-35.73Z"/>
  <path class="cls-9" d="m340.51,208.56h-60.29l-54.04,312.63h47.34l10.27-71.01h52.25l10.27,71.01h48.23l-54.04-312.63h0Zm-29.92,66.99l19.2,131.75h-39.75l19.2-131.75h1.34Z"/>
  <polygon class="cls-9" points="225.73 208.56 94.87 208.56 94.87 521.18 142.21 521.18 142.21 384.52 209.2 384.52 209.2 340.75 142.21 340.75 142.21 252.32 225.73 252.32 225.73 208.56"/>
  <g>
    <g>
      <path class="cls-12" d="m323.83,390.06c.07,1.17,1.38,1.8,1.38,1.8,3.32-1.41,11.75-9.15,9.95-16.5s-4.84-14.86-9.12-18.46c-4.28-3.6-10.78-3.28-10.78-3.28h-9.8s-6.5-.31-10.78,3.28c-4.28,3.6-7.32,11.11-9.12,18.46s6.63,15.1,9.95,16.5c0,0,1.31-.63,1.38-1.8l13.47-.63,13.47.63Z"/>
      <path class="cls-6" d="m300.65,345.03c1.67,0,3.02,1.35,3.02,3.02s-1.35,3.02-3.02,3.02-3.02-1.35-3.02-3.02,1.35-3.02,3.02-3.02Z"/>
      <path class="cls-6" d="m320.07,345.03c1.67,0,3.02,1.35,3.02,3.02s-1.35,3.02-3.02,3.02-3.02-1.35-3.02-3.02,1.35-3.02,3.02-3.02Z"/>
      <path class="cls-13" d="m310.36,332.97h0c5.34,0,9.71,4.37,9.71,9.71v8.83c0,5.34-4.37,9.71-9.71,9.71h0c-5.34,0-9.71-4.37-9.71-9.71v-8.83c0-5.34,4.37-9.71,9.71-9.71Z"/>
      <path class="cls-12" d="m300.65,348.43s-.05-1.77,1.68-2.59c1.73-.82,2.68-1.81,2.81-3.11,0,0,3.41,2.89,8.07,3.28,4.66.39,6.6.96,6.86,3.37,11.22-20.1-14.14-27.79-16.4-18.18,0,.03,0,.1-.03.1-10.05-.27-6.25,15.3-3,17.13Z"/>
      <path class="cls-12" d="m319.63,427.89c2.63-6.52,13.45-32.01,17.61-34.7,4.81-3.12,7.24,2.88,7.05,4.71-.58,5.75-12.56,19.1-21.22,32.31-1.05,1.6-4.65.7-3.44-2.32Z"/>
      <path class="cls-11" d="m324.02,430.53c-.02.88.31,2.89.72,3.79.47,1.03,1.89,1.97,2.82,2.58.92.61.55,1.66.55,1.66,0,0,.38.2.29.68-.1.48-.86,1.25-2.91,1.72-2.04.46-4.1-.11-5.6-2.11-1.51-2-1.54-2.88-3.3-3.65-1.76-.77-.56-2.03-.56-2.03,0,0-.11-.93.58-1.82.62-.79,1.59-1.71,2.17-3.12h0s.51-.46.83-.14c.31.32,1.42,2.09,3.22,2.17,0,0,.85-.14,1.18.27Z"/>
      <path class="cls-12" d="m340.1,398.24c0-.5.12-5.91.12-5.91-12.46-.51-47.26-.51-59.72,0,0,0,.12,5.42.12,5.91,0,0,4.45,2.63,8.48,5.35,4.03,2.72,10.21,3.71,13.42,3.71h15.67c3.21,0,9.39-.99,13.42-3.71,4.03-2.72,8.48-5.35,8.48-5.35Z"/>
      <path class="cls-12" d="m301.09,427.89c-2.63-6.52-13.45-32.01-17.61-34.7-4.81-3.12-7.24,2.88-7.05,4.71.58,5.75,12.56,19.1,21.22,32.31,1.05,1.6,4.65.7,3.44-2.32Z"/>
      <path class="cls-11" d="m296.7,430.53c.02.88-.31,2.89-.72,3.79-.47,1.03-1.89,1.97-2.82,2.58-.93.61-.55,1.66-.55,1.66,0,0-.38.2-.29.68.1.48.86,1.25,2.9,1.72,2.04.46,4.1-.11,5.6-2.11,1.51-2,1.54-2.88,3.3-3.65,1.76-.77.55-2.03.55-2.03,0,0,.11-.93-.58-1.82-.62-.79-1.59-1.71-2.17-3.12h0s-.51-.46-.83-.14c-.31.32-1.42,2.09-3.22,2.17,0,0-.85-.14-1.18.27Z"/>
      <path class="cls-1" d="m291.07,375.23h38.58c.81,0,1.31.67,1.11,1.48l-4.94,19.71c-.2.81-1.04,1.48-1.85,1.48h-27.21c-.81,0-1.64-.67-1.85-1.48l-4.94-19.71c-.2-.81.29-1.48,1.11-1.48Z"/>
    </g>
    <path class="cls-12" d="m304.69,433.17c-.65.79-1.51,1.1-2.43,2.03-.93.93-2.06,4.2-4.84,4.74-2.78.54-4.8-1.37-4.8-1.37,0,0-.38.2-.29.68.1.48.86,1.25,2.9,1.72,2.04.46,4.1-.11,5.6-2.11,1.51-2,1.54-2.88,3.3-3.65,1.76-.78.55-2.03.55-2.03Z"/>
    <path class="cls-12" d="m316.04,433.17c.65.79,1.51,1.1,2.43,2.03.93.93,2.06,4.2,4.84,4.74,2.78.54,4.8-1.37,4.8-1.37,0,0,.38.2.29.68-.1.48-.86,1.25-2.91,1.72-2.04.46-4.1-.11-5.6-2.11-1.51-2-1.54-2.88-3.3-3.65-1.76-.78-.56-2.03-.56-2.03Z"/>
  </g>
  <g>
    <path class="cls-13" d="m158.5,289.82l1.59-2.12s4.11.86,8.47,7.24c4.36,6.37,8.13,14.43,7.97,18.37-.17,3.94-3.19,4.28-3.19,4.28l-.99-5.36s-2.53-5.29-4.79-7.39c-2.26-2.1-9.06-15.01-9.06-15.01Z"/>
    <path class="cls-12" d="m163.62,299.02c-6.6-16,11.33-15.47,7.49-24.12-2.34-5.27,1.32-9.4,1.06-12.15-.26-2.75-.81-5.25-4.38-5.53,0,0-.25-7.47-6.29-6.99-6.05.49-7.79,5.87-12.72,6.74-4.92.87-7.77,2-7.83,10.37s.2,12.73-3.36,17.39c-3.56,4.66-1.09,11.47,1.07,12.22,2.16.75,6.63-2.74,8.3-8.33,1.66-5.58,16.67,10.39,16.67,10.39Z"/>
    <path class="cls-13" d="m187.51,388.58c.12-.21.04-1.42.04-1.42,0,0-.86-1.36-1.56-4.4-.69-3.04-1.35-4.27-3-4.08-1.66.19-3.12.39-3.12.39,0,0,.52,5.2.79,5.55.27.35,3.31,5.16,3.7,5.35.39.19,3.16-1.38,3.16-1.38Z"/>
    <path class="cls-13" d="m220.66,371.44l-.48-.97s-.72.13-2.35-2.08c-1.63-2.21-4.25-4.61-5.37-5.3-1.13-.69-.84-.47-1.56-1.09-.73-.62-2.14-.11-2.32.18-.18.29-.04,2.32,0,2.54.04.22,8.13,6.93,8.93,7.11.8.18,3.16-.4,3.16-.4Z"/>
    <path class="cls-5" d="m179.35,378.47s1.06-.08,1.12.5c.05.58-.33.81,1.06,3.16,1.39,2.35,1.27,4.74,2.27,5.51,1,.77,3.35.54,3.66-.31.31-.84,1.46.62,1.46,1.5s.08,2.73-1.73,2.96c-1.81.23-4.39-.54-4.97-2-.58-1.46-.73-2.81-1.08-3.35-.35-.54-.46.93-.85,1.08-.39.16-.62-.31-.89-1.62-.27-1.31-.77-7.05-.06-7.43Z"/>
    <path class="cls-5" d="m208.46,364.18s-.47-.08-.58,1.63c-.11,1.71.91,2.83,2.29,4.97,1.38,2.14,1.92,3.09,2.25,3.74.33.65.76.51.87.15.11-.36-.65-2.51-.87-3.78-.22-1.27.51-1.38,1.67-.36,1.16,1.02,2.69,3.2,4.68,3.6,2,.4,5.01-.22,5.19-.91.18-.69.55-2.43-.65-2.76-1.2-.33-2.14-.33-2.76-.33s-.04,1.42-2.29.44c-2.25-.99-3.78-3.56-6.17-4.9-2.4-1.34-3.63-1.49-3.63-1.49Z"/>
    <path class="cls-13" d="m162.92,258.55h0c-4.54-1.58-9.54.84-11.12,5.37l-2.61,7.5c-1.58,4.54.84,9.54,5.37,11.12h0c4.54,1.58,9.54-.84,11.12-5.37l2.61-7.5c1.58-4.54-.84-9.54-5.37-11.12Z"/>
    <path class="cls-6" d="m151.25,265.49l-2.07,5.94c-1.58,4.54.84,9.54,5.37,11.12h0c.81.28,1.64.44,2.47.48-4.89-6.54,2.22-10.52,4.83-10.69,2.74-.18,3.11-1.03,4.86-1.51.49-.13.84-.03,1.11.19l.47-1.33c1.13-3.23.23-6.69-2.02-8.99-1.31.29-2.99.47-5.25.2-3.89-.45-6.98,1.59-9.77,4.6Z"/>
    <path class="cls-5" d="m154.8,286.27c.42,1.21,4.04-.72,8.29,3.78.98,1.04,2.62,5.4,6.23,9.43,3.61,4.03,1.87,6.08-.09,10.95-1.97,4.87-1.31,13.9-.56,14.85.75.96.66,1.83-1.97,1.13-2.62-.7-12.37-3.04-19.03,1.74,0,0-1.03-.13-.75-1.35,1.13-4.87-3.01-20.13-4.47-26.37-1.22-5.21-6.55-9.16-2.51-11.6,4.03-2.43,7.83-1.61,9-2.95,1.17-1.35,5.87.38,5.87.38Z"/>
    <path class="cls-6" d="m154.7,286.02s.16.49,2.08.81h0s1.12,3.54-5.08,2.19c-2.71-.59-4.43-1.34-5.38-2.02,1.63-.34,2.92-.38,3.48-1.08.97-1.2,4.89.11,4.89.11Z"/>
    <path class="cls-6" d="m155.61,281.64s-1.05,1.88-1.18,2.96c-.13,1.08.93,2.71.93,2.71,0,0-.76.7-3.19-.64-2.42-1.33-3.84-5.49-3-6.07.84-.57,4.14-1.81,6.44,1.03Z"/>
    <path class="cls-3" d="m189.47,352.11c-2.23,10.88-3.3,24.7-4.12,26.49-.82,1.8-4.15,4.64-4.94-1.99-.59-4.98-1.31-20.64-.87-29.66.81-16.55,13.76-13.56,9.93,5.16Z"/>
    <path class="cls-3" d="m187.21,340.84l1.97-1.19s-1.4-4.45-3.77-5.95c-2.37-1.49-18.9-2.02-18.9-2.02l-7.56,8.61s11.34.35,16.59-.53c5.25-.89,4.95,1.02,4.63,2.61-.32,1.59,7.04-1.53,7.04-1.53Z"/>
    <path class="cls-1" d="m184.58,304.84c.21,0,1.17,1.03,1.17,1.45s-5.72,14.76-6.64,15.4c-.92.64-8.72.11-9.42-.19-.71-.3-.99-1.33-.99-1.97s5.09-14.29,6.01-15.06c.92-.77,9.88.36,9.88.36Z"/>
    <path class="cls-1" d="m184.58,304.84c.21,0,1.17,1.03,1.17,1.45,0,0-4.19-1.04-9.99-.44,0,0-.39.04-.88,1.33-.5,1.28-5.42,11.66-5.49,14.15-.49-.42-.7-1.24-.7-1.79,0-.64,5.09-14.29,6.01-15.06.92-.77,9.88.36,9.88.36Z"/>
    <path class="cls-12" d="m198.97,336.91c4.6,10.1,11.86,21.92,12.25,23.85.39,1.94-.63,6.19-5.17,1.29-3.41-3.68-13.2-15.92-18.15-23.47-9.08-13.86,3.15-19.06,11.07-1.68Z"/>
    <path class="cls-12" d="m147.15,326.51c-1.77,17.76,9.53,14.47,20.48,13.04,7-.91,23.99-7.23,23.74-9.97-.25-2.74-.33-3.49-4.92-4.15s-21.08-1.83-25.99-2c-4.91-.17-10.86-1.16-13.32,3.08Z"/>
    <path class="cls-13" d="m169.25,318.42l.28.94s2.25.9,4.36-.25c2.11-1.15,3.5-1.46,3.83-2.34.33-.88-1.38-3.02-2.78-2.39-1.4.63-3.84,3.14-5.11,3.02-1.27-.13-.57,1.02-.57,1.02Z"/>
    <path class="cls-7" d="m141.34,317.14s-2.33-.56-3.15-.5c-.82.06-.98,5.87-.57,11.29.41,5.42,3.44,7.96,7.7,8.74,4.26.78,9.54-.65,10.07-6.17.54-5.52,1.92-10.39.33-11.25-1.6-.87-6.92-.74-14.37-2.1Z"/>
    <path class="cls-12" d="m151.09,315.31c.43,2.08.53,3.68.4,4.8-.06.57-1.98,1.45-1.78-.04.22-1.68.53-2.52.13-4.69.38-.03.83-.06,1.25-.07Z"/>
    <path class="cls-13" d="m143.07,289.5s-4.54.77-4.22,8.04c.32,7.26,8.87,19.99,12.27,21.35,3.41,1.36,15.05,1.11,20.22,1.01,0,0,.35.03.39-.56.04-.59-.07-1.49.13-1.72.2-.23-.42-.32-1.03-.38-.6-.06-5,.84-14.56-1.62,0,0-1.27-.08-3.16-2.01-1.9-1.94-3.81-15.67-5.4-18.96-1.59-3.29-2.82-5.51-4.63-5.14Z"/>
    <path class="cls-12" d="m170.4,264.76l-1.03,5.12-.93.71s-.66-.96-.52-2.15c0,0-1.77,3.02-6.26,3.09-4.49.06-6.21.08-7.65,3.75-1.44,3.68-1.85,7.41-.72,12.12,2.55,10.64-14.7,18.94-17.45,4,0,0,11.92-26.76,12.01-27.74.08-.98,9.81-7.64,9.81-7.64,0,0,4.2-2.28,5-1.1.8,1.18,7.28,5.94,7.28,5.94l.46,3.88Z"/>
    <path class="cls-12" d="m149.78,302.32s-1.31-6.92-3.65-7.49c-2.34-.57-4.72,1.02-3.14,10.79,1.1,6.84.71,11.18-.09,13.25-.19.48-2.03.8-1.52-.44.9-2.21,1.52-2.54,1.07-9.13-.17-2.46-1.99-6.83-1.54-12.15.51-6.04,9.22-9,8.88,5.17Z"/>
  </g>
  <g>
    <path class="cls-2" d="m477.98,439.07l-.54.72s-2.21.06-3.67-1.59c-1.46-1.65-2.56-2.36-2.57-3.22,0-.86,2.13-2.17,3.15-1.19,1.01.98,2.32,3.92,3.46,4.21,1.13.29.17,1.06.17,1.06Z"/>
    <path class="cls-3" d="m506.27,470.66l-1.87-.03s-2.12-.41-9.34-7.56c-7.23-7.15-12.72-12.15-16.83-14.18-4.11-2.03-7.06.59-6.7,3.58.24,2.06,9.19,13.79,16.86,22.7l20.82,3.2c-1.45-4.17-2.94-7.71-2.94-7.71Z"/>
    <path class="cls-3" d="m467.55,457.33c-2.66,8.05-6.79,18.09-6.93,19.59-.14,1.5.99,4.65,4.03.56,2.28-3.07,8.72-13.18,11.85-19.33,5.76-11.28-4.38-14.68-8.95-.82Z"/>
    <path class="cls-10" d="m461.13,478.17c-1.54-1.33-2.49-1.65-3.11-1.14-.62.5-.92,1.76-1.7,2.16-.78.4-7.23,2.39-7.64,2.79-.41.4-.22.96-.1,1.07.12.11-.45.73-.01,1.14.43.41,4.84,1.89,9.21.92,4.36-.97,6.67-.27,7.22-.65.55-.39.41-1.19.41-1.19.43-1.27.48-4.09-.76-3.79-1.99.49-1.98.03-3.53-1.3Z"/>
    <path class="cls-1" d="m448.58,483.04c.12.11-.45.73-.01,1.14.43.41,4.84,1.89,9.21.92,4.36-.97,6.67-.27,7.22-.65.55-.39.42-1.19.42-1.19-2.46-.34-5.55.71-10.07,1.02-4.52.3-6.76-1.23-6.76-1.23Z"/>
    <path class="cls-15" d="m498.31,439.41c-.59,1.37-.3,5.31,4.24,3.56,3.4-1.31,13.41-6.42,18.65-10.11,6.85-4.82,3.86-9.62-1.8-9.53-4.89.08-19.98,13.5-21.09,16.07Z"/>
    <path class="cls-15" d="m500.82,439.62c1.62,1.38,1.43,3.25-.3,3.79-1.72.54-17.5-1.68-23.1-3.32,0,0-.64-.48-.59-1.29.04-.81.32-1.34,1.73-1.12,11.25,1.74,15.44,1.25,20.44,1.4.93.03,1.56.33,1.82.55Z"/>
    <path class="cls-12" d="m495.77,466.32l-1.2,1.44s-1.64,1.39-11.74,2.57c-10.1,1.18-17.43,2.35-21.58,4.29-4.15,1.94-3.94,5.88-1.38,7.47,2.56,1.59,32.65,1.59,40.95-.07,8.3-1.66,14.35-3.28,14.35-6.74s-19.4-8.96-19.4-8.96Z"/>
    <path class="cls-12" d="m457.49,487.42c1.05,9.21,1.56,21.06,2.11,22.62.55,1.55,3.12,4.16,4.26-1.3.86-4.1,2.6-17.08,2.9-24.62.53-13.83-11.08-12.56-9.26,3.3Z"/>
    <path class="cls-10" d="m459.78,510.6c-2.12-.23-3.12.05-3.35.85-.23.8.26,2.06-.18,2.87-.43.81-4.81,6.33-4.93,6.92-.12.59.38.95.55.97.17.02.04.89.66.99.62.1,5.28-1.24,8.46-4.65,3.18-3.42,5.58-4.18,5.83-4.84.24-.66-.35-1.27-.35-1.27-.38-1.35-2-3.81-2.89-2.81-1.43,1.6-1.69,1.2-3.8.97Z"/>
    <path class="cls-1" d="m451.87,522.21c.17.02.04.89.66.99.62.1,5.28-1.24,8.46-4.65,3.18-3.42,5.58-4.18,5.83-4.84.24-.66-.35-1.27-.35-1.27-2.31,1.17-4.36,3.9-8.06,6.83-3.71,2.93-6.55,2.94-6.55,2.94Z"/>
    <path class="cls-14" d="m470.38,427.86c.82,1.31,5.61,8.93,5.74,9.59.15.73-.73,2.23-1.79,3.1-1.07.87-2.18-1.12-4.75-4.7-2.57-3.58-3.17-4.43-3.24-5.33-.07-.89,3.03-2.95,3.34-2.98.38-.03.52.03.7.31Z"/>
    <path class="cls-3" d="m474.47,440.42s-.1.08-.15.13c-1.07.87-2.18-1.12-4.75-4.7-2.57-3.58-3.17-4.43-3.24-5.33-.07-.89,3.03-2.95,3.34-2.98.18-.01.31,0,.41.03,0,0-2.49,1.65-2.87,2.29-.37.64.58,1.82,1.33,3.17.75,1.36,4.04,5.91,4.79,6.66.5.5.79.71,1.13.72Z"/>
    <path class="cls-16" d="m474.3,439.71c.07-.07.14-.14.2-.22.29-.33,1.08-1.44,1-1.88-.14-.42-.68-1.27-.91-1.67-.61-1.04-1.23-2.06-1.86-3.08-.91-1.49-1.52-2.47-2.45-3.94-.76.52-2.01,1.43-2.21,1.76-.08.32.83,1.71,1.03,2.06.6,1.08,1.46,2.25,2.18,3.26.5.69,1.01,1.38,1.52,2.06.29.38.64.86.98,1.2.08.08.32.33.51.46Z"/>
    <path class="cls-17" d="m468.47,429.67s-.11.03-.14-.01c-.04-.04-.03-.11.01-.14,0,0,.38-.31.5-.36.05-.02.11,0,.13.05.02.05,0,.11-.05.13-.09.04-.44.33-.44.33Z"/>
    <path class="cls-17" d="m469.26,429.06c-.05.02-.11,0-.13-.05-.02-.05,0-.11.06-.13h.02c.05-.03.11,0,.13.05.02.05,0,.11-.05.13h-.02Z"/>
    <path class="cls-13" d="m476.44,441.71l-.65.79s-2.52-.05-4.09-2c-1.57-1.96-2.78-2.82-2.74-3.8.04-.98,2.55-2.35,3.64-1.17,1.1,1.17,2.43,4.58,3.7,4.97,1.27.39.14,1.21.14,1.21Z"/>
    <path class="cls-4" d="m499.47,448.11h0c-1.81.61-17.52-2.99-23.44-4.8,0,0-.63-1.05-.57-1.91.06-.86.36-1.42,1.84-1.17,11.53,1.91,16.52.97,21.62,1.14,1.5-2.06,17.67-18.3,19.95-19.12,7.58-2.71,12.1,7.6,3.73,13.36-5.6,3.85-17.34,10.71-20.96,12.06-.86.32-1.57.45-2.16.44Z"/>
    <path class="cls-13" d="m503.86,404.26s.34,4.74.47,5.61c.13.87.9,1.45,1.22,2.65.32,1.2.34,3.72.47,4.35.13.63,1.43.24,1.83.57.39.33.37.92.58,1.25s.63.2.76.42c.12.22.08.61.2.81.12.2.75.14,1.12.87.37.72,1.19,1.98,3.76.55,2.57-1.43,4.05-5.81,4.15-7.95.1-2.14-.68-5.62-.9-6.51-.22-.89-2.29-5.9-3.18-6.29-.89-.39-9.82.26-10.49,3.67Z"/>
    <path class="cls-13" d="m523.11,409.69l1.23,3.04s4.11,4.44,4.97,9.91c.87,5.47-7.47,5.47-7.47,5.47l-2.99-5.86s-1.14-2.64-3.61-1.64c-2.47,1.01-1.74-3.81-1.74-3.81l.65-12.09s4.33-3.19,4.9-2.94c.57.25,2.04.57,2.45,1.14.41.57,1.59,6.78,1.59,6.78Z"/>
    <path class="cls-12" d="m503.9,404.89s-2.85-.65-3.74-3.86c-.89-3.21-.13-6.95,4.24-8.72,4.37-1.77,7.29,1.8,11.87,1.04,4.58-.76,6.33-.13,6.42,4.14,0,0,3.12.72,2.6,4.21-.52,3.49-1.93,9.11-.95,11.03,0,0-2.77-1.52-3.56-3.85,0,0-.4-4.1-1.6-4.31-1.2-.21-1.94.88-1.65,2.86.3,1.98.29,2.67-.02,3.06-.31.39-.57.44-.77.23-.19-.22.04-2.9-1.59-4.12-1.63-1.22-3.02-1.64-3.49-2.77-.47-1.13-4.26,1.3-7.76,1.05Z"/>
    <path class="cls-4" d="m526.21,420.54s-6.19-3.25-12.1,8.04c-5.91,11.29-6.9,24.44-16.1,32.74-9.31,8.4,5.63,15.86,15.81,15.71,16.14-.24,25.12-53.18,12.38-56.5Z"/>
  </g>
  <g>
    <path class="cls-12" d="m495.54,170.85s.63-3.96,5.93-7.09c5.3-3.13,11.66,12.57,14.29.71,2.62-11.86-5.65-13.28-4.15-21.71.44-2.46-1.77-4.82-5-5.07,0,0-.22-6.75-5.69-6.31-5.46.44-7.04,5.3-11.49,6.09-4.45.79-7.02,1.81-7.08,9.37-.06,7.56.18,11.5-3.04,15.71-3.22,4.21-.98,10.37.97,11.04,1.95.68,6-2.48,7.5-7.52,1.5-5.04,7.75,4.78,7.75,4.78Z"/>
    <path class="cls-13" d="m532.19,244.74c.01-.24-.58-1.29-.58-1.29,0,0-2.11-.65-4.05-3.09-1.94-2.44-2.71-2.64-4.12-1.75-1.41.89-2.26.86-2.26.86,0,0,2.72,4.46,3.11,4.66.39.2,5.22,3.22,5.65,3.23.43,0,2.25-2.62,2.25-2.62Z"/>
    <path class="cls-5" d="m520.45,239.16s.93-.53,1.22-.03c.3.5.06.87,2.32,2.39,2.27,1.52,3.2,3.72,4.43,3.98,1.24.26,3.25-.96,3.17-1.86-.09-.9,1.58-.08,1.97.72.38.8,1.25,2.43-.28,3.42-1.53.99-4.19,1.41-5.35.34-1.15-1.07-1.88-2.22-2.42-2.56-.55-.34-.02,1.03-.3,1.34-.28.31-.69-.01-1.5-1.08-.81-1.06-3.74-6.02-3.27-6.68Z"/>
    <path class="cls-5" d="m513.31,196.16c.07,1.17,1.38,1.8,1.38,1.8,3.32-1.41,11.74-9.15,9.95-16.51-1.8-7.35-4.84-14.86-9.12-18.46-4.28-3.6-10.78-3.29-10.78-3.29h-9.8s-6.49-.31-10.78,3.29c-4.29,3.6-7.33,11.11-9.12,18.46-1.8,7.35,6.63,15.1,9.95,16.51,0,0,1.31-.63,1.38-1.8l13.47-.63,13.47.63Z"/>
    <path class="cls-6" d="m490.13,151.14c1.67,0,3.02,1.35,3.02,3.02s-1.35,3.02-3.02,3.02-3.02-1.35-3.02-3.02,1.35-3.02,3.02-3.02Z"/>
    <path class="cls-6" d="m509.56,151.14c1.67,0,3.02,1.35,3.02,3.02s-1.35,3.02-3.02,3.02-3.02-1.35-3.02-3.02,1.35-3.02,3.02-3.02Z"/>
    <path class="cls-13" d="m499.85,139.07h0c4.82,0,8.77,3.95,8.77,8.77v10.71c0,4.82-3.95,8.77-8.77,8.77h0c-4.82,0-8.77-3.95-8.77-8.77v-10.71c0-4.82,3.95-8.77,8.77-8.77Z"/>
    <path class="cls-12" d="m510.61,145.76l3.37,11.81-5.47,2.44c0-8.71-3.21-8.14-1.76-12.17,0,0-1.6,2.73-5.66,2.79-4.06.06-5.61.07-6.91,3.39-1.3,3.32-1.67,6.69-.65,10.95,2.3,9.62-13.28,17.12-15.77,3.62,0,0,10.77-24.18,10.85-25.07.07-.88,8.86-6.9,8.86-6.9,0,0,3.79-2.06,4.52-.99.72,1.07,6.58,5.37,6.58,5.37l2.05,4.76Z"/>
    <path class="cls-13" d="m487.11,263.46c-.07-.23.28-1.39.28-1.39,0,0,1.14-1.13,2.5-3.94,1.35-2.81,2.27-3.87,3.84-3.31,1.57.56,2.96,1.07,2.96,1.07,0,0-1.67,4.95-2.01,5.23-.34.28-4.38,4.29-4.8,4.39-.42.1-2.77-2.06-2.77-2.06Z"/>
    <path class="cls-5" d="m497.33,255.43s-1.02-.32-1.2.24c-.18.56.14.86-1.74,2.84s-2.3,4.33-3.44,4.86c-1.15.53-3.39-.22-3.5-1.12-.11-.89-1.56.27-1.76,1.14-.2.86-.68,2.65,1.03,3.28,1.71.63,4.4.45,5.29-.84.89-1.3,1.34-2.58,1.8-3.03.46-.45.24,1,.58,1.24.34.24.67-.16,1.23-1.38.55-1.22,2.32-6.7,1.71-7.23Z"/>
    <path class="cls-3" d="m515.98,199.8c5.97,17.83-9.7,16.35-10.63,19.14-.33.99-8.08,35.51-9.24,36.86-1.15,1.35-4.43,1.44-4.62,0-.19-1.44,5-44.65,5-44.65l-10.6-11.35h30.08Z"/>
    <path class="cls-12" d="m483.33,198.29c-3.87,11.89,1.68,19.68,15.67,16.03,0,0,.67-.87,3.56,2.5,2.89,3.37,7.03,9.72,12.32,15.59,5.29,5.87,6.83,7.22,7.99,7.99,1.15.77,2.6-.48,2.7-1.73.1-1.25-17.03-28.58-19.25-31.08-2.21-2.5-3.56-4.23-12.8-5.1-9.24-.87-10.19-4.2-10.19-4.2Z"/>
    <path class="cls-1" d="m480.55,181.34h38.58c.81,0,1.31.67,1.11,1.48l-4.94,19.71c-.2.81-1.04,1.48-1.85,1.48h-27.21c-.81,0-1.64-.67-1.85-1.48l-4.94-19.71c-.2-.81.29-1.48,1.11-1.48Z"/>
  </g>
  <path class="cls-1" d="m196.99,129.63l-19.43,32.79c-.25.42-.79.56-1.21.31-.13-.08-.23-.18-.3-.3l-11.75-16.13-5.22,6.79c-.3.38-.85.46-1.23.16-.19-.15-.3-.35-.33-.57h0l-1.8-12.05-11.31-4.51c-.45-.18-.67-.69-.49-1.14.12-.31.4-.51.71-.55h0s51.52-6.15,51.52-6.15c.48-.06.92.29.98.77.03.21-.03.42-.13.58h0Zm-40.42,9.44l27.99-7.64-36.29,4.33,8.3,3.31h0Zm31.03-6.65l-30.1,8.22,1.46,9.73,4.67-6.07.03-.04h0s0,0,0,0h0s0,0,0,0h0s0,0,0,0h0s0,0,0,0h0c.07-.08.16-.15.26-.2l23.66-11.62h0Zm6.39-1.18l-28.34,13.92,11.08,15.21,17.26-29.13Z"/>
  <path class="cls-7" d="m490.89,353.71c-7.89,0-12.73,4.75-12.73,13.05v1.13l8.22.8v-1.29c0-3.95,1.45-5.8,4.43-5.8,2.5,0,4.27,1.53,4.27,5.48v1.13c0,2.9-.89,5-3.95,8.94-4.43,5.56-5.72,9.27-5.72,17.08v2.58h7.73v-2.58c0-5.32,1.21-8.22,5.32-13.38,4.03-4.99,5.16-8.22,5.16-12.81v-1.29c0-8.86-4.83-13.05-12.73-13.05h0Zm2.9,48.18h-9.02v9.02h9.02v-9.02Z"/>
  <path class="cls-1" d="m228.17,278.97c-4.41,0-7.94,1.32-10.34,3.78-2.38,2.44-3.69,6.04-3.69,10.63v.56l7.92.78v-.58c0-2.49.48-4.35,1.46-5.62,1.03-1.34,2.54-1.99,4.56-1.99,1.79,0,3.32.59,4.38,1.96.91,1.17,1.45,2.9,1.45,5.28v1.32c0,1.81-.28,3.37-1.04,5.1-.74,1.68-1.92,3.5-3.75,5.86h0c-2.53,3.18-4.16,5.81-5.14,8.74-.99,2.93-1.35,6.22-1.35,10.7v2.17h7.36v-2.17c0-3.21.37-5.7,1.37-8.19.99-2.46,2.58-4.88,5.03-7.95h0c2.3-2.85,3.76-5.18,4.65-7.44.87-2.23,1.19-4.42,1.19-7v-1.5c0-4.83-1.26-8.39-3.56-10.75-2.4-2.46-5.98-3.66-10.46-3.66h0Zm-11.54,2.61c2.73-2.8,6.67-4.29,11.54-4.29s8.93,1.36,11.66,4.17c2.61,2.68,4.04,6.63,4.04,11.92v1.5c0,2.78-.34,5.16-1.31,7.61-.95,2.42-2.49,4.89-4.9,7.87-2.35,2.95-3.87,5.24-4.78,7.53-.91,2.26-1.24,4.57-1.24,7.57v3.85h-10.71v-3.85c0-4.65.39-8.09,1.45-11.23,1.06-3.14,2.77-5.92,5.42-9.24,1.74-2.25,2.86-3.95,3.53-5.49.65-1.49.89-2.85.89-4.43v-1.32c0-1.99-.4-3.37-1.09-4.25-.71-.91-1.78-1.31-3.06-1.31-1.47,0-2.54.43-3.23,1.33-.74.96-1.11,2.49-1.11,4.61v2.43l-11.28-1.11v-2.07c0-5.04,1.48-9.04,4.17-11.79h0Zm14.09,53.66h-8.86v8.86h8.86v-8.86h0Zm-9.7-1.68h11.38v12.22h-12.22v-12.22h.84Z"/>
  <path class="cls-1" d="m257.78,30.82c10.78,0,20.53,4.37,27.6,11.43s11.43,16.82,11.43,27.6-4.37,20.53-11.43,27.6c-7.06,7.06-16.82,11.43-27.6,11.43s-20.53-4.37-27.6-11.43c-7.06-7.06-11.43-16.82-11.43-27.6s4.37-20.53,11.43-27.6,16.82-11.43,27.6-11.43h0Zm0-5.71h-.27c-.18,0-.35.08-.47.22-.35.42-.07,1.04.48,1.04h.26s.28,0,.28,0h.28s.28,0,.28,0h.4c.65.02.9-.83.32-1.17-.09-.05-.19-.08-.29-.08h-.41s-.29-.01-.29-.01h-.29s-.29,0-.29,0h0Zm-3.97,1.44c.28-.03.5-.23.56-.51.07-.42-.26-.78-.68-.74l-.48.05-.28.03-.5.06c-.25.03-.46.2-.53.44-.13.43.23.86.68.81l.49-.06c.25-.03.5-.05.75-.07h0Zm-4.91.73c.26-.05.45-.26.49-.52.07-.43-.32-.8-.75-.71l-.42.09-.27.06-.27.06-.29.07c-.66.17-.63,1.11.05,1.23.09.01.16.01.25-.01.18-.04.35-.08.53-.12.23-.05.45-.1.68-.15h0Zm-4.79,1.29c.2-.07.36-.23.41-.44.12-.48-.34-.91-.81-.75-.27.09-.53.18-.8.27l-.41.15c-.61.23-.52,1.11.13,1.21.1.01.2,0,.3-.03.21-.08.43-.15.65-.23l.25-.09.27-.09h0Zm-4.61,1.83c.59-.28.42-1.17-.25-1.2-.1,0-.19.02-.28.06-.19.09-.39.18-.58.27-.19.09-.38.19-.57.28-.22.11-.36.34-.35.59.02.45.51.74.91.53.26-.13.52-.26.79-.38l.33-.15h0Zm-4.37,2.34c.22-.14.33-.37.29-.63-.07-.45-.57-.68-.95-.44-.19.12-.38.24-.57.36-.17.11-.34.22-.51.33-.23.15-.33.41-.27.67.1.42.59.62.96.38.16-.11.33-.21.49-.31.19-.12.37-.23.56-.35h0Zm-4.08,2.83c.21-.17.29-.44.21-.69-.13-.41-.65-.57-.99-.3-.34.26-.67.53-1,.8-.21.18-.28.47-.18.73.17.39.66.51.98.24.32-.26.64-.52.97-.78h0Zm-3.73,3.27c.18-.18.24-.44.14-.67-.17-.43-.7-.54-1.03-.22-.16.16-.32.32-.48.47-.14.14-.28.29-.42.43-.19.2-.23.5-.09.74.21.37.71.43,1,.12.29-.3.58-.59.87-.88h0Zm-3.34,3.67c.14-.17.18-.39.11-.6-.16-.47-.77-.58-1.08-.19-.27.33-.53.67-.79,1-.37.5.11,1.17.7.98.12-.04.23-.11.3-.22.25-.33.51-.65.77-.97h0Zm-2.9,4.03c.33-.52-.22-1.16-.79-.91-.11.05-.21.13-.28.24-.17.27-.33.53-.5.8l-.17.29c-.13.22-.11.5.05.71.28.35.81.31,1.04-.07.21-.36.43-.71.65-1.06h0Zm-2.42,4.33c.11-.23.07-.51-.1-.7-.3-.33-.84-.25-1.03.15-.1.21-.2.43-.31.64-.08.17-.16.34-.24.52-.09.2-.07.43.06.61.28.4.89.34,1.09-.1l.12-.26.22-.48.19-.39h0Zm-1.91,4.58c.09-.25,0-.52-.19-.69-.34-.28-.86-.14-1,.28-.09.25-.17.5-.25.75l-.15.46c-.18.54.42,1.03.91.73.14-.08.24-.21.28-.35.08-.23.15-.47.23-.7l.16-.48h0Zm-1.37,4.77c.14-.65-.67-1.04-1.1-.54-.06.08-.11.17-.13.26l-.08.37-.06.27-.06.27-.07.34c-.05.27.08.54.32.67.37.2.84-.02.92-.44.04-.2.08-.39.12-.59.04-.21.09-.42.14-.63h0Zm-.82,4.89c.03-.25-.1-.5-.33-.62-.39-.21-.88.05-.92.49l-.03.32-.05.57-.03.38c-.05.57.65.9,1.06.5.11-.11.18-.25.19-.41l.03-.37.02-.27c.02-.2.04-.39.06-.59h0Zm-.26,4.95c0-.18-.08-.35-.21-.47-.42-.35-1.04-.07-1.04.48v.38s0,.29,0,.29v.29s.02.32.02.32c.01.29.21.53.5.59.4.09.78-.23.76-.64v-.31s-.01-.28-.01-.28v-.28s0-.37,0-.37h0Zm.3,4.95c-.03-.25-.2-.46-.44-.53-.43-.13-.86.23-.81.68l.05.4.04.28.04.28.04.31c.03.19.15.36.32.45.46.25,1-.13.93-.65-.03-.19-.05-.37-.08-.56l-.04-.27-.05-.39h0Zm.86,4.89c-.14-.59-.97-.66-1.2-.09-.05.12-.06.25-.03.38l.08.32.13.54.1.38c.16.57.93.63,1.18.1.06-.14.08-.28.04-.43-.11-.4-.21-.8-.3-1.2h0Zm1.41,4.75c-.23-.61-1.11-.52-1.22.13-.01.1,0,.2.03.3.08.23.17.45.25.68l.1.26.1.26c.1.24.34.4.6.39.44,0,.74-.45.57-.86h0c-.15-.38-.3-.77-.44-1.16h0Zm1.95,4.56c-.11-.22-.34-.36-.59-.35-.45.02-.74.51-.53.91.12.23.24.47.36.7l.23.43c.06.12.17.22.29.27.55.25,1.11-.34.82-.87-.2-.37-.38-.73-.57-1.11h0Zm2.46,4.31c-.34-.51-1.13-.29-1.16.32,0,.14.03.25.1.36.23.36.47.71.71,1.06.08.12.19.2.33.24.58.17,1.04-.46.71-.96-.23-.34-.47-.68-.69-1.03h0Zm2.93,4c-.42-.5-1.22-.12-1.1.52.02.1.06.2.13.28.27.33.55.65.83.97.42.48,1.21.1,1.09-.53-.02-.11-.07-.21-.15-.3-.15-.18-.31-.36-.46-.54-.11-.14-.23-.27-.34-.41h0Zm3.37,3.64c-.09-.09-.22-.15-.35-.17-.6-.08-.96.65-.52,1.08.19.19.39.37.58.55l.35.32c.2.18.48.21.72.09.38-.21.45-.73.13-1.02-.24-.22-.48-.44-.72-.67l-.19-.18h0Zm3.76,3.23c-.5-.37-1.17.11-.98.7.04.12.11.22.22.3.34.26.68.51,1.02.76.2.14.46.16.67.04.4-.22.44-.79.06-1.06-.34-.24-.67-.49-1-.74h0Zm4.11,2.79c-.55-.33-1.18.28-.87.85.05.1.13.18.23.23.16.09.31.19.47.28.21.12.42.24.64.36.48.27,1.07-.19.91-.72-.05-.16-.15-.29-.3-.38-.36-.2-.72-.41-1.07-.62h0Zm4.39,2.3c-.53-.24-1.07.31-.83.84.07.14.17.24.31.31l.29.13.5.22.38.16c.6.24,1.12-.44.75-.96-.07-.09-.16-.16-.26-.21-.21-.09-.41-.17-.61-.26-.17-.08-.35-.15-.52-.23h0Zm4.63,1.78c-.54-.18-1.03.42-.74.92.08.14.21.24.35.28l.38.12.53.16.31.09c.43.12.84-.22.8-.66-.02-.26-.21-.48-.45-.55-.18-.05-.37-.11-.55-.16-.21-.06-.42-.13-.63-.2h0Zm4.8,1.24c-.6-.11-.99.58-.59,1.04.1.11.21.17.35.2l.28.05.27.05.27.05.43.07c.27.04.54-.09.66-.33.19-.38-.03-.84-.46-.91l-.41-.07-.53-.1-.27-.05h0Zm4.91.68c-.57-.05-.9.65-.5,1.06.11.11.25.18.41.19l.53.04.28.02.45.03c.66.03.92-.84.34-1.18-.09-.05-.18-.07-.28-.08l-.44-.03-.28-.02-.52-.04h0Zm4.96.12c-.27.01-.5.18-.58.45-.12.42.19.82.62.81h.32s.29-.02.29-.02h.29s.38-.03.38-.03c.27-.02.5-.21.57-.48.1-.41-.22-.81-.65-.78l-.37.02h-.28s-.28.03-.28.03h-.31Zm4.94-.43c-.27.04-.48.25-.53.51-.07.42.29.79.71.73l.32-.05.28-.04.28-.04.39-.07c.58-.11.71-.87.2-1.17-.13-.07-.27-.1-.42-.07l-.37.06-.54.09-.31.05h0Zm4.86-.99c-.57.16-.63.93-.1,1.18.14.06.28.08.43.04.25-.07.5-.14.75-.21l.48-.14c.28-.08.46-.34.45-.63-.02-.41-.42-.69-.81-.58-.24.07-.48.14-.72.21l-.48.13h0Zm4.72-1.54c-.22.09-.37.28-.4.52-.05.47.42.83.86.65.19-.07.38-.15.57-.23.21-.09.41-.17.62-.26.5-.21.51-.92.02-1.15-.17-.07-.34-.08-.51,0l-.35.15-.49.2-.3.12h0Zm4.5-2.07c-.12.06-.22.17-.27.29-.25.55.34,1.11.87.82.19-.1.39-.21.58-.31.18-.1.36-.2.54-.3.22-.12.34-.38.31-.63-.06-.45-.55-.69-.94-.47-.36.2-.72.4-1.09.6h0Zm4.24-2.58c-.12.08-.2.19-.24.33-.17.58.46,1.04.96.71l.33-.23.22-.16c.16-.12.33-.23.49-.35.22-.17.31-.45.22-.71-.14-.4-.63-.55-.97-.3-.33.25-.67.48-1.01.72h0Zm3.92-3.04c-.48.43-.1,1.21.53,1.09.12-.02.21-.07.3-.15.32-.28.64-.56.95-.85.41-.38.16-1.05-.4-1.09-.17,0-.33.05-.46.17-.3.28-.61.56-.92.83h0Zm3.55-3.47c-.18.2-.21.48-.09.72.21.39.73.45,1.02.13.29-.31.57-.63.85-.96.39-.47-.03-1.16-.62-1.02-.13.03-.24.1-.33.2-.27.31-.55.62-.82.93h0Zm3.13-3.85c-.14.2-.16.46-.04.67.22.4.79.44,1.06.06l.23-.32.16-.22c.12-.17.23-.33.35-.5.34-.51-.17-1.16-.76-.94-.12.05-.21.13-.29.23-.23.34-.47.68-.71,1.01h0Zm2.68-4.18c-.28.48.19,1.07.72.91.16-.05.29-.15.38-.3l.2-.36c.14-.25.28-.51.41-.76.24-.47-.17-1.01-.69-.91-.19.04-.34.15-.43.33-.19.37-.39.73-.59,1.09h0Zm2.18-4.45c-.24.6.44,1.12.96.75.09-.07.16-.16.21-.26l.18-.43c.1-.25.2-.5.3-.75.1-.26.02-.54-.19-.72-.34-.27-.82-.14-.98.26l-.19.49c-.09.22-.18.45-.27.67h0Zm1.66-4.68c-.18.63.59,1.08,1.05.62.08-.08.13-.16.16-.27l.08-.28.15-.53.11-.42c.15-.6-.57-1.04-1.04-.62-.09.09-.15.19-.18.31-.06.22-.12.44-.18.66-.05.18-.1.36-.15.53h0Zm1.11-4.83c-.04.27.09.54.33.66.38.2.84-.03.91-.46l.08-.47.04-.28.08-.52c.08-.55-.55-.93-1-.59-.14.1-.22.25-.25.42l-.07.5c-.04.24-.08.48-.12.73h0Zm.55-4.93c-.03.66.84.92,1.18.34.05-.09.07-.17.08-.28l.02-.47v-.29s.03-.52.03-.52c.01-.65-.84-.9-1.18-.32-.05.09-.08.19-.08.29l-.02.5v.28s-.03.46-.03.46h0Zm0-4.96c.02.27.21.5.48.57.41.1.81-.22.78-.65l-.03-.54c-.02-.25-.04-.49-.06-.73-.02-.25-.19-.47-.43-.54-.43-.14-.86.2-.82.65l.04.43.02.28.03.53h0Zm-.57-4.93c.11.58.87.71,1.17.2.08-.13.1-.27.07-.42l-.09-.5-.05-.27-.09-.48c-.14-.64-1.03-.68-1.22-.04-.03.1-.03.2-.01.29l.09.46c.05.25.09.51.14.76h0Zm-1.13-4.83c.08.28.34.46.63.45.41-.02.69-.42.58-.81-.06-.21-.13-.43-.19-.64l-.08-.26-.1-.32c-.07-.2-.24-.36-.44-.41-.48-.12-.91.33-.75.81.09.27.17.54.26.81l.11.37h0Zm-1.67-4.67c.21.5.92.51,1.15.02.07-.17.08-.34,0-.51-.1-.23-.2-.46-.3-.7l-.21-.47c-.24-.52-.99-.48-1.17.06-.05.15-.04.32.02.46.11.23.21.46.31.7l.19.44h0Zm-2.2-4.45c.13.22.37.34.63.31.45-.06.69-.55.47-.94l-.26-.46c-.13-.21-.25-.43-.38-.64-.14-.23-.4-.34-.67-.29-.43.1-.63.57-.41.94.21.36.42.71.63,1.07h0Zm-2.69-4.17c.37.5,1.15.23,1.14-.39,0-.13-.04-.24-.12-.35-.25-.34-.51-.69-.77-1.02-.17-.21-.45-.3-.71-.21-.4.14-.55.65-.29.98.25.33.5.66.74.99h0Zm-3.14-3.84c.39.43,1.12.13,1.09-.46-.01-.15-.06-.28-.17-.4l-.18-.2c-.23-.25-.46-.49-.69-.73-.38-.39-1.04-.14-1.08.4,0,.18.05.35.18.48.29.29.58.59.85.9h0Zm-3.56-3.45c.47.39,1.16-.03,1.02-.62-.03-.13-.1-.24-.2-.33-.32-.28-.65-.55-.97-.82-.43-.35-1.06-.02-1.03.53.02.18.09.33.23.44.19.15.37.31.56.46l.4.34h0Zm-3.93-3.03c.51.34,1.16-.17.94-.76-.05-.12-.12-.21-.23-.29-.35-.24-.71-.47-1.06-.7-.52-.33-1.16.21-.91.79.05.11.13.21.24.27.35.23.69.45,1.04.69h0Zm-4.25-2.57c.6.31,1.21-.41.78-.95-.06-.07-.12-.12-.19-.16l-.26-.13c-.29-.15-.59-.3-.88-.45-.61-.29-1.2.44-.75.98.06.06.12.11.2.15.37.18.74.37,1.1.56h0Zm-4.51-2.06c.26.1.54.02.71-.19.27-.33.14-.82-.26-.98l-.33-.13-.51-.19-.36-.13c-.58-.2-1.08.45-.72.96.08.11.18.18.3.23.39.14.78.28,1.16.43h0Zm-4.72-1.53c.6.15,1.04-.57.62-1.04-.09-.09-.19-.15-.31-.18-.24-.06-.48-.12-.72-.18l-.52-.12c-.2-.05-.41,0-.56.14-.38.34-.22.97.27,1.09.4.09.8.19,1.21.3h0Zm-4.86-.98c.58.09.95-.62.55-1.05-.1-.11-.23-.17-.37-.19l-.38-.05-.28-.04-.28-.03-.33-.04c-.25-.03-.5.1-.62.33-.21.39.05.88.49.92l.31.04.27.03.27.04.38.05h0Zm31.04,46.07c-1.96,1.58-5.45,2.95-10.04,4-.88.2-1.8.39-2.76.58-.96,7.66-3.35,14.52-6.71,19.85-2.34,3.72-5.16,6.7-8.29,8.7,6.53-1.7,12.36-5.11,16.98-9.74,6.09-6.09,10.09-14.28,10.82-23.38h0Zm-14.53,4.89c-3.95.67-8.46,1.16-13.34,1.44-.4,6.85-1.21,12.98-2.33,17.83-1.01,4.41-2.32,7.8-3.82,9.8,5.06-1.13,9.62-4.91,13.09-10.43,3.16-5.01,5.42-11.44,6.39-18.64h0Zm-15.02,1.53c-2.48.12-5.05.18-7.67.18s-5.19-.06-7.67-.18c.39,6.69,1.19,12.65,2.28,17.37,1.5,6.51,3.41,10.53,5.39,10.53s3.9-4.02,5.4-10.53c1.08-4.72,1.88-10.69,2.28-17.37h0Zm-17.03-.09c-4.88-.28-9.39-.78-13.34-1.44.97,7.2,3.24,13.63,6.39,18.64,3.48,5.52,8.03,9.3,13.1,10.43-1.5-2-2.8-5.4-3.82-9.8-1.12-4.85-1.94-10.98-2.33-17.83h0Zm-15.07-1.75c-.96-.18-1.88-.37-2.76-.58-4.59-1.05-8.07-2.42-10.04-4,.73,9.11,4.73,17.29,10.82,23.38,4.63,4.63,10.46,8.04,16.98,9.74-3.14-2.01-5.95-4.98-8.29-8.7-3.36-5.33-5.74-12.18-6.71-19.85h0Zm-12.8-10.63c1.97-1.58,5.45-2.95,10.04-4,.88-.2,1.8-.4,2.76-.58.96-7.66,3.35-14.52,6.71-19.85,2.34-3.72,5.16-6.69,8.29-8.7-6.53,1.7-12.36,5.11-16.98,9.74-6.09,6.09-10.09,14.28-10.82,23.38h0Zm14.53-4.89c3.95-.67,8.46-1.16,13.34-1.44.39-6.85,1.21-12.98,2.33-17.83,1.01-4.41,2.32-7.8,3.82-9.8-5.06,1.13-9.62,4.91-13.1,10.44-3.16,5.01-5.42,11.44-6.39,18.64h0Zm15.02-1.53c2.48-.12,5.05-.18,7.67-.18s5.19.06,7.67.18c-.39-6.68-1.19-12.65-2.28-17.37-1.5-6.51-3.41-10.53-5.4-10.53s-3.9,4.03-5.39,10.53c-1.08,4.72-1.89,10.69-2.28,17.37h0Zm17.03.09c4.88.28,9.39.78,13.34,1.44-.97-7.2-3.24-13.63-6.39-18.64-3.48-5.52-8.03-9.3-13.09-10.44,1.5,2,2.8,5.39,3.82,9.8,1.12,4.85,1.94,10.98,2.33,17.83h0Zm15.07,1.75c.96.18,1.88.37,2.76.58,4.58,1.05,8.07,2.42,10.04,4-.73-9.11-4.73-17.29-10.82-23.38-4.63-4.62-10.46-8.04-16.98-9.74,3.14,2.01,5.95,4.98,8.29,8.7,3.36,5.33,5.74,12.19,6.71,19.85h0Zm2.39,13c6.51-1.5,10.53-3.41,10.53-5.39s-4.02-3.9-10.53-5.39c-.71-.16-1.44-.32-2.2-.47.18,1.91.28,3.87.28,5.86s-.1,3.95-.28,5.86c.76-.15,1.49-.3,2.2-.47h0Zm-3.92-11.57c-3.95-.69-8.51-1.2-13.46-1.49.12,2.48.18,5.05.18,7.67s-.06,5.19-.18,7.67c4.95-.29,9.51-.81,13.46-1.49.21-2.01.32-4.07.32-6.18s-.11-4.17-.32-6.18h0Zm-15.14-1.58c-2.5-.12-5.1-.18-7.76-.18s-5.26.06-7.76.18c-.12,2.5-.18,5.1-.18,7.76s.06,5.26.18,7.76c2.51.12,5.1.18,7.76.18s5.26-.06,7.76-.18c.12-2.5.18-5.1.18-7.76s-.06-5.26-.18-7.76h0Zm-17.21.09c-4.95.29-9.51.81-13.46,1.49-.21,2.01-.32,4.07-.32,6.18s.11,4.17.32,6.18c3.95.69,8.51,1.2,13.46,1.49-.12-2.48-.18-5.05-.18-7.67s.06-5.19.18-7.67h0Zm-15.17,1.81c-.76.15-1.49.31-2.2.47-6.51,1.5-10.53,3.41-10.53,5.39s4.03,3.9,10.53,5.39c.71.16,1.44.32,2.2.47-.18-1.91-.28-3.87-.28-5.86s.1-3.95.28-5.86Z"/>
  <path class="cls-1" d="m608.15,453.07v.66h3.82v-182.64h-3.82v181.98h0Zm12.06-196.05c-1.21.4-3.38.8-6.03-.09l-5.46,12.06h16.9l-5.41-11.97h0Zm-5.16-2.01c1.9.6,3.41.37,4.3.1l-2.17-4.8-2.13,4.7h0Zm1.17-7.67h0s0-.02,0-.02h0s0-.02,0-.02h0s0-.02,0-.02h0s0-.02,0-.02h0s0-.02,0-.02c.03-.05.06-.1.1-.14h0s0,0,0,0h.01s.02-.03.03-.04h0s.02-.03.02-.03h.01s.02-.03.03-.04h.01s0-.02,0-.02h0s.09-.07.14-.1h0s.01-.01.01-.01h.01s0-.01,0-.01h.01s0-.01,0-.01h.02s0-.01,0-.01h.01s0,0,0,0h.01s0,0,0,0c.01,0,.03-.01.04-.02h0c.11-.04.22-.06.34-.07h.03s.03,0,.03,0c.11,0,.22.02.33.07h0s.03.01.04.02h0s.01,0,.01,0h0s.02,0,.02,0h0s.02.01.02.01h0s.01.01.01.01h.01s.01.01.01.01h.01s0,.01,0,.01c.05.03.09.06.14.1h0s0,0,0,0h.01s.02.03.03.04h.01s.02.03.02.03h.01s.02.03.03.04h.01s0,.02,0,.02h0s.07.09.1.14h0s0,.02,0,.02h0s0,.02,0,.02h0s0,.02,0,.02v.02s.01,0,.01,0h0s0,.02,0,.02l10.05,22.21c.08.15.12.31.12.49v195.02c0,1.59-.65,3.04-1.7,4.09-1.05,1.05-2.5,1.7-4.09,1.7h-10.67c-1.59,0-3.04-.65-4.09-1.7-1.05-1.05-1.7-2.5-1.7-4.09v-195.02c0-.18.04-.34.12-.49l10.05-22.21h0Zm-8.07,208.49v9.23c0,1.01.41,1.94,1.08,2.6.67.67,1.59,1.08,2.61,1.08h10.67c1.01,0,1.94-.42,2.61-1.08.67-.67,1.09-1.59,1.09-2.6v-9.23h-18.05Zm18.05-2.1v-182.64h-3.82v182.64h3.82Zm-5.92,0v-182.64h-6.21v182.64h6.21Z"/>
  <path class="cls-7" d="m400.09,121.47c11.67,0,21.13,9.46,21.13,21.13s-9.46,21.13-21.13,21.13-21.13-9.46-21.13-21.13,9.46-21.13,21.13-21.13h0Zm-5.34,31.32c0,.61.33,1.14.88,1.4.55.27,1.17.2,1.65-.18l12.89-10.19c.39-.31.59-.73.59-1.22s-.2-.92-.59-1.22l-12.89-10.19c-.48-.38-1.1-.45-1.65-.18-.55.27-.88.79-.88,1.4v20.38Z"/>
  <path class="cls-1" d="m147.75,154.97c1.3,0,2.37-1.06,2.37-2.37s-1.06-2.37-2.37-2.37-2.37,1.06-2.37,2.37,1.06,2.37,2.37,2.37Z"/>
  <path class="cls-1" d="m178.93,268.28c1.3,0,2.37-1.06,2.37-2.37s-1.06-2.37-2.37-2.37-2.37,1.06-2.37,2.37,1.06,2.37,2.37,2.37Z"/>
  <path class="cls-1" d="m532.28,188.89c1.47,0,2.66-1.2,2.66-2.66s-1.2-2.66-2.66-2.66-2.66,1.2-2.66,2.66,1.2,2.66,2.66,2.66Z"/>
  <path class="cls-1" d="m615.83,243.06c1.47,0,2.66-1.2,2.66-2.66s-1.2-2.66-2.66-2.66-2.66,1.2-2.66,2.66,1.2,2.66,2.66,2.66Z"/>
  <path class="cls-1" d="m470.75,192.16c1.47,0,2.66-1.2,2.66-2.66s-1.2-2.66-2.66-2.66-2.66,1.2-2.66,2.66,1.2,2.66,2.66,2.66Z"/>
  <path class="cls-1" d="m369.42,344.09c1.47,0,2.66-1.2,2.66-2.66s-1.2-2.66-2.66-2.66-2.66,1.2-2.66,2.66,1.2,2.66,2.66,2.66Z"/>
  <path class="cls-1" d="m470.67,96.42c-.52-.52-1.25-.85-2.05-.85s-1.53.33-2.05.85c-.53.52-.85,1.25-.85,2.05s.31,1.5.81,2.02l.04.03c.52.52,1.25.85,2.05.85s1.53-.33,2.05-.85h0c.52-.52.85-1.25.85-2.05s-.32-1.53-.85-2.05Z"/>
  <path class="cls-1" d="m403.17,443.38c-.52-.53-1.25-.85-2.05-.85s-1.53.32-2.05.85c-.52.52-.85,1.25-.85,2.05s.31,1.5.81,2.02l.04.03c.52.52,1.25.85,2.05.85s1.53-.32,2.05-.85h0c.52-.52.85-1.25.85-2.05s-.32-1.53-.85-2.05Z"/>
  <path class="cls-1" d="m185.29,463.51c-.52-.52-1.25-.85-2.05-.85s-1.53.33-2.05.85c-.53.52-.85,1.25-.85,2.05s.31,1.5.81,2.02l.04.03c.52.52,1.25.85,2.05.85s1.53-.33,2.05-.85h0c.52-.52.85-1.25.85-2.05s-.33-1.53-.85-2.05Z"/>
  <path class="cls-1" d="m59.77,429.17c-.52-.53-1.25-.85-2.05-.85s-1.53.32-2.05.85c-.52.52-.85,1.25-.85,2.05s.31,1.5.81,2.02l.04.03c.52.52,1.25.85,2.05.85s1.53-.32,2.05-.85h0c.52-.52.85-1.25.85-2.05s-.33-1.53-.85-2.05Z"/>
  <path class="cls-1" d="m616.32,144.97c-.52-.52-1.25-.85-2.05-.85s-1.53.33-2.05.85c-.53.52-.85,1.25-.85,2.05s.31,1.5.81,2.02l.04.03c.52.52,1.25.85,2.05.85s1.53-.33,2.05-.85h0c.52-.52.85-1.25.85-2.05s-.32-1.53-.85-2.05Z"/>
  <path class="cls-1" d="m163.24,84.31c.52-.52,1.25-.85,2.05-.85s1.53.32,2.05.85c.52.52.85,1.25.85,2.05s-.31,1.5-.81,2.02l-.04.03c-.53.52-1.25.85-2.05.85s-1.53-.32-2.05-.85h0c-.52-.52-.85-1.25-.85-2.05s.33-1.53.85-2.05Z"/>
  <path class="cls-1" d="m52.66,263.38c-.52-.52-1.25-.85-2.05-.85s-1.53.33-2.05.85c-.52.52-.85,1.25-.85,2.05s.31,1.5.81,2.02l.04.03c.53.52,1.25.85,2.05.85s1.53-.33,2.05-.85h0c.52-.52.85-1.25.85-2.05s-.32-1.53-.85-2.05Z"/>
  <path class="cls-1" d="m312.57,173.89c-.31.31-.82.31-1.14,0s-.31-.82,0-1.14l4.51-4.51-4.51-4.51c-.31-.31-.31-.82,0-1.14.31-.31.82-.31,1.14,0l5.08,5.08c.31.31.31.82,0,1.14l-5.08,5.08h0Zm-7.93-10.16l4.51,4.51-4.51,4.51c-.31.31-.31.82,0,1.14.31.31.82.31,1.14,0l5.08-5.08c.31-.31.31-.82,0-1.14l-5.08-5.08c-.31-.31-.82-.31-1.14,0-.31.31-.31.82,0,1.14h0Zm28.31,10.16c-.31.31-.82.31-1.14,0-.31-.31-.31-.82,0-1.14l4.51-4.51-4.51-4.51c-.31-.31-.31-.82,0-1.14.31-.31.82-.31,1.14,0l5.08,5.08c.31.31.31.82,0,1.14l-5.08,5.08h0Zm-6.79,0l5.08-5.08c.31-.31.31-.82,0-1.14l-5.08-5.08c-.31-.31-.82-.31-1.14,0-.31.31-.31.82,0,1.14l4.51,4.51-4.51,4.51c-.31.31-.31.82,0,1.14s.82.31,1.14,0h0Zm-6.79,0l5.08-5.08c.31-.31.31-.82,0-1.14l-5.08-5.08c-.31-.31-.82-.31-1.14,0-.31.31-.31.82,0,1.14l4.51,4.51-4.51,4.51c-.31.31-.31.82,0,1.14.31.31.82.31,1.14,0Z"/>
  <path class="cls-1" d="m126.01,86.43l-10.98-10.99c-.68-.68-.68-1.78,0-2.46l10.98-10.98c.68-.68,1.78-.68,2.46,0,.68.68.68,1.78,0,2.46l-9.75,9.75,9.75,9.75c.68.68.68,1.78,0,2.46-.68.68-1.78.68-2.46,0h0Zm17.15-21.97c.68-.68.68-1.78,0-2.46-.68-.68-1.78-.68-2.46,0l-10.98,10.98c-.68.68-.68,1.78,0,2.46l10.98,10.99c.68.68,1.78.68,2.46,0,.68-.68.68-1.78,0-2.46l-9.75-9.75,9.75-9.75h0Zm-61.23,21.97l-10.99-10.99c-.68-.68-.68-1.78,0-2.46l10.99-10.98c.68-.68,1.78-.68,2.46,0,.68.68.68,1.78,0,2.46l-9.75,9.75,9.75,9.75c.68.68.68,1.78,0,2.46-.68.68-1.78.68-2.46,0h0Zm14.69,0c.68.68,1.78.68,2.46,0,.68-.68.68-1.78,0-2.46l-9.75-9.75,9.75-9.75c.68-.68.68-1.78,0-2.46-.68-.68-1.78-.68-2.46,0l-10.98,10.98c-.68.68-.68,1.78,0,2.46l10.98,10.99h0Zm17.16,0c.68-.68.68-1.78,0-2.46l-9.75-9.75,9.75-9.75c.68-.68.68-1.78,0-2.46-.68-.68-1.78-.68-2.46,0l-10.98,10.98c-.68.68-.68,1.78,0,2.46l10.98,10.99c.68.68,1.78.68,2.46,0Z"/>
  <path class="cls-1" d="m51.37,352.19c-.7-.7-.7-1.83,0-2.54.7-.7,1.83-.7,2.53,0l10.05,10.05,10.06-10.05c.69-.7,1.83-.7,2.53,0,.7.7.7,1.84,0,2.54l-11.32,11.32c-.7.7-1.84.7-2.54,0l-11.32-11.32h0Zm22.64-17.68l-10.06,10.05-10.05-10.05c-.7-.7-1.83-.7-2.53,0-.7.7-.7,1.84,0,2.54l11.32,11.32c.7.7,1.84.7,2.54,0l11.32-11.32c.7-.7.7-1.84,0-2.54-.7-.7-1.84-.7-2.53,0h0Zm-22.64,63.11c-.7-.7-.7-1.84,0-2.54.7-.7,1.83-.7,2.53,0l10.05,10.05,10.06-10.05c.69-.7,1.83-.7,2.53,0,.7.7.7,1.84,0,2.54l-11.32,11.32c-.7.7-1.84.7-2.54,0l-11.32-11.32h0Zm0-15.14l11.32,11.32c.7.7,1.84.7,2.54,0l11.32-11.32c.7-.7.7-1.84,0-2.54-.7-.7-1.84-.7-2.53,0l-10.06,10.05-10.05-10.05c-.7-.7-1.83-.7-2.53,0-.7.7-.7,1.84,0,2.54h0Zm0-15.15l11.32,11.32c.7.7,1.84.7,2.54,0l11.32-11.32c.7-.7.7-1.84,0-2.54-.7-.7-1.84-.7-2.53,0l-10.06,10.05-10.05-10.05c-.7-.7-1.83-.7-2.53,0-.7.7-.7,1.84,0,2.54Z"/>
  <path class="cls-8" d="m93.89,193.6c.44-.02.81.33.83.77.02.44-.33.81-.77.83-1.45.05-2.21-.84-2.99-1.75-.56-.65-1.13-1.32-1.98-1.32s-1.42.67-1.97,1.32c-.78.91-1.53,1.79-2.96,1.75-1.43.04-2.18-.84-2.96-1.75-.55-.65-1.13-1.32-1.98-1.32s-1.42.67-1.98,1.32c-.78.91-1.53,1.79-2.96,1.75-1.43.04-2.18-.84-2.96-1.75-.56-.65-1.13-1.32-1.98-1.32s-1.42.67-1.97,1.32c-.78.91-1.53,1.79-2.96,1.75-1.43.04-2.18-.84-2.96-1.75-.56-.65-1.13-1.32-1.98-1.32s-1.42.67-1.98,1.32c-.78.91-1.53,1.79-2.96,1.75-1.43.04-2.18-.84-2.96-1.75-.56-.65-1.13-1.32-1.97-1.32s-1.42.67-1.98,1.32c-.78.92-1.54,1.81-2.99,1.75-.44-.02-.79-.39-.77-.83.02-.44.39-.79.83-.77.68.02,1.19-.57,1.71-1.19.79-.93,1.61-1.9,3.19-1.9s2.4.96,3.19,1.9c.52.61,1.03,1.21,1.71,1.19h.02s0,0,0,0h.04s0,0,0,0c.68.02,1.18-.58,1.71-1.19.79-.93,1.61-1.9,3.19-1.9s2.4.96,3.2,1.9c.52.61,1.03,1.21,1.71,1.19h.02s0,0,0,0h.04s0,0,0,0c.68.02,1.18-.58,1.71-1.19.79-.93,1.61-1.9,3.19-1.9s2.4.96,3.19,1.9c.52.61,1.03,1.21,1.71,1.19h.02s0,0,0,0h.04s0,0,0,0c.68.02,1.18-.58,1.71-1.19.79-.93,1.61-1.9,3.19-1.9s2.4.96,3.2,1.9c.52.61,1.03,1.21,1.71,1.19h.02s0,0,0,0h.04s0,0,0,0c.68.02,1.18-.58,1.71-1.19.79-.93,1.61-1.9,3.19-1.9s2.4.96,3.2,1.9c.52.61,1.03,1.21,1.71,1.19Z"/>
  <path class="cls-8" d="m405.32,103.61c.44-.02.81.33.83.77.02.44-.33.81-.77.83-1.45.05-2.21-.84-2.99-1.75-.55-.65-1.12-1.32-1.97-1.32s-1.42.67-1.98,1.32c-.77.91-1.53,1.79-2.96,1.76-1.43.04-2.18-.85-2.96-1.76-.56-.65-1.13-1.32-1.98-1.32s-1.42.67-1.98,1.32c-.77.91-1.53,1.79-2.96,1.76-1.43.04-2.18-.85-2.96-1.76-.56-.65-1.13-1.32-1.98-1.32s-1.42.67-1.98,1.32c-.77.91-1.53,1.79-2.96,1.76-1.43.04-2.18-.85-2.96-1.76-.55-.65-1.13-1.32-1.98-1.32s-1.42.67-1.98,1.32c-.77.91-1.53,1.79-2.96,1.76-1.43.04-2.18-.85-2.96-1.76-.56-.65-1.13-1.32-1.98-1.32s-1.42.67-1.98,1.32c-.78.92-1.54,1.81-2.99,1.75-.44-.02-.79-.39-.77-.83.02-.44.39-.79.83-.77.68.02,1.19-.57,1.71-1.19.79-.93,1.61-1.9,3.19-1.9s2.4.96,3.19,1.9c.52.61,1.03,1.21,1.71,1.19h.02s0,0,0,0h.04s0,0,0,0c.68.02,1.18-.58,1.71-1.19.79-.93,1.61-1.9,3.19-1.9s2.4.96,3.2,1.9c.52.61,1.03,1.21,1.71,1.19h.02s0,0,0,0h.04s0,0,0,0c.68.02,1.18-.58,1.71-1.19.79-.93,1.61-1.9,3.19-1.9s2.4.96,3.19,1.9c.52.61,1.03,1.21,1.71,1.19h.02s0,0,0,0h.04s0,0,0,0c.68.02,1.18-.58,1.71-1.19.79-.93,1.61-1.9,3.2-1.9s2.4.96,3.19,1.9c.52.61,1.03,1.21,1.71,1.19h.02s0,0,0,0h.04s0,0,0,0c.68.02,1.18-.58,1.71-1.19.79-.93,1.61-1.9,3.19-1.9s2.4.96,3.19,1.9c.52.62,1.03,1.21,1.71,1.19Z"/>
  <path class="cls-8" d="m521.37,316.75c.44-.01.81.33.83.77.02.44-.33.81-.77.83-1.45.05-2.21-.84-2.99-1.75-.56-.65-1.13-1.32-1.97-1.32s-1.42.67-1.98,1.32c-.78.91-1.53,1.79-2.96,1.76-1.43.04-2.18-.85-2.96-1.76-.56-.65-1.13-1.32-1.97-1.32s-1.42.67-1.98,1.32c-.78.91-1.53,1.79-2.96,1.76-1.43.04-2.18-.85-2.96-1.76-.55-.65-1.13-1.32-1.97-1.32s-1.42.67-1.98,1.32c-.78.91-1.53,1.79-2.96,1.76-1.43.04-2.18-.85-2.96-1.76-.56-.65-1.13-1.32-1.98-1.32s-1.42.67-1.98,1.32c-.78.91-1.53,1.79-2.96,1.76-1.43.04-2.18-.85-2.96-1.76-.56-.65-1.13-1.32-1.98-1.32s-1.42.67-1.97,1.32c-.78.92-1.54,1.81-2.99,1.75-.44-.02-.79-.39-.77-.83.02-.44.39-.79.83-.77.68.02,1.19-.57,1.71-1.19.79-.93,1.61-1.89,3.19-1.89s2.4.96,3.2,1.89c.52.61,1.03,1.21,1.71,1.19h.07c.68.02,1.18-.57,1.71-1.19.79-.93,1.62-1.89,3.2-1.89s2.4.96,3.2,1.89c.52.61,1.03,1.21,1.71,1.19h.07c.68.02,1.18-.57,1.71-1.19.79-.93,1.61-1.89,3.2-1.89s2.4.96,3.19,1.89c.52.61,1.03,1.21,1.71,1.19h.07c.68.02,1.18-.57,1.71-1.19.79-.93,1.61-1.89,3.2-1.89s2.4.96,3.19,1.89c.52.61,1.03,1.21,1.71,1.19h.07c.67.02,1.18-.57,1.71-1.19.79-.93,1.61-1.89,3.19-1.89s2.4.96,3.19,1.89c.52.62,1.03,1.21,1.71,1.19Z"/>
  <path class="cls-8" d="m630.31,169.92c.44-.02.81.33.83.77.02.44-.33.81-.77.83-1.45.05-2.21-.84-2.99-1.75-.56-.65-1.13-1.32-1.98-1.32s-1.42.67-1.98,1.32c-.78.91-1.53,1.79-2.96,1.75-1.43.04-2.18-.84-2.96-1.75-.56-.65-1.13-1.32-1.97-1.32s-1.42.67-1.98,1.32c-.78.91-1.53,1.79-2.96,1.75-1.43.04-2.18-.84-2.96-1.75-.56-.65-1.13-1.32-1.97-1.32s-1.42.67-1.98,1.32c-.78.91-1.53,1.79-2.96,1.75-1.43.04-2.18-.84-2.96-1.75-.56-.65-1.13-1.32-1.98-1.32s-1.42.67-1.97,1.32c-.78.91-1.53,1.79-2.96,1.75-1.43.04-2.18-.84-2.96-1.75-.55-.65-1.13-1.32-1.98-1.32s-1.42.67-1.98,1.32c-.78.92-1.54,1.81-2.99,1.75-.44-.02-.79-.39-.77-.83.01-.44.39-.79.83-.77.68.02,1.19-.57,1.71-1.19.79-.93,1.61-1.89,3.2-1.89s2.4.96,3.2,1.89c.52.61,1.03,1.21,1.71,1.19h.02s0,0,0,0h.04s0,0,0,0c.67.02,1.18-.58,1.71-1.19.79-.93,1.61-1.89,3.19-1.89s2.4.96,3.2,1.89c.52.61,1.03,1.21,1.71,1.19h.02s0,0,0,0h.03s0,0,0,0c.68.02,1.18-.58,1.71-1.19.79-.93,1.61-1.89,3.2-1.89s2.4.96,3.19,1.89c.52.61,1.03,1.21,1.71,1.19h.02s0,0,0,0h.03s0,0,0,0c.68.02,1.19-.58,1.71-1.19.79-.93,1.61-1.89,3.19-1.89s2.4.96,3.19,1.89c.52.61,1.03,1.21,1.71,1.19h.02s0,0,0,0h.03s0,0,0,0c.68.02,1.18-.58,1.71-1.19.79-.93,1.61-1.89,3.2-1.89s2.4.96,3.2,1.89c.52.62,1.03,1.21,1.71,1.19Z"/>
  <path class="cls-8" d="m587.9,315.04c.01.44-.33.81-.77.83-.44.02-.81-.33-.83-.77-.05-1.45.84-2.21,1.75-2.99.65-.56,1.32-1.13,1.32-1.98s-.67-1.42-1.32-1.98c-.91-.77-1.79-1.53-1.76-2.96-.04-1.43.85-2.18,1.76-2.96.65-.55,1.32-1.13,1.32-1.98s-.67-1.42-1.32-1.97c-.91-.78-1.79-1.53-1.76-2.96-.04-1.43.85-2.18,1.76-2.96.65-.56,1.32-1.13,1.32-1.98s-.67-1.42-1.32-1.98c-.91-.78-1.79-1.53-1.76-2.96-.04-1.43.85-2.18,1.76-2.96.65-.56,1.32-1.13,1.32-1.98s-.67-1.42-1.32-1.98c-.91-.78-1.79-1.53-1.76-2.96-.04-1.43.85-2.18,1.76-2.96.65-.56,1.32-1.13,1.32-1.98s-.67-1.42-1.32-1.98c-.92-.78-1.81-1.54-1.75-2.99.02-.44.39-.79.83-.77.44.02.79.39.77.83-.02.68.57,1.19,1.19,1.71.93.79,1.9,1.61,1.9,3.19s-.96,2.4-1.9,3.19c-.61.52-1.21,1.03-1.19,1.71h0v.02h0v.02h0v.02h0c-.02.68.58,1.19,1.19,1.71.93.79,1.9,1.61,1.9,3.19s-.96,2.4-1.9,3.19c-.61.52-1.21,1.03-1.19,1.71h0v.02h0v.02h0v.02h0c-.02.68.58,1.19,1.19,1.71.93.79,1.9,1.61,1.9,3.19s-.96,2.4-1.9,3.19c-.61.52-1.21,1.03-1.19,1.71h0v.02h0v.02h0v.02h0c-.02.68.58,1.19,1.19,1.71.93.79,1.9,1.61,1.9,3.19s-.96,2.4-1.9,3.2c-.61.52-1.21,1.03-1.19,1.71h0v.02h0v.02h0v.02h0c-.02.68.58,1.19,1.19,1.71.93.79,1.9,1.61,1.9,3.19s-.96,2.4-1.9,3.2c-.62.52-1.21,1.03-1.19,1.71Z"/>
  <path class="cls-8" d="m452.91,152.85c1.25,0,2.37.51,3.19,1.32l.04.05c.79.81,1.28,1.92,1.28,3.14s-.5,2.37-1.32,3.19c-.82.82-1.95,1.32-3.19,1.32s-2.37-.5-3.19-1.32h0c-.82-.82-1.32-1.94-1.32-3.19s.5-2.37,1.32-3.19c.82-.82,1.94-1.32,3.19-1.32Z"/>
  <path class="cls-8" d="m375.94,294.95c1.25,0,2.37.51,3.19,1.32l.04.05c.79.81,1.28,1.92,1.28,3.14s-.51,2.37-1.32,3.19c-.82.82-1.94,1.32-3.19,1.32s-2.37-.5-3.19-1.32h0c-.82-.82-1.32-1.94-1.32-3.19s.5-2.37,1.32-3.19c.82-.82,1.94-1.32,3.19-1.32Z"/>
  <path class="cls-8" d="m57.4,133.9c1.25,0,2.37.51,3.19,1.32l.04.05c.79.81,1.28,1.92,1.28,3.14s-.5,2.37-1.32,3.19c-.82.82-1.95,1.32-3.19,1.32s-2.37-.5-3.19-1.32h0c-.82-.82-1.32-1.94-1.32-3.19s.5-2.37,1.32-3.19c.82-.82,1.94-1.32,3.19-1.32Z"/>
  <path class="cls-8" d="m615.14,81.8c1.25,0,2.37.51,3.19,1.32l.04.05c.79.81,1.28,1.92,1.28,3.14s-.5,2.37-1.32,3.19c-.82.82-1.94,1.32-3.19,1.32s-2.37-.51-3.19-1.32h0c-.81-.82-1.32-1.94-1.32-3.19s.51-2.37,1.32-3.19c.82-.82,1.95-1.32,3.19-1.32Z"/>
  <path class="cls-8" d="m641.19,473.76c1.25,0,2.37.5,3.19,1.32l.04.05c.79.81,1.28,1.92,1.28,3.14s-.5,2.37-1.32,3.19c-.82.82-1.94,1.32-3.19,1.32s-2.37-.5-3.19-1.32h0c-.82-.81-1.32-1.94-1.32-3.19s.5-2.38,1.32-3.19c.82-.82,1.94-1.32,3.19-1.32Z"/>
  <path class="cls-7" d="m169.98,415.59h38.27c1.26,0,2.29,1.03,2.29,2.29v25.27c0,1.26-1.03,2.29-2.29,2.29h-1.14v8.51c0,.3-.16.56-.43.7-.27.14-.57.11-.81-.08l-12.13-9.13h-23.75c-1.26,0-2.29-1.03-2.29-2.29v-25.27c0-1.26,1.03-2.29,2.29-2.29Z"/>
  <g>
    <path class="cls-11" d="m175.42,423.37c-.35,0-.63-.28-.63-.63s.28-.63.63-.63h27.38c.35,0,.63.28.63.63s-.28.63-.63.63h-27.38Z"/>
    <path class="cls-11" d="m175.42,429.89c-.35,0-.63-.28-.63-.63s.28-.63.63-.63h27.38c.35,0,.63.28.63.63s-.28.63-.63.63h-27.38Z"/>
    <path class="cls-11" d="m175.42,436.4c-.35,0-.63-.28-.63-.63s.28-.63.63-.63h27.38c.35,0,.63.28.63.63s-.28.63-.63.63h-27.38Z"/>
  </g>
  <path class="cls-1" d="m562.14,161.53h-12.13v12.13h12.13v-12.13h0Zm-9.36-26.65c-1.31,3.88-1.79,8.2-1.79,14.1v3.11h10.16v-3.11c0-4.17.48-7.41,1.77-10.64,1.28-3.2,3.35-6.34,6.55-10.35h0c3.03-3.76,4.96-6.83,6.13-9.82,1.16-2.96,1.57-5.85,1.57-9.27v-1.97c0-6.4-1.68-11.12-4.74-14.26-3.2-3.28-7.95-4.87-13.9-4.87s-10.54,1.75-13.73,5.03c-3.17,3.25-4.91,8.02-4.91,14.1v.97l10.9,1.07v-1.05c0-3.21.61-5.59,1.86-7.21,1.3-1.69,3.21-2.5,5.76-2.5,2.27,0,4.2.75,5.54,2.47,1.16,1.49,1.84,3.7,1.84,6.76v1.73c0,2.33-.36,4.34-1.34,6.58-.96,2.18-2.5,4.55-4.88,7.62h0c-3.33,4.19-5.48,7.66-6.78,11.53Z"/>
  <path class="cls-1" d="m585.87,387.77c-.53-.52-1.25-.85-2.05-.85s-1.53.33-2.05.85c-.52.52-.85,1.25-.85,2.05s.31,1.49.81,2.02l.04.03c.52.52,1.25.85,2.05.85s1.53-.33,2.05-.85h0c.52-.52.85-1.25.85-2.05s-.33-1.53-.85-2.05Z"/>
  <path class="cls-1" d="m647.45,219.62c-.52-.52-1.25-.85-2.05-.85s-1.53.32-2.05.85c-.52.52-.85,1.25-.85,2.05s.31,1.5.81,2.02l.04.03c.53.52,1.25.85,2.05.85s1.53-.32,2.05-.85h0c.52-.52.85-1.25.85-2.05s-.33-1.53-.85-2.05Z"/>
  <path class="cls-1" d="m435.73,57.07c-.31.31-.82.31-1.14,0-.31-.31-.31-.82,0-1.14l4.51-4.51-4.51-4.51c-.31-.31-.31-.82,0-1.14.31-.31.82-.31,1.14,0l5.08,5.08c.31.31.31.82,0,1.14l-5.08,5.08h0Zm-7.93-10.16l4.51,4.51-4.51,4.51c-.31.31-.31.82,0,1.14.31.31.82.31,1.14,0l5.08-5.08c.31-.31.31-.82,0-1.14l-5.08-5.08c-.31-.31-.82-.31-1.14,0-.31.31-.31.82,0,1.14h0Zm28.31,10.16c-.31.31-.82.31-1.14,0-.31-.31-.31-.82,0-1.14l4.51-4.51-4.51-4.51c-.31-.31-.31-.82,0-1.14.31-.31.82-.31,1.14,0l5.08,5.08c.31.31.31.82,0,1.14l-5.08,5.08h0Zm-6.79,0l5.08-5.08c.31-.31.31-.82,0-1.14l-5.08-5.08c-.31-.31-.82-.31-1.14,0-.31.31-.31.82,0,1.14l4.51,4.51-4.51,4.51c-.31.31-.31.82,0,1.14.31.31.82.31,1.14,0h0Zm-6.79,0l5.08-5.08c.31-.31.31-.82,0-1.14l-5.08-5.08c-.31-.31-.82-.31-1.14,0-.31.31-.31.82,0,1.14l4.51,4.51-4.51,4.51c-.31.31-.31.82,0,1.14.31.31.82.31,1.14,0Z"/>
  <path class="cls-8" d="m647.11,441.67c.01.44-.33.82-.77.83s-.81-.33-.83-.77c-.05-1.45.84-2.21,1.75-2.99.65-.55,1.32-1.13,1.32-1.98s-.67-1.42-1.32-1.98c-.91-.78-1.79-1.53-1.76-2.96-.04-1.43.85-2.19,1.76-2.96.65-.56,1.32-1.13,1.32-1.98s-.67-1.42-1.32-1.98c-.91-.78-1.79-1.53-1.76-2.96-.04-1.43.85-2.19,1.76-2.96.65-.56,1.32-1.13,1.32-1.98s-.67-1.42-1.32-1.97c-.91-.78-1.79-1.53-1.76-2.96-.04-1.43.85-2.18,1.76-2.96.65-.55,1.32-1.12,1.32-1.98s-.67-1.42-1.32-1.98c-.91-.77-1.79-1.53-1.76-2.96-.04-1.43.85-2.18,1.76-2.96.65-.55,1.32-1.13,1.32-1.98s-.67-1.42-1.32-1.98c-.92-.78-1.81-1.54-1.75-2.99.02-.44.39-.79.83-.77.44.01.79.39.77.83-.02.68.57,1.19,1.19,1.71.93.8,1.89,1.61,1.89,3.2s-.96,2.4-1.89,3.2c-.61.52-1.21,1.03-1.19,1.7h0v.02h0v.02h0v.02h0c-.02.68.58,1.19,1.19,1.71.93.79,1.89,1.61,1.89,3.19s-.96,2.4-1.89,3.2c-.61.52-1.21,1.03-1.19,1.71h0v.02h0v.02h0v.02h0c-.02.68.58,1.19,1.19,1.71.93.79,1.89,1.61,1.89,3.19s-.96,2.4-1.89,3.2c-.61.52-1.21,1.03-1.19,1.71h0v.02h0v.02h0v.02h0c-.02.68.58,1.19,1.19,1.71.93.8,1.89,1.61,1.89,3.2s-.96,2.4-1.89,3.19c-.61.52-1.21,1.03-1.19,1.71h0v.02h0v.02h0v.02h0c-.02.68.58,1.19,1.19,1.71.93.8,1.89,1.61,1.89,3.2s-.96,2.4-1.89,3.2c-.62.52-1.21,1.03-1.19,1.71Z"/>
  <g>
    <g>
      <path class="cls-19" d="m174.63,178.61c-.73,0-1.36-.59-1.36-1.32s.55-1.32,1.28-1.32h.07c.73,0,1.32.59,1.32,1.32s-.59,1.32-1.32,1.32Zm-6.67,0h-6.6c-.73,0-1.32-.59-1.32-1.32s.59-1.32,1.32-1.32h6.6c.73,0,1.32.59,1.32,1.32s-.59,1.32-1.32,1.32Zm-13.19,0h-6.6c-.73,0-1.32-.59-1.32-1.32s.59-1.32,1.32-1.32h6.6c.73,0,1.32.59,1.32,1.32s-.59,1.32-1.32,1.32Zm-13.19,0h-6.59c-.73,0-1.32-.59-1.32-1.32s.59-1.32,1.32-1.32h6.59c.73,0,1.32.59,1.32,1.32s-.59,1.32-1.32,1.32Zm-13.19,0h-6.59c-.73,0-1.32-.59-1.32-1.32s.59-1.32,1.32-1.32h6.59c.73,0,1.32.59,1.32,1.32s-.59,1.32-1.32,1.32Zm-13.19,0h-6.59c-.73,0-1.32-.59-1.32-1.32s.59-1.32,1.32-1.32h6.59c.73,0,1.32.59,1.32,1.32s-.59,1.32-1.32,1.32Zm-12.96-1.43c-.21,0-.42-.05-.62-.15-2.16-1.14-3.98-2.85-5.26-4.92-.38-.62-.19-1.43.43-1.82.62-.38,1.43-.19,1.82.43,1.04,1.68,2.51,3.06,4.25,3.98.64.34.89,1.14.55,1.78-.24.45-.69.7-1.17.7Zm-6.59-10.7c-.72,0-1.31-.57-1.32-1.29v-.24c0-2.36.62-4.7,1.79-6.75.36-.63,1.17-.85,1.8-.49.63.36.85,1.17.49,1.8-.95,1.65-1.45,3.54-1.45,5.44v.19c.02.73-.56,1.33-1.29,1.34h-.03Zm6.23-10.92c-.46,0-.9-.24-1.14-.66-.36-.63-.15-1.44.49-1.8,2.06-1.18,4.4-1.81,6.78-1.81h.19c.73,0,1.32.59,1.32,1.32s-.59,1.32-1.32,1.32h-.19c-1.91,0-3.8.5-5.46,1.46-.21.12-.43.18-.66.18Zm45.88-1.63h-6.6c-.73,0-1.32-.59-1.32-1.32s.59-1.32,1.32-1.32h6.6c.73,0,1.32.59,1.32,1.32s-.59,1.32-1.32,1.32Zm-13.19,0h-6.6c-.73,0-1.32-.59-1.32-1.32s.59-1.32,1.32-1.32h6.6c.73,0,1.32.59,1.32,1.32s-.59,1.32-1.32,1.32Zm-13.19,0h-6.6c-.73,0-1.32-.59-1.32-1.32s.59-1.32,1.32-1.32h6.6c.73,0,1.32.59,1.32,1.32s-.59,1.32-1.32,1.32Z"/>
      <path class="cls-19" d="m253.61,190.96c-.73,0-1.32-.59-1.32-1.32,0-1.97-.53-3.91-1.54-5.61-.37-.63-.17-1.43.46-1.81.63-.37,1.44-.17,1.81.46,1.25,2.1,1.91,4.51,1.91,6.96,0,.73-.59,1.32-1.32,1.32Zm-6.41-10.81c-.22,0-.43-.05-.64-.16-1.62-.89-3.45-1.36-5.3-1.37h-.4c-.73,0-1.32-.59-1.32-1.32s.59-1.32,1.32-1.32h.4c2.29,0,4.57.59,6.57,1.69.64.35.87,1.16.52,1.79-.24.44-.69.68-1.16.68Zm-12.93-1.53h-6.6c-.73,0-1.32-.59-1.32-1.32s.59-1.32,1.32-1.32h6.6c.73,0,1.32.59,1.32,1.32s-.59,1.32-1.32,1.32Zm-13.19,0h-6.59c-.73,0-1.32-.59-1.32-1.32s.59-1.32,1.32-1.32h6.59c.73,0,1.32.59,1.32,1.32s-.59,1.32-1.32,1.32Zm-13.19,0h-6.59c-.73,0-1.32-.59-1.32-1.32s.59-1.32,1.32-1.32h6.59c.73,0,1.32.59,1.32,1.32s-.59,1.32-1.32,1.32Zm-13.19,0h-6.59c-.73,0-1.32-.59-1.32-1.32s.59-1.32,1.32-1.32h6.59c.73,0,1.32.59,1.32,1.32s-.59,1.32-1.32,1.32Zm-13.19,0h-6.6c-.73,0-1.32-.59-1.32-1.32s.59-1.32,1.32-1.32h6.6c.73,0,1.32.59,1.32,1.32s-.59,1.32-1.32,1.32Z"/>
      <path class="cls-19" d="m241.26,267.23h-4.25c-.73,0-1.32-.59-1.32-1.32s.59-1.32,1.32-1.32h4.25c.7,0,1.4-.07,2.08-.2.72-.13,1.41.33,1.54,1.05.14.72-.33,1.41-1.05,1.54-.84.16-1.71.24-2.58.24Zm-10.85,0h-6.59c-.73,0-1.32-.59-1.32-1.32s.59-1.32,1.32-1.32h6.59c.73,0,1.32.59,1.32,1.32s-.59,1.32-1.32,1.32Zm-13.19,0h-6.59c-.73,0-1.32-.59-1.32-1.32s.59-1.32,1.32-1.32h6.59c.73,0,1.32.59,1.32,1.32s-.59,1.32-1.32,1.32Zm-13.19,0h-6.6c-.73,0-1.32-.59-1.32-1.32s.59-1.32,1.32-1.32h6.6c.73,0,1.32.59,1.32,1.32s-.59,1.32-1.32,1.32Zm-13.19,0h-6.6c-.73,0-1.32-.59-1.32-1.32s.59-1.32,1.32-1.32h6.6c.73,0,1.32.59,1.32,1.32s-.59,1.32-1.32,1.32Zm58.59-3.11c-.36,0-.73-.15-.99-.44-.48-.55-.43-1.38.11-1.86,1.49-1.32,2.59-3,3.2-4.87.23-.69.97-1.07,1.66-.85.69.23,1.07.97.85,1.66-.75,2.32-2.12,4.4-3.96,6.02-.25.22-.56.33-.87.33Zm4.18-11.99c-.73,0-1.32-.59-1.32-1.32v-6.61c0-.73.59-1.32,1.32-1.32s1.32.59,1.32,1.32v6.61c0,.73-.59,1.32-1.32,1.32Zm0-13.22c-.73,0-1.32-.59-1.32-1.32v-6.61c0-.73.59-1.32,1.32-1.32s1.32.59,1.32,1.32v6.61c0,.73-.59,1.32-1.32,1.32Zm0-13.21c-.73,0-1.32-.59-1.32-1.32v-6.61c0-.73.59-1.32,1.32-1.32s1.32.59,1.32,1.32v6.61c0,.73-.59,1.32-1.32,1.32Zm0-13.21c-.73,0-1.32-.59-1.32-1.32v-6.61c0-.73.59-1.32,1.32-1.32s1.32.59,1.32,1.32v6.61c0,.73-.59,1.32-1.32,1.32Z"/>
    </g>
    <path class="cls-19" d="m373.07,206.08c-.73,0-1.32-.59-1.32-1.32,0-2.42.52-4.76,1.53-6.95.31-.66,1.09-.95,1.75-.64.66.31.95,1.09.64,1.75-.85,1.84-1.29,3.8-1.29,5.83,0,.73-.59,1.32-1.32,1.32Zm5.37-11.6c-.37,0-.74-.16-1-.46-.47-.55-.41-1.39.15-1.86,1.84-1.58,3.95-2.71,6.26-3.36.7-.19,1.43.21,1.63.91.2.7-.21,1.43-.91,1.63-1.94.55-3.72,1.5-5.27,2.83-.25.21-.55.32-.86.32Zm92.32-3.67h-.87c-.73,0-1.32-.59-1.32-1.32s.59-1.32,1.32-1.32h.87c.73,0,1.32.59,1.32,1.32s-.59,1.32-1.32,1.32Zm-7.46,0h-6.6c-.73,0-1.32-.59-1.32-1.32s.59-1.32,1.32-1.32h6.6c.73,0,1.32.59,1.32,1.32s-.59,1.32-1.32,1.32Zm-13.19,0h-6.6c-.73,0-1.32-.59-1.32-1.32s.59-1.32,1.32-1.32h6.6c.73,0,1.32.59,1.32,1.32s-.59,1.32-1.32,1.32Zm-13.19,0h-6.59c-.73,0-1.32-.59-1.32-1.32s.59-1.32,1.32-1.32h6.59c.73,0,1.32.59,1.32,1.32s-.59,1.32-1.32,1.32Zm-13.19,0h-6.6c-.73,0-1.32-.59-1.32-1.32s.59-1.32,1.32-1.32h6.6c.73,0,1.32.59,1.32,1.32s-.59,1.32-1.32,1.32Zm-13.19,0h-6.59c-.73,0-1.32-.59-1.32-1.32s.59-1.32,1.32-1.32h6.59c.73,0,1.32.59,1.32,1.32s-.59,1.32-1.32,1.32Zm-13.19,0h-6.6c-.73,0-1.32-.59-1.32-1.32s.59-1.32,1.32-1.32h6.6c.73,0,1.32.59,1.32,1.32s-.59,1.32-1.32,1.32Z"/>
    <path class="cls-19" d="m388.33,253.53c-2.42,0-4.76-.52-6.94-1.53-.66-.31-.95-1.09-.64-1.75.31-.66,1.09-.95,1.75-.64,1.84.85,3.8,1.29,5.83,1.29.73,0,1.32.59,1.32,1.32s-.59,1.32-1.32,1.32Zm-11.6-5.37c-.37,0-.74-.16-1-.46-1.55-1.82-2.72-3.98-3.36-6.26-.2-.7.21-1.43.91-1.63.69-.19,1.43.21,1.63.91.54,1.92,1.52,3.74,2.83,5.27.47.55.41,1.39-.14,1.86-.25.21-.55.32-.86.32Zm-3.67-12.31c-.73,0-1.32-.59-1.32-1.32v-6.61c0-.73.59-1.32,1.32-1.32s1.32.59,1.32,1.32v6.61c0,.73-.59,1.32-1.32,1.32Zm0-13.22c-.73,0-1.32-.59-1.32-1.32v-6.61c0-.73.59-1.32,1.32-1.32s1.32.59,1.32,1.32v6.61c0,.73-.59,1.32-1.32,1.32Zm0-13.22c-.73,0-1.32-.59-1.32-1.32v-3.34c0-.73.59-1.32,1.32-1.32s1.32.59,1.32,1.32v3.34c0,.73-.59,1.32-1.32,1.32Z"/>
    <path class="cls-19" d="m403.6,304.26c-.73,0-1.32-.59-1.32-1.32v-6.61c0-.73.59-1.32,1.32-1.32s1.32.59,1.32,1.32v6.61c0,.73-.59,1.32-1.32,1.32Zm0-13.22c-.73,0-1.32-.59-1.32-1.32v-6.61c0-.73.59-1.32,1.32-1.32s1.32.59,1.32,1.32v6.61c0,.73-.59,1.32-1.32,1.32Zm0-13.21c-.73,0-1.32-.59-1.32-1.32v-6.61c0-.73.59-1.32,1.32-1.32s1.32.59,1.32,1.32v6.61c0,.73-.59,1.32-1.32,1.32Zm-.57-13.16c-.57,0-1.1-.38-1.27-.96-.54-1.92-1.52-3.74-2.83-5.27-.47-.55-.41-1.39.14-1.86.55-.47,1.38-.41,1.86.14,1.55,1.82,2.72,3.98,3.36,6.26.2.7-.21,1.43-.91,1.63-.12.03-.24.05-.36.05Zm-8.31-9.72c-.18,0-.37-.04-.55-.12-1.84-.85-3.8-1.29-5.83-1.29-.73,0-1.32-.59-1.32-1.32s.59-1.32,1.32-1.32c2.42,0,4.76.51,6.94,1.53.66.31.95,1.09.64,1.75-.22.48-.7.76-1.2.76Z"/>
    <path class="cls-19" d="m388.33,342.74c-.73,0-1.32-.59-1.32-1.32s.59-1.32,1.32-1.32c2.03,0,4-.43,5.83-1.29.66-.31,1.44-.02,1.75.64.31.66.02,1.44-.64,1.75-2.19,1.02-4.52,1.53-6.94,1.53Zm11.6-5.37c-.3,0-.61-.1-.86-.31-.55-.48-.62-1.31-.14-1.86,1.31-1.53,2.29-3.35,2.83-5.27.2-.7.93-1.11,1.63-.91.7.2,1.11.93.91,1.63-.64,2.28-1.81,4.45-3.36,6.26-.26.3-.63.46-1,.46Zm3.67-12.31c-.73,0-1.32-.59-1.32-1.32v-6.61c0-.73.59-1.32,1.32-1.32s1.32.59,1.32,1.32v6.61c0,.73-.59,1.32-1.32,1.32Zm0-13.21c-.73,0-1.32-.59-1.32-1.32v-5.98c0-.73.59-1.32,1.32-1.32s1.32.59,1.32,1.32v5.98c0,.73-.59,1.32-1.32,1.32Z"/>
    <path class="cls-19" d="m615.83,241.72c-.73,0-1.32-.59-1.32-1.32v-6.62c0-.73.59-1.32,1.32-1.32s1.32.59,1.32,1.32v6.62c0,.73-.59,1.32-1.32,1.32Zm0-13.23c-.73,0-1.32-.59-1.32-1.32v-6.61c0-.73.59-1.32,1.32-1.32s1.32.59,1.32,1.32v6.61c0,.73-.59,1.32-1.32,1.32Zm0-13.21c-.73,0-1.32-.59-1.32-1.32v-6.61c0-.73.59-1.32,1.32-1.32s1.32.59,1.32,1.32v6.61c0,.73-.59,1.32-1.32,1.32Zm-.24-13.2c-.63,0-1.19-.45-1.3-1.1-.34-2.01-1.05-3.92-2.12-5.67-.38-.62-.18-1.43.44-1.81.62-.38,1.43-.18,1.81.44,1.25,2.04,2.08,4.26,2.47,6.61.12.72-.36,1.4-1.08,1.52-.07.01-.15.02-.22.02Zm-6.7-11c-.28,0-.56-.09-.79-.27-1.64-1.24-3.46-2.15-5.43-2.69-.7-.19-1.11-.92-.92-1.62.19-.7.93-1.11,1.62-.92,2.29.63,4.41,1.68,6.32,3.13.58.44.7,1.27.26,1.85-.26.34-.65.52-1.05.52Zm-12.42-3.53h-6.62c-.73,0-1.32-.59-1.32-1.32s.59-1.32,1.32-1.32h6.62c.73,0,1.32.59,1.32,1.32s-.59,1.32-1.32,1.32Zm-13.23,0h-6.61c-.73,0-1.32-.59-1.32-1.32s.59-1.32,1.32-1.32h6.61c.73,0,1.32.59,1.32,1.32s-.59,1.32-1.32,1.32Zm-13.22,0h-6.61c-.73,0-1.32-.59-1.32-1.32s.59-1.32,1.32-1.32h6.61c.73,0,1.32.59,1.32,1.32s-.59,1.32-1.32,1.32Zm-13.22,0h-6.61c-.73,0-1.32-.59-1.32-1.32s.59-1.32,1.32-1.32h6.61c.73,0,1.32.59,1.32,1.32s-.59,1.32-1.32,1.32Zm-13.22,0h-6.62c-.73,0-1.32-.59-1.32-1.32s.59-1.32,1.32-1.32h6.62c.73,0,1.32.59,1.32,1.32s-.59,1.32-1.32,1.32Z"/>
  </g>
</svg>