<?xml version="1.0" encoding="UTF-8"?>
<svg id="Layer_1" data-name="Layer 1" xmlns="http://www.w3.org/2000/svg" viewBox="0 0 3530.4 1734.72">
  <defs>
    <style>
      .cls-1 {
        fill: #f7eac3;
      }

      .cls-1, .cls-2, .cls-3, .cls-4, .cls-5, .cls-6, .cls-7, .cls-8, .cls-9, .cls-10, .cls-11, .cls-12, .cls-13, .cls-14, .cls-15, .cls-16, .cls-17 {
        fill-rule: evenodd;
      }

      .cls-18 {
        fill: #783985;
      }

      .cls-19 {
        fill: #f69281;
      }

      .cls-20 {
        fill: #fff;
      }

      .cls-21 {
        fill: #c289bd;
      }

      .cls-2 {
        fill: #e47c64;
      }

      .cls-22 {
        fill: #f8a890;
      }

      .cls-3 {
        fill: #f3ae83;
      }

      .cls-23 {
        fill: #5e2966;
      }

      .cls-4 {
        fill: #c5d87a;
      }

      .cls-5 {
        fill: #d94866;
      }

      .cls-24, .cls-8 {
        fill: #f15a31;
      }

      .cls-6 {
        fill: none;
        stroke: #fff;
        stroke-miterlimit: 10;
        stroke-width: 26px;
      }

      .cls-25 {
        fill: #8987c1;
      }

      .cls-7 {
        fill: #ed9272;
      }

      .cls-26 {
        fill: #9a509f;
      }

      .cls-27 {
        fill: #77cab9;
      }

      .cls-28 {
        fill: #a39bcb;
      }

      .cls-29 {
        fill: #f47b5d;
      }

      .cls-30 {
        fill: #51225b;
      }

      .cls-31 {
        fill: #f58462;
      }

      .cls-32 {
        fill: #9892c7;
      }

      .cls-9 {
        fill: #eb6d49;
      }

      .cls-10 {
        fill: #292b2b;
      }

      .cls-33 {
        fill: #978bc2;
      }

      .cls-34 {
        fill: #f17e65;
      }

      .cls-11 {
        fill: #a1b45a;
      }

      .cls-12 {
        fill: #f15b31;
      }

      .cls-13 {
        fill: #895730;
      }

      .cls-35 {
        fill: #00a0dc;
      }

      .cls-14 {
        fill: #a0d4da;
      }

      .cls-15 {
        fill: #333535;
      }

      .cls-16 {
        fill: #149fda;
      }

      .cls-36 {
        fill: #f69279;
      }

      .cls-17 {
        fill: #535352;
      }

      .cls-37 {
        fill: #010101;
      }

      .cls-38 {
        fill: #431949;
      }
    </style>
  </defs>
  <g>
    <g>
      <rect class="cls-35" x="742.21" y="713.93" width="362.49" height="455.91" rx="23.33" ry="23.33"/>
      <path class="cls-37" d="m2923.54,728.64c-.54,0-1.02-.39-1.12-.94-.11-.62.3-1.22.92-1.33l7.1-1.28c.66-.1,1.21.3,1.33.92.11.62-.3,1.22-.92,1.33l-7.1,1.28c-.07.01-.14.02-.2.02Z"/>
      <path class="cls-37" d="m2953.04,733.49c-.18,0-.36-.04-.53-.13l-11.64-6.13c-.56-.29-.77-.99-.48-1.54.29-.56.99-.78,1.55-.48l11.64,6.13c.56.29.77.99.48,1.54-.2.39-.6.61-1.01.61Z"/>
      <g>
        <path class="cls-37" d="m2965.15,705.25s21.05-23.15,64.33,7.31c43.28,30.47,10.14,143.09,10.14,143.09l-85.69-21.45,11.22-128.96Z"/>
        <polygon class="cls-34" points="2849.36 1433.91 2862.6 1506.24 2908.16 1532.83 2950.23 1517.94 2943.49 1433.91 2849.36 1433.91"/>
        <path class="cls-23" d="m2955.82,1521.26l-23.51,46.71-14.87,29.58s-146.68,5.8-154.12,0c-7.44-5.8-7.44-22.2,0-28.98,7.44-6.75,94.71-56.01,94.71-56.01,0,0,0-13.53,5.43-14.84,5.46-1.3,41.62,14.84,41.62,14.84l42.2-14.89,8.55,23.59Z"/>
        <path class="cls-25" d="m2932.31,1567.97l-14.87,29.58s-146.68,5.8-154.12,0c-7.44-5.8-7.44-22.2,0-28.98,0,0,100.67,7.74,156.66,0,5.29-.72,9.33-.9,12.34-.61Z"/>
        <polygon class="cls-19" points="2942.89 1442.77 2952.3 1517.94 3021.91 1517.94 3024.85 1442.77 2942.89 1442.77"/>
        <path class="cls-18" d="m3043.08,1585.01c0,8.37-4.93,19.96-22.28,23.82-17.33,3.88-107.97,0-110.78-3.22-1.5-1.68-2.45-8.52-3.01-14.66-.61-6.52.95-13.1,4.4-18.57l37.1-58.85s10.22-10.92,30.11-9.01c19.89,1.94,29.86,9.01,29.86,9.01,0,0,9.22-9.71,13.57-6.46,3.59,2.69,15.68,48.77,19.72,69.2.84,4.2,1.31,7.33,1.31,8.75Z"/>
        <path class="cls-24" d="m2866.43,1008.41s-26.1,112.47-37.04,207.74c-10.94,95.26-16.64,249.89-9.23,255.68,7.41,5.79,94.14,13.32,94.14,13.32,0,0,29.28,13.24,79.74,11.91,36.62-.97,66.36-10.94,66.36-10.94,0,0-7.66-411.4-35.55-476.93-21.83-51.28-158.42-.78-158.42-.78Z"/>
        <path class="cls-23" d="m2863.13,1011.06s54.85,13.08,99.87,9.71c45.02-3.36,61.85-11.58,61.85-11.58v-76.39l-38.38-122.12-69.62,3.92-42.9,81.15-10.82,115.31Z"/>
        <path class="cls-19" d="m2974.98,778.25l-.8,33.37s-6.02,9.44-24.82,10.54c-14.01.82-18.25-6.77-18.25-6.77l4.09-29.11,34.07-6.87,5.72-1.16Z"/>
        <path class="cls-37" d="m2974.98,776.21c-.1.91-.46,1.98-1.01,3.2-7.58,16.48-33.01,22.76-41.1,23.3l2.32-16.43,39.79-10.06Z"/>
        <path class="cls-19" d="m2929.88,710.03s-17.84,41.4-11.77,64.81c6.08,23.42,26.56,19.95,38.84,15.55,12.28-4.39,18.03-12.14,18.03-12.14,0,0,11.4,4.15,19.14-6.84,7.75-10.98,3.16-23.73-3.34-26.7-6.5-2.98-14.31,1.85-14.31,1.85l6.2-12.02s-25.03-61.65-52.8-24.51Z"/>
        <path class="cls-37" d="m2931.24,762.69c-.49,0-.95-.32-1.1-.82-2.59-8.8,3.4-17.74,3.66-18.11.35-.53,1.07-.65,1.58-.3.52.36.66,1.07.3,1.59-.06.08-5.63,8.44-3.35,16.18.18.61-.17,1.24-.78,1.42-.11.03-.21.05-.32.05Z"/>
        <path class="cls-37" d="m2978.13,765.89c-.27,0-.55-.1-.77-.3-.46-.43-.5-1.15-.07-1.61l10.89-11.94c.43-.47,1.15-.5,1.62-.07.46.43.5,1.15.07,1.61l-10.89,11.94c-.23.25-.53.37-.85.37Z"/>
        <path class="cls-37" d="m2989.63,762.71c-.18-.01-7.69-1.22-7.69-1.22-.62-.1-1.05-.69-.95-1.31.1-.63.69-1.06,1.31-.95l7.51,1.21c.62.1,1.05.69.95,1.31-.09.56-.58.96-1.13.96Z"/>
        <path class="cls-37" d="m2923.54,745.71c-.11,0-.21-.02-.33-.05-.6-.18-.95-.82-.77-1.42l2.05-6.94-1.85-2.35c-.39-.49-.31-1.22.19-1.61.5-.39,1.22-.3,1.6.19l2.22,2.82c.23.29.3.67.2,1.03l-2.22,7.51c-.15.5-.6.82-1.1.82Z"/>
        <path class="cls-37" d="m2943.73,747.72c-.11,0-.21-.02-.33-.05-.6-.18-.95-.82-.77-1.42l2.04-6.92-2.68-3.25c-.4-.49-.33-1.21.16-1.61.48-.4,1.2-.33,1.61.15l3.06,3.72c.24.29.32.69.21,1.05l-2.22,7.5c-.15.5-.6.82-1.1.82Z"/>
        <path class="cls-20" d="m2913.16,1481.5c-.53,0-1-.37-1.12-.9-19.09-88.67-18.02-388.24-17.95-405.3l-29.61-13.71c-.58-.26-.82-.94-.56-1.52.26-.58.95-.83,1.52-.56l30.27,14.01c.41.19.66.59.66,1.04-.02,3.14-1.6,314.97,17.89,405.54.13.62-.26,1.23-.87,1.36-.08.02-.16.03-.24.03Z"/>
        <path class="cls-28" d="m3043.08,1585.01c0,8.37-4.93,19.96-22.28,23.82-17.33,3.88-107.97,0-110.78-3.22-1.5-1.68-2.45-8.52-3.01-14.66-.61-6.52.95-13.1,4.4-18.57,0,0,5.79,9.62,61.17,11.62,35.52,1.27,57.8-3.88,69.19-7.74.84,4.2,1.31,7.33,1.31,8.75Z"/>
        <path class="cls-23" d="m2930.19,821.31s-2.05-17.94,2.69-18.61c4.73-.67,9.98,2.84,21.05,1.08,11.08-1.76,17.09-5.32,20.56-5.23,3.48.1.49,22.21.49,22.21l-27.76,9.01-17.04-8.47Z"/>
        <path class="cls-20" d="m3014.43,1061.69c-.11,0-.22-.01-.33-.05-25.1-7.59-28.74-31.95-28.77-32.19-.08-.63.35-1.2.98-1.29.66-.11,1.2.35,1.29.97.03.23,3.5,23.16,27.17,30.33.6.18.95.82.76,1.42-.15.49-.6.81-1.09.81Z"/>
        <path class="cls-37" d="m2992.6,745.87s-5.06-2.32-9.02-1.89c-3.99.4-7.1,2.59-7.1,2.59l-5.36,6.25,3.87-13.41s-3.32-2.19-8.35-4.75l2.8-11.61-5.7,10.18c-4.82-2.29-10.64-4.57-16.52-5.73-3.17-.64-6.03-1.04-8.5-1.28l2.68-12.68-5.91,12.4c-6.4-.37-9.72.27-9.72.27l-5.45,12.83s2.01-35.69,18.29-44.13c16.27-8.44,44.37-6.06,55.89,11.89,11.52,17.95-1.89,39.07-1.89,39.07Z"/>
        <path class="cls-37" d="m2941.41,770.24c-.24,0-.48-.07-.68-.23-.51-.38-.61-1.09-.23-1.6l4.55-6.1c.37-.5,1.09-.61,1.6-.23.51.38.61,1.09.23,1.6l-4.55,6.1c-.22.3-.57.46-.92.46Z"/>
        <path class="cls-19" d="m2775.07,873.12s-42.43-9.06-65.67-23.29c-23.24-14.23-27.92-24.31-26.29-28.05,1.63-3.74,18.16,1.92,18.16,1.92,0,0-21.47-13.97-17.76-22.11,3.71-8.14,23.93,2.03,23.93,2.03,0,0-13.27-13.14-6.53-17.22,6.74-4.08,42.26,17.72,42.26,17.72,0,0-13.87-16.48-8.7-19.71,5.17-3.23,32.41,10.86,39.32,20.54,6.91,9.68,12.13,25.99,12.13,25.99l-10.83,42.17Z"/>
        <path class="cls-37" d="m2764.99,840.22c-.25,0-.49-.08-.7-.24-23.23-17.96-22.32-35.22-22.27-35.94.04-.63.58-1.11,1.21-1.06.63.04,1.11.59,1.06,1.21,0,.17-.79,16.82,21.39,33.98.5.39.59,1.1.21,1.6-.23.29-.57.44-.91.44Z"/>
        <path class="cls-37" d="m2723.21,844.41c-.11,0-.23-.02-.34-.05-.6-.19-.94-.83-.75-1.43l13.41-43.01c.19-.6.82-.96,1.43-.75.6.19.94.83.75,1.43l-13.41,43.01c-.15.49-.6.8-1.09.8Z"/>
        <path class="cls-19" d="m3121.99,877.69s42.43-9.06,65.67-23.29c23.24-14.23,27.92-24.31,26.29-28.05-1.63-3.74-18.16,1.92-18.16,1.92,0,0,21.47-13.97,17.76-22.11-3.71-8.14-23.93,2.03-23.93,2.03,0,0,13.27-13.14,6.53-17.22-6.74-4.08-42.26,17.72-42.26,17.72,0,0,13.87-16.48,8.7-19.71-5.17-3.23-32.41,10.86-39.32,20.54-6.91,9.68-12.13,25.99-12.13,25.99l10.83,42.17Z"/>
        <path class="cls-37" d="m3132.07,844.79c-.34,0-.68-.15-.91-.44-.39-.5-.29-1.22.21-1.6,22.18-17.16,21.4-33.81,21.39-33.98-.04-.63.44-1.17,1.06-1.21.64-.07,1.17.43,1.21,1.06.05.73.96,17.98-22.27,35.94-.2.16-.45.24-.7.24Z"/>
        <path class="cls-37" d="m3173.85,848.99c-.49,0-.94-.31-1.09-.8l-13.41-43.01c-.19-.6.15-1.24.75-1.43.59-.21,1.24.15,1.43.75l13.41,43.01c.19.6-.15,1.24-.75,1.43-.11.04-.23.05-.34.05Z"/>
        <path class="cls-23" d="m2734.91,878.78s42.36,68.18,81.89,75.76c39.53,7.57,90.08-27.48,90.08-27.48l34.52-109.95s-19.51-12.91-34.52-10.05c-15.01,2.86-55.96,49.14-68.15,48.6-12.19-.54-53.42-31.02-53.42-31.02l-50.4,54.14Z"/>
        <path class="cls-23" d="m3162.7,881.79s-42.36,68.18-81.89,75.76c-39.53,7.57-90.08-27.48-90.08-27.48l-34.52-109.95s19.51-12.91,34.52-10.05c15.01,2.86,55.96,49.14,68.15,48.6,12.19-.54,53.42-31.02,53.42-31.02l50.4,54.14Z"/>
        <path class="cls-20" d="m2952.96,814.55c-.59,0-1.08-.44-1.14-1.03-.06-.63.4-1.19,1.03-1.25.09,0,9.08-.87,21.24-1.8.75-.02,1.18.42,1.23,1.05.05.63-.42,1.18-1.05,1.23-12.13.93-21.1,1.79-21.2,1.8-.04,0-.07,0-.11,0Z"/>
        <path class="cls-20" d="m2836.8,882.61c-.55,0-1.18-.12-1.9-.43-1.65-.71-2.79-1.97-3.4-3.75-2.56-7.55,5.87-22.69,6.24-23.33.24-.42.73-.65,1.18-.57.47.08.85.45.94.92.69,3.74,3.9,22.57-.9,26.41-.49.39-1.2.76-2.16.76Zm1.37-23.38c-2.58,5.31-6.01,14.02-4.5,18.47.39,1.16,1.09,1.94,2.13,2.38,1.12.48,1.56.12,1.73,0,2.52-2.02,1.85-12.74.64-20.84Z"/>
        <path class="cls-20" d="m3060.44,885.28c-1.24-.02-2.27-.54-3.04-1.51-4.04-5.12-.09-23.3.37-25.36.11-.5.54-.86,1.06-.89.54-.05.98.29,1.14.77.72,2.09,6.89,20.59,3.3,25.56-.68.94-1.65,1.43-2.83,1.43Zm-1.29-22.01c-1.14,6.55-2.21,16.23.05,19.09.34.43.72.63,1.22.64.57.06.75-.13.99-.48,1.82-2.51-.1-11.86-2.26-19.24Z"/>
        <path class="cls-20" d="m2872.57,933.94c-.66-.02-1.16-.55-1.14-1.18,0-.22.69-22.35.02-42.4-.69-20.64,16.17-34.99,16.88-35.59.48-.4,1.2-.34,1.61.14.41.48.34,1.2-.14,1.61-.17.14-16.72,14.25-16.07,33.76.67,20.12-.01,42.32-.02,42.54-.02.62-.53,1.11-1.14,1.11Z"/>
      </g>
      <g>
        <polygon class="cls-31" points="591.96 1510.98 573.32 1483.89 638.12 1440.19 666.52 1464.66 623.03 1515.35 591.96 1510.98"/>
        <polygon class="cls-31" points="465.92 1488.26 466.81 1535.45 383.37 1534.58 386.92 1483.89 465.92 1488.26"/>
        <path class="cls-23" d="m580.75,1603.42c1.82-.24,3.05-2.04,2.73-3.94-1.52-8.99-6.93-34.13-21.15-44.8-17.48-13.11-54.12-18.35-67.44-27.09-13.32-8.74-28.23-29.84-36.18-25.84-7.95,3.99-22.94,22.35-44.58,19.73-21.65-2.62-31.64-7.87-37.47-2.62-5.83,5.24-9.16,78.66-6.66,83.03,2.5,4.37,32.99.33,35.64,1.04s10.15-16.77,15.14-14.15c5,2.62,11.09,10.82,18.45,14.59,6.87,3.51,119.69,2.99,141.52.06Z"/>
        <path class="cls-32" d="m520.06,1224.32l-10.65-200.14-130.48-.87s-15.98,51.56-20.42,101.38c-4.44,49.82-15.98,366.2-14.2,370.57s146.46,9.61,155.34,4.37c8.88-5.24,20.42-275.3,20.42-275.3Z"/>
        <path class="cls-23" d="m801.85,1465.71c1.38-1.22,1.39-3.39.04-4.78-6.39-6.6-25.22-24.41-43.19-25.31-22.08-1.11-55.71,14.96-71.82,15.14-16.12.18-40.59-8.98-44.97-1.25s-6.46,31.29-26.06,41.18c-19.6,9.89-30.94,11.12-32.83,18.71-1.89,7.59,37.11,70.25,41.69,72.48,4.58,2.23,27.78-18.11,30.4-19,2.62-.89-1.06-19.55,4.61-20.16,5.67-.61,15.43,2.78,23.73,1.8,7.74-.92,101.8-64.22,118.39-78.81Z"/>
        <path class="cls-32" d="m532.49,1022.43s153.56,397.66,151.79,406.4c-1.78,8.74-118.94,70.79-126.04,70.79s-58.58-90.02-58.58-90.02l-6.21-386.3,39.06-.87Z"/>
        <path class="cls-20" d="m466.81,1536.6c-.36,0-.72-.17-.94-.49-.36-.52-.23-1.23.29-1.59l20.26-14.03c.52-.36,1.23-.23,1.59.29.36.52.23,1.23-.29,1.59l-20.26,14.03c-.2.14-.43.2-.65.2Z"/>
        <path class="cls-20" d="m487.07,1544.8c-.34,0-.69-.16-.91-.45-.38-.51-.28-1.22.22-1.6l15.92-12.07c.5-.39,1.22-.28,1.6.22.38.51.28,1.22-.22,1.6l-15.92,12.07c-.21.16-.45.23-.69.23Z"/>
        <path class="cls-20" d="m668.65,1473.15c-.21,0-.43-.06-.62-.19-.53-.34-.68-1.05-.33-1.58l13.43-20.66c.34-.53,1.05-.68,1.58-.33.53.34.68,1.05.33,1.58l-13.43,20.66c-.22.33-.59.52-.96.52Z"/>
        <path class="cls-20" d="m695.59,1467.17c-.2,0-.4-.05-.58-.16-.54-.32-.73-1.02-.4-1.57l10.16-17.2c.32-.55,1.02-.72,1.56-.4.54.32.73,1.02.4,1.57l-10.16,17.2c-.21.36-.59.56-.98.56Z"/>
        <path class="cls-20" d="m389.63,1078.5c-2.1,0-4.28-.24-6.53-.78-.61-.14-.99-.76-.85-1.38.15-.61.76-1.01,1.38-.85,24.66,5.78,40.27-26.01,40.43-26.34.28-.57.97-.8,1.52-.53.57.27.81.96.53,1.53-.15.31-13.93,28.34-36.49,28.34Z"/>
        <path class="cls-20" d="m376.99,1500.25c-.64,0-1.15-.53-1.14-1.16.02-1.58,1.71-159.3,6.38-252.78,4.67-93.51,15.05-169.87,15.15-170.62.09-.63.69-1.04,1.29-.98.63.09,1.06.66.98,1.29-.1.76-10.47,77.03-15.13,170.43-4.66,93.44-6.36,251.11-6.37,252.69,0,.62-.52,1.13-1.14,1.13Z"/>
        <path class="cls-20" d="m508.91,1426.7c-.61,0-1.11-.48-1.14-1.09l-15.48-325.48c-.02-.4.17-.79.51-1.01l34.41-22.71c.53-.35,1.24-.2,1.58.33.35.53.2,1.23-.32,1.58l-33.87,22.36,15.44,324.83c.03.63-.46,1.17-1.09,1.2h-.05Z"/>
        <path class="cls-20" d="m583.53,1485.03c-.39,0-.77-.2-.99-.57l-78.18-133.16c-.32-.54-.14-1.24.41-1.56.54-.32,1.24-.14,1.56.41l78.18,133.16c.32.54.14,1.24-.41,1.56-.18.11-.38.16-.58.16Z"/>
        <path class="cls-24" d="m468.94,808.01s33.2,1.51,46.36,28.1c13.16,26.6,23.11,185.13,23.11,185.13,0,0-36.81,16.27-90.53,15.57-53.72-.7-71.89-14.62-71.89-14.62l-10.33-97.76s4.31-103.04,17.71-110.27,63.34-11.87,85.57-6.15Z"/>
        <path class="cls-37" d="m468.67,722.96s16.88-32.68.94-38.55c-15.94-5.87-33.46,12.55-33.46,12.55,0,0-34.56,5.13-46.66,24.51-12.1,19.38,22.27,50.06,22.27,50.06l56.91-48.58Z"/>
        <path class="cls-31" d="m418.34,778.23l-.09,32.12s5.77,9.25,24.55,10.83c14,1.18,18.92-1.97,18.92-1.97l-1.9-16.27-1.88-15.87-33.91-7.56-5.69-1.28Z"/>
        <path class="cls-37" d="m424.03,779.51c.08.88.41,1.91.92,3.1,7.14,16.07,26.78,19.58,34.86,20.33l-1.88-15.87-33.91-7.56Z"/>
        <path class="cls-31" d="m465.32,713.87s16.74,40.32,10.03,62.68c-6.71,22.36-27.12,18.44-39.29,13.87-12.17-4.57-17.72-12.19-17.72-12.19,0,0-11.52,3.67-18.97-7.11-7.46-10.78-2.52-22.92,4.07-25.6,6.59-2.68,14.27,2.18,14.27,2.18l-5.88-11.74s26.71-58.61,53.5-22.1Z"/>
        <path class="cls-37" d="m416.46,764.91c-.23,0-.47-.07-.67-.22l-14.44-10.45c-.51-.37-.63-1.08-.26-1.59.37-.51,1.08-.63,1.59-.26l14.44,10.45c.51.37.63,1.08.26,1.59-.22.31-.57.47-.92.47Z"/>
        <path class="cls-37" d="m403.27,764.69c-.51,0-.98-.34-1.11-.86-.16-.61.22-1.23.83-1.39l9.54-2.42c.61-.16,1.23.21,1.39.83.16.61-.22,1.23-.83,1.39l-9.54,2.42c-.1.02-.19.03-.28.03Z"/>
        <path class="cls-37" d="m464.03,759.72c-.8-.11-1.23-.69-1.13-1.32,1.51-9.65-4.65-14.86-4.91-15.08-.49-.4-.56-1.12-.16-1.61.4-.49,1.11-.56,1.6-.16.3.25,7.43,6.21,5.72,17.2-.09.56-.57.97-1.13.97Z"/>
        <path class="cls-37" d="m469.34,743.59c-.5,0-.97-.34-1.1-.85l-1.99-7.37c-.16-.61.2-1.24.81-1.4.62-.16,1.24.2,1.4.81l1.99,7.37c.17.61-.2,1.24-.81,1.4-.1.03-.2.04-.3.04Z"/>
        <path class="cls-37" d="m449.01,744.95c-.5,0-.97-.34-1.1-.85l-1.99-7.37c-.16-.61.2-1.24.81-1.4.63-.15,1.24.2,1.4.81l1.99,7.37c.16.61-.2,1.24-.81,1.4-.1.03-.2.04-.3.04Z"/>
        <path class="cls-37" d="m468.67,722.96s-3.47-6.47-11.48-6.55c-8.01-.08-12.71,5.55-12.71,5.55,0,0,3.48,13.5-7.44,20.64-10.92,7.14-19.34,5.11-19.34,5.11l-7.9-2.84-5.76-11.57,22.94-24.57,29.64-15.53,15.04,13.74-2.98,16.03Z"/>
        <path class="cls-37" d="m436.15,696.96s-.99-17.78-19.69-9.97c-18.69,7.81-17.24,32.06-17.24,32.06l36.93-22.1Z"/>
        <path class="cls-37" d="m470.16,724.39c-.11,0-6.21-.58-6.21-.58-.63-.06-1.09-.62-1.03-1.25.06-.63.61-1.08,1.25-1.03l6.1.57c.63.06,1.09.62,1.03,1.25-.06.59-.56,1.04-1.14,1.04Z"/>
        <path class="cls-37" d="m442.71,732.7c-.44,0-.86-.26-1.05-.69-.25-.58.01-1.25.59-1.5l8.24-3.58c.58-.26,1.25.01,1.5.59.25.58-.01,1.25-.59,1.5l-8.24,3.58c-.15.07-.3.1-.46.1Z"/>
        <path class="cls-37" d="m467.11,770.61c-.21,0-.43-.06-.62-.18-.53-.34-.69-1.05-.35-1.58l4.55-7.13c.34-.53,1.06-.68,1.58-.35.53.34.69,1.05.35,1.58l-4.55,7.13c-.22.34-.59.53-.96.53Z"/>
        <path class="cls-24" d="m404.04,808.49s-49.51,0-76.67,79.19c-16.51,48.13-9.9,85.78-9.9,85.78l84.72-31.78,1.86-133.2Z"/>
        <path class="cls-31" d="m514.24,938.07s-3.89-25.36-8.75-48.02c-4.86-22.66-10.49-56.99-10.49-56.99l24.72-29.09s49.63,58.43,62.61,112.79c12.98,54.37,3.35,70.98-24.36,67.63-32.83-3.98-43.74-46.32-43.74-46.32Z"/>
        <path class="cls-36" d="m329.06,968.96s6.94,41.77,66.57,45.83c47.81,3.26,128.01-21.33,128.01-21.33,0,0,38.01.58,48.34-4.16,10.33-4.74,11.7-11.22,11.7-11.22,0,0,7.06-6.73,6.67-10.37-.39-3.64-4.44-20.09-4.44-20.09,0,0,5.73-13.57.5-14.29-5.23-.71-14.26-1.95-14.26-1.95,0,0-16.88-7.43-24.2-5.36-7.31,2.08-26.7,19.93-26.7,19.93l-119.07-4.29-73.12,27.28Z"/>
        <path class="cls-20" d="m402.18,942.83c-.63,0-1.14-.51-1.14-1.14l-.15-34.32c0-.63.51-1.15,1.14-1.15.63,0,1.15.51,1.15,1.14l.15,34.32c0,.63-.51,1.15-1.14,1.15h0Z"/>
        <path class="cls-20" d="m446.12,822.24c-1.89,0-3.96-.07-6.22-.22-17.25-1.19-25.04-12.41-25.36-12.89-.35-.52-.22-1.23.3-1.58.51-.36,1.23-.22,1.59.3.07.11,7.53,10.79,23.63,11.89,16.2,1.12,22.26-2.44,22.32-2.48.54-.32,1.24-.16,1.57.38.33.53.17,1.23-.36,1.57-.23.14-5.04,3.04-17.46,3.04Z"/>
        <path class="cls-31" d="m519.73,803.97s-14.59-51.56-22.21-50.65c-7.62.91-22.78,16.15-25.86,21.73-3.09,5.59,0,12.7,0,12.7,0,0-3.01,3.77,0,6.2,3.01,2.43,11.64-2.73,11.64-2.73,0,0-7.62,38.18,14.73,42.75,22.35,4.57,21.7-30,21.7-30Z"/>
        <path class="cls-37" d="m547.8,935.69c-.49,0-.95-.32-1.1-.82-.18-.6.17-1.24.77-1.42l18.45-5.45c.6-.17,1.24.17,1.42.77.18.6-.17,1.24-.77,1.42l-18.45,5.45c-.11.03-.22.05-.32.05Z"/>
        <path class="cls-37" d="m580.82,948.38c-.4,0-.8-.22-1-.6-.3-.56-.1-1.25.46-1.55l6.5-3.53c.55-.3,1.25-.1,1.55.46.3.55.1,1.25-.46,1.55l-6.5,3.53c-.17.1-.36.14-.55.14Z"/>
        <path class="cls-37" d="m471.66,785.78c-.34,0-.67-.15-.9-.44-.39-.49-.3-1.22.2-1.6l16.72-13.1c.49-.39,1.21-.3,1.6.2.39.5.3,1.22-.2,1.6l-16.72,13.1c-.21.17-.46.24-.7.24Z"/>
        <path class="cls-37" d="m474.15,772.68c-.37,0-.74-.18-.96-.52-.34-.53-.19-1.24.34-1.58l14.22-9.2c.53-.33,1.24-.19,1.58.34.34.53.19,1.24-.34,1.58l-14.22,9.2c-.19.12-.41.18-.62.18Z"/>
      </g>
      <path class="cls-27" d="m869.14,560.65c-4.67-8.8-15.39-10.78-27.5-4.36-11.63,6.17-17.8,15.08-19.21,25.71l-20.51-1.82c2.47-16.63,12.79-31.36,32.45-41.79,23.11-12.26,44.11-9.9,53.7,8.19,13.59,25.64-12.05,42.25-2.21,60.82l-19.97,10.59c-12.35-23.28,11.58-41.61,3.24-57.34Zm7.66,83.99c-3.59-6.76-1.23-14.86,6.16-18.78,7.24-3.84,15.26-1.24,18.84,5.52,3.59,6.76,1.32,15.02-5.92,18.86-7.4,3.92-15.5,1.17-19.09-5.6Z"/>
      <g>
        <path class="cls-21" d="m696.92,544.11c0-20.71-16.79-37.49-37.49-37.49-9.19,0-17.59,3.32-24.11,8.8.68-2.83,1.08-5.77,1.08-8.8,0-20.71-16.79-37.49-37.49-37.49-13.52,0-25.34,7.18-31.94,17.92-6.6-10.74-18.41-17.92-31.94-17.92-20.71,0-37.49,16.79-37.49,37.49,0,7.31,2.12,14.11,5.74,19.87-3.53-1.1-7.28-1.69-11.17-1.69-20.71,0-37.49,16.79-37.49,37.49s16.79,37.49,37.49,37.49c1.76,0,3.48-.16,5.17-.4-3.27,5.56-5.17,12.02-5.17,18.94,0,20.71,16.79,37.49,37.49,37.49,13.48,0,25.26-7.14,31.87-17.81,6.28,11.93,18.77,20.07,33.18,20.07,19.58,0,35.64-15.02,37.33-34.17,6.24,4.63,13.93,7.4,22.29,7.4,20.71,0,37.49-16.79,37.49-37.49,0-8.22-2.67-15.79-7.16-21.97,7.55-6.86,12.32-16.72,12.32-27.73Z"/>
        <circle class="cls-21" cx="548.98" cy="682.41" r="13.04"/>
        <circle class="cls-21" cx="511.28" cy="712.16" r="10" transform="translate(-298.66 1047.67) rotate(-76.83)"/>
        <path class="cls-26" d="m612.11,551.77c1.73-6.24-2.45-11.97-11.04-14.35-8.25-2.29-15.14-.83-20.55,3.56l-8.87-10.03c8.6-6.75,20.05-9.09,33.99-5.23,16.39,4.54,25.25,15.04,21.7,27.86-5.04,18.18-24.57,14.57-28.21,27.73l-14.16-3.92c4.57-16.51,24.06-14.47,27.15-25.62Zm-33.91,43.08c1.33-4.79,6.06-7.57,11.3-6.11,5.13,1.42,7.76,6.23,6.43,11.03-1.33,4.79-6.09,7.68-11.22,6.26-5.24-1.45-7.84-6.38-6.51-11.17Z"/>
        <path class="cls-26" d="m549,555.99c-1.29-4.56-6.08-6.55-12.36-4.77-6.03,1.71-9.78,5.24-11.5,10.04l-9.36-2.9c2.81-7.49,9.08-13.31,19.27-16.19,11.97-3.39,21.5-.2,24.16,9.17,3.76,13.28-9.82,18.45-7.1,28.07l-10.35,2.93c-3.42-12.06,9.54-18.2,7.23-26.34Zm-4.82,39.83c-.99-3.5.91-7.03,4.74-8.12,3.75-1.06,7.22.95,8.21,4.45s-.89,7.12-4.63,8.18c-3.83,1.09-7.33-1.01-8.32-4.51Z"/>
      </g>
      <rect class="cls-27" x="1067.91" y="530.14" width="1412.12" height="770.38" rx="84.7" ry="84.7"/>
      <rect class="cls-35" x="885.44" y="1374.74" width="1792.87" height="87.48" rx="43.74" ry="43.74"/>
      <path class="cls-21" d="m1998.38,1421.24h-448.6c-1.52,0-2.76-1.23-2.76-2.76s1.24-2.76,2.76-2.76h448.6c1.52,0,2.76,1.23,2.76,2.76s-1.23,2.76-2.76,2.76Z"/>
      <path class="cls-20" d="m2349.55,910.01c0,15.39-6.23,29.34-16.33,39.44-10.09,10.09-24.05,16.33-39.44,16.33h-1039.62c-30.83,0-55.76-24.99-55.76-55.76,0-15.39,6.23-29.4,16.33-39.49,10.09-10.09,23.99-16.33,39.44-16.33h1039.62c30.78,0,55.76,24.99,55.76,55.82Z"/>
      <path class="cls-35" d="m2349.55,910.01c0,15.39-6.23,29.34-16.33,39.44-10.09,10.09-24.05,16.33-39.44,16.33h-106.01v-111.58h106.01c30.78,0,55.76,24.99,55.76,55.82Z"/>
      <path class="cls-20" d="m2259,924.98c-13.69,0-24.83-11.14-24.83-24.83s11.14-24.83,24.83-24.83,24.83,11.14,24.83,24.83-11.14,24.83-24.83,24.83Zm0-44.14c-10.65,0-19.32,8.66-19.32,19.31s8.67,19.31,19.32,19.31,19.32-8.66,19.32-19.31-8.67-19.31-19.32-19.31Z"/>
      <path class="cls-20" d="m2295.08,944.65c-.76,0-1.52-.32-2.07-.94l-22.18-25.2c-1.01-1.14-.9-2.89.25-3.89,1.15-1,2.89-.9,3.89.25l22.18,25.2c1.01,1.14.9,2.89-.25,3.89-.53.46-1.18.69-1.82.69Z"/>
      <circle class="cls-32" cx="1375.55" cy="910.61" r="11.91" transform="translate(173.27 2040.15) rotate(-76.72)"/>
      <circle class="cls-32" cx="1291.2" cy="910.61" r="11.91" transform="translate(185.52 2039.27) rotate(-80.78)"/>
      <circle class="cls-32" cx="1333.37" cy="910.61" r="11.91" transform="translate(-253.36 1209.55) rotate(-45)"/>
      <rect class="cls-27" x="774" y="713.93" width="362.49" height="455.91" rx="23.33" ry="23.33"/>
      <path class="cls-20" d="m1067.23,824.65h-222.32c-1.52,0-2.76-1.24-2.76-2.76s1.24-2.76,2.76-2.76h222.32c1.52,0,2.76,1.24,2.76,2.76s-1.24,2.76-2.76,2.76Z"/>
      <path class="cls-20" d="m1067.23,884.65h-222.32c-1.52,0-2.76-1.24-2.76-2.76s1.24-2.76,2.76-2.76h222.32c1.52,0,2.76,1.24,2.76,2.76s-1.24,2.76-2.76,2.76Z"/>
      <path class="cls-20" d="m1067.23,944.65h-222.32c-1.52,0-2.76-1.24-2.76-2.76s1.24-2.76,2.76-2.76h222.32c1.52,0,2.76,1.24,2.76,2.76s-1.24,2.76-2.76,2.76Z"/>
      <path class="cls-20" d="m1067.23,1004.64h-222.32c-1.52,0-2.76-1.23-2.76-2.76s1.24-2.76,2.76-2.76h222.32c1.52,0,2.76,1.23,2.76,2.76s-1.24,2.76-2.76,2.76Z"/>
      <path class="cls-20" d="m1065.57,1064.64h-222.32c-1.52,0-2.76-1.23-2.76-2.76s1.24-2.76,2.76-2.76h222.32c1.52,0,2.76,1.23,2.76,2.76s-1.24,2.76-2.76,2.76Z"/>
      <g>
        <path class="cls-29" d="m2735.95,1182.21s11.22-25.02,4.11-45.85-23.01,9.14-23.01,9.14l18.89,36.71Z"/>
        <polygon class="cls-31" points="2717.06 1371.23 2717.06 1552.13 2659.37 1552.13 2646.06 1381.49 2717.06 1371.23"/>
        <polygon class="cls-31" points="2574.45 1357.27 2546.49 1521.5 2599.18 1543.7 2647.42 1358.9 2574.45 1357.27"/>
        <path class="cls-23" d="m2711.15,1232.83s3.22,14.82,7.96,52.88c4.2,33.64,10.63,95.97,10.63,95.97l-89.57,5.63-83.33-16.66s14.1-138.42,22.15-155.44c8.05-17.01,132.16,17.61,132.16,17.61Z"/>
        <path class="cls-32" d="m2659.37,1054.86s35.53.52,62.12,30.07c26.59,29.55,28.7,58.57,28.7,58.57l-59.68,18.63-129.07-15.15,1.65-56.38s19.69-10.5,27.53-18.45c22.94-23.24,68.76-17.3,68.76-17.3Z"/>
        <path class="cls-31" d="m2665.6,1034.17l-.85,25.1s-5.31,7.16-21.77,8.16c-12.26.74-16.48-1.78-16.48-1.78l2.14-12.69,2.1-12.38,29.85-5.48,5.01-.93Z"/>
        <path class="cls-37" d="m2660.6,1035.16c-.09.77-.4,1.66-.88,2.69-6.6,13.89-23.85,16.54-30.94,17.01l1.99-13.84,29.82-5.87Z"/>
        <path class="cls-31" d="m2625.94,976.85s-15.53,34.9-10.15,54.59c5.38,19.7,23.31,16.72,34.06,13s15.76-10.27,15.76-10.27c0,0,9.99,3.46,16.75-5.8,6.76-9.27,2.71-19.98-2.99-22.47-5.7-2.49-12.53,1.59-12.53,1.59l5.4-10.14s-22.07-51.84-46.3-20.5Z"/>
        <path class="cls-37" d="m2627.01,1018.05c-.49,0-.94-.32-1.09-.8-2.37-7.67,3.37-12.75,3.62-12.96.48-.4,1.2-.36,1.61.12.41.47.36,1.2-.11,1.61-.2.17-4.86,4.33-2.93,10.55.19.6-.15,1.25-.75,1.43-.12.03-.23.05-.34.05Z"/>
        <path class="cls-37" d="m2668.32,1023.93c-.28,0-.56-.1-.79-.31-.46-.43-.48-1.16-.05-1.62l9.51-10.07c.44-.46,1.15-.48,1.62-.05.46.43.48,1.16.05,1.62l-9.51,10.07c-.23.24-.53.36-.83.36Z"/>
        <path class="cls-37" d="m2678.39,1021.23c-.17-.01-6.75-1.01-6.75-1.01-.62-.09-1.05-.67-.96-1.3.09-.62.62-1.08,1.3-.96l6.58.99c.62.09,1.05.67.96,1.3-.08.57-.57.97-1.13.97Z"/>
        <path class="cls-37" d="m2642.79,1010.81c-.77-.09-1.21-.66-1.13-1.29l1.15-9.03c.08-.62.62-1.05,1.28-.99.63.08,1.07.65.99,1.28l-1.15,9.03c-.07.58-.57,1-1.13,1Z"/>
        <path class="cls-37" d="m2623.4,1009.11c-.79-.11-1.22-.69-1.13-1.31l1.31-8.86c.09-.62.68-1.08,1.3-.96.62.09,1.06.67.96,1.3l-1.31,8.86c-.08.57-.57.98-1.13.98Z"/>
        <path class="cls-37" d="m2649.19,995.81c-.41,0-.81-.23-1.02-.62-1.58-3.07-5.81-2.21-5.99-2.18-.59.11-1.22-.26-1.35-.88-.13-.61.26-1.22.87-1.35.25-.05,6.13-1.25,8.5,3.37.29.56.07,1.25-.5,1.54-.17.08-.34.13-.52.13Z"/>
        <path class="cls-37" d="m2630.28,988.73c-.36,0-.72-.18-.94-.5-.6-.87-1.29-1.35-2.13-1.45-1.92-.23-4.21,1.65-4.22,1.66-.48.42-1.2.38-1.61-.1-.42-.47-.38-1.19.1-1.61.12-.11,3-2.59,6.02-2.22,1.5.19,2.76,1,3.73,2.43.36.52.22,1.23-.3,1.59-.2.13-.42.2-.65.2Z"/>
        <path class="cls-38" d="m2666.84,1007.49s-1.63,8.19-6.24,5.23,6.24-18.05,6.24-18.05c0,0-12.73,4.42-20.65-6-7.92-10.42-4.23-16.99-4.23-16.99l-17.72,9.31s-3.71-20.97,2.53-24.99c6.24-4.02,16.76,0,16.76,0,0,0-.64-9.03,17.07-6.85,17.72,2.18,17.23,20.56,17.23,20.56,0,0,11.65-.52,15.59,9.92,3.94,10.44-3.28,18.5-3.28,18.5,0,0,8.26,1.86,4.46,9.05-3.8,7.19-8.71,10.59-8.71,10.59,0,0-2.29-15.15-19.05-10.26Z"/>
        <path class="cls-20" d="m2640.17,1388.46c-.63,0-1.14-.51-1.14-1.14v-122.02l-38.63-16.12c-.58-.24-.86-.91-.61-1.5.24-.58.92-.86,1.5-.61l39.33,16.42c.42.18.7.59.7,1.06v122.79c0,.63-.51,1.14-1.14,1.14Z"/>
        <path class="cls-24" d="m2568.07,1528.06s-3.83-23.9-15.27-27.55c-11.44-3.65-16.6,16.02-16.6,16.02,0,0-63.91,9.15-66.14,9.57-2.23.42-25.53,13.49-16.88,26.16s122.23,46.88,130.11,45.43c7.88-1.45,23.76-59.89,21.6-63.05-2.17-3.16-36.81-6.58-36.81-6.58Z"/>
        <path class="cls-24" d="m2700.64,1534.4s-20.4-23.1-32.32-21.67c-11.92,1.43-12.99,24.95-12.99,24.95,0,0-61.85,36.19-63.7,37.5s-17.61,22.88-4.48,30.81c13.13,7.93,123.34-2.65,129.91-7.25,6.57-4.6,3.28-68.95,0-70.92-3.28-1.97-16.42,6.57-16.42,6.57Z"/>
        <path class="cls-20" d="m2636.34,1067.83c-3.27,0-6.66-.31-10.08-1.07-.62-.13-1-.75-.87-1.36.13-.61.73-1.01,1.36-.87,18.91,4.19,37.25-6.14,37.43-6.25.55-.31,1.25-.13,1.56.42.32.54.13,1.24-.42,1.56-.65.37-13.39,7.58-28.98,7.58Z"/>
        <polygon class="cls-32" points="2587.76 1143.51 2576.6 1222.94 2711.15 1232.83 2711.15 1143.51 2587.76 1143.51"/>
        <path class="cls-37" d="m2638.48,1025.76c-.33,0-.66-.14-.88-.41-.4-.49-.33-1.21.15-1.61l5.46-4.53c.49-.4,1.21-.34,1.61.15.4.49.33,1.21-.15,1.61l-5.46,4.53c-.21.18-.47.26-.73.26Z"/>
        <path class="cls-31" d="m2669.16,1051.96c-1.29-3.96-5.06-6.75-9.54-7.08-15.24-1.12-49.04-3.15-53.1.58-5.26,4.84,21.92,10.48,21.92,10.48,0,0-3.51,28.21-.88,33.05,2.63,4.84,11.4,8.06,14.03,6.45l2.63-1.61s5.26,8.06,10.52,8.87,23.68-10.48,23.68-16.93c0-4.66-5.96-23.65-9.26-33.81Z"/>
        <path class="cls-31" d="m2652.12,1094.64s15.5,128.05,68.14,102.67c56.89-27.43-41.83-111.54-41.83-111.54l-26.31,8.87Z"/>
        <path class="cls-31" d="m2563.09,1090.61l23.98,60.39s-29.74,14.09-58.33-11.02c-28.59-25.1-29.35-85.11-29.35-85.11,0,0-35.29-16.05-38.77-24.1-3.48-8.05,16.95-1.91,16.95-1.91,0,0-14.54-3.37-9.84-7.33,4.7-3.96,11.87-1.34,11.87-1.34,0,0-4.67-3.34.27-5.18,4.94-1.85,35.62,2.85,35.62,2.85,0,0,3.79-11.16,8.97-10.88,5.18.27.24,28.73.24,28.73l38.39,54.9Z"/>
        <path class="cls-37" d="m2644.23,1094.98c-.29,0-.59-.11-.81-.33l-5.74-5.73c-.45-.45-.45-1.17,0-1.62.45-.45,1.17-.45,1.62,0l5.74,5.73c.45.45.45,1.17,0,1.62-.22.22-.52.33-.81.33Z"/>
        <path class="cls-37" d="m2636.45,1057.09h-8.01c-.63,0-1.14-.51-1.14-1.14s.51-1.14,1.14-1.14h8.01c.63,0,1.14.51,1.14,1.14s-.51,1.14-1.14,1.14Z"/>
        <path class="cls-20" d="m2587.06,1149.58c-.09,0-.18,0-.26-.03-.61-.15-.99-.76-.85-1.38l5.7-23.76c.15-.61.78-1,1.38-.85.61.15.99.76.85,1.38l-5.7,23.76c-.13.53-.59.88-1.11.88Z"/>
        <path class="cls-37" d="m2491.76,1033.85c-.39,0-.77-.2-.98-.56-.33-.54-.14-1.25.4-1.57l16.69-9.91c.55-.33,1.24-.14,1.57.4.33.54.14,1.25-.4,1.57l-16.69,9.91c-.19.11-.39.16-.59.16Z"/>
      </g>
      <g>
        <ellipse class="cls-27" cx="2806.05" cy="574" rx="127.68" ry="85.99"/>
        <polygon class="cls-27" points="2850.94 646.3 2919.29 696.03 2887.6 623.94 2850.94 646.3"/>
        <path class="cls-27" d="m3094.21,541.72c5.12-11.92-1.62-24.41-18.03-31.46-15.76-6.77-29.82-5.75-41.76,1.49l-14.9-22.3c18.89-11.06,42.26-12.62,68.88-1.18,31.3,13.45,46.05,36.68,35.52,61.18-14.92,34.72-52.71,22.26-63.51,47.4l-27.04-11.62c13.55-31.53,51.68-22.21,60.83-43.51Zm-78.96,76.33c3.93-9.16,14.07-13.38,24.08-9.08,9.8,4.21,13.71,14.47,9.78,23.62-3.93,9.16-14.16,13.6-23.96,9.39-10.01-4.3-13.83-14.78-9.9-23.93Z"/>
        <circle class="cls-20" cx="2763.87" cy="574" r="11.91"/>
        <circle class="cls-20" cx="2806.05" cy="574" r="11.91"/>
        <circle class="cls-20" cx="2848.22" cy="574" r="11.91"/>
      </g>
      <g>
        <polygon class="cls-22" points="1935.82 1472.48 1932.53 1509.12 1862.16 1509.12 1862.16 1467.63 1935.82 1472.48"/>
        <polygon class="cls-22" points="1810.3 1489.41 1803.19 1526.15 1725.74 1507.78 1739.27 1467.63 1810.3 1489.41"/>
        <path class="cls-37" d="m1724.13,987.95s-18.48-16.95-44.78-3.11c-26.3,13.84-23.03,53.23-23.03,53.23,0,0-27.65,9.79-29.92,43.63-2.27,33.83,36.55,46.99,36.55,46.99l66.11-10.41s13.2-19.67,13.1-20.4c-.1-.73,2.62-82.22,2.62-82.22l-20.66-27.7Z"/>
        <path class="cls-24" d="m1853.41,1259.42s-11.7-128.71-59.39-148.47c-62.5-25.9-122.52.62-122.52.62l3.4,169.45,178.51-21.59Z"/>
        <path class="cls-30" d="m1824.15,1258.54s101.77-24.77,129.68,18.24c27.91,43-11.12,207.1-11.12,207.1h-93.71l-24.85-225.34Z"/>
        <path class="cls-23" d="m1593.77,1295.82s-21.19,98.46,21.27,114.31c42.47,15.85,140.36-2.95,140.36-2.95l-39.71,70.08,127.73,37.84s106.07-191.53,41.51-242.57c-64.56-51.05-200.45,23.28-200.45,23.28h-90.7Z"/>
        <path class="cls-33" d="m1937.97,1489.41s24.36,28.74,30.02,31.47c5.66,2.73,64.71,22.61,76.03,33.7,11.32,11.09,12.13,32.88,8.9,34.93s-197.47,0-197.47,0l-2.04-93.66,84.56-6.43Z"/>
        <path class="cls-32" d="m1814.82,1510.69s9.91,38.5,17.9,42.56c7.99,4.05,42.36,25.62,61.03,45.2,15.66,16.42,0,25.85,0,25.85h-108.21l-93.03-68.34,33.23-71.08,89.08,25.83Z"/>
        <path class="cls-20" d="m1957.63,1509.13s-27.09,31.05-20.89,33.57c6.2,2.52,58.51-5.49,57.15-11.08-1.35-5.6-29.99-22.95-36.26-22.49Z"/>
        <path class="cls-20" d="m1824.92,1534s-34.72,22.19-29.48,26.35c5.24,4.16,57.69,11.17,57.97,5.42.28-5.75-22.34-30.45-28.48-31.77Z"/>
        <path class="cls-31" d="m1732.1,1072.68l-4.31,27.59s4.39,8.96,22.43,13.59c13.44,3.45,18.64,1.6,18.64,1.6l.29-14.32.26-13.97-31.95-12.41-5.36-2.09Z"/>
        <path class="cls-37" d="m1737.44,1074.85c-.07.87.09,1.93.4,3.17,4.35,16.82,22.92,23.45,30.68,25.49l.75-15.78-31.82-12.89Z"/>
        <path class="cls-31" d="m1788.36,1017.59s9.76,42.03-.42,62.73c-10.18,20.7-29.44,13.56-40.56,7.13-11.12-6.43-15.29-14.76-15.29-14.76,0,0-11.82,1.7-17.34-10.02-5.52-11.72,1.27-22.75,8.13-24.29,6.86-1.54,13.55,4.45,13.55,4.45l-3.82-12.4s35.57-52.78,55.74-12.84Z"/>
        <path class="cls-37" d="m1777.62,1066.53c-.18,0-.36-.04-.53-.13-.54-.29-.75-.97-.46-1.51,3.62-6.77-.26-15.6-.3-15.69-.25-.56,0-1.22.56-1.47.56-.25,1.22,0,1.47.56.18.4,4.37,9.91.24,17.65-.2.38-.59.59-.99.59Z"/>
        <path class="cls-37" d="m1731.52,1060.6c-.37,0-.73-.18-.94-.52l-8.39-13.21c-.33-.52-.18-1.21.34-1.54.51-.33,1.21-.18,1.54.34l8.39,13.21c.33.52.18,1.21-.34,1.54-.18.12-.39.17-.6.17Z"/>
        <path class="cls-37" d="m1728.44,1055.75s-7.55-.3-7.55-.3c-.62-.03-1.09-.54-1.07-1.16.02-.61.53-1.08,1.16-1.07l7.51.3c.62.03,1.09.54,1.07,1.16-.02.6-.52,1.07-1.11,1.07Z"/>
        <path class="cls-20" d="m1786.75,1243.3c-.23,0-.47-.07-.67-.22-.49-.37-.59-1.07-.22-1.56.09-.12,8.91-11.92,15.95-29.37,10.75-26.66.07-66.62-.04-67.02-.16-.59.19-1.21.78-1.37.59-.17,1.2.18,1.37.78.46,1.66,10.99,41.08-.04,68.45-7.15,17.74-16.15,29.75-16.23,29.88-.22.29-.55.44-.89.44Z"/>
        <path class="cls-37" d="m1764.32,1076.22c-1.48,0-3.04-.39-4.49-1.5-4.45-3.41-5.04-9.13-5.07-9.37-.04-.41.15-.81.5-1.04.34-.23.79-.25,1.15-.04l14.21,7.97c.34.19.55.53.57.92.02.38-.16.75-.48.97-.18.12-3.07,2.09-6.4,2.09Zm-6.8-8.78c.54,1.68,1.61,3.94,3.67,5.51,2.16,1.65,4.86.97,6.57.24l-10.24-5.75Z"/>
        <path class="cls-37" d="m1758.76,1033.49c-.24,0-.48-.08-.69-.24-.48-.38-.57-1.08-.19-1.57,3.55-4.53,9.67-1.97,9.93-1.86.57.24.83.9.59,1.46-.24.56-.89.83-1.46.59-.2-.08-4.81-1.99-7.3,1.19-.22.28-.55.43-.88.43Z"/>
        <path class="cls-37" d="m1789.52,1034.78c-.33,0-.66-.15-.88-.43-.02-.03-2.09-2.66-4.46-2.82-1-.07-1.92.33-2.8,1.21-.44.44-1.15.43-1.58,0-.44-.44-.43-1.14,0-1.58,1.36-1.34,2.84-1.95,4.53-1.85,3.37.23,5.96,3.54,6.07,3.68.38.49.28,1.19-.2,1.56-.2.15-.45.23-.68.23Z"/>
        <path class="cls-37" d="m1784.63,1051.07c-.66-.03-1.14-.55-1.12-1.17l.33-7.42c.01-.31.16-.6.4-.8l3.41-2.88c.46-.4,1.18-.34,1.57.13.4.47.34,1.18-.13,1.57l-3.04,2.57-.31,6.93c-.03.59-.52,1.06-1.12,1.06Z"/>
        <path class="cls-37" d="m1762.82,1048.65c-.69-.04-1.15-.57-1.11-1.19l.47-7.41c.02-.35.2-.66.49-.86l4.8-3.2c.51-.33,1.2-.2,1.55.31.34.51.2,1.2-.31,1.55l-4.34,2.89-.44,6.86c-.04.59-.53,1.05-1.11,1.05Z"/>
        <path class="cls-37" d="m1737.92,1042.52s19.59-2.62,27.94-15.68c8.36-13.07,7.91-19.3,7.91-19.3,0,0,9.66,5.61,13.09,12.92,3.42,7.31,4.01,11.2,4.01,11.2,0,0,3.24-15.71,1.58-20.52s-10.79-31.77-48.39-28.48c-57.01,4.99-33.82,51.27-6.14,59.86Z"/>
        <path class="cls-31" d="m1731.07,1220.01s1.73-.76,9.1-3.39c6.97-2.49,32.12-.58,32.12-.58,0,0,21.88,3.23,40.1,10.42,18.22,7.19,15.75,15.41,15.75,15.41,0,0,11.74,6.16,7.39,11.34-4.34,5.18-23.01,2.02-23.01,2.02,0,0,23.78,6.7,14.71,12.7-9.07,5.99-39.37-3.76-39.37-3.76,0,0-44.93,20.76-61.4,6.22-16.47-14.54,4.62-50.37,4.62-50.37Z"/>
        <path class="cls-24" d="m1740.25,1208.88l18.27,70.9s-118.95,90.75-168.64,19.6c-49.69-71.16,42.75-177.8,81.62-187.82,38.87-10.02,19.23,104.59,19.23,104.59l49.52-7.27Z"/>
        <path class="cls-20" d="m1755.4,1408.3c-.23,0-.46-.07-.66-.22-.36-.27-.53-.73-.42-1.16.29-1.18,7.21-28.89,18.59-33.82,2.74-1.19,5.5-1.01,8.23.53,2.59,1.46,3.92,3.45,3.95,5.91.14,10.98-27.92,27.88-29.11,28.6-.18.11-.38.16-.57.16Zm21.08-33.74c-.9,0-1.79.2-2.69.59-8.42,3.65-14.54,22.51-16.57,29.61,8.92-5.67,25.73-17.85,25.64-25.18-.02-1.64-.94-2.94-2.82-4-1.2-.67-2.38-1.01-3.56-1.01Z"/>
        <path class="cls-20" d="m1651.04,1224.97c-.45,0-.87-.27-1.04-.71-.22-.58.07-1.22.64-1.45,25.8-9.98,75.73-8.41,77.84-8.33.62.02,1.1.54,1.08,1.15-.02.61-.61.98-1.15,1.08-.52-.02-51.59-1.63-76.96,8.18-.13.05-.27.07-.4.07Z"/>
        <path class="cls-20" d="m1689.74,1217.73c-8.49-1.05-35.84-4.85-37.24-10.37-.2-.78-.1-1.93,1.48-3.06,8.81-6.31,33.57,9.56,36.36,11.38.43.28.62.83.44,1.32-.16.45-.59.73-1.05.73Zm-30.34-12.68c-1.66,0-3.07.33-4.12,1.07-.49.35-.63.61-.61.7.63,2.47,15.2,5.86,30,7.99-7.25-4.22-18.4-9.76-25.27-9.76Z"/>
        <path class="cls-20" d="m1767.92,1116.6c-5.31,0-29.89-.82-41.02-15.65-.37-.49-.27-1.19.22-1.56.49-.37,1.19-.27,1.56.22,11.54,15.39,39.87,14.75,40.15,14.75.66.11,1.13.47,1.15,1.08.02.61-.47,1.13-1.08,1.15-.11,0-.45,0-.98,0Z"/>
        <path class="cls-20" d="m1827.37,1266.57h152.36l43.51-98.42h-146.35c-3.65,0-6.96,2.15-8.44,5.49l-41.09,92.93Z"/>
        <path class="cls-32" d="m1840.6,1266.57h152.36l38.83-87.84c2.2-4.98-1.45-10.58-6.89-10.58h-140.78l-43.51,98.42Z"/>
        <path class="cls-37" d="m1776.3,1279h215.11c3.43,0,6.22-2.78,6.22-6.22s-2.78-6.22-6.22-6.22h-215.11c-3.43,0-6.22,2.78-6.22,6.22s2.78,6.22,6.22,6.22Z"/>
        <path class="cls-37" d="m1828.13,1242.98c-.19,0-.38-.05-.56-.15-.15-.09-15.66-8.97-35.31-14.56-.59-.17-.93-.79-.77-1.38.17-.59.79-.93,1.38-.77,19.92,5.67,35.65,14.68,35.81,14.77.53.31.72.99.41,1.52-.21.36-.58.56-.97.56Z"/>
        <path class="cls-37" d="m1814.76,1255.75c-.21,0-.43-.06-.62-.19-.13-.09-13.08-8.64-24.72-9.64-.61-.05-1.06-.59-1.01-1.21.05-.61.6-1.12,1.21-1.01,12.21,1.05,25.21,9.64,25.76,10.01.51.34.65,1.04.31,1.55-.22.32-.57.5-.93.5Z"/>
      </g>
      <g>
        <polygon class="cls-31" points="1178.99 1549.7 1178.99 1591.35 1254.68 1588.41 1254.68 1549.7 1178.99 1549.7"/>
        <polygon class="cls-31" points="1004.2 1545.01 1004.2 1586.66 1074.27 1583.72 1074.27 1545.01 1004.2 1545.01"/>
        <path class="cls-24" d="m1156.4,1085.86s54.62,89.61,87,233.09c29.53,130.87,35.89,239.11,35.89,239.11h-127.72s-14.21-106.7-17.99-148.92c-3.78-42.22-16.38-98.73-16.38-98.73,0,0-17.53,243.54-21.71,247.66-4.18,4.12-126.45.91-125.14-4.68s38.64-409.48,41.95-436.11c10.18-81.86,144.1-31.4,144.1-31.4Z"/>
        <path class="cls-32" d="m1091.66,1655.52c0,7.35-2.38,15.76-7.27,17.88-4.88,2.12-44.4,6.53-78.97,3.41-33.1-3-39.97-5.53-42.41-8.64-1.19-1.59,1.14-8.94,3.8-16.05.17-.35.28-.76.45-1.12,1.36-3.59,2.78-7.06,3.8-9.53,1.02-2.35,2.27-4.59,3.75-6.76,3.58-5.12,10.67-15.7,12.49-21.17,2.38-7.29,6.02-23.05,8.46-30.46,2.44-7.29,8.4-8.82,8.4-8.82,0,0,68.07-4.82,72.95-.59,4.83,4.18,7.27,38.87,7.27,44.11v5.23c0,4.88,3.24,14.53,5.34,22.52.57,2,1.02,3.88,1.36,5.59.34,1.71.57,3.18.57,4.41Z"/>
        <path class="cls-32" d="m1376.5,1670.51c-4.54,1.94-197.74,7.41-202.23,0-1.36-2.23-2.33-9.82-2.95-19.35-1.59-22.46-1.59-55.87-1.59-55.87,0,0-1.42-11.41-1.14-16.7.23-5.23,93.17-3.23,93.17-3.23l60.41,49.34s16.58-3.06,34.69,0c9.59,1.59,15.78,13.76,18.85,25.23,2.73,10.17,2.95,19.64.79,20.58Z"/>
        <path class="cls-24" d="m1376.5,1670.51c-4.54,1.94-197.74,7.41-202.23,0-1.36-2.23-2.33-9.82-2.95-19.35,36.73,2.71,127.12,7.82,204.38-1.23,2.73,10.17,2.95,19.64.79,20.58Z"/>
        <path class="cls-24" d="m1091.66,1655.52c0,7.35-2.38,15.76-7.27,17.88-4.88,2.12-44.4,6.53-78.97,3.41-33.1-3-39.97-5.53-42.41-8.64-1.19-1.59,1.14-8.94,3.8-16.05,30.71,2.41,86.18,4.59,122.91-6.59.57,2,1.02,3.88,1.36,5.59.34,1.71.57,3.18.57,4.41Z"/>
        <path class="cls-20" d="m1117.19,1311.54c-.72-.05-1.19-.6-1.14-1.23.04-.53,4.02-52.96,5.18-76.2,1.15-23.22,1.2-34.34,1.2-34.45,0-.44.26-.85.66-1.03l41.38-19.08c.57-.28,1.25-.02,1.52.56.26.57.01,1.25-.56,1.52l-40.72,18.78c-.03,2.83-.21,13.88-1.2,33.82-1.15,23.27-5.14,75.73-5.18,76.26-.04.6-.55,1.06-1.14,1.06Z"/>
        <path class="cls-23" d="m1005.93,1610.34c-.5,0-.96-.33-1.1-.84-.17-.61.19-1.24.79-1.41,1.11-.31,27.35-7.55,41.25-5.06l9.46,1.68c-7.02-5.45-23.36-16.75-33.36-12.31-.57.24-1.25,0-1.51-.58-.26-.58,0-1.25.58-1.51,14.27-6.34,38.16,14.55,39.17,15.44.38.34.5.89.27,1.35-.22.46-.71.73-1.23.63l-13.79-2.45c-13.37-2.36-39.96,4.94-40.23,5.01-.1.03-.21.04-.31.04Z"/>
        <path class="cls-23" d="m1307.68,1614.01c-.12,0-34.55-3.68-34.55-3.68-.42-.05-.78-.32-.94-.71-.16-.39-.09-.83.17-1.16l12.01-14.64c.4-.49,1.12-.56,1.61-.16.49.4.56,1.12.16,1.61l-10.66,13,32.32,3.44c.63.07,1.08.63,1.02,1.26-.06.59-.56,1.02-1.13,1.02Z"/>
        <path class="cls-20" d="m1014.1,1176.2c-.35,0-.7-.16-.93-.47-.37-.51-.25-1.23.26-1.59,21.35-15.42,26.93-37.88,26.98-38.1.15-.61.76-1,1.38-.85.61.14.99.76.85,1.38-.23.95-5.8,23.49-27.87,39.42-.2.15-.44.22-.67.22Z"/>
        <path class="cls-26" d="m1066.78,882.23s-37.68-.13-58.02,20.39c-20.33,20.52-3.24,221.37-3.24,221.37,0,0,69.36,1.25,108.75,0,28.65-.91,57.05-13.73,57.05-13.73,0,0-30.74-200.2-41.32-219.96-10.57-19.76-63.22-8.06-63.22-8.06Z"/>
        <path class="cls-26" d="m1126.98,886.4s21.53,9.42,52.01,58.94c27.87,45.3,31.87,87.17,19,112.9-12.87,25.73-56.04,25.02-56.04,25.02l-14.97-196.87Z"/>
        <path class="cls-38" d="m1071.86,800.76s30.69,2.72,33.63-26.69c3.13-31.32-25.79-35.51-38.64-23.32-12.85,12.19-11.09,25.19-11.09,25.19,0,0-8.28-8.1-18.05,1.04-7.17,6.7-4.08,18.27-4.08,18.27,0,0-15.83-1.26-14.92,12.65.91,13.91,10.53,21.34,10.53,21.34l42.62-28.48Z"/>
        <path class="cls-31" d="m1041.54,853.9l1.86,32.8s6.45,9.09,25.73,9.56c14.36.35,19.2-3.17,19.2-3.17l-2.94-16.5-2.89-16.09-35.08-5.65-5.89-.95Z"/>
        <path class="cls-37" d="m1047.42,854.86c.13.89.53,1.93,1.13,3.11,8.27,15.97,28.54,18.36,36.83,18.63l-2.89-16.09-35.08-5.65Z"/>
        <path class="cls-31" d="m1085.57,785.33s19.55,40.14,14.07,63.38c-5.49,23.23-26.56,20.48-39.27,16.56-12.7-3.92-18.83-11.36-18.83-11.36,0,0-11.53,4.45-19.8-6.1-8.27-10.55-3.97-23.24,2.59-26.38,6.56-3.14,14.7,1.36,14.7,1.36l-6.72-11.62s23.69-61.46,53.26-25.83Z"/>
        <path class="cls-37" d="m1038.74,840.4c-.21,0-.42-.06-.61-.18l-15.38-9.79c-.53-.34-.69-1.05-.35-1.58.35-.53,1.05-.69,1.58-.35l15.38,9.79c.53.34.69,1.05.35,1.58-.22.34-.59.53-.96.53Z"/>
        <path class="cls-37" d="m1025.26,840.98c-.48,0-.93-.31-1.09-.8-.19-.6.14-1.24.74-1.44l9.59-3.06c.6-.19,1.24.14,1.44.74.19.6-.14,1.24-.74,1.44l-9.59,3.06c-.11.03-.23.05-.35.05Z"/>
        <path class="cls-37" d="m1059,804.03c-.22,0-.45-.07-.65-.2-.52-.36-.65-1.07-.3-1.59,5.07-7.4,12.42-4.06,12.5-4.02.57.27.81.94.55,1.52-.26.57-.95.82-1.52.56-.23-.1-5.7-2.52-9.64,3.24-.22.32-.58.5-.94.5Z"/>
        <path class="cls-37" d="m1090.73,800.68c-.23,0-.47-.07-.68-.22-3.76-2.76-7.42-.36-7.46-.33-.52.35-1.24.21-1.59-.31-.35-.53-.21-1.24.31-1.59.2-.14,5.07-3.3,10.09.39.51.37.62,1.09.24,1.6-.22.3-.57.47-.92.47Z"/>
        <path class="cls-37" d="m1084.83,837.7c-.09,0-.17,0-.26-.03-.62-.15-.99-.76-.85-1.38,2.9-12.23-3.95-20.57-4.02-20.65-.4-.48-.34-1.2.14-1.61.48-.4,1.2-.34,1.61.14.31.37,7.65,9.31,4.49,22.65-.13.53-.59.88-1.11.88Z"/>
        <path class="cls-37" d="m1091.48,816.45c-.48,0-.92-.3-1.08-.78l-2.48-7.41c-.2-.6.12-1.25.72-1.45.59-.21,1.24.12,1.45.72l2.48,7.41c.2.6-.12,1.25-.72,1.45-.12.04-.24.06-.36.06Z"/>
        <path class="cls-37" d="m1070.74,818.03c-.48,0-.92-.3-1.08-.78l-2.48-7.41c-.2-.6.12-1.25.72-1.45.6-.21,1.25.12,1.45.72l2.48,7.41c.2.6-.12,1.25-.72,1.45-.12.04-.24.06-.36.06Z"/>
        <path class="cls-38" d="m1089.55,794.4s-3.94-6.39-12.12-5.98c-8.19.41-12.64,6.44-12.64,6.44,0,0,4.37,13.57-6.34,21.53-10.71,7.95-19.44,6.39-19.44,6.39l-8.23-2.42-6.59-11.46,21.92-26.49,29.31-17.67,16.19,13.1-2.07,16.54Z"/>
        <path class="cls-26" d="m1043.72,885.11s-56-6.32-86.99,48.74c-26.31,46.75-25.01,89.2-25.01,89.2l87.22-12.63,24.79-125.31Z"/>
        <path class="cls-31" d="m931.72,1023.05s1.69,67.47,55.99,59.57c61.66-8.97,86.18-132.13,86.18-132.13l18.39-11.72s-3.53,15.04,11.21,6.95c14.74-8.09,11.79-23.26,11.79-23.26l-17.24-30.57s25.45-24.48,17.93-25.71c-11.62-1.91-47.81,23.12-47.81,23.12,0,0,1.99-15.08-6.43-12.59-9.08,2.69-12.29,30.51-12.29,30.51l-96.69,110.65-21.03,5.19Z"/>
        <path class="cls-37" d="m1092.27,939.91c-.33,0-.64-.14-.87-.4-.34-.39-.37-.96-.08-1.39l6.75-9.84c.36-.53,1.07-.66,1.59-.3.52.36.65,1.07.3,1.59l-4.31,6.28,6.24-3.03c.57-.28,1.25-.04,1.53.53.28.57.04,1.25-.53,1.52l-10.12,4.92c-.16.08-.33.12-.5.12Z"/>
        <path class="cls-37" d="m1091.48,897.61c-.36,0-.71-.17-.94-.49-.36-.52-.23-1.23.28-1.59l6.56-4.59c.51-.36,1.22-.23,1.59.28.36.52.23,1.23-.28,1.59l-6.56,4.59c-.2.14-.43.2-.66.2Z"/>
        <path class="cls-26" d="m1043.99,907.9l39.71,49.78s-15.3,95.81-62.98,125.59c-47.68,29.78-92.17-12.62-89.01-60.21,3.17-47.6,112.27-115.15,112.27-115.15Z"/>
        <path class="cls-37" d="m1078.52,848.26c-.18,0-.36-.04-.53-.13l-7.78-4.06c-.56-.29-.78-.98-.48-1.54.29-.56.98-.78,1.54-.48l7.78,4.06c.56.29.78.98.48,1.54-.2.39-.6.61-1.01.61Z"/>
        <path class="cls-37" d="m1068.16,890.43c-.27,0-.53-.09-.75-.27-.38-.33-.5-.87-.3-1.33.04-.08,3.63-8.38-1.72-14.05-.86-.91-1.49-.88-1.91-.79-3.2.72-7.14,9.52-8.88,14.89-.19.59-.84.92-1.44.73-.6-.2-.93-.84-.74-1.44.5-1.55,5.05-15.17,10.55-16.42,1.02-.22,2.55-.16,4.07,1.45,4.2,4.45,3.89,10.01,3.13,13.42l11.22-7.22c.53-.33,1.24-.19,1.58.34.34.53.19,1.24-.34,1.58l-13.87,8.93c-.19.12-.4.18-.62.18Z"/>
        <path class="cls-31" d="m1009.33,953.11s-21.79-.35-31.88,3.88c-10.09,4.23-28.82,30.37-25.75,34.25,3.07,3.88,9.81,0,9.81,0,0,0-3.68,9.55,4.9,9.3,8.58-.25,42.92-47.43,42.92-47.43Z"/>
        <path class="cls-23" d="m1178.69,991.33c-.19,0-.39-.05-.57-.15-27.87-15.92-93.71-18.13-94.38-18.14-.63-.02-1.13-.55-1.11-1.18.02-.63.49-1.12,1.18-1.11,2.73.08,67.08,2.24,95.44,18.44.55.32.74,1.01.43,1.56-.21.37-.6.58-.99.58Z"/>
        <path class="cls-23" d="m1172.68,1079.32c-.74-.06-63.91-6.01-116.59-30.2-.57-.26-.82-.94-.56-1.52.26-.58.95-.83,1.52-.56,52.32,24.01,115.11,29.93,115.74,29.99.63.06,1.09.61,1.04,1.24-.05.59-.55,1.04-1.14,1.04Z"/>
        <path class="cls-23" d="m1083.7,958.82c-.34,0-.69-.16-.91-.45l-38.82-51.08-25.4,32.18c-.39.5-1.11.59-1.61.19-.49-.39-.58-1.11-.19-1.6l26.31-33.35c.22-.27.55-.44.9-.44.34.11.69.17.91.45l39.72,52.25c.38.5.28,1.22-.22,1.6-.21.16-.45.23-.69.23Z"/>
        <path class="cls-23" d="m1144.37,977.89c-6.83,0-14.06-.6-17.5-.93-.51-.05-.92-.43-1.02-.93-.09-.5.16-1,.62-1.23.98-.49,24.1-11.82,32.2-3.71,1.58,1.58,1.47,2.84,1.11,3.61-1.18,2.49-8.06,3.19-15.4,3.19Zm-12.9-2.84c12.65.92,25.3.67,26.24-1.33.03-.05-.01-.38-.66-1.02-4.8-4.81-17.77-.89-25.59,2.35Z"/>
        <path class="cls-23" d="m1052.2,894.03c-8-1.06-9.59-8.63-9.6-8.7-.12-.62.28-1.22.89-1.34.64-.11,1.22.28,1.35.89.05.25,1.31,6.05,7.51,6.87.63.08,1.06.66.98,1.29-.08.57-.57.99-1.13.99Z"/>
        <path class="cls-37" d="m960.91,992.95c-.27,0-.53-.09-.75-.28-.47-.41-.52-1.14-.11-1.61l18.84-21.54c.41-.47,1.13-.52,1.61-.11.47.41.52,1.14.11,1.61l-18.84,21.54c-.23.26-.54.39-.86.39Z"/>
      </g>
    </g>
    <g>
      <path class="cls-35" d="m2601.4,839.17c0-16.48-13.36-29.84-29.84-29.84-7.31,0-14,2.64-19.19,7,.54-2.25.86-4.59.86-7,0-16.48-13.36-29.84-29.84-29.84-10.76,0-20.16,5.72-25.41,14.26-5.25-8.54-14.65-14.26-25.41-14.26-16.48,0-29.84,13.36-29.84,29.84,0,5.82,1.69,11.22,4.57,15.81-2.81-.88-5.79-1.35-8.89-1.35-16.48,0-29.84,13.36-29.84,29.84s13.36,29.84,29.84,29.84c1.4,0,2.77-.13,4.12-.32-2.6,4.43-4.12,9.56-4.12,15.07,0,16.48,13.36,29.84,29.84,29.84,10.72,0,20.1-5.68,25.36-14.17,4.99,9.49,14.94,15.97,26.4,15.97,15.58,0,28.36-11.95,29.7-27.19,4.96,3.68,11.09,5.89,17.74,5.89,16.48,0,29.84-13.36,29.84-29.84,0-6.54-2.13-12.57-5.7-17.48,6.01-5.46,9.8-13.31,9.8-22.06Z"/>
      <circle class="cls-35" cx="2569.88" cy="939.26" r="13.04"/>
      <circle class="cls-35" cx="2596.95" cy="964.87" r="10" transform="translate(78.36 2118.93) rotate(-45)"/>
    </g>
  </g>
  <g>
    <rect class="cls-27" x="2248.66" y="242.86" width="327.67" height="412.11" rx="24.85" ry="24.85"/>
    <rect class="cls-35" x="2225.94" y="242.86" width="327.67" height="412.11" rx="24.85" ry="24.85"/>
    <path class="cls-27" d="m2484.84,349.4h-188.73c-1.29,0-2.34-1.05-2.34-2.34s1.05-2.34,2.34-2.34h188.73c1.29,0,2.34,1.05,2.34,2.34s-1.05,2.34-2.34,2.34Z"/>
    <path class="cls-27" d="m2484.84,400.33h-188.73c-1.29,0-2.34-1.05-2.34-2.34s1.05-2.34,2.34-2.34h188.73c1.29,0,2.34,1.05,2.34,2.34s-1.05,2.34-2.34,2.34Z"/>
    <path class="cls-27" d="m2484.84,451.26h-188.73c-1.29,0-2.34-1.05-2.34-2.34s1.05-2.34,2.34-2.34h188.73c1.29,0,2.34,1.05,2.34,2.34s-1.05,2.34-2.34,2.34Z"/>
    <path class="cls-27" d="m2484.84,502.19h-188.73c-1.29,0-2.34-1.05-2.34-2.34s1.05-2.34,2.34-2.34h188.73c1.29,0,2.34,1.05,2.34,2.34s-1.05,2.34-2.34,2.34Z"/>
    <path class="cls-27" d="m2483.44,553.12h-188.73c-1.29,0-2.34-1.05-2.34-2.34s1.05-2.34,2.34-2.34h188.73c1.29,0,2.34,1.05,2.34,2.34s-1.05,2.34-2.34,2.34Z"/>
  </g>
  <g>
    <path class="cls-6" d="m1765.99,194.34h-107.39l-96.25,556.85h84.32l18.29-126.48h93.07l18.29,126.48h85.91l-96.25-556.85h.02Zm-53.29,119.32l34.2,234.67h-70.8l34.2-234.67h2.4Z"/>
    <path class="cls-6" d="m2046.01,186.38c-84.32,0-136.03,53.29-136.03,140.8v291.15c0,87.51,51.71,140.8,136.03,140.8,19.88,0,38.97-3.19,54.9-8.75,19.9,32.61,51.71,46.13,93.07,46.13l7.96-77.96c-18.29,0-33.41-3.19-42.96-13.52,15.1-23.07,23.07-52.51,23.07-86.71v-291.15c0-87.51-51.71-140.8-136.03-140.8h0Zm0,77.96c33.41,0,51.71,22.28,51.71,63.64v289.57c0,41.36-18.29,63.64-51.71,63.64s-51.71-22.26-51.71-63.64v-289.57c0-41.36,18.29-63.64,51.71-63.64Z"/>
    <polygon class="cls-6" points="1561.55 194.34 1328.47 194.34 1328.47 751.17 1412.79 751.17 1412.79 507.76 1532.11 507.76 1532.11 429.8 1412.79 429.8 1412.79 272.29 1561.55 272.29 1561.55 194.34"/>
    <g>
      <path class="cls-8" d="m1765.99,194.34h-107.39l-96.25,556.85h84.32l18.29-126.48h93.07l18.29,126.48h85.91l-96.25-556.85h.02Zm-53.29,119.32l34.2,234.67h-70.8l34.2-234.67h2.4Z"/>
      <g>
        <path class="cls-8" d="m2046.01,186.38c-84.32,0-136.03,53.29-136.03,140.8v291.15c0,87.51,51.71,140.8,136.03,140.8,19.88,0,38.97-3.19,54.9-8.75,19.9,32.61,51.71,46.13,93.07,46.13l7.96-77.96c-18.29,0-33.41-3.19-42.96-13.52,15.1-23.07,23.07-52.51,23.07-86.71v-291.15c0-87.51-51.71-140.8-136.03-140.8h0Zm0,77.96c33.41,0,51.71,22.28,51.71,63.64v289.57c0,41.36-18.29,63.64-51.71,63.64s-51.71-22.26-51.71-63.64v-289.57c0-41.36,18.29-63.64,51.71-63.64Z"/>
        <polygon class="cls-8" points="1561.55 194.34 1328.47 194.34 1328.47 751.17 1412.79 751.17 1412.79 507.76 1532.11 507.76 1532.11 429.8 1412.79 429.8 1412.79 272.29 1561.55 272.29 1561.55 194.34"/>
        <g>
          <g>
            <path class="cls-15" d="m1736.28,517.63c.12,2.08,2.46,3.21,2.46,3.21,5.91-2.51,20.93-16.3,17.72-29.39-3.21-13.09-8.62-26.47-16.24-32.88-7.62-6.41-19.2-5.84-19.2-5.84h-17.46s-11.58-.55-19.2,5.84c-7.62,6.41-13.04,19.79-16.24,32.88-3.21,13.09,11.81,26.9,17.72,29.39,0,0,2.33-1.12,2.46-3.21l23.99-1.12,23.99,1.12h0Z"/>
            <path class="cls-7" d="m1695,437.42c2.97,0,5.38,2.4,5.38,5.38s-2.4,5.38-5.38,5.38-5.38-2.4-5.38-5.38,2.4-5.38,5.38-5.38Z"/>
            <path class="cls-7" d="m1729.59,437.42c2.97,0,5.38,2.4,5.38,5.38s-2.4,5.38-5.38,5.38-5.38-2.4-5.38-5.38,2.4-5.38,5.38-5.38Z"/>
            <path class="cls-3" d="m1712.29,415.94h0c9.51,0,17.3,7.78,17.3,17.3v15.73c0,9.51-7.78,17.3-17.3,17.3h0c-9.51,0-17.3-7.78-17.3-17.3v-15.73c0-9.51,7.78-17.3,17.3-17.3Z"/>
            <path class="cls-15" d="m1695,443.48s-.09-3.15,2.99-4.61c3.08-1.46,4.77-3.22,5.01-5.54,0,0,6.07,5.15,14.37,5.84,8.3.69,11.76,1.71,12.22,6,19.98-35.8-25.19-49.5-29.21-32.38,0,.05,0,.18-.05.18-17.9-.48-11.13,27.25-5.34,30.51h.02Z"/>
            <path class="cls-15" d="m1728.8,585.01c4.68-11.61,23.96-57.02,31.37-61.81,8.57-5.56,12.9,5.13,12.56,8.39-1.03,10.24-22.37,34.02-37.8,57.55-1.87,2.85-8.28,1.25-6.13-4.13h0Z"/>
            <path class="cls-9" d="m1736.62,589.71c-.04,1.57.55,5.15,1.28,6.75.84,1.83,3.37,3.51,5.02,4.6,1.64,1.09.98,2.96.98,2.96,0,0,.68.36.52,1.21-.18.85-1.53,2.23-5.18,3.06-3.63.82-7.3-.2-9.97-3.76-2.69-3.56-2.74-5.13-5.88-6.5-3.13-1.37-1-3.62-1-3.62,0,0-.2-1.66,1.03-3.24,1.1-1.41,2.83-3.05,3.87-5.56h0s.91-.82,1.48-.25c.55.57,2.53,3.72,5.74,3.87,0,0,1.51-.25,2.1.48h.02Z"/>
            <path class="cls-15" d="m1765.26,532.2c0-.89.21-10.53.21-10.53-22.19-.91-84.18-.91-106.37,0,0,0,.21,9.65.21,10.53,0,0,7.93,4.68,15.1,9.53,7.18,4.84,18.19,6.61,23.9,6.61h27.91c5.72,0,16.73-1.76,23.9-6.61,7.18-4.84,15.1-9.53,15.1-9.53h.02Z"/>
            <path class="cls-15" d="m1695.78,585.01c-4.68-11.61-23.96-57.02-31.37-61.81-8.57-5.56-12.9,5.13-12.56,8.39,1.03,10.24,22.37,34.02,37.8,57.55,1.87,2.85,8.28,1.25,6.13-4.13h0Z"/>
            <path class="cls-9" d="m1687.96,589.71c.04,1.57-.55,5.15-1.28,6.75-.84,1.83-3.37,3.51-5.02,4.6-1.66,1.09-.98,2.96-.98,2.96,0,0-.68.36-.52,1.21.18.85,1.53,2.23,5.17,3.06,3.63.82,7.3-.2,9.97-3.76,2.69-3.56,2.74-5.13,5.88-6.5,3.13-1.37.98-3.62.98-3.62,0,0,.2-1.66-1.03-3.24-1.1-1.41-2.83-3.05-3.87-5.56h0s-.91-.82-1.48-.25c-.55.57-2.53,3.72-5.74,3.87,0,0-1.51-.25-2.1.48h.02Z"/>
            <path class="cls-16" d="m1677.93,491.21h68.72c1.44,0,2.33,1.19,1.98,2.64l-8.8,35.11c-.36,1.44-1.85,2.64-3.3,2.64h-48.47c-1.44,0-2.92-1.19-3.3-2.64l-8.8-35.11c-.36-1.44.52-2.64,1.98-2.64h-.02Z"/>
          </g>
          <path class="cls-15" d="m1702.19,594.41c-1.16,1.41-2.69,1.96-4.33,3.62-1.66,1.66-3.67,7.48-8.62,8.44-4.95.96-8.55-2.44-8.55-2.44,0,0-.68.36-.52,1.21.18.85,1.53,2.23,5.17,3.06,3.63.82,7.3-.2,9.97-3.76,2.69-3.56,2.74-5.13,5.88-6.5,3.13-1.39.98-3.62.98-3.62l.02-.02Z"/>
          <path class="cls-15" d="m1722.41,594.41c1.16,1.41,2.69,1.96,4.33,3.62,1.66,1.66,3.67,7.48,8.62,8.44,4.95.96,8.55-2.44,8.55-2.44,0,0,.68.36.52,1.21-.18.85-1.53,2.23-5.18,3.06-3.63.82-7.3-.2-9.97-3.76-2.69-3.56-2.74-5.13-5.88-6.5-3.13-1.39-1-3.62-1-3.62l.02-.02Z"/>
        </g>
        <g>
          <path class="cls-3" d="m1441.8,339.08l2.83-3.78s7.32,1.53,15.09,12.9c7.77,11.35,14.48,25.7,14.2,32.72-.3,7.02-5.68,7.62-5.68,7.62l-1.76-9.55s-4.51-9.42-8.53-13.16c-4.03-3.74-16.14-26.74-16.14-26.74v-.02Z"/>
          <path class="cls-15" d="m1450.92,355.47c-11.76-28.5,20.18-27.55,13.34-42.96-4.17-9.39,2.35-16.74,1.89-21.64-.46-4.9-1.44-9.35-7.8-9.85,0,0-.45-13.31-11.2-12.45-10.78.87-13.88,10.46-22.66,12.01-8.76,1.55-13.84,3.56-13.95,18.47-.11,14.91.36,22.67-5.98,30.97-6.34,8.3-1.94,20.43,1.91,21.77s11.81-4.88,14.78-14.84c2.96-9.94,29.69,18.51,29.69,18.51l-.02.02Z"/>
          <path class="cls-3" d="m1493.47,514.99c.21-.37.07-2.53.07-2.53,0,0-1.53-2.42-2.78-7.84-1.23-5.41-2.4-7.61-5.34-7.27-2.96.34-5.56.69-5.56.69,0,0,.93,9.26,1.41,9.89.48.62,5.9,9.19,6.59,9.53s5.63-2.46,5.63-2.46l-.02-.02Z"/>
          <path class="cls-3" d="m1552.52,484.46l-.85-1.73s-1.28.23-4.19-3.7c-2.9-3.94-7.57-8.21-9.56-9.44-2.01-1.23-1.5-.84-2.78-1.94-1.3-1.1-3.81-.2-4.13.32-.32.52-.07,4.13,0,4.52s14.48,12.34,15.91,12.66,5.63-.71,5.63-.71l-.02.02Z"/>
          <path class="cls-5" d="m1478.94,496.98s1.89-.14,1.99.89c.09,1.03-.59,1.44,1.89,5.63,2.48,4.19,2.26,8.44,4.04,9.81,1.78,1.37,5.97.96,6.52-.55.55-1.5,2.6,1.1,2.6,2.67s.14,4.86-3.08,5.27c-3.22.41-7.82-.96-8.85-3.56s-1.3-5.01-1.92-5.97-.82,1.66-1.51,1.92c-.69.28-1.1-.55-1.59-2.89-.48-2.33-1.37-12.56-.11-13.23h.02Z"/>
          <path class="cls-5" d="m1530.79,471.53s-.84-.14-1.03,2.9c-.2,3.05,1.62,5.04,4.08,8.85,2.46,3.81,3.42,5.5,4.01,6.66s1.35.91,1.55.27c.2-.64-1.16-4.47-1.55-6.73s.91-2.46,2.97-.64c2.07,1.82,4.79,5.7,8.34,6.41,3.56.71,8.92-.39,9.24-1.62.32-1.23.98-4.33-1.16-4.92-2.14-.59-3.81-.59-4.92-.59s-.07,2.53-4.08.78c-4.01-1.76-6.73-6.34-10.99-8.73-4.27-2.39-6.47-2.65-6.47-2.65h0Z"/>
          <path class="cls-3" d="m1449.67,283.39h0c-8.09-2.81-16.99,1.5-19.81,9.56l-4.65,13.36c-2.81,8.09,1.5,16.99,9.56,19.81h0c8.09,2.81,16.99-1.5,19.81-9.56l4.65-13.36c2.81-8.09-1.5-16.99-9.56-19.81Z"/>
          <path class="cls-7" d="m1428.89,295.75l-3.69,10.58c-2.81,8.09,1.5,16.99,9.56,19.81h0c1.44.5,2.92.78,4.4.85-8.71-11.65,3.95-18.74,8.6-19.04,4.88-.32,5.54-1.83,8.66-2.69.87-.23,1.5-.05,1.98.34l.84-2.37c2.01-5.75.41-11.92-3.6-16.01-2.33.52-5.33.84-9.35.36-6.93-.8-12.43,2.83-17.4,8.19v-.02Z"/>
          <path class="cls-5" d="m1435.21,332.76c.75,2.16,7.2-1.28,14.77,6.73,1.75,1.85,4.67,9.62,11.1,16.8,6.43,7.18,3.33,10.83-.16,19.5-3.51,8.67-2.33,24.76-1,26.45,1.34,1.71,1.18,3.26-3.51,2.01-4.67-1.25-22.03-5.41-33.9,3.1,0,0-1.83-.23-1.34-2.4,2.01-8.67-5.36-35.86-7.96-46.97-2.17-9.28-11.67-16.32-4.47-20.66,7.18-4.33,13.95-2.87,16.03-5.25,2.08-2.4,10.46.68,10.46.68l-.02.02Z"/>
          <path class="cls-7" d="m1435.03,332.31s.28.87,3.7,1.44h0s1.99,6.31-9.05,3.9c-4.83-1.05-7.89-2.39-9.58-3.6,2.9-.61,5.2-.68,6.2-1.92,1.73-2.14,8.71.2,8.71.2l.02-.02Z"/>
          <path class="cls-7" d="m1436.65,324.51s-1.87,3.35-2.1,5.27c-.23,1.92,1.66,4.83,1.66,4.83,0,0-1.35,1.25-5.68-1.14-4.31-2.37-6.84-9.78-5.34-10.81,1.5-1.02,7.37-3.22,11.47,1.83v.02Z"/>
          <path class="cls-10" d="m1496.96,450.03c-3.97,19.38-5.88,43.99-7.34,47.18-1.46,3.21-7.39,8.26-8.8-3.54-1.05-8.87-2.33-36.76-1.55-52.83,1.44-29.48,24.51-24.15,17.69,9.19Z"/>
          <path class="cls-10" d="m1492.94,429.96l3.51-2.12s-2.49-7.93-6.72-10.6c-4.22-2.65-33.66-3.6-33.66-3.6l-13.47,15.34s20.2.62,29.55-.94c9.35-1.59,8.82,1.82,8.25,4.65-.57,2.83,12.54-2.73,12.54-2.73h0Z"/>
          <path class="cls-16" d="m1488.25,365.84c.37,0,2.08,1.83,2.08,2.58s-10.19,26.29-11.83,27.43c-1.64,1.14-15.53.2-16.78-.34-1.26-.53-1.76-2.37-1.76-3.51s9.07-25.45,10.7-26.82,17.6.64,17.6.64l-.02.02Z"/>
          <path class="cls-16" d="m1488.25,365.84c.37,0,2.08,1.83,2.08,2.58,0,0-7.46-1.85-17.79-.78,0,0-.69.07-1.57,2.37-.89,2.28-9.65,20.77-9.78,25.2-.87-.75-1.25-2.21-1.25-3.19,0-1.14,9.07-25.45,10.7-26.82s17.6.64,17.6.64h0Z"/>
          <path class="cls-15" d="m1513.89,422.96c8.19,17.99,21.12,39.04,21.82,42.48.69,3.46-1.12,11.03-9.21,2.3-6.07-6.55-23.51-28.36-32.33-41.8-16.17-24.69,5.61-33.95,19.72-2.99v.02Z"/>
          <path class="cls-15" d="m1421.59,404.43c-3.15,31.63,16.97,25.77,36.48,23.23,12.47-1.62,42.73-12.88,42.29-17.76-.45-4.88-.59-6.22-8.76-7.39s-37.55-3.26-46.29-3.56-19.34-2.07-23.73,5.49h.02Z"/>
          <path class="cls-3" d="m1460.95,390.02l.5,1.67s4.01,1.6,7.77-.45c3.76-2.05,6.23-2.6,6.82-4.17s-2.46-5.38-4.95-4.26c-2.49,1.12-6.84,5.59-9.1,5.38-2.26-.23-1.02,1.82-1.02,1.82h-.02Z"/>
          <path class="cls-12" d="m1411.24,387.74s-4.15-1-5.61-.89c-1.46.11-1.75,10.46-1.02,20.11.73,9.65,6.13,14.18,13.72,15.57s16.99-1.16,17.94-10.99c.96-9.83,3.42-18.51.59-20.04-2.85-1.55-12.33-1.32-25.6-3.74l-.02-.02Z"/>
          <path class="cls-15" d="m1428.6,384.48c.77,3.7.94,6.55.71,8.55-.11,1.02-3.53,2.58-3.17-.07.39-2.99.94-4.49.23-8.35.68-.05,1.48-.11,2.23-.12h0Z"/>
          <path class="cls-3" d="m1414.32,338.51s-8.09,1.37-7.52,14.32c.57,12.93,15.8,35.61,21.86,38.03,6.07,2.42,26.81,1.98,36.02,1.8,0,0,.62.05.69-1s-.12-2.65.23-3.06c.36-.41-.75-.57-1.83-.68-1.07-.11-8.91,1.5-25.93-2.89,0,0-2.26-.14-5.63-3.58-3.38-3.46-6.79-27.91-9.62-33.77-2.83-5.86-5.02-9.81-8.25-9.16l-.02-.02Z"/>
          <path class="cls-15" d="m1463,294.45l-1.83,9.12-1.66,1.26s-1.18-1.71-.93-3.83c0,0-3.15,5.38-11.15,5.5-8,.11-11.06.14-13.63,6.68-2.56,6.55-3.3,13.2-1.28,21.59,4.54,18.95-26.18,33.74-31.08,7.12,0,0,21.23-47.66,21.39-49.41.14-1.75,17.47-13.61,17.47-13.61,0,0,7.48-4.06,8.91-1.96,1.42,2.1,12.97,10.58,12.97,10.58l.82,6.91v.04Z"/>
          <path class="cls-15" d="m1426.27,361.35s-2.33-12.33-6.5-13.34c-4.17-1.02-8.41,1.82-5.59,19.22,1.96,12.18,1.26,19.91-.16,23.6-.34.85-3.62,1.42-2.71-.78,1.6-3.94,2.71-4.52,1.91-16.26-.3-4.38-3.54-12.17-2.74-21.64.91-10.76,16.42-16.03,15.82,9.21h-.02Z"/>
        </g>
        <g>
          <path class="cls-2" d="m2010.85,604.92l-.96,1.28s-3.94.11-6.54-2.83c-2.6-2.94-4.56-4.2-4.58-5.74,0-1.53,3.79-3.87,5.61-2.12,1.8,1.75,4.13,6.98,6.16,7.5,2.01.52.3,1.89.3,1.89v.02Z"/>
          <path class="cls-10" d="m2061.24,661.19l-3.33-.05s-3.78-.73-16.64-13.47c-12.88-12.74-22.66-21.64-29.98-25.26-7.32-3.62-12.58,1.05-11.93,6.38.43,3.67,16.37,24.56,30.03,40.43l37.08,5.7c-2.58-7.43-5.24-13.73-5.24-13.73h0Z"/>
          <path class="cls-10" d="m1992.27,637.45c-4.74,14.34-12.09,32.22-12.34,34.89-.25,2.67,1.76,8.28,7.18,1,4.06-5.47,15.53-23.48,21.11-34.43,10.26-20.09-7.8-26.15-15.94-1.46Z"/>
          <path class="cls-13" d="m1980.84,674.57c-2.74-2.37-4.44-2.94-5.54-2.03-1.1.89-1.64,3.13-3.03,3.85s-12.88,4.26-13.61,4.97-.39,1.71-.18,1.91c.21.2-.8,1.3-.02,2.03.77.73,8.62,3.37,16.4,1.64,7.77-1.73,11.88-.48,12.86-1.16.98-.69.73-2.12.73-2.12.77-2.26.85-7.28-1.35-6.75-3.54.87-3.53.05-6.29-2.32l.02-.02Z"/>
          <path class="cls-16" d="m1958.48,683.24c.21.2-.8,1.3-.02,2.03.77.73,8.62,3.37,16.4,1.64,7.77-1.73,11.88-.48,12.86-1.16.98-.69.75-2.12.75-2.12-4.38-.61-9.89,1.26-17.94,1.82-8.05.53-12.04-2.19-12.04-2.19l-.02-.02Z"/>
          <path class="cls-11" d="m2047.06,605.53c-1.05,2.44-.53,9.46,7.55,6.34,6.06-2.33,23.89-11.44,33.22-18.01,12.2-8.59,6.88-17.13-3.21-16.97-8.71.14-35.59,24.05-37.56,28.62v.02Z"/>
          <path class="cls-11" d="m2051.53,605.9c2.89,2.46,2.55,5.79-.53,6.75-3.06.96-31.17-2.99-41.15-5.91,0,0-1.14-.85-1.05-2.3.07-1.44.57-2.39,3.08-1.99,20.04,3.1,27.5,2.23,36.41,2.49,1.66.05,2.78.59,3.24.98v-.02Z"/>
          <path class="cls-15" d="m2042.54,653.46l-2.14,2.56s-2.92,2.48-20.91,4.58c-17.99,2.1-31.05,4.19-38.44,7.64-7.39,3.46-7.02,10.47-2.46,13.31s58.16,2.83,72.94-.12c14.78-2.96,25.56-5.84,25.56-12.01s-34.55-15.96-34.55-15.96h0Z"/>
          <path class="cls-15" d="m1974.35,691.04c1.87,16.4,2.78,37.51,3.76,40.29.98,2.76,5.56,7.41,7.59-2.32,1.53-7.3,4.63-30.42,5.17-43.85.94-24.63-19.74-22.37-16.49,5.88h-.02Z"/>
          <path class="cls-13" d="m1978.43,732.33c-3.78-.41-5.56.09-5.97,1.51-.41,1.42.46,3.67-.32,5.11-.77,1.44-8.57,11.27-8.78,12.33-.21,1.05.68,1.69.98,1.73.3.04.07,1.59,1.18,1.76s9.4-2.21,15.07-8.28c5.66-6.09,9.94-7.45,10.38-8.62.43-1.18-.62-2.26-.62-2.26-.68-2.4-3.56-6.79-5.15-5.01-2.55,2.85-3.01,2.14-6.77,1.73h0Z"/>
          <path class="cls-16" d="m1964.34,753.01c.3.04.07,1.59,1.18,1.76s9.4-2.21,15.07-8.28c5.66-6.09,9.94-7.45,10.38-8.62.43-1.18-.62-2.26-.62-2.26-4.11,2.08-7.77,6.95-14.36,12.17-6.61,5.22-11.67,5.24-11.67,5.24h.02Z"/>
          <path class="cls-17" d="m1997.31,584.96c1.46,2.33,9.99,15.91,10.22,17.08.27,1.3-1.3,3.97-3.19,5.52-1.91,1.55-3.88-1.99-8.46-8.37-4.58-6.38-5.65-7.89-5.77-9.49-.12-1.59,5.4-5.25,5.95-5.31.68-.05.93.05,1.25.55v.02Z"/>
          <path class="cls-10" d="m2004.6,607.33s-.18.14-.27.23c-1.91,1.55-3.88-1.99-8.46-8.37-4.58-6.38-5.65-7.89-5.77-9.49-.12-1.59,5.4-5.25,5.95-5.31.32-.02.55,0,.73.05,0,0-4.44,2.94-5.11,4.08-.66,1.14,1.03,3.24,2.37,5.65,1.34,2.42,7.2,10.53,8.53,11.86.89.89,1.41,1.26,2.01,1.28l.02.02Z"/>
          <path class="cls-14" d="m2004.3,606.06c.12-.12.25-.25.36-.39.52-.59,1.92-2.56,1.78-3.35-.25-.75-1.21-2.26-1.62-2.97-1.09-1.85-2.19-3.67-3.31-5.49-1.62-2.65-2.71-4.4-4.36-7.02-1.35.93-3.58,2.55-3.94,3.13-.14.57,1.48,3.05,1.83,3.67,1.07,1.92,2.6,4.01,3.88,5.81.89,1.23,1.8,2.46,2.71,3.67.52.68,1.14,1.53,1.75,2.14.14.14.57.59.91.82l.02-.02Z"/>
          <path class="cls-1" d="m1993.91,588.18s-.2.05-.25-.02c-.07-.07-.05-.2.02-.25,0,0,.68-.55.89-.64.09-.04.2,0,.23.09.04.09,0,.2-.09.23-.16.07-.78.59-.78.59h-.02Z"/>
          <path class="cls-1" d="m1995.32,587.09c-.09.04-.2,0-.23-.09-.04-.09,0-.2.11-.23h.04c.09-.05.2,0,.23.09.04.09,0,.2-.09.23h-.05Z"/>
          <path class="cls-3" d="m2008.11,609.62l-1.16,1.41s-4.49-.09-7.28-3.56c-2.8-3.49-4.95-5.02-4.88-6.77.07-1.75,4.54-4.19,6.48-2.08,1.96,2.08,4.33,8.16,6.59,8.85,2.26.69.25,2.16.25,2.16h0Z"/>
          <path class="cls-4" d="m2049.13,621.02h0c-3.22,1.09-31.21-5.33-41.75-8.55,0,0-1.12-1.87-1.02-3.4.11-1.53.64-2.53,3.28-2.08,20.54,3.4,29.42,1.73,38.51,2.03,2.67-3.67,31.47-32.6,35.53-34.06,13.5-4.83,21.55,13.54,6.64,23.8-9.97,6.86-30.89,19.08-37.33,21.48-1.53.57-2.8.8-3.85.78h-.02Z"/>
          <path class="cls-3" d="m2056.95,542.92s.61,8.44.84,9.99,1.6,2.58,2.17,4.72c.57,2.14.61,6.63.84,7.75s2.55.43,3.26,1.02c.69.59.66,1.64,1.03,2.23s1.12.36,1.35.75c.21.39.14,1.09.36,1.44.21.36,1.34.25,1.99,1.55.66,1.28,2.12,3.53,6.7.98,4.58-2.55,7.21-10.35,7.39-14.16.18-3.81-1.21-10.01-1.6-11.6-.39-1.59-4.08-10.51-5.66-11.2s-17.49.46-18.68,6.54h.02Z"/>
          <path class="cls-3" d="m2091.23,552.59l2.19,5.41s7.32,7.91,8.85,17.65c1.55,9.74-13.31,9.74-13.31,9.74l-5.33-10.44s-2.03-4.7-6.43-2.92c-4.4,1.8-3.1-6.79-3.1-6.79l1.16-21.53s7.71-5.68,8.73-5.24,3.63,1.02,4.36,2.03c.73,1.02,2.83,12.08,2.83,12.08h.04Z"/>
          <path class="cls-15" d="m2057.02,544.04s-5.08-1.16-6.66-6.88c-1.59-5.72-.23-12.38,7.55-15.53s12.98,3.21,21.14,1.85c8.16-1.35,11.27-.23,11.44,7.37,0,0,5.56,1.28,4.63,7.5-.93,6.22-3.44,16.23-1.69,19.65,0,0-4.93-2.71-6.34-6.86,0,0-.71-7.3-2.85-7.68-2.14-.37-3.46,1.57-2.94,5.09.53,3.53.52,4.76-.04,5.45-.55.69-1.02.78-1.37.41-.34-.39.07-5.17-2.83-7.34-2.9-2.17-5.38-2.92-6.22-4.93-.84-2.01-7.59,2.32-13.82,1.87v.02Z"/>
          <path class="cls-4" d="m2096.76,571.92s-11.03-5.79-21.55,14.32c-10.53,20.11-12.29,43.53-28.68,58.32-16.58,14.96,10.03,28.25,28.16,27.98,28.75-.43,44.74-94.72,22.05-100.64l.02.02Z"/>
        </g>
        <g>
          <path class="cls-15" d="m2042.13,127.18s1.12-7.05,10.56-12.63c9.44-5.58,20.77,22.39,25.45,1.26,4.67-21.12-10.06-23.65-7.39-38.67.78-4.38-3.15-8.59-8.91-9.03,0,0-.39-12.02-10.13-11.24-9.73.78-12.54,9.44-20.47,10.85-7.93,1.41-12.5,3.22-12.61,16.69-.11,13.47.32,20.48-5.41,27.98-5.74,7.5-1.75,18.47,1.73,19.66,3.47,1.21,10.69-4.42,13.36-13.39,2.67-8.98,13.8,8.51,13.8,8.51h.02Z"/>
          <path class="cls-3" d="m2107.41,258.79c.02-.43-1.03-2.3-1.03-2.3,0,0-3.76-1.16-7.21-5.5s-4.83-4.7-7.34-3.12c-2.51,1.59-4.03,1.53-4.03,1.53,0,0,4.84,7.94,5.54,8.3s9.3,5.74,10.06,5.75c.77,0,4.01-4.67,4.01-4.67h0Z"/>
          <path class="cls-5" d="m2086.5,248.85s1.66-.94,2.17-.05c.53.89.11,1.55,4.13,4.26,4.04,2.71,5.7,6.63,7.89,7.09,2.21.46,5.79-1.71,5.65-3.31-.16-1.6,2.81-.14,3.51,1.28.68,1.42,2.23,4.33-.5,6.09s-7.46,2.51-9.53.61c-2.05-1.91-3.35-3.95-4.31-4.56-.98-.61-.04,1.83-.53,2.39-.5.55-1.23-.02-2.67-1.92-1.44-1.89-6.66-10.72-5.82-11.9l.02.04Z"/>
          <path class="cls-5" d="m2073.78,172.26c.12,2.08,2.46,3.21,2.46,3.21,5.91-2.51,20.91-16.3,17.72-29.41-3.21-13.09-8.62-26.47-16.24-32.88-7.62-6.41-19.2-5.86-19.2-5.86h-17.46s-11.56-.55-19.2,5.86c-7.64,6.41-13.06,19.79-16.24,32.88-3.21,13.09,11.81,26.9,17.72,29.41,0,0,2.33-1.12,2.46-3.21l23.99-1.12,23.99,1.12h0Z"/>
          <path class="cls-7" d="m2032.49,92.07c2.97,0,5.38,2.4,5.38,5.38s-2.4,5.38-5.38,5.38-5.38-2.4-5.38-5.38,2.4-5.38,5.38-5.38Z"/>
          <path class="cls-7" d="m2067.1,92.07c2.97,0,5.38,2.4,5.38,5.38s-2.4,5.38-5.38,5.38-5.38-2.4-5.38-5.38,2.4-5.38,5.38-5.38h0Z"/>
          <path class="cls-3" d="m2049.8,70.57h0c8.59,0,15.62,7.04,15.62,15.62v19.08c0,8.59-7.04,15.62-15.62,15.62h0c-8.59,0-15.62-7.04-15.62-15.62v-19.08c0-8.59,7.04-15.62,15.62-15.62Z"/>
          <path class="cls-15" d="m2068.97,82.49l6,21.04-9.74,4.35c0-15.51-5.72-14.5-3.13-21.68,0,0-2.85,4.86-10.08,4.97s-9.99.12-12.31,6.04c-2.32,5.91-2.97,11.92-1.16,19.5,4.1,17.13-23.65,30.49-28.09,6.45,0,0,19.18-43.07,19.33-44.65.12-1.57,15.78-12.29,15.78-12.29,0,0,6.75-3.67,8.05-1.76,1.28,1.91,11.72,9.56,11.72,9.56l3.65,8.48h-.02Z"/>
          <path class="cls-3" d="m2027.11,292.13c-.12-.41.5-2.48.5-2.48,0,0,2.03-2.01,4.45-7.02,2.4-5.01,4.04-6.89,6.84-5.9,2.8,1,5.27,1.91,5.27,1.91,0,0-2.97,8.82-3.58,9.32s-7.8,7.64-8.55,7.82c-.75.18-4.93-3.67-4.93-3.67v.02Z"/>
          <path class="cls-5" d="m2045.32,277.83s-1.82-.57-2.14.43c-.32,1,.25,1.53-3.1,5.06s-4.1,7.71-6.13,8.66c-2.05.94-6.04-.39-6.23-1.99-.2-1.59-2.78.48-3.13,2.03-.36,1.53-1.21,4.72,1.83,5.84s7.84.8,9.42-1.5c1.59-2.32,2.39-4.6,3.21-5.4s.43,1.78,1.03,2.21,1.19-.28,2.19-2.46c.98-2.17,4.13-11.93,3.05-12.88h0Z"/>
          <path class="cls-10" d="m2078.54,178.74c10.63,31.76-17.28,29.12-18.93,34.09-.59,1.76-14.39,63.25-16.46,65.65-2.05,2.4-7.89,2.56-8.23,0-.34-2.56,8.91-79.53,8.91-79.53l-18.88-20.22h53.6Z"/>
          <path class="cls-15" d="m2020.38,176.05c-6.89,21.18,2.99,35.05,27.91,28.55,0,0,1.19-1.55,6.34,4.45,5.15,6,12.52,17.31,21.94,27.77,9.42,10.46,12.17,12.86,14.23,14.23,2.05,1.37,4.63-.85,4.81-3.08.18-2.23-30.33-50.91-34.29-55.36-3.94-4.45-6.34-7.53-22.8-9.08-16.46-1.55-18.15-7.48-18.15-7.48h0Z"/>
          <path class="cls-16" d="m2015.43,145.86h68.72c1.44,0,2.33,1.19,1.98,2.64l-8.8,35.11c-.36,1.44-1.85,2.64-3.3,2.64h-48.47c-1.44,0-2.92-1.19-3.3-2.64l-8.8-35.11c-.36-1.44.52-2.64,1.98-2.64h-.02Z"/>
        </g>
      </g>
    </g>
    <path class="cls-20" d="m1387.37,154.17c3.22,0,3.22-5,0-5s-3.22,5,0,5h0Z"/>
  </g>
</svg>