<svg xmlns="http://www.w3.org/2000/svg" xmlns:xlink="http://www.w3.org/1999/xlink" version="1.1" id="Layer_1" x="0px" y="0px" style="enable-background:new 0 0 866.61 433.6;" xml:space="preserve" viewBox="48.13 37.57 770.35 358.47">
<style type="text/css">
	.st0{fill:url(#SVGID_1_);}
	.st1{fill:url(#SVGID_00000060721540436288784930000014160947659736353701_);}
	.st2{fill:url(#SVGID_00000072988646535697203740000004043764986282430388_);}
	.st3{fill:url(#SVGID_00000096024638398838773770000013129828127170407054_);}
	.st4{fill:url(#SVGID_00000080917596597624702360000003224550388802093960_);}
	.st5{fill:url(#SVGID_00000056389327006434003750000010926259623711523971_);}
	.st6{fill:url(#SVGID_00000021823731436810591260000016897533932617479103_);}
	.st7{fill:url(#SVGID_00000080204373350237201970000018107610129797673145_);}
	.st8{fill:url(#SVGID_00000179614275780826298440000007613973209578352012_);}
	.st9{fill:url(#XMLID_00000045580138238951704320000012065291948687688892_);}
	.st10{fill:url(#SVGID_00000085230729097488031420000015898100472303192204_);}
	.st11{fill:url(#SVGID_00000047056388320451920340000003766235239569798314_);}
	.st12{fill:url(#SVGID_00000132075303366435100540000007967686789100861338_);}
	.st13{fill:url(#SVGID_00000004513195163041211110000012597767893465616040_);}
	.st14{fill:url(#SVGID_00000137814571455865651680000000812849981092999101_);}
	.st15{fill:url(#SVGID_00000129899837928364333530000003887594844901216913_);}
	.st16{fill:url(#SVGID_00000080207475874586517430000005937635034657326500_);}
	.st17{fill:url(#XMLID_00000070098073051554152660000001212965922143315086_);}
	.st18{fill:url(#SVGID_00000008838564715502022820000010535846437333501331_);}
	.st19{fill:url(#SVGID_00000013906903682683278180000013893514514817712570_);}
	.st20{fill:url(#SVGID_00000059302276806596923540000012967102490153277854_);}
	.st21{fill:url(#SVGID_00000018925826330900701620000011010978417474487731_);}
</style>
<g>
	<g>
		<g>
			<g>
				<linearGradient id="SVGID_1_" gradientUnits="userSpaceOnUse" x1="332.8576" y1="270.4474" x2="810.1815" y2="270.4474">
					<stop offset="0" style="stop-color:#68C9D0"/>
					<stop offset="0.1276" style="stop-color:#65C5CC"/>
					<stop offset="0.2514" style="stop-color:#5ABCC2"/>
					<stop offset="0.3736" style="stop-color:#45AEB3"/>
					<stop offset="0.4942" style="stop-color:#199C9F"/>
					<stop offset="0.5" style="stop-color:#149B9E"/>
					<stop offset="0.5844" style="stop-color:#1998A2"/>
					<stop offset="0.7254" style="stop-color:#258FAA"/>
					<stop offset="0.9046" style="stop-color:#3280B5"/>
					<stop offset="1" style="stop-color:#3777BC"/>
				</linearGradient>
				<path class="st0" d="M385.16,313.61h16.56c-3.7-1.94-4.05-4.05-4.05-8.1v-47.74c0-21.84-13.91-30.48-28.89-30.48      c-11.1,0-21.84,5.64-26.96,11.45v-9.86h-12.68c3.7,1.76,4.05,3.87,4.05,8.1v68.52c0,4.05-0.35,6.16-4.05,8.1h16.73      c-3.7-1.94-4.05-4.05-4.05-8.1v-65.53c5.63-6.52,16.38-11.1,25.37-11.1c14.8,0.18,22.02,12.51,22.02,27.13v49.5      C389.03,309.56,388.68,311.67,385.16,313.61z"/>
				
					<linearGradient id="SVGID_00000132784390219763617990000006810239088434924974_" gradientUnits="userSpaceOnUse" x1="332.8576" y1="282.0308" x2="810.1815" y2="282.0308">
					<stop offset="0" style="stop-color:#68C9D0"/>
					<stop offset="0.1276" style="stop-color:#65C5CC"/>
					<stop offset="0.2514" style="stop-color:#5ABCC2"/>
					<stop offset="0.3736" style="stop-color:#45AEB3"/>
					<stop offset="0.4942" style="stop-color:#199C9F"/>
					<stop offset="0.5" style="stop-color:#149B9E"/>
					<stop offset="0.5844" style="stop-color:#1998A2"/>
					<stop offset="0.7254" style="stop-color:#258FAA"/>
					<stop offset="0.9046" style="stop-color:#3280B5"/>
					<stop offset="1" style="stop-color:#3777BC"/>
				</linearGradient>
				<path style="fill:url(#SVGID_00000132784390219763617990000006810239088434924974_);" d="M434.12,313.61h-16.56      c3.53-1.76,4.05-3.87,4.05-8.1v-55.05c2.85,1.16,5.71,1.71,8.46,1.55v53.5C430.07,309.73,430.6,311.85,434.12,313.61z"/>
				
					<linearGradient id="SVGID_00000068674353404275581080000009307010966754961280_" gradientUnits="userSpaceOnUse" x1="332.8576" y1="270.4474" x2="810.1815" y2="270.4474">
					<stop offset="0" style="stop-color:#68C9D0"/>
					<stop offset="0.1276" style="stop-color:#65C5CC"/>
					<stop offset="0.2514" style="stop-color:#5ABCC2"/>
					<stop offset="0.3736" style="stop-color:#45AEB3"/>
					<stop offset="0.4942" style="stop-color:#199C9F"/>
					<stop offset="0.5" style="stop-color:#149B9E"/>
					<stop offset="0.5844" style="stop-color:#1998A2"/>
					<stop offset="0.7254" style="stop-color:#258FAA"/>
					<stop offset="0.9046" style="stop-color:#3280B5"/>
					<stop offset="1" style="stop-color:#3777BC"/>
				</linearGradient>
				<path style="fill:url(#SVGID_00000068674353404275581080000009307010966754961280_);" d="M513.04,238.39      c-3.7-7.22-12.15-11.1-20.08-11.1c-7.92,0-12.51,0.88-15.85,1.41v5.99c3.34-2.11,9.16-6.16,15.85-6.16      c8.11,0,15.5,3.52,19.03,10.57c5.28,10.57,0.18,21.67-8.99,39.46c-3.87,7.75-8.63,17.09-12.34,24.13l-29.77-66.06      c-2.46-5.63,0.88-7.75,1.59-7.75h-17.79c0,0,0.75,0.28,1.82,1.07c1.46,1.08,3.52,3.12,5.05,6.68l34.7,76.98      c0,0,10.75-20.43,17.96-34.7C513.57,260.94,518.5,249.31,513.04,238.39z"/>
				
					<linearGradient id="SVGID_00000039110081399954668430000004358170965124699562_" gradientUnits="userSpaceOnUse" x1="332.8576" y1="271.3276" x2="810.1815" y2="271.3276">
					<stop offset="0" style="stop-color:#68C9D0"/>
					<stop offset="0.1276" style="stop-color:#65C5CC"/>
					<stop offset="0.2514" style="stop-color:#5ABCC2"/>
					<stop offset="0.3736" style="stop-color:#45AEB3"/>
					<stop offset="0.4942" style="stop-color:#199C9F"/>
					<stop offset="0.5" style="stop-color:#149B9E"/>
					<stop offset="0.5844" style="stop-color:#1998A2"/>
					<stop offset="0.7254" style="stop-color:#258FAA"/>
					<stop offset="0.9046" style="stop-color:#3280B5"/>
					<stop offset="1" style="stop-color:#3777BC"/>
				</linearGradient>
				<path style="fill:url(#SVGID_00000039110081399954668430000004358170965124699562_);" d="M588.43,313.61      c-3.52-1.76-4.05-3.87-4.05-8.1v-53.02c0-21.31-14.27-25.2-23.6-25.2c-11.1,0-22.9,4.4-30.82,10.22v7.22      c7.22-9.51,16.73-16.38,28.71-16.38c11.98,0.53,17.97,7.22,17.26,14.97c-1.05,9.34-21.31,17.97-25.72,20.44      c-11.8,6.69-26.42,14.44-29.06,26.42c-3.17,14.8,9.51,25.19,25.9,25.19c11.27,0,21.31-4.4,28.89-12.86v11.1H588.43z       M551.97,313.78c-18.32,0-22.37-14.27-21.14-22.72c1.41-9.16,7.4-14.8,25.02-27.48c6.86-4.93,16.73-10.57,20.08-17.79v55.84      C567.82,310.62,558.84,313.78,551.97,313.78z"/>
				
					<linearGradient id="SVGID_00000072240272102334890830000018260714168983872388_" gradientUnits="userSpaceOnUse" x1="332.8576" y1="270.4166" x2="810.1815" y2="270.4166">
					<stop offset="0" style="stop-color:#68C9D0"/>
					<stop offset="0.1276" style="stop-color:#65C5CC"/>
					<stop offset="0.2514" style="stop-color:#5ABCC2"/>
					<stop offset="0.3736" style="stop-color:#45AEB3"/>
					<stop offset="0.4942" style="stop-color:#199C9F"/>
					<stop offset="0.5" style="stop-color:#149B9E"/>
					<stop offset="0.5844" style="stop-color:#1998A2"/>
					<stop offset="0.7254" style="stop-color:#258FAA"/>
					<stop offset="0.9046" style="stop-color:#3280B5"/>
					<stop offset="1" style="stop-color:#3777BC"/>
				</linearGradient>
				<path style="fill:url(#SVGID_00000072240272102334890830000018260714168983872388_);" d="M631.58,228.88      c-9.86,3.7-13.91,14.09-14.8,17.96v-17.96h-12.51c3.52,1.76,3.87,3.87,4.05,8.1v68.52c-0.18,4.05-0.53,6.16-4.05,8.1h16.56      c-3.7-1.94-4.05-4.05-4.05-8.1v-51.08c0-8.81,4.93-20.78,15.15-24.67c8.46-3.34,17.79,1.24,25.01,5.82v-6.52      C648.67,227.12,638.81,226.23,631.58,228.88z"/>
				
					<linearGradient id="SVGID_00000103226594964335529760000002608494530076502402_" gradientUnits="userSpaceOnUse" x1="332.8576" y1="271.3276" x2="810.1815" y2="271.3276">
					<stop offset="0" style="stop-color:#68C9D0"/>
					<stop offset="0.1276" style="stop-color:#65C5CC"/>
					<stop offset="0.2514" style="stop-color:#5ABCC2"/>
					<stop offset="0.3736" style="stop-color:#45AEB3"/>
					<stop offset="0.4942" style="stop-color:#199C9F"/>
					<stop offset="0.5" style="stop-color:#149B9E"/>
					<stop offset="0.5844" style="stop-color:#1998A2"/>
					<stop offset="0.7254" style="stop-color:#258FAA"/>
					<stop offset="0.9046" style="stop-color:#3280B5"/>
					<stop offset="1" style="stop-color:#3777BC"/>
				</linearGradient>
				<path style="fill:url(#SVGID_00000103226594964335529760000002608494530076502402_);" d="M730.05,313.61      c-3.52-1.76-4.05-3.87-4.05-8.1v-53.02c0-21.31-14.27-25.2-23.61-25.2c-11.1,0-22.9,4.4-30.83,10.22v7.22      c7.22-9.51,16.74-16.38,28.72-16.38c11.98,0.53,17.97,7.22,17.26,14.97c-1.06,9.34-21.31,17.97-25.72,20.44      c-11.81,6.69-26.43,14.44-29.07,26.42c-3.17,14.8,9.52,25.19,25.9,25.19c11.28,0,21.31-4.4,28.89-12.86v11.1H730.05z       M693.59,313.78c-18.32,0-22.37-14.27-21.14-22.72c1.41-9.16,7.4-14.8,25.01-27.48c6.87-4.93,16.73-10.57,20.08-17.79v55.84      C709.45,310.62,700.46,313.78,693.59,313.78z"/>
				
					<linearGradient id="SVGID_00000016051423740491052530000016276437054605537458_" gradientUnits="userSpaceOnUse" x1="332.8576" y1="270.4474" x2="810.1815" y2="270.4474">
					<stop offset="0" style="stop-color:#68C9D0"/>
					<stop offset="0.1276" style="stop-color:#65C5CC"/>
					<stop offset="0.2514" style="stop-color:#5ABCC2"/>
					<stop offset="0.3736" style="stop-color:#45AEB3"/>
					<stop offset="0.4942" style="stop-color:#199C9F"/>
					<stop offset="0.5" style="stop-color:#149B9E"/>
					<stop offset="0.5844" style="stop-color:#1998A2"/>
					<stop offset="0.7254" style="stop-color:#258FAA"/>
					<stop offset="0.9046" style="stop-color:#3280B5"/>
					<stop offset="1" style="stop-color:#3777BC"/>
				</linearGradient>
				<path style="fill:url(#SVGID_00000016051423740491052530000016276437054605537458_);" d="M801.92,313.61h16.56      c-3.7-1.94-4.05-4.05-4.05-8.1v-47.74c0-21.84-13.92-30.48-28.89-30.48c-11.09,0-21.84,5.64-26.95,11.45v-9.86H745.9      c3.7,1.76,4.05,3.87,4.05,8.1v68.52c0,4.05-0.35,6.16-4.05,8.1h16.73c-3.7-1.94-4.05-4.05-4.05-8.1v-65.53      c5.63-6.52,16.38-11.1,25.37-11.1c14.8,0.18,22.02,12.51,22.02,27.13v49.5C805.8,309.56,805.44,311.67,801.92,313.61z"/>
			</g>
			
				<radialGradient id="SVGID_00000099623144927735157410000007511827235393679533_" cx="409.8612" cy="189.3869" r="72.1526" fx="394.2864" fy="189.4065" gradientUnits="userSpaceOnUse">
				<stop offset="0" style="stop-color:#A52E66"/>
				<stop offset="0.1636" style="stop-color:#B63A5E"/>
				<stop offset="0.3887" style="stop-color:#CC4751"/>
				<stop offset="0.5822" style="stop-color:#DD5142"/>
				<stop offset="0.734" style="stop-color:#EA5735"/>
				<stop offset="0.8254" style="stop-color:#F15A31"/>
			</radialGradient>
			<path style="fill:url(#SVGID_00000099623144927735157410000007511827235393679533_);" d="M433.04,245.83     c-0.96,0.41-1.95,0.68-2.96,0.84c-2.72,0.43-5.6,0-8.46-1.16c-7.1-2.86-14.11-10.22-18.3-20.18     c-6.52-15.49-3.78-31.43,6.13-35.59c9.9-4.16,23.21,5.01,29.72,20.5C445.68,225.74,442.94,241.67,433.04,245.83z"/>
		</g>
		<g>
			
				<radialGradient id="SVGID_00000180361189510681840850000008482349776533899424_" cx="128.5441" cy="151.9883" r="120.5135" fx="95.7251" fy="152.7992" gradientUnits="userSpaceOnUse">
				<stop offset="0" style="stop-color:#A52E66"/>
				<stop offset="0.1636" style="stop-color:#B63A5E"/>
				<stop offset="0.3887" style="stop-color:#CC4751"/>
				<stop offset="0.5822" style="stop-color:#DD5142"/>
				<stop offset="0.734" style="stop-color:#EA5735"/>
				<stop offset="0.8254" style="stop-color:#F15A31"/>
			</radialGradient>
			<path style="fill:url(#SVGID_00000180361189510681840850000008482349776533899424_);" d="M166.99,245.59     c1.56-0.63,3.02-1.46,4.38-2.44c3.61-2.63,6.43-6.43,8.39-11.05c4.87-11.45,4.48-27.96-2.16-44.24     c-10.31-25.3-31.78-40.46-47.95-33.87c-16.17,6.6-20.92,32.44-10.6,57.73C129.36,237.03,150.82,252.19,166.99,245.59z"/>
		</g>
		<g>
			
				<radialGradient id="XMLID_00000140014173719049018830000005457764110417029311_" cx="56.3945" cy="248.2981" r="265.1875" gradientUnits="userSpaceOnUse">
				<stop offset="0.1746" style="stop-color:#F15A31"/>
				<stop offset="0.266" style="stop-color:#EA5735"/>
				<stop offset="0.4178" style="stop-color:#DD5142"/>
				<stop offset="0.6113" style="stop-color:#CC4751"/>
				<stop offset="0.8364" style="stop-color:#B63A5E"/>
				<stop offset="1" style="stop-color:#A52E66"/>
			</radialGradient>
			
				<polygon id="XMLID_00000122689368686138623540000007991978395441201335_" style="fill:url(#XMLID_00000140014173719049018830000005457764110417029311_);" points="     56.25,243.36 55.21,239.4 51.12,239.16 54.58,236.95 53.54,232.99 56.71,235.59 60.16,233.38 58.66,237.19 61.83,239.79      57.74,239.55    "/>
			
				<radialGradient id="SVGID_00000133512703269181926170000004789535193608947371_" cx="56.3945" cy="248.2981" r="265.1875" gradientUnits="userSpaceOnUse">
				<stop offset="0.1746" style="stop-color:#F15A31"/>
				<stop offset="0.266" style="stop-color:#EA5735"/>
				<stop offset="0.4178" style="stop-color:#DD5142"/>
				<stop offset="0.6113" style="stop-color:#CC4751"/>
				<stop offset="0.8364" style="stop-color:#B63A5E"/>
				<stop offset="1" style="stop-color:#A52E66"/>
			</radialGradient>
			<polygon style="fill:url(#SVGID_00000133512703269181926170000004789535193608947371_);" points="48.13,207.09 52.93,204.69      52.14,199.38 55.9,203.21 60.71,200.82 58.23,205.58 61.99,209.41 56.7,208.52 54.22,213.28 53.42,207.97    "/>
			
				<radialGradient id="SVGID_00000152263298744548768600000008110368316677995438_" cx="56.3945" cy="248.2981" r="265.1875" gradientUnits="userSpaceOnUse">
				<stop offset="0.1746" style="stop-color:#F15A31"/>
				<stop offset="0.266" style="stop-color:#EA5735"/>
				<stop offset="0.4178" style="stop-color:#DD5142"/>
				<stop offset="0.6113" style="stop-color:#CC4751"/>
				<stop offset="0.8364" style="stop-color:#B63A5E"/>
				<stop offset="1" style="stop-color:#A52E66"/>
			</radialGradient>
			<polygon style="fill:url(#SVGID_00000152263298744548768600000008110368316677995438_);" points="51.03,176.3 57.19,173.72      56.63,167.07 60.99,172.12 67.15,169.54 63.69,175.25 68.05,180.3 61.55,178.78 58.09,184.48 57.53,177.83    "/>
			
				<radialGradient id="SVGID_00000001632320663511268710000018144349889923581593_" cx="56.3945" cy="248.2981" r="265.1387" gradientUnits="userSpaceOnUse">
				<stop offset="0.1746" style="stop-color:#F15A31"/>
				<stop offset="0.266" style="stop-color:#EA5735"/>
				<stop offset="0.4178" style="stop-color:#DD5142"/>
				<stop offset="0.6113" style="stop-color:#CC4751"/>
				<stop offset="0.8364" style="stop-color:#B63A5E"/>
				<stop offset="1" style="stop-color:#A52E66"/>
			</radialGradient>
			<polygon style="fill:url(#SVGID_00000001632320663511268710000018144349889923581593_);" points="59.96,147.44 67.46,144.67      67.15,136.67 72.1,142.96 79.61,140.19 75.17,146.84 80.12,153.13 72.42,150.95 67.97,157.61 67.66,149.61    "/>
			
				<radialGradient id="SVGID_00000085216535497513923940000011428230455906298020_" cx="56.3945" cy="248.2981" r="265.1875" gradientUnits="userSpaceOnUse">
				<stop offset="0.1746" style="stop-color:#F15A31"/>
				<stop offset="0.266" style="stop-color:#EA5735"/>
				<stop offset="0.4178" style="stop-color:#DD5142"/>
				<stop offset="0.6113" style="stop-color:#CC4751"/>
				<stop offset="0.8364" style="stop-color:#B63A5E"/>
				<stop offset="1" style="stop-color:#A52E66"/>
			</radialGradient>
			<polygon style="fill:url(#SVGID_00000085216535497513923940000011428230455906298020_);" points="74.73,121.19 83.59,118.23      83.51,108.89 89.07,116.4 97.93,113.44 92.5,121.04 98.05,128.56 89.14,125.74 83.71,133.35 83.64,124    "/>
			
				<radialGradient id="SVGID_00000042708822040957082220000013359340035803424663_" cx="56.3945" cy="248.2981" r="265.1875" gradientUnits="userSpaceOnUse">
				<stop offset="0.1746" style="stop-color:#F15A31"/>
				<stop offset="0.266" style="stop-color:#EA5735"/>
				<stop offset="0.4178" style="stop-color:#DD5142"/>
				<stop offset="0.6113" style="stop-color:#CC4751"/>
				<stop offset="0.8364" style="stop-color:#B63A5E"/>
				<stop offset="1" style="stop-color:#A52E66"/>
			</radialGradient>
			<polygon style="fill:url(#SVGID_00000042708822040957082220000013359340035803424663_);" points="95.17,98.23 105.38,95.09      105.55,84.4 111.7,93.14 121.91,89.99 115.5,98.54 121.65,107.28 111.53,103.83 105.12,112.38 105.28,101.69    "/>
			
				<radialGradient id="SVGID_00000014606585990844041080000000346029110795788182_" cx="56.3945" cy="248.2981" r="265.1875" gradientUnits="userSpaceOnUse">
				<stop offset="0.1746" style="stop-color:#F15A31"/>
				<stop offset="0.266" style="stop-color:#EA5735"/>
				<stop offset="0.4178" style="stop-color:#DD5142"/>
				<stop offset="0.6113" style="stop-color:#CC4751"/>
				<stop offset="0.8364" style="stop-color:#B63A5E"/>
				<stop offset="1" style="stop-color:#A52E66"/>
			</radialGradient>
			<polygon style="fill:url(#SVGID_00000014606585990844041080000000346029110795788182_);" points="121.1,79.26 132.66,75.92      133.06,63.89 139.81,73.86 151.37,70.52 143.98,80.02 150.72,89.99 139.41,85.89 132.01,95.39 132.41,83.36    "/>
			
				<radialGradient id="SVGID_00000181086482029301106040000006224182703330860160_" cx="56.3945" cy="248.2981" r="265.1875" gradientUnits="userSpaceOnUse">
				<stop offset="0.1746" style="stop-color:#F15A31"/>
				<stop offset="0.266" style="stop-color:#EA5735"/>
				<stop offset="0.4178" style="stop-color:#DD5142"/>
				<stop offset="0.6113" style="stop-color:#CC4751"/>
				<stop offset="0.8364" style="stop-color:#B63A5E"/>
				<stop offset="1" style="stop-color:#A52E66"/>
			</radialGradient>
			<polygon style="fill:url(#SVGID_00000181086482029301106040000006224182703330860160_);" points="152.32,64.95 165.23,61.43      165.87,48.05 173.22,59.25 186.13,55.72 177.76,66.17 185.1,77.36 172.58,72.62 164.2,83.06 164.84,69.69    "/>
			
				<radialGradient id="XMLID_00000120552332074198694000000003976740511772681616_" cx="56.3945" cy="248.2981" r="265.1875" gradientUnits="userSpaceOnUse">
				<stop offset="0.1746" style="stop-color:#F15A31"/>
				<stop offset="0.266" style="stop-color:#EA5735"/>
				<stop offset="0.4178" style="stop-color:#DD5142"/>
				<stop offset="0.6113" style="stop-color:#CC4751"/>
				<stop offset="0.8364" style="stop-color:#B63A5E"/>
				<stop offset="1" style="stop-color:#A52E66"/>
			</radialGradient>
			
				<polygon id="XMLID_00000038375576182591741560000009753895293341209494_" style="fill:url(#XMLID_00000120552332074198694000000003976740511772681616_);" points="     188.65,56 202.92,52.28 203.8,37.57 211.74,49.99 226.01,46.27 216.65,57.67 224.59,70.09 210.86,64.71 201.5,76.1 202.38,61.38         "/>
		</g>
	</g>
	<g>
		<g>
			<g>
				
					<radialGradient id="SVGID_00000096758835923786689820000008269449264057684400_" cx="130.4589" cy="368.1404" r="259.8138" gradientUnits="userSpaceOnUse">
					<stop offset="0" style="stop-color:#68C9D0"/>
					<stop offset="0.1276" style="stop-color:#65C5CC"/>
					<stop offset="0.2514" style="stop-color:#5ABCC2"/>
					<stop offset="0.3736" style="stop-color:#45AEB3"/>
					<stop offset="0.4942" style="stop-color:#199C9F"/>
					<stop offset="0.5" style="stop-color:#149B9E"/>
					<stop offset="0.5844" style="stop-color:#1998A2"/>
					<stop offset="0.7254" style="stop-color:#258FAA"/>
					<stop offset="0.9046" style="stop-color:#3280B5"/>
					<stop offset="1" style="stop-color:#3777BC"/>
				</radialGradient>
				<path style="fill:url(#SVGID_00000096758835923786689820000008269449264057684400_);" d="M195.72,388.64      c-10.65-24.69-35-42.08-63.47-42.6c0.09,0,0.2-0.01,0.31-0.01c22.89-0.92,36.31-8.1,36.31-8.1      c-36.08-0.92-58.05-4.38-58.05-8.55c0-4.17,28.9-3.24,33.99-28.21c4.75-23.36-20.62-56.02-23.91-60.15      C163.1,277.41,191.14,329.73,195.72,388.64z"/>
			</g>
			<g>
				
					<radialGradient id="SVGID_00000116225817456266692570000017955906474356644772_" cx="110.6013" cy="393.2935" r="259.8138" gradientUnits="userSpaceOnUse">
					<stop offset="0" style="stop-color:#68C9D0"/>
					<stop offset="0.1276" style="stop-color:#65C5CC"/>
					<stop offset="0.2514" style="stop-color:#5ABCC2"/>
					<stop offset="0.3736" style="stop-color:#45AEB3"/>
					<stop offset="0.4942" style="stop-color:#199C9F"/>
					<stop offset="0.5" style="stop-color:#149B9E"/>
					<stop offset="0.5844" style="stop-color:#1998A2"/>
					<stop offset="0.7254" style="stop-color:#258FAA"/>
					<stop offset="0.9046" style="stop-color:#3280B5"/>
					<stop offset="1" style="stop-color:#3777BC"/>
				</radialGradient>
				<circle style="fill:url(#SVGID_00000116225817456266692570000017955906474356644772_);" cx="117.52" cy="296.78" r="16.42"/>
			</g>
		</g>
		<g>
			<g>
				
					<radialGradient id="SVGID_00000024718925253404113960000010768518505177497263_" cx="110.6013" cy="393.2935" r="259.8138" gradientUnits="userSpaceOnUse">
					<stop offset="0" style="stop-color:#68C9D0"/>
					<stop offset="0.1276" style="stop-color:#65C5CC"/>
					<stop offset="0.2514" style="stop-color:#5ABCC2"/>
					<stop offset="0.3736" style="stop-color:#45AEB3"/>
					<stop offset="0.4942" style="stop-color:#199C9F"/>
					<stop offset="0.5" style="stop-color:#149B9E"/>
					<stop offset="0.5844" style="stop-color:#1998A2"/>
					<stop offset="0.7254" style="stop-color:#258FAA"/>
					<stop offset="0.9046" style="stop-color:#3280B5"/>
					<stop offset="1" style="stop-color:#3777BC"/>
				</radialGradient>
				<path style="fill:url(#SVGID_00000024718925253404113960000010768518505177497263_);" d="M221.97,396.04      c-2.94-44.67,19.97-88.9,61.77-111.26c-0.14,0.07-0.31,0.13-0.46,0.22c-34.63,15.99-59.95,15.53-59.95,15.53      c52.78-28.73,82.71-50.51,79.55-56.68c-3.16-6.18-45.29,17.11-71.77-16.04c-24.75-31.01-11.91-98.67-10.17-107.28      C185.98,206.44,184.08,305.26,221.97,396.04z"/>
			</g>
			<g>
				
					<radialGradient id="SVGID_00000026149635735119984240000007253412453247859600_" cx="110.6013" cy="393.2935" r="259.8138" gradientUnits="userSpaceOnUse">
					<stop offset="0" style="stop-color:#68C9D0"/>
					<stop offset="0.1276" style="stop-color:#65C5CC"/>
					<stop offset="0.2514" style="stop-color:#5ABCC2"/>
					<stop offset="0.3736" style="stop-color:#45AEB3"/>
					<stop offset="0.4942" style="stop-color:#199C9F"/>
					<stop offset="0.5" style="stop-color:#149B9E"/>
					<stop offset="0.5844" style="stop-color:#1998A2"/>
					<stop offset="0.7254" style="stop-color:#258FAA"/>
					<stop offset="0.9046" style="stop-color:#3280B5"/>
					<stop offset="1" style="stop-color:#3777BC"/>
				</radialGradient>
				<circle style="fill:url(#SVGID_00000026149635735119984240000007253412453247859600_);" cx="268.21" cy="200.59" r="27.33"/>
			</g>
		</g>
	</g>
</g>
</svg>