<svg xmlns="http://www.w3.org/2000/svg" xmlns:lucid="lucid" width="144.96" height="139.5"><g lucid:page-tab-id="0_0"><path d="M-2900.73-11801.02h4500v13000h-4500z" fill="#fff"/><path d="M72.48 0C32.45 0 0 31.23 0 69.75c0 38.52 32.45 69.75 72.48 69.75s72.48-31.23 72.48-69.75C144.96 31.23 112.5 0 72.48 0zm0 20.93c28.02 0 50.74 21.85 50.74 48.82s-22.72 48.83-50.74 48.83c-28.02 0-50.74-21.86-50.74-48.83s22.72-48.82 50.74-48.82z" stroke="#000" stroke-opacity="0" stroke-width="2" fill="#cfe4ff"/><path d="M72.48 0c40.03 0 72.48 31.23 72.48 69.75 0 38.52-32.45 69.75-72.48 69.75S0 108.27 0 69.75C0 34.6 26.34 5.5 62.5.65l3 20.74c-25.32 3.38-43.76 23.76-43.76 48.35 0 26.97 22.72 48.83 50.74 48.83 28.02 0 50.74-21.86 50.74-48.83S100.5 20.93 72.48 20.93z" stroke="#000" stroke-opacity="0" stroke-width="2" fill="#cc4e00"/></g></svg>