<svg width="80" height="24" viewBox="0 0 80 24" fill="none" xmlns="http://www.w3.org/2000/svg">
<g clip-path="url(#clip0_235_2271)">
<path d="M26.9517 19.5278H28.9774C28.5248 19.2905 28.482 19.0324 28.482 18.5369V12.6972C28.482 10.0256 26.7805 8.96875 24.9481 8.96875C23.5903 8.96875 22.2765 9.65866 21.6502 10.3694V9.16325H20.0991C20.5517 9.37854 20.5945 9.63664 20.5945 10.1541V18.5357C20.5945 19.0311 20.5517 19.2892 20.0991 19.5265H22.1456C21.693 19.2892 21.6502 19.0311 21.6502 18.5357V10.5198C22.3389 9.72227 23.6539 9.16202 24.7536 9.16202C26.564 9.18404 27.4471 10.6923 27.4471 12.4807V18.5357C27.4251 19.0311 27.3823 19.2892 26.9517 19.5265V19.5278Z" fill="white"/>
<path d="M32.9419 19.5295H30.9163C31.3481 19.3142 31.4117 19.0561 31.4117 18.5386V11.8047C31.7603 11.9466 32.1101 12.0139 32.4465 11.9943V18.5386C32.4465 19.0561 32.5114 19.3142 32.9419 19.5295Z" fill="white"/>
<path d="M42.5945 10.3265C42.1419 9.44337 41.1083 8.96875 40.1382 8.96875C39.1682 8.96875 38.608 9.0764 38.1994 9.14123V9.87395C38.608 9.61585 39.3199 9.12043 40.1382 9.12043C41.1303 9.12043 42.0343 9.55101 42.4661 10.4134C43.1119 11.7064 42.4881 13.0642 41.3664 15.2403C40.893 16.1883 40.3107 17.3308 39.8569 18.192L36.2153 10.1113C35.9144 9.42257 36.3229 9.16325 36.4098 9.16325H34.2336C34.2336 9.16325 34.3254 9.1975 34.4563 9.29413C34.6349 9.42624 34.8869 9.67579 35.074 10.1113L39.3187 19.5278C39.3187 19.5278 40.6336 17.0287 41.5156 15.2831C42.6581 13.0862 43.2612 11.6636 42.5933 10.3265H42.5945Z" fill="white"/>
<path d="M51.8166 19.5278C51.386 19.3125 51.3212 19.0544 51.3212 18.5369V12.0513C51.3212 9.44459 49.5756 8.96875 48.4343 8.96875C47.0765 8.96875 45.6331 9.50698 44.6643 10.2189V11.1021C45.5475 9.93878 46.7108 9.09841 48.1762 9.09841C49.6416 9.16325 50.3744 9.98159 50.2875 10.9296C50.1591 12.0721 47.6808 13.1278 47.1413 13.4299C45.6979 14.2483 43.9095 15.1963 43.5866 16.6617C43.1988 18.4721 44.7499 19.7431 46.7548 19.7431C48.1334 19.7431 49.3615 19.2048 50.2887 18.17V19.5278H51.819H51.8166ZM47.3566 19.5498C45.1157 19.5498 44.6202 17.8042 44.7707 16.7706C44.9432 15.6501 45.6759 14.9602 47.8312 13.4091C48.6704 12.8061 49.8777 12.1162 50.2875 11.233V18.0635C49.2967 19.1632 48.197 19.5498 47.3566 19.5498Z" fill="white"/>
<path d="M57.096 9.164C55.8899 9.6166 55.3945 10.8875 55.2856 11.3609V9.164H53.7554C54.186 9.37929 54.2288 9.6374 54.2508 10.1548V18.5365C54.2288 19.0319 54.186 19.29 53.7554 19.5273H55.7811C55.3285 19.29 55.2856 19.0319 55.2856 18.5365V12.2882C55.2856 11.2105 55.8887 9.74626 57.1389 9.27042C58.1737 8.86186 59.315 9.4221 60.1982 9.98235V9.1848C59.1853 8.94749 57.9792 8.83984 57.0948 9.16278L57.096 9.164Z" fill="white"/>
<path d="M69.1412 19.5278C68.7107 19.3125 68.6458 19.0544 68.6458 18.5369V12.0513C68.6458 9.44459 66.9003 8.96875 65.7578 8.96875C64.4 8.96875 62.9565 9.50698 61.9865 10.2189V11.1021C62.8697 9.93878 64.0342 9.09841 65.4997 9.09841C66.9651 9.16325 67.6978 9.98159 67.611 10.9296C67.4813 12.0721 65.0042 13.1278 64.4648 13.4299C63.0201 14.2483 61.2318 15.1963 60.9088 16.6617C60.5211 18.4721 62.0734 19.7431 64.077 19.7431C65.4568 19.7431 66.6837 19.2048 67.611 18.17V19.5278H69.1412ZM64.6801 19.5498C62.4391 19.5498 61.9437 17.8042 62.0941 16.7706C62.2666 15.6501 62.9993 14.9602 65.1535 13.4091C65.9938 12.8061 67.2 12.1162 67.6097 11.233V18.0635C66.6189 19.1632 65.5192 19.5498 64.6789 19.5498H64.6801Z" fill="white"/>
<path d="M77.9327 19.5278H79.9584C79.5058 19.2905 79.4629 19.0324 79.4629 18.5369V12.6972C79.4629 10.0256 77.7602 8.96875 75.929 8.96875C74.5724 8.96875 73.2574 9.65866 72.6324 10.3694V9.16325H71.0813C71.5339 9.37854 71.5767 9.63664 71.5767 10.1541V18.5357C71.5767 19.0311 71.5339 19.2892 71.0813 19.5265H73.1278C72.6752 19.2892 72.6324 19.0311 72.6324 18.5357V10.5198C73.3211 9.72227 74.636 9.16202 75.7357 9.16202C77.5461 9.18404 78.4293 10.6923 78.4293 12.4807V18.5357C78.4073 19.0311 78.3645 19.2892 77.9339 19.5265L77.9327 19.5278Z" fill="white"/>
<path d="M32.8085 11.2376C32.6911 11.2878 32.57 11.3208 32.4464 11.3404C32.1137 11.393 31.7614 11.3404 31.4116 11.1985C30.5431 10.8487 29.6856 9.94835 29.173 8.73C28.3755 6.8352 28.7107 4.88536 29.9229 4.37649C31.1339 3.86762 32.762 4.98933 33.5584 6.88413C34.3559 8.77893 34.0207 10.7276 32.8085 11.2364V11.2376Z" fill="white"/>
<path d="M8.00373 13.9261C8.10893 13.8832 8.20679 13.8282 8.29731 13.7634C8.53951 13.5872 8.72789 13.3328 8.85878 13.0233C9.18538 12.2563 9.15847 11.1505 8.71444 10.0606C8.02331 8.36643 6.586 7.35114 5.50343 7.79273C4.42086 8.23432 4.10282 9.9652 4.79395 11.6594C5.48508 13.3536 6.92239 14.3689 8.00496 13.9273L8.00373 13.9261Z" fill="white"/>
<path d="M0.585916 13.7775L0.517415 13.5118L0.243408 13.4959L0.474601 13.3477L0.404876 13.082L0.616497 13.2571L0.84769 13.109L0.747384 13.3649L0.960228 13.5388L0.686222 13.5228L0.585916 13.7775Z" fill="white"/>
<path d="M0.0427246 11.3488L0.364438 11.1884L0.310615 10.832L0.562602 11.0892L0.884315 10.9288L0.719177 11.2484L0.969942 11.5043L0.616425 11.4455L0.450064 11.7639L0.397465 11.4088L0.0427246 11.3488Z" fill="white"/>
<path d="M0.237305 9.28693L0.649537 9.11323L0.611616 8.66797L0.903971 9.00681L1.3162 8.83311L1.08379 9.21598L1.37614 9.55482L0.940669 9.45207L0.709476 9.83372L0.671555 9.38846L0.237305 9.28693Z" fill="white"/>
<path d="M0.834229 7.3533L1.33698 7.16859L1.31619 6.63281L1.64768 7.05361L2.15044 6.86767L1.85319 7.31293L2.18469 7.73495L1.6697 7.58939L1.37123 8.03465L1.35044 7.49887L0.834229 7.3533Z" fill="white"/>
<path d="M1.82373 5.59473L2.417 5.39656L2.41211 4.77148L2.78397 5.27424L3.37725 5.07607L3.01394 5.58494L3.38581 6.08769L2.78887 5.89931L2.42557 6.4094L2.42067 5.78311L1.82373 5.59473Z" fill="white"/>
<path d="M3.19263 4.05685L3.87764 3.84646L3.88743 3.13086L4.29966 3.71557L4.98345 3.50517L4.55409 4.07765L4.96633 4.66236L4.28865 4.43117L3.85929 5.00364L3.8703 4.28805L3.19263 4.05685Z" fill="white"/>
<path d="M4.92969 2.78656L5.704 2.56271L5.73091 1.75781L6.18229 2.4257L6.9566 2.20185L6.46241 2.83793L6.91379 3.50583L6.15538 3.2306L5.66119 3.86668L5.68687 3.06179L4.92969 2.78656Z" fill="white"/>
<path d="M7.02002 1.82876L7.88485 1.59268L7.92766 0.697266L8.42063 1.44589L9.28546 1.2098L8.724 1.9095L9.21574 2.65934L8.37782 2.34253L7.81635 3.04222L7.85916 2.14558L7.02002 1.82876Z" fill="white"/>
<path d="M9.45435 1.22839L10.4097 0.980073L10.4684 -0.00585938L11.0005 0.825945L11.9559 0.577626L11.3284 1.34093L11.8605 2.17273L10.9418 1.81188L10.3143 2.57518L10.373 1.58925L9.45435 1.22839Z" fill="white"/>
<path d="M9.92782 23.5081C9.21467 21.8542 7.58408 20.6897 5.67705 20.6555C5.68317 20.6555 5.69051 20.6555 5.69785 20.6555C7.23179 20.5943 8.12965 20.1136 8.12965 20.1136C5.71253 20.0524 4.24219 19.82 4.24219 19.5411C4.24219 19.2622 6.17736 19.3246 6.51864 17.6512C6.83668 16.0867 5.1376 13.8995 4.91742 13.623C7.74311 16.0597 9.62201 19.5643 9.92782 23.5093V23.5081Z" fill="white"/>
<path d="M4.68978 18.4552C5.29713 18.4552 5.78948 17.9629 5.78948 17.3556C5.78948 16.7482 5.29713 16.2559 4.68978 16.2559C4.08244 16.2559 3.59009 16.7482 3.59009 17.3556C3.59009 17.9629 4.08244 18.4552 4.68978 18.4552Z" fill="white"/>
<path d="M11.6855 24.0034C11.4886 21.0113 13.0225 18.0486 15.8225 16.5514C15.8128 16.5563 15.8018 16.56 15.792 16.5661C13.4727 17.6376 11.7761 17.6058 11.7761 17.6058C15.3112 15.6817 17.3149 14.2223 17.1045 13.8101C16.8941 13.3979 14.0709 14.9563 12.2972 12.7361C10.6397 10.659 11.4996 6.12693 11.6158 5.55078C9.27453 11.3049 9.14732 17.9239 11.6855 24.0034Z" fill="white"/>
<path d="M14.7829 12.7444C15.7942 12.7444 16.614 11.9246 16.614 10.9132C16.614 9.90188 15.7942 9.08203 14.7829 9.08203C13.7715 9.08203 12.9517 9.90188 12.9517 10.9132C12.9517 11.9246 13.7715 12.7444 14.7829 12.7444Z" fill="white"/>
</g>
<defs>
<clipPath id="clip0_235_2271">
<rect width="80" height="23.9755" fill="white" transform="translate(0 0.0117188)"/>
</clipPath>
</defs>
</svg>
