<?xml version="1.0" encoding="UTF-8"?>
<svg xmlns="http://www.w3.org/2000/svg" xmlns:xlink="http://www.w3.org/1999/xlink" viewBox="0 0 467.22 392.46">
  <defs>
    <style>
      .cls-1 {
        mix-blend-mode: multiply;
        opacity: .4;
      }

      .cls-2 {
        fill: #a65b3c;
      }

      .cls-3 {
        fill: #e1e6eb;
      }

      .cls-4 {
        fill: #fff;
      }

      .cls-5 {
        fill: #d56e10;
      }

      .cls-6 {
        fill: #e43f5a;
      }

      .cls-7 {
        isolation: isolate;
      }

      .cls-8 {
        fill: #ff9a6c;
      }

      .cls-9 {
        fill: #f0f2f5;
      }

      .cls-10 {
        fill: #1f4068;
      }

      .cls-11 {
        fill: #1b1a2e;
      }

      .cls-12 {
        fill: #1f4168;
      }

      .cls-13 {
        fill: #1b1b2f;
      }

      .cls-14 {
        clip-path: url(#clippath);
      }

      .cls-15 {
        fill: none;
      }

      .cls-16 {
        fill: #112e4c;
      }

      .cls-17 {
        fill: #ffc89f;
      }

      .cls-18 {
        fill: #f9a21b;
      }
    </style>
    <clipPath id="clippath">
      <rect class="cls-15" width="467.22" height="392.46"/>
    </clipPath>
  </defs>
  <g class="cls-7">
    <g id="Layer_1" data-name="Layer 1">
      <g>
        <g class="cls-14">
          <g>
            <path class="cls-9" d="m340.31,130.72c.28.08.57.17.86.24.2.06.41.11.62.16.04.02.09.03.13.04.15.04.3.07.44.1.04.01.08.02.11.02.07.02.14.03.22.05,0,0,0,0,0,0,.25.06.5.11.75.16.15.03.31.06.47.09,0,0,0,0,0,0,0,0,0,0,0,0,.39.07.78.14,1.18.19.13.02.27.04.39.06h.03c.34.05.67.08,1,.12.71.07,1.41.11,2.12.14.33.01.67.02,1,.02,0,0,.02,0,.03,0,.14,0,.27,0,.4,0,.12,0,.24,0,.36,0,.16,0,.31,0,.47-.01.34-.01.68-.03,1.02-.06.39-.02.77-.05,1.16-.09,0,0,0,0,0,0l7.6,15.36,18.31-9.05-7.29-14.75h0c.06-.06.12-.12.18-.17.13-.13.27-.26.4-.38.13-.12.25-.24.36-.36.16-.15.31-.31.46-.47.06-.07.13-.13.19-.2.02,0,.03-.03.04-.04.18-.18.35-.38.52-.57.04-.04.08-.09.12-.13.13-.15.26-.31.4-.46.1-.11.19-.23.28-.34.01-.02.02-.03.03-.04.07-.07.13-.15.18-.22.14-.17.27-.33.4-.5.02-.04.05-.07.08-.11.01-.02.03-.04.05-.06.13-.17.26-.34.39-.52.04-.05.07-.1.11-.15.13-.17.25-.35.37-.53.05-.06.08-.12.13-.18.14-.2.28-.41.42-.62.19-.29.38-.59.56-.89.13-.22.26-.44.39-.66.01-.03.03-.06.05-.08.04-.05.07-.1.09-.16.15-.26.3-.53.43-.79.17-.32.34-.64.49-.96.17-.34.34-.69.49-1.04l17.1,1.1,1.31-20.38-16.43-1.06s-.01-.07-.02-.1c-.08-.38-.18-.76-.28-1.13-.08-.28-.16-.57-.25-.85-.03-.09-.05-.17-.08-.26,0,0,0,0,0,0-.08-.25-.15-.5-.24-.74-.08-.26-.17-.51-.26-.76,0,0,0,0,0,0-.03-.08-.05-.15-.08-.23,0-.02-.02-.04-.03-.07,0,0,0,0,0,0-.07-.18-.13-.36-.2-.53-.04-.1-.08-.2-.12-.3,0,0,0,0,0,0-.03-.07-.06-.14-.09-.22-.01-.04-.03-.08-.05-.12-.04-.1-.09-.2-.13-.31,0,0,0,0,0,0-.09-.2-.17-.4-.27-.6-.08-.19-.18-.38-.27-.57,0,0,0,0,0,0-.07-.14-.13-.29-.2-.43-.07-.16-.15-.32-.23-.47-.02-.05-.05-.1-.08-.15-.07-.14-.14-.27-.21-.4-.08-.16-.17-.32-.26-.48-.05-.09-.1-.17-.14-.25-.1-.18-.2-.35-.31-.52-.08-.13-.16-.26-.24-.39-.04-.08-.09-.16-.15-.24,0-.01,0-.03-.02-.04-.07-.12-.15-.25-.24-.38-.1-.17-.22-.34-.33-.5-.03-.05-.06-.1-.11-.15-.14-.21-.28-.4-.43-.6,0-.01,0-.02-.02-.03,0-.02-.02-.03-.03-.05,0-.02-.02-.03-.04-.05,0,0,0,0,0,0l9.51-14.27-17-11.33-9.13,13.7s0,0,0,0c-.09-.03-.18-.06-.27-.08-1.7-.51-3.43-.88-5.17-1.11-1.39-.18-2.78-.27-4.18-.27-.25,0-.49.01-.74.02-.19,0-.38,0-.57.02,0,0,0,0,0,0,0,0,0,0,0,0-.24.01-.49.02-.73.04-.14,0-.29.02-.43.03,0,0,0,0,0,0-.13,0-.26.02-.39.03-.06,0-.11.01-.17.02-.13.01-.25.02-.38.03l-7.6-15.37-18.31,9.05,7.3,14.76h0s-.08.07-.1.1c-.17.16-.34.32-.51.49-.1.1-.2.19-.3.3-.06.06-.12.12-.17.17-.15.15-.29.29-.43.45-.04.04-.08.08-.11.11-.22.23-.43.46-.63.69-.16.18-.32.37-.47.55,0,.01-.02.02-.03.03-.06.08-.13.15-.19.23-.07.08-.14.17-.2.25-.14.17-.27.34-.4.51-.04.04-.07.09-.1.13-.11.15-.22.29-.33.43-.11.15-.22.29-.32.44,0,.01-.01.02-.02.03-.08.11-.17.22-.25.34-.05.07-.1.15-.16.22-.13.19-.27.39-.39.59-.19.29-.38.59-.56.89-.15.25-.3.49-.44.75-.17.3-.34.6-.5.9-.01.04-.03.07-.05.1-.01.03-.03.05-.04.07-.14.26-.27.52-.39.78-.03.05-.06.11-.08.16-.14.29-.28.58-.41.87-.01.02-.02.04-.03.06,0,0,0,0,0,0l-17.1-1.1-1.31,20.38,16.43,1.06s0,0,0,0c.03.12.05.24.09.37.06.29.14.58.22.87.08.31.17.61.26.91,0,.03.01.05.02.07.08.27.16.53.25.79,0,.03.02.05.02.07.08.25.16.5.26.74.03.09.06.17.09.26.04.12.08.24.14.36.07.21.15.4.24.61.03.09.07.17.11.26.08.2.16.41.26.61.04.09.08.18.12.26,0,.02,0,.03.02.04.15.34.31.67.47,1,.1.21.2.42.31.62.06.12.13.25.2.37.06.12.12.24.2.36.11.2.23.4.34.6,0,.01,0,.02.01.03.13.23.27.46.41.68.05.09.11.18.17.27.05.09.11.17.16.25,0,.01.02.02.02.04.13.2.26.41.4.61.19.29.39.58.61.87l-9.51,14.27,17,11.33,9.13-13.69c.09.03.18.06.27.08Zm-4.38-24.28c-3.75-7.58-.64-16.77,6.94-20.52,7.58-3.74,16.77-.64,20.52,6.94,3.74,7.58.64,16.76-6.94,20.51-7.58,3.75-16.76.65-20.51-6.94Z"/>
            <path class="cls-9" d="m80.81,140.1c.29.01.59.03.89.03.21.01.43.01.64,0,.05,0,.09,0,.13,0,.15,0,.3,0,.45,0,.04,0,.08,0,.11,0,.07,0,.15,0,.22,0,0,0,0,0,0,0,.26,0,.51-.01.76-.03.16,0,.31-.02.47-.03,0,0,0,0,0,0,0,0,0,0,0,0,.39-.02.79-.05,1.18-.09.13,0,.27-.03.4-.04h.03c.33-.04.66-.09,1-.13.7-.1,1.39-.23,2.08-.37.32-.07.65-.14.97-.22,0,0,.01,0,.03,0,.13-.03.26-.06.39-.1.12-.03.23-.06.34-.09.15-.04.3-.08.45-.12.33-.09.65-.19.97-.3.37-.12.73-.24,1.1-.37,0,0,0,0,0,0l11.01,13.03,15.52-13.12-10.57-12.51h0c.05-.07.09-.14.13-.21.1-.16.2-.31.3-.47.1-.14.18-.29.26-.44.12-.19.23-.37.33-.56.05-.08.09-.16.13-.24.01-.01.02-.03.03-.04.13-.22.25-.45.37-.67.03-.05.06-.1.09-.16.09-.18.18-.36.27-.53.07-.13.13-.27.19-.4,0-.02.02-.03.02-.04.05-.09.09-.18.12-.26.09-.19.18-.38.27-.58.01-.04.03-.08.05-.13,0-.02.02-.05.03-.07.09-.19.17-.39.25-.59.02-.05.05-.11.07-.17.08-.2.16-.4.23-.6.03-.07.05-.14.08-.21.09-.23.18-.47.25-.7.12-.32.23-.66.33-.99.08-.25.15-.48.22-.73,0-.03.02-.06.03-.09.02-.06.04-.12.05-.17.09-.29.16-.58.23-.87.09-.35.17-.7.24-1.05.09-.37.16-.75.23-1.12l16.78-3.02-3.6-20.01-16.12,2.9s-.03-.07-.04-.1c-.17-.35-.36-.69-.54-1.03-.15-.25-.29-.51-.44-.76-.05-.08-.09-.15-.14-.23,0,0,0,0,0,0-.13-.22-.27-.44-.41-.66-.14-.23-.29-.45-.44-.67,0,0,0,0,0,0-.05-.07-.09-.14-.13-.21-.01-.02-.03-.04-.04-.06,0,0,0,0,0,0-.11-.16-.21-.31-.32-.47-.06-.09-.12-.17-.19-.26,0,0,0,0,0,0-.05-.06-.09-.13-.14-.19-.02-.04-.05-.07-.07-.1-.07-.09-.14-.18-.2-.26,0,0,0,0,0,0-.13-.17-.26-.35-.4-.52-.13-.17-.26-.32-.39-.48,0,0,0,0,0,0-.1-.12-.2-.25-.3-.37-.11-.14-.22-.27-.34-.4-.04-.04-.07-.09-.11-.13-.1-.11-.2-.23-.3-.34-.12-.13-.24-.27-.36-.4-.07-.07-.14-.14-.2-.21-.14-.15-.28-.29-.42-.43-.11-.11-.22-.21-.32-.32-.06-.07-.13-.14-.21-.2,0,0-.02-.02-.03-.03-.1-.1-.21-.21-.32-.31-.14-.14-.29-.27-.44-.41-.04-.04-.09-.08-.14-.12-.18-.17-.37-.32-.55-.48,0-.01,0-.02-.03-.03,0-.02-.03-.03-.05-.04-.01-.01-.03-.03-.05-.04,0,0,0,0,0,0l5.78-16.05-19.13-6.88-5.55,15.41s0,0,0,0c-.1-.01-.18-.02-.28-.02-1.77-.09-3.53-.03-5.26.16-1.38.16-2.75.41-4.1.74-.24.06-.47.13-.71.2-.18.05-.36.1-.54.15,0,0,0,0,0,0,0,0,0,0,0,0-.23.07-.47.14-.7.21-.13.04-.27.09-.41.13,0,0,0,0,0,0-.12.04-.24.08-.37.12-.05.02-.1.04-.16.06-.12.04-.24.08-.36.12l-11.01-13.03-15.52,13.12,10.57,12.51h0s-.06.08-.08.12c-.13.19-.25.39-.38.59-.08.12-.15.24-.22.36-.04.07-.08.14-.12.21-.11.18-.21.35-.31.54-.03.04-.06.09-.08.13-.16.27-.31.55-.45.82-.11.22-.22.43-.33.65,0,.01-.01.03-.02.04-.04.09-.09.18-.13.27-.04.1-.09.19-.14.29-.09.19-.18.39-.27.59-.02.05-.04.1-.07.15-.07.17-.14.33-.21.5-.07.17-.14.33-.2.5,0,.01,0,.02-.01.03-.05.13-.11.26-.16.39-.03.08-.06.17-.1.25-.08.22-.16.44-.24.66-.12.33-.22.66-.33.99-.09.27-.17.55-.25.83-.09.33-.18.66-.27.99,0,.04-.01.07-.02.11,0,.03-.01.06-.02.08-.07.28-.14.56-.2.85-.01.06-.03.12-.04.17-.07.32-.13.63-.19.94,0,.02-.01.05-.02.07,0,0,0,0,0,0l-16.78,3.02,3.6,20.01,16.12-2.9s0,0,0,0c.05.11.11.22.17.33.13.27.27.53.42.78.15.28.31.55.47.82.01.03.02.05.04.06.14.24.28.47.44.7.02.02.03.04.04.06.13.22.28.45.43.66.05.08.1.15.15.23.07.11.14.21.22.31.12.18.25.35.38.53.05.08.1.15.17.22.13.18.26.36.39.52.06.08.12.16.18.23,0,.02.02.02.03.03.22.29.46.57.69.85.14.18.3.35.45.52.09.1.19.21.28.31.09.11.17.21.27.3.16.17.31.33.48.5,0,.01,0,.02.02.02.18.19.37.38.56.56.07.08.15.15.23.22.07.07.15.13.22.2.01,0,.02.02.03.03.17.17.35.33.53.49.26.23.52.47.8.69l-5.78,16.05,19.13,6.88,5.55-15.41c.09,0,.19,0,.28.01Zm-10.04-22.41c-5.43-6.43-4.62-16.04,1.8-21.48,6.43-5.43,16.04-4.62,21.48,1.8,5.43,6.42,4.62,16.04-1.81,21.47-6.42,5.43-16.04,4.63-21.47-1.8Z"/>
            <path class="cls-9" d="m395.32,171.56c.12.08.23.17.35.25.08.06.17.12.26.17.02.02.03.03.05.04.06.04.12.08.19.12.01.01.03.02.05.03.03.02.06.04.09.06,0,0,0,0,0,0,.11.07.21.13.32.19.07.04.13.08.2.11,0,0,0,0,0,0,0,0,0,0,0,0,.17.1.33.19.51.28.06.03.11.06.17.09h.01c.15.08.29.15.44.22.31.14.63.28.95.4.15.06.3.11.46.17,0,0,0,0,.01,0,.06.02.12.04.19.06.06.02.11.03.16.05.07.03.14.05.21.07.16.05.32.09.47.14.18.05.36.1.54.14,0,0,0,0,0,0l1.01,8.22,9.8-1.2-.97-7.89h0s.07-.03.11-.05c.08-.04.16-.07.24-.11.08-.03.15-.07.22-.11.1-.04.19-.09.28-.14.04-.02.08-.04.12-.06,0,0,.02,0,.02-.01.11-.06.22-.12.33-.17.03-.01.05-.03.08-.04.08-.05.17-.1.25-.14.06-.04.13-.07.18-.11,0,0,.01,0,.02-.01.04-.02.08-.05.12-.07.09-.05.17-.11.26-.17.02-.01.04-.02.06-.04,0,0,.02-.01.03-.02.09-.05.17-.11.26-.17.02-.02.05-.03.08-.05.08-.06.17-.12.25-.18.03-.02.06-.04.09-.06.1-.07.2-.14.29-.22.13-.1.27-.21.4-.31.1-.08.19-.16.28-.24.01-.01.02-.02.04-.03.02-.02.05-.04.07-.06.11-.1.22-.19.32-.29.13-.12.26-.24.38-.36.13-.13.27-.26.39-.4l7.62,3.24,3.86-9.08-7.32-3.11s0-.03,0-.05c.02-.19.04-.38.05-.56,0-.14.02-.28.02-.43,0-.04,0-.09,0-.13,0,0,0,0,0,0,0-.13,0-.25.01-.38,0-.13,0-.26,0-.39,0,0,0,0,0,0,0-.04,0-.08,0-.12,0-.01,0-.02,0-.03,0,0,0,0,0,0,0-.09,0-.18,0-.28,0-.05,0-.1,0-.16,0,0,0,0,0,0,0-.04,0-.07,0-.11,0-.02,0-.04,0-.06,0-.05,0-.11-.01-.16,0,0,0,0,0,0,0-.11-.01-.21-.02-.32,0-.1-.02-.2-.03-.3,0,0,0,0,0,0,0-.08-.01-.15-.02-.23,0-.08-.02-.17-.03-.25,0-.03,0-.05-.01-.08,0-.07-.02-.15-.03-.22-.01-.09-.03-.17-.04-.26,0-.05-.02-.09-.02-.14-.02-.1-.04-.19-.06-.28-.02-.07-.03-.14-.05-.21,0-.04-.02-.09-.03-.14,0,0,0-.01,0-.02-.01-.07-.03-.14-.05-.21-.02-.09-.05-.19-.07-.28,0-.03-.01-.05-.02-.08-.03-.12-.06-.23-.1-.34,0,0,0-.01,0-.02,0,0,0-.02,0-.03,0,0,0-.02-.01-.03,0,0,0,0,0,0l6.62-4.98-5.94-7.88-6.35,4.79s0,0,0,0c-.04-.03-.07-.06-.11-.08-.69-.51-1.42-.95-2.18-1.33-.6-.3-1.23-.57-1.86-.79-.11-.04-.23-.07-.34-.11-.09-.03-.17-.06-.26-.08,0,0,0,0,0,0,0,0,0,0,0,0-.11-.03-.23-.07-.34-.1-.07-.02-.13-.04-.2-.05,0,0,0,0,0,0-.06-.02-.12-.03-.18-.05-.03,0-.05-.01-.08-.02-.06-.01-.12-.03-.18-.05l-1.01-8.22-9.8,1.2.97,7.89h0s-.04.02-.06.03c-.1.04-.21.09-.31.14-.06.03-.12.06-.18.09-.04.02-.07.04-.11.05-.09.04-.18.09-.27.13-.02,0-.05.02-.07.03-.14.07-.27.14-.4.21-.1.06-.2.12-.3.18,0,0-.01,0-.02.01-.04.03-.08.05-.13.07-.04.03-.09.05-.13.08-.09.05-.18.11-.27.17-.02.01-.04.03-.07.04-.07.05-.15.1-.22.14-.07.05-.15.1-.21.15,0,0,0,0-.01,0-.06.04-.11.08-.17.12-.04.02-.07.05-.11.08-.09.07-.18.13-.27.2-.14.1-.27.21-.4.31-.11.09-.22.18-.32.27-.13.11-.25.22-.37.33-.01.01-.03.03-.04.04-.01.01-.02.02-.03.03-.1.1-.21.19-.3.29-.02.02-.04.04-.06.06-.11.11-.22.22-.33.33,0,0-.02.02-.02.02,0,0,0,0,0,0l-7.62-3.24-3.86,9.08,7.32,3.11s0,0,0,0c0,.06-.02.12-.02.18-.02.14-.03.29-.04.43-.01.15-.02.31-.03.46,0,.01,0,.02,0,.04,0,.13-.01.27-.01.4,0,.01,0,.03,0,.04,0,.13,0,.26,0,.38,0,.05,0,.09,0,.13,0,.06,0,.12,0,.18,0,.11,0,.21.01.31,0,.05,0,.09,0,.14,0,.1,0,.21.02.32,0,.05,0,.09.01.14,0,0,0,.01,0,.02.01.18.03.35.06.53.01.11.03.22.04.33,0,.07.02.13.03.2,0,.07.02.13.03.2.02.11.04.22.06.33,0,0,0,0,0,.02.02.13.05.25.08.38,0,.05.02.1.03.15.01.05.02.09.03.14,0,0,0,.01,0,.02.03.11.05.23.08.34.04.16.09.33.14.49l-6.62,4.98,5.94,7.88,6.35-4.78s.07.05.11.08Zm1.88-11.77c-.5-4.06,2.39-7.75,6.44-8.25,4.06-.49,7.75,2.39,8.24,6.45.5,4.05-2.39,7.74-6.45,8.24-4.05.5-7.75-2.39-8.24-6.44Z"/>
            <path class="cls-9" d="m82.7,209.39c.13.1.26.19.4.28.09.07.19.13.29.2.02.02.04.03.06.04.07.05.14.09.21.13.02.01.04.02.05.03.03.02.07.04.1.06,0,0,0,0,0,0,.12.07.24.15.36.22.07.04.15.09.23.13,0,0,0,0,0,0,0,0,0,0,0,0,.19.11.38.21.57.31.06.04.13.07.19.1h.01c.17.09.33.17.5.25.35.16.71.32,1.07.46.17.07.34.13.52.19,0,0,0,0,.01,0,.07.02.14.05.21.07.06.02.12.04.19.06.08.03.16.05.24.08.18.06.36.11.54.16.2.06.41.11.62.16,0,0,0,0,0,0l1.15,9.34,11.14-1.36-1.1-8.97h0s.08-.04.12-.06c.09-.04.19-.08.28-.13.09-.04.17-.08.25-.12.11-.05.22-.1.32-.16.05-.02.09-.05.13-.07.01,0,.02,0,.02-.01.13-.06.25-.13.37-.2.03-.01.06-.03.09-.05.09-.05.19-.11.29-.16.07-.04.14-.08.21-.13,0,0,.02,0,.02-.01.05-.02.09-.05.14-.08.1-.06.2-.12.3-.19.02-.01.04-.03.06-.04.01,0,.02-.02.04-.02.1-.06.19-.13.29-.2.03-.02.06-.04.09-.06.1-.07.19-.14.29-.21.04-.02.07-.05.1-.07.11-.08.22-.16.33-.25.15-.11.3-.23.45-.36.11-.09.22-.18.32-.27.01-.01.03-.02.04-.03.03-.02.05-.04.08-.07.13-.11.25-.22.37-.33.15-.13.29-.27.43-.41.15-.15.3-.3.44-.45l8.66,3.68,4.39-10.33-8.32-3.53s0-.04,0-.06c.03-.21.04-.43.06-.64.01-.16.02-.32.03-.48,0-.05,0-.1,0-.15,0,0,0,0,0,0,0-.14.01-.29.01-.43,0-.15,0-.29,0-.44,0,0,0,0,0,0,0-.05,0-.09,0-.14,0-.01,0-.03,0-.04,0,0,0,0,0,0,0-.1,0-.21,0-.31,0-.06,0-.12,0-.18,0,0,0,0,0,0,0-.04,0-.09,0-.13,0-.03,0-.05,0-.07,0-.06,0-.12-.01-.18,0,0,0,0,0,0,0-.12-.02-.24-.03-.36,0-.11-.02-.23-.04-.34,0,0,0,0,0,0,0-.09-.02-.17-.03-.26,0-.09-.02-.19-.04-.28,0-.03,0-.06-.01-.09-.01-.08-.02-.17-.04-.25-.01-.1-.03-.2-.05-.29,0-.05-.02-.11-.03-.16-.02-.11-.04-.22-.06-.32-.02-.08-.03-.16-.05-.24,0-.05-.02-.1-.04-.15,0,0,0-.02,0-.03-.02-.08-.03-.16-.05-.24-.02-.11-.05-.21-.08-.32,0-.03-.02-.06-.03-.1-.03-.13-.07-.26-.11-.39,0,0,0-.01,0-.02,0,0,0-.02,0-.03,0-.01,0-.02-.01-.03,0,0,0,0,0,0l7.52-5.67-6.75-8.96-7.22,5.44s0,0,0,0c-.04-.03-.08-.06-.12-.09-.79-.58-1.62-1.08-2.48-1.51-.69-.34-1.39-.64-2.12-.9-.13-.04-.26-.08-.39-.12-.1-.03-.2-.07-.3-.1h0s0,0,0,0c-.13-.04-.26-.08-.39-.11-.07-.02-.15-.04-.23-.06,0,0,0,0,0,0-.07-.02-.14-.04-.21-.06-.03,0-.06-.01-.09-.02-.07-.02-.13-.04-.2-.05l-1.15-9.34-11.14,1.36,1.1,8.97h0s-.05.02-.07.03c-.12.05-.24.1-.35.16-.07.03-.14.06-.21.1-.04.02-.08.04-.12.06-.11.05-.2.1-.31.15-.03.01-.05.03-.08.04-.16.08-.31.16-.45.24-.12.06-.23.13-.35.2,0,0-.01,0-.02.01-.05.03-.09.05-.14.08-.05.03-.1.06-.15.09-.1.06-.2.13-.3.19-.03.01-.05.03-.08.05-.09.05-.17.11-.25.16-.09.05-.17.11-.24.17,0,0,0,0-.01.01-.06.04-.13.09-.19.13-.04.03-.08.06-.12.09-.1.08-.21.15-.31.23-.15.12-.3.24-.45.36-.12.1-.25.2-.36.31-.14.12-.28.25-.42.38-.01.02-.03.03-.04.04-.01.01-.02.02-.03.03-.12.11-.23.22-.35.33-.02.02-.05.04-.07.07-.13.12-.25.25-.37.38-.01,0-.02.02-.03.03,0,0,0,0,0,0l-8.66-3.68-4.39,10.33,8.32,3.53s0,0,0,0c0,.07-.02.14-.02.21-.02.16-.03.33-.04.49-.01.17-.02.35-.03.52,0,.01,0,.03,0,.04,0,.15-.01.3-.01.46,0,.02,0,.03,0,.04,0,.14,0,.29,0,.43,0,.05,0,.1,0,.15,0,.07,0,.14,0,.21,0,.12,0,.24.01.36,0,.05,0,.1,0,.15,0,.12.01.24.02.36,0,.05,0,.11.01.16,0,0,0,.02,0,.02.02.2.04.4.06.6.01.13.03.25.05.38.01.08.02.15.04.23,0,.07.02.15.04.22.02.13.04.25.07.37,0,0,0,0,0,.02.03.14.06.29.09.43,0,.06.02.11.04.17.01.05.03.11.04.16,0,0,0,.02,0,.02.03.13.06.26.1.39.05.19.1.37.16.56l-7.52,5.67,6.75,8.96,7.22-5.44s.08.06.13.09Zm2.14-13.38c-.57-4.61,2.72-8.8,7.32-9.37,4.61-.56,8.81,2.72,9.37,7.33.56,4.61-2.71,8.8-7.33,9.37-4.61.57-8.8-2.71-9.37-7.32Z"/>
            <g>
              <rect class="cls-9" x="196.67" y="60.62" width="5.9" height="17.82"/>
              <rect class="cls-9" x="183.53" y="66.87" width="5.9" height="11.58"/>
              <rect class="cls-9" x="170.39" y="60.62" width="5.9" height="17.82"/>
              <rect class="cls-9" x="157.26" y="65.73" width="5.9" height="12.72"/>
              <rect class="cls-9" x="144.12" y="67.73" width="5.9" height="10.72"/>
              <rect class="cls-9" x="130.98" y="72.09" width="5.9" height="6.36"/>
            </g>
            <g>
              <path class="cls-9" d="m418.83,252.7s-8.6,3.22-16.82,11.34c-7.8,7.71-12.08,15.05-12.08,15.05,6.29-1.89,12.27-5.2,17.44-9.92,5.18-4.73,9-10.38,11.46-16.47Z"/>
              <path class="cls-9" d="m397.81,280.86c-4.75.22-9.21,1.52-13.13,3.64h0,0,0c4.11,1.74,8.66,2.6,13.42,2.38,4.75-.22,9.2-1.52,13.13-3.63-4.11-1.74-8.66-2.61-13.41-2.38Z"/>
              <path class="cls-9" d="m380.54,256.33c-.94,4.36-.94,9,.17,13.62,1.11,4.63,3.22,8.76,6.03,12.22.94-4.36.94-9-.18-13.62-1.11-4.63-3.21-8.76-6.03-12.22Z"/>
              <path class="cls-9" d="m397.04,319.27c5.48-3.04,6.48-6.47,3.87-10.44-2.61-3.98-5.99-7.15-9.82-9.45,0,0,.4,6.6,4.78,12.76,2.19,3.08,2.54,5.35,1.16,7.13Z"/>
              <path class="cls-9" d="m394.29,293.91c-.13-.04-.25-.07-.38-.1l-.65-.17c-.22-.05-.44-.1-.65-.16l-.33-.08-.33-.07-.66-.14c-.88-.17-1.76-.32-2.65-.44-1.78-.23-3.57-.36-5.36-.39-1.77-.03-3.55.04-5.31.26.04-.05.08-.11.12-.16,1.2-1.58,2.43-3.14,3.71-4.66,1.27-1.52,2.59-3.01,3.94-4.47.67-.73,1.36-1.45,2.05-2.16.7-.71,1.4-1.41,2.13-2.09-.73.67-1.44,1.37-2.14,2.07-.7.71-1.39,1.42-2.07,2.14-1.36,1.45-2.67,2.94-3.95,4.46-1.28,1.52-2.52,3.07-3.72,4.65-.33.44-.66.88-.99,1.33-.07-.6-.17-1.19-.31-1.78-.14-.6-.31-1.2-.51-1.78-.2-.58-.41-1.17-.65-1.73-.24-.57-.5-1.13-.79-1.68.13.28.26.56.37.85.12.28.24.57.35.85.23.57.44,1.15.63,1.74.2.58.37,1.18.52,1.77l.11.45c.04.15.06.3.1.45.07.29.11.58.17.86-.85,1.15-1.68,2.32-2.48,3.51-.28.41-.55.83-.82,1.24-.27.42-.55.83-.81,1.25l-.79,1.26-.77,1.28c-.13.21-.26.42-.38.64l-.37.65-.37.65c-.12.22-.25.43-.36.65l-.71,1.31-.18.33-.17.33-.34.66c-.46.88-.88,1.78-1.31,2.67-.21.45-.41.91-.61,1.36l-.3.68c-.1.23-.19.46-.29.69l-.57,1.38-.53,1.39-.26.7-.24.7-.31.9h-.06c.04-1.22.08-2.44.13-3.66.12-3.14.28-6.27.48-9.41.19-3.13.43-6.26.69-9.39.16-1.86.34-3.72.53-5.58.6.39,1.22.72,1.84.93,4.14,1.43,8.6-.26,8.6-.26-1.9-1.86-4.25-3.34-6.94-4.25-1.01-.34-2.03-.59-3.05-.75l.2-1.8.29-2.34c.02-.18.04-.36.07-.54,3.85,4.08,7.95,5.85,7.95,5.85h0s0,0,0,0h0c-.87-4.38-2.7-8.63-5.56-12.44-.41-.55-.83-1.01-1.27-1.41l.12-.79.18-1.16.2-1.16.2-1.16c.07-.39.13-.77.2-1.16l.42-2.32c.07-.39.14-.77.22-1.16l.23-1.15.23-1.15c.08-.38.16-.77.24-1.15l.04-.21c.25-.07,6.5-1.74,11.62-7.09,2.61-2.73,4.77-3.5,6.79-2.49-4.02-4.81-7.57-5.15-10.99-1.83-3.4,3.3-5.87,7.19-7.41,11.35l.43-2.03c.42-1.86.86-3.72,1.34-5.57,0,0,.02,0,.02.01h0s0-.02-.01-.05c.3-1.18.61-2.36.93-3.53h0s5.48-6.49,10.14-16.42c4.9-10.46,5.06-19.65,5.06-19.65-4.92,4.35-8.96,9.85-11.68,16.31-2.72,6.46-3.83,13.2-3.51,19.76-.33,1.16-.64,2.33-.94,3.5-.2-.68-1.78-5.82-5.27-11.69-3.95-6.64-8.98-10.16-8.98-10.16.57,4.35,2.1,8.65,4.65,12.58,2.55,3.91,5.85,7.05,9.58,9.32-.48,1.85-.94,3.71-1.36,5.57l-.5,2.3c-.08.38-.17.77-.24,1.15l-.23,1.15-.23,1.15c-.08.38-.15.77-.22,1.16l-.43,2.32c-.32,1.79-.62,3.59-.9,5.39-2.61-2.31-5.79-1.95-9.81,1.56,2.15-.69,4.16.41,6.32,3.52.75,1.08,1.55,2.04,2.36,2.91-.2,1.57-.39,3.15-.57,4.73-1.67-.26-3.34-.28-4.96-.08-.08-.04,1.98,2.7,4.51,4.37-.19,1.87-.36,3.75-.52,5.63-.26,3.13-.49,6.26-.68,9.39-.26,4.35-.46,8.71-.57,13.07h-.12l-.06-1.11-.02-.41v-.2s-.03-.2-.03-.2l-.07-.81-.07-.81-.04-.4-.05-.4-.2-1.61-.03-.2-.03-.2-.06-.4-.13-.8-.13-.8-.15-.8c-.1-.53-.19-1.07-.3-1.6l-.34-1.59c-.93-4.23-2.15-8.39-3.57-12.48-.72-2.04-1.48-4.07-2.29-6.08-.82-2.01-1.67-3.99-2.57-5.96-1.19-2.61-2.45-5.19-3.8-7.72,3.64-2.56,6.78-5.95,9.1-10.09,2.33-4.15,3.59-8.61,3.87-13.06-3.65,2.56-6.8,5.96-9.13,10.11-2.32,4.13-3.58,8.56-3.87,12.99-.68-1.27-1.38-2.53-2.1-3.78.55.93,1.06,1.88,1.58,2.84.18.33.35.66.52.99,0,0,0,.01,0,.02h0s0,0,0,0h0s0,0,0,0c.33.62.65,1.25.97,1.87.98,1.93,1.91,3.88,2.81,5.85.68,1.5,1.33,3,1.97,4.52-1.64-.67-3.34-1.19-5.06-1.63-1.74-.44-3.5-.78-5.27-1.03-.89-.11-1.78-.21-2.67-.27l-.67-.04-.34-.02h-.34c-.22-.02-.45-.03-.67-.04h-.67c-.22-.01-.45-.01-.67,0-.22,0-.45,0-.67,0-.45.02-.9.03-1.34.06-.89.05-1.78.16-2.67.27-4.2-1.51-8.79-2.13-13.53-1.65-4.73.48-9.11,2.02-12.91,4.35-.19,0,7.67,4.24,13.51,3.68,7.3-.7,12.92-6.38,12.92-6.38h0c.89-.1,1.78-.19,2.67-.23.45-.03.89-.04,1.34-.05.22,0,.45,0,.67,0,.22,0,.45,0,.67,0h.67c.22.02.45.03.67.04h.33s.33.04.33.04l.67.04c.89.07,1.78.17,2.67.29,1.77.24,3.53.57,5.27,1,.87.22,1.73.45,2.59.72.84.26,1.67.53,2.49.86.2.48.4.96.59,1.44.81,2.01,1.57,4.03,2.28,6.08,1.43,4.08,2.66,8.24,3.6,12.47l.34,1.59c.11.53.2,1.06.3,1.59l.15.8.13.8.13.8.06.4.03.2.03.2.21,1.61.05.4.04.4.08.81.08.81.02.2v.2s.04.4.04.4l.07,1.11h-16.48v5.63h0v.25h0v27.15h33.03v-33.03h-16.34l.31-.9.25-.7.27-.69.54-1.39.58-1.37c.1-.23.19-.46.29-.69l.31-.68c.21-.45.4-.91.62-1.36.43-.89.85-1.79,1.32-2.67l.34-.66.17-.33.18-.33.71-1.31c.12-.22.24-.43.37-.65l.37-.65.37-.65c.12-.21.26-.43.38-.64l.77-1.27.79-1.26c.26-.42.54-.83.81-1.25.27-.41.54-.83.83-1.24,1.07-1.59,2.19-3.15,3.35-4.68.87-.1,1.75-.15,2.62-.18.89-.03,1.79-.04,2.68-.02.93.02,1.86.07,2.79.14.51.46.99.96,1.45,1.48.34.39.68.79,1,1.2-1.86,1.2-3.5,2.82-4.75,4.83-1.26,2.02-1.98,4.22-2.23,6.44,1.88-1.2,3.53-2.83,4.78-4.85,1.24-2,1.97-4.18,2.22-6.38.11.14.22.29.32.43.11.14.21.29.31.44.1.15.21.29.31.44l.29.45c.05.07.1.15.14.23l.14.23c.38.61.71,1.25,1.03,1.89l-.23-.49c-.08-.16-.15-.33-.23-.48l-.25-.48c-.08-.16-.18-.31-.27-.47-.36-.62-.76-1.22-1.18-1.8-.43-.58-.88-1.13-1.37-1.66-.24-.26-.49-.52-.75-.77-.24-.23-.48-.45-.74-.66.85.07,1.7.16,2.55.27.89.12,1.77.26,2.65.43l.66.14.33.07.33.08c.22.05.44.1.65.15l.65.17c.12.03.23.06.35.09,1.66,1.47,3.66,2.6,5.93,3.25,2.29.66,4.6.76,6.8.39-1.67-1.48-3.68-2.62-5.97-3.28-2.26-.65-4.55-.76-6.72-.4Z"/>
              <path class="cls-9" d="m327.14,236.29c.71,6.53,2.85,13.01,6.55,18.97,3.7,5.96,8.55,10.76,14.08,14.3,0,0-2.12-8.23-7.53-17.77-5.7-10.05-13.1-15.49-13.1-15.49Z"/>
              <path class="cls-9" d="m351.25,276.16c-3.2-3.11-7.13-5.56-11.65-7.07-4.51-1.51-9.13-1.91-13.56-1.36,3.2,3.11,7.13,5.56,11.65,7.07,4.51,1.51,9.13,1.92,13.56,1.36Z"/>
              <path class="cls-9" d="m347.98,291.41c-.65-2.27-1.79-4.28-3.25-5.94.42-.31.85-.6,1.29-.88.6-.39,1.22-.75,1.87-1.06-.33.14-.65.3-.97.47-.31.17-.63.35-.93.54-.61.38-1.2.79-1.77,1.23-.56.44-1.11.91-1.63,1.41-.13.13-.26.25-.38.38l-.37.39c-.13.13-.24.27-.36.4l-.35.41c.49-.53.98-1.05,1.51-1.53l.2-.18c.06-.06.13-.12.2-.18l.4-.35c.13-.12.28-.23.41-.34.14-.11.28-.23.42-.33.14-.11.28-.22.43-.33-.36,2.18-.25,4.47.4,6.74.66,2.29,1.8,4.3,3.28,5.97.37-2.2.27-4.51-.39-6.8Z"/>
              <path class="cls-9" d="m329.99,306.28c-.84-2.09.12-4.18,3.06-6.55,5.89-4.73,8.07-10.98,8.07-10.98-4.3,1.17-8.42,3.31-12.02,6.42-3.6,3.11-3.57,6.68.88,11.1Z"/>
            </g>
            <path class="cls-9" d="m226.28,30.1h68.23c1.16,0,2.11.94,2.11,2.11v15.82c0,1.16-.94,2.11-2.11,2.11h-3.06c-.03.89.1,2.54,1.34,3.61,0,0-3.42-.28-4.37-3.61h-62.15c-1.16,0-2.11-.94-2.11-2.11v-15.82c0-1.16.94-2.11,2.11-2.11Z"/>
            <path class="cls-9" d="m173.48,202.09h47.78c.81,0,1.48.66,1.48,1.48v11.07c0,.81-.66,1.48-1.48,1.48h-2.14c-.02.62.07,1.78.94,2.53,0,0-2.4-.19-3.06-2.53h-43.52c-.82,0-1.48-.66-1.48-1.48v-11.07c0-.81.66-1.48,1.48-1.48Z"/>
            <path class="cls-9" d="m147.36,39.84h-26.86c-.78,0-1.4.63-1.4,1.4v10.54c0,.78.63,1.4,1.4,1.4h2.04c.02.59-.07,1.69-.9,2.4,0,0,2.28-.18,2.91-2.4h22.81c.78,0,1.4-.63,1.4-1.4v-10.54c0-.78-.63-1.4-1.4-1.4Z"/>
            <g>
              <g>
                <rect class="cls-4" x="134.31" y="339.01" width="24.8" height="11.9"/>
                <rect class="cls-9" x="103.04" y="339.01" width="31.26" height="11.9"/>
                <rect class="cls-9" x="134.31" y="339.01" width="25.6" height=".98"/>
                <rect class="cls-9" x="148.01" y="342.18" width="11.48" height=".24"/>
                <rect class="cls-9" x="134.31" y="349.93" width="25.6" height=".98"/>
                <rect class="cls-4" x="106.19" y="339.01" width="2.31" height="11.9"/>
                <rect class="cls-4" x="130.11" y="339.01" width=".58" height="11.9"/>
                <rect class="cls-4" x="128.17" y="339.01" width=".58" height="11.9"/>
                <polygon class="cls-9" points="158.93 346.77 156.34 346.77 153.94 342.43 156.53 342.43 158.93 346.77"/>
                <g>
                  <path class="cls-4" d="m113.16,343.18v3.55h-.92v-1.49h-.28v1.49h-.92v-3.55h.92v1.27h.28v-1.27h.92Z"/>
                  <path class="cls-4" d="m114.46,343.18v3.55h-.92v-3.55h.92Z"/>
                  <path class="cls-4" d="m116.79,344.26h-.86v-.26c0-.12-.01-.2-.03-.23-.02-.03-.06-.05-.11-.05-.06,0-.1.02-.13.07-.03.05-.04.11-.04.21,0,.12.02.21.05.27.03.06.12.13.26.22.41.24.67.44.78.6.11.16.16.41.16.76,0,.25-.03.44-.09.56-.06.12-.17.22-.34.3-.17.08-.37.12-.59.12-.25,0-.46-.05-.63-.14-.17-.09-.29-.21-.34-.36-.05-.14-.08-.35-.08-.62v-.23h.86v.43c0,.13.01.22.04.26.02.04.07.06.13.06s.11-.02.14-.07c.03-.05.05-.12.05-.22,0-.21-.03-.35-.09-.41-.06-.06-.2-.17-.43-.32-.23-.15-.38-.26-.46-.33-.07-.07-.14-.16-.19-.29-.05-.12-.07-.28-.07-.47,0-.27.03-.47.1-.6.07-.13.18-.22.34-.3.16-.07.34-.11.56-.11.24,0,.44.04.61.12.17.08.28.18.34.29.05.12.08.32.08.6v.14Z"/>
                  <path class="cls-4" d="m119.01,343.18v.71h-.55v2.84h-.92v-2.84h-.55v-.71h2.02Z"/>
                  <path class="cls-4" d="m121.34,345.26c0,.36,0,.61-.03.76-.02.15-.07.28-.16.41-.09.12-.21.22-.36.28-.15.07-.33.1-.53.1s-.36-.03-.51-.09c-.15-.06-.27-.16-.37-.28-.09-.12-.15-.26-.16-.41-.02-.15-.03-.4-.03-.77v-.61c0-.36,0-.61.03-.76.02-.15.07-.28.16-.41.09-.12.21-.22.36-.28.15-.07.33-.1.53-.1s.36.03.51.09c.15.06.27.16.37.28.09.12.15.26.16.41.02.15.03.4.03.77v.61Zm-.92-1.17c0-.17,0-.27-.03-.32-.02-.05-.06-.07-.11-.07-.05,0-.09.02-.11.06-.03.04-.04.15-.04.33v1.66c0,.21,0,.33.03.38.02.05.06.07.12.07s.1-.03.12-.08c.02-.06.03-.19.03-.4v-1.63Z"/>
                  <path class="cls-4" d="m121.68,343.18h.65c.44,0,.73.02.89.05.15.03.28.12.38.26.1.14.15.36.15.66,0,.28-.03.46-.1.56-.07.1-.2.15-.41.17.18.05.31.11.37.18.06.08.1.15.12.21s.02.24.02.53v.94h-.86v-1.18c0-.19-.02-.31-.04-.35-.03-.05-.11-.07-.24-.07v1.6h-.92v-3.55Zm.92.61v.79c.1,0,.18-.01.22-.04.04-.03.06-.12.06-.28v-.2c0-.11-.02-.19-.06-.22-.04-.04-.11-.05-.22-.05Z"/>
                  <path class="cls-4" d="m126.07,343.18l-.67,2.27v1.29h-.86v-1.29l-.65-2.27h.85c.13.69.21,1.16.22,1.4.05-.38.14-.85.26-1.4h.85Z"/>
                </g>
              </g>
              <g>
                <rect class="cls-4" x="136.74" y="320.43" width="21.29" height="10.21"/>
                <rect class="cls-9" x="109.9" y="320.43" width="26.84" height="10.21"/>
                <rect class="cls-9" x="136.74" y="320.43" width="21.98" height=".84"/>
                <rect class="cls-9" x="148.5" y="323.16" width="9.85" height=".21"/>
                <rect class="cls-9" x="136.74" y="329.81" width="21.98" height=".84"/>
                <rect class="cls-4" x="112.6" y="321.9" width="1.98" height="7.28"/>
                <rect class="cls-4" x="119.27" y="321.9" width="13.26" height="7.28"/>
                <polygon class="cls-9" points="157.88 327.1 155.66 327.1 153.59 323.37 155.81 323.37 157.88 327.1"/>
              </g>
              <g>
                <path class="cls-3" d="m117.71,330.65h34.48v8.36h-34.48c-2.31,0-4.18-1.87-4.18-4.18h0c0-2.31,1.87-4.18,4.18-4.18Z"/>
                <path class="cls-4" d="m139,331.33h13.94v6.99h-13.94c-1.93,0-3.49-1.57-3.49-3.49h0c0-1.93,1.57-3.49,3.49-3.49Z"/>
                <rect class="cls-3" x="135.51" y="330.65" width="17.99" height=".69"/>
                <rect class="cls-3" x="145.14" y="332.88" width="8.07" height=".17"/>
                <rect class="cls-3" x="135.51" y="338.32" width="17.99" height=".69"/>
                <path class="cls-4" d="m132.76,337.62h-14.88c-1.54,0-2.79-1.25-2.79-2.79,0-.77.31-1.47.82-1.97.5-.51,1.2-.82,1.97-.82h14.87c-.13.1-.25.2-.37.32-.63.63-1.02,1.51-1.02,2.47,0,1.14.55,2.15,1.39,2.79Z"/>
                <path class="cls-3" d="m130.84,338.04s-.08-.01-.11-.04c-1-.76-1.58-1.92-1.58-3.17,0-1.06.41-2.06,1.16-2.81.13-.13.27-.25.42-.36.08-.06.2-.05.26.04.06.08.05.2-.04.26-.13.1-.26.21-.38.33-.68.68-1.05,1.58-1.05,2.55,0,1.14.52,2.19,1.43,2.88.08.06.1.18.04.26-.04.05-.09.07-.15.07Z"/>
              </g>
            </g>
          </g>
        </g>
        <g>
          <path class="cls-16" d="m327.43,248.05c-.03-.38-.8-9.25,1.51-14.77l2.79,1.17c-2.02,4.84-1.3,13.25-1.29,13.33l-3.02.27Z"/>
          <path class="cls-12" d="m356.91,351s-5.12-41.54,8.14-85.43c1.99-6.57-1.79-13.5-8.41-15.35-12.4-3.47-33.07-7.2-56.42-2.94-5.54,1.01-9.69,5.67-10.04,11.29-1.15,18.65-2.44,61.8,8.62,92.43h58.1Z"/>
          <path class="cls-12" d="m356.68,220.44c-.74,3.2-1.35,6.34-1.85,9.41-.78,4.82-5.27,8.14-10.11,7.47-3.81-.52-8.36-.97-13.47-1.13h0c-2.47-.08-5.06-.09-7.77-.01-2.12.06-4.32.17-6.57.35-.2.02-.41.03-.62.05-5.63.48-10.3-4.25-9.74-9.87.32-3.19.66-5.95.97-8.15.35-2.56,1.78-4.8,3.85-6.2,0,0,.01-.01.02-.01.76-.52,1.61-.92,2.53-1.19,1.33-.39,2.63-.74,3.91-1.06,15.09-3.72,25.98-2.3,32.68-.31,4.55,1.35,7.25,6.02,6.18,10.65Z"/>
          <g class="cls-1">
            <path class="cls-12" d="m327.43,248.05s27.52-2.32,28.19,25.41c.67,27.72-3.12,45.13-3.12,45.13,0,0,4.58-63.6-25.07-70.53Z"/>
          </g>
          <g class="cls-1">
            <path class="cls-12" d="m323.48,236.18c-2.12.06-4.32.17-6.57.35-.2.02-.41.03-.62.05-5.63.48-10.3-4.25-9.74-9.87.32-3.19.66-5.95.97-8.15.35-2.56,1.78-4.8,3.85-6.2,0,0,.01-.01.02-.01.76-.52,1.61-.92,2.53-1.19,1.33-.39,2.63-.74,3.91-1.06,5.2,5.03,5.63,23.04,5.66,26.08Z"/>
          </g>
          <path class="cls-11" d="m331.26,234.98c-3.17.02-6.34.06-9.5.17-1.58.04-3.17.08-4.75.19l-.59.04c-.2,0-.4.03-.6.03-.2,0-.4,0-.6,0l-.3-.02-.3-.03c-.4-.04-.79-.12-1.18-.21-.39-.1-.77-.21-1.14-.37-1.5-.58-2.83-1.6-3.79-2.89-.49-.65-.87-1.37-1.17-2.12-.29-.76-.46-1.56-.53-2.37-.07-.81.02-1.63.11-2.41l.29-2.36c.21-1.57.44-3.14.72-4.7h.04s-.47,4.74-.47,4.74l-.22,2.37c-.03.39-.08.79-.1,1.18-.01.19,0,.39-.01.58.01.19.01.39.03.58.13,1.54.68,3.05,1.59,4.31.91,1.26,2.15,2.28,3.59,2.91.72.31,1.48.54,2.26.63l.29.04.29.02c.2.02.39.01.59.01.39,0,.79-.04,1.18-.08l2.37-.21c.79-.06,1.58-.13,2.37-.17,1.58-.09,3.17-.11,4.76-.09,1.59.02,3.17.08,4.76.2v.04Z"/>
          <path class="cls-11" d="m349.44,209.45c.98.26,1.91.7,2.74,1.3.83.6,1.56,1.34,2.12,2.19.57.85.99,1.8,1.24,2.8.25,1,.3,2.04.17,3.06-.07.51-.18,1.01-.31,1.5l-.35,1.47-.34,1.47c-.11.49-.21.99-.31,1.48-.2.99-.38,1.98-.54,2.98l-.12.75-.06.37-.07.37c-.08.5-.24.99-.41,1.47-.7,1.92-2.15,3.56-3.95,4.55-.9.5-1.89.84-2.91,1-.26.03-.51.06-.77.09h-.77c-.51-.02-1.03-.07-1.53-.14-3.99-.54-8.01-.92-12.03-1.18v-.04c4.04.03,8.08.3,12.08.83.5.07.99.12,1.48.14h.74s.74-.09.74-.09c.98-.14,1.93-.46,2.8-.92,1.74-.93,3.17-2.46,3.92-4.32.38-.92.55-1.92.72-2.91l.54-2.98.57-2.97.3-1.48c.11-.5.19-.98.26-1.47.02-.25.04-.49.05-.74v-.74s-.1-.74-.1-.74c-.04-.24-.09-.49-.14-.73-.22-.96-.62-1.89-1.16-2.72-1.07-1.68-2.73-2.96-4.64-3.61v-.04Z"/>
          <path class="cls-11" d="m361.73,266.99c.23-.83.38-1.69.43-2.55.05-.86,0-1.73-.13-2.57-.27-1.7-.94-3.32-1.89-4.74-.96-1.42-2.24-2.61-3.72-3.48-.74-.43-1.52-.78-2.34-1.04-.4-.13-.83-.24-1.24-.36l-1.25-.34-2.51-.65c-.84-.21-1.69-.4-2.53-.6-.84-.19-1.69-.37-2.54-.55-.42-.09-.85-.17-1.28-.25l-1.28-.23c-.85-.16-1.71-.3-2.56-.43-.86-.13-1.71-.26-2.57-.36-.86-.1-1.72-.22-2.58-.31l-2.59-.24c-6.91-.53-13.86-.58-20.76.02-.86.08-1.73.14-2.59.23l-2.58.31-1.29.15-1.28.2-2.57.4c-1.7.26-3.34.87-4.77,1.83-1.43.95-2.66,2.22-3.56,3.7l-.03-.02c.85-1.51,2.05-2.84,3.48-3.84,1.43-1,3.1-1.68,4.82-1.96l2.57-.43,1.28-.22,1.29-.17,2.58-.33c.86-.09,1.73-.16,2.59-.24.87-.08,1.73-.16,2.6-.2l2.6-.14c.43-.03.87-.02,1.3-.03l1.3-.02c.87-.01,1.74-.04,2.6-.01l2.6.04c.87.03,1.73.08,2.6.12.43.02.87.04,1.3.07l1.3.11,1.3.11c.43.04.87.07,1.3.12,3.46.34,6.89.84,10.31,1.41,1.71.29,3.41.62,5.12.96.85.18,1.7.36,2.54.55.84.2,1.69.39,2.53.61l1.26.33c.42.11.84.22,1.26.35.84.26,1.65.62,2.4,1.07,1.51.9,2.82,2.14,3.79,3.6.97,1.46,1.61,3.14,1.85,4.87.24,1.73.08,3.51-.45,5.17h-.04Z"/>
          <path class="cls-11" d="m353.94,348.29c-.45-3.4-.69-6.82-.87-10.24-.08-1.71-.14-3.42-.17-5.13-.02-.86-.03-1.71-.03-2.57,0-.86,0-1.71,0-2.57.11-6.85.51-13.69,1.06-20.51.57-6.83,1.48-13.63,2.76-20.36.07-.42.16-.84.24-1.26l.26-1.26c.18-.84.33-1.68.53-2.51.38-1.67.75-3.34,1.19-5,.82-3.33,1.79-6.61,2.81-9.88h.04c-1.85,6.6-3.42,13.26-4.68,19.99l-.46,2.52c-.08.42-.15.84-.22,1.26l-.21,1.26c-.3,1.68-.54,3.38-.79,5.07-.47,3.39-.91,6.78-1.26,10.18-.34,3.4-.62,6.82-.77,10.23l-.1,2.56c-.03.85-.04,1.71-.06,2.57-.03,1.71-.04,3.42-.03,5.13,0,6.84.18,13.68.79,20.5h-.04Z"/>
        </g>
        <g>
          <path class="cls-18" d="m349.68,339.43c.75,8.26-3.19,9.07-3.19,9.07-1.38,2.25-3.06,2.5-3.06,2.5h-74.16l-1.52-36.26-1.76-9.91-10.01,17.11c-6.11,10.1-16.24,9.26-16.24,9.26-2.43.81-5.61,2.68-5.61,2.68-14.71-3.18-10.66-13.73-10.66-13.73,4.95-2.22,18.09-19.56,18.09-19.56l6.75-16.74c-2.08-5.46,2.53-7.07,2.53-7.07,5.76-12.9,8-24.7,11.35-23.93,2.28-4.15,10.94-3.55,15.02-5.64-.15-3.15,1.73-4.51,4.29-3.9.03,0,.06.02.09.02,3.37.83,7.59,3.1,11.44,2.9,7.38-.38,15.45-5.24,17.23-6.06.08-.04.16-.07.23-.1,2.48-.94,3,2.56,3,2.56,4.54,4.74,26.12,7.21,27.33,9.58h0c7.14.57,13.02,26.66,13.13,36.31.3,26.22-4.27,50.9-4.27,50.9Z"/>
          <g class="cls-1">
            <path class="cls-2" d="m295.08,267.83s.36,3.84-.61,6.13l4.12-1.44s-.52-5.41-2.28-6.38l-1.22,1.69Z"/>
          </g>
          <g class="cls-1">
            <path class="cls-2" d="m278.79,271.07s1.2-3.64,7.59-2.5l-2.22-4.27s-5.69.46-5.38,6.77Z"/>
          </g>
          <g class="cls-1">
            <path class="cls-2" d="m275.92,351c-6.87-2.96-5.64-10.27-7.01-17.29l2.48-.76c6.3,3.9,4.53,18.05,4.53,18.05Z"/>
          </g>
          <path class="cls-16" d="m284.01,264.38c1.31,3.1,4.2,10.08,12.29,2.36,0,0-.76-3.02-7.32,0,0,0-2.95-3.49-4.97-2.36Z"/>
          <ellipse class="cls-18" cx="311.21" cy="215.62" rx="10.34" ry="7.82" transform="translate(81.39 516.5) rotate(-87.34)"/>
          <ellipse class="cls-18" cx="311.21" cy="215.62" rx="10.34" ry="7.82" transform="translate(81.39 516.5) rotate(-87.34)"/>
          <path class="cls-12" d="m298.23,273.76s1.14-11.7-9.24-7.02c0,0-8.53-5.39-10.19,4.33,0,0-.56-14.06-1.6-23.86-.15-3.14,1.73-4.51,4.29-3.9.03,0,.06.01.09.02,3.37.83,7.59,3.1,11.44,2.9,7.38-.38,15.45-5.24,17.23-6.06.08-.04.16-.07.23-.1,2.48-.94,2.96,2.21,3,2.56,0,0,0,.02,0,.03,0,0,3.21,21.21-15.26,31.09Z"/>
          <g>
            <path class="cls-13" d="m266.92,206.47s-1.38,5.95-.2,8.95c1.18,3.01,2.73,1.96,2.73,1.96,0,0-3.52-5.69-2.1-11.03l-.44.12Z"/>
            <path class="cls-13" d="m308.87,221.5l11.7-10.58s1.54,6.67-2.45,11.43c-2.48,2.96-.99,5.94-.99,5.94,0,0-3.5-.32-2.51-3.74,0,0,0,0,0,0-.13.19-1.33,1.22-1.39,4.58,0,0-1.28-.06-1.66-1.1-.27-.73.08-1.39.08-1.39-.9.65-2.15,1.01-2.99.54l1.39-1.71c-.34.39-1.39,1.43-3.28,1.82-2.69.57-4.19-.66-4.19-.66l6.3-5.15Z"/>
            <g>
              <g>
                <path class="cls-17" d="m308.05,242.6l.8-17.2-26.35-1.22-.95,20.5c-.03.72-.74,1.21-1.42,1-.05-.02-.1-.03-.15-.05h0c-.18,3.93,1.26,8.7,2.44,11.36,2.22,4.97,6.56,9.76,6.56,9.76l13.42-10.47c4.25-2.82,6.9-7.5,7.13-12.59h-.03c-.73.26-1.48-.31-1.45-1.08Z"/>
                <path class="cls-17" d="m290.72,243.02h0c9.69.45,17.91-7.04,18.36-16.73l1-21.44c.45-9.69-7.04-17.91-16.73-18.36h0c-9.69-.45-17.91,7.04-18.36,16.73l-1,21.44c-.45,9.69,7.04,17.91,16.73,18.36Z"/>
                <path class="cls-8" d="m281.76,240.09l-.16,3.55c1.83.1,6.01-.02,9.3-2.66-3.18.42-6.29.08-9.14-.89Z"/>
              </g>
              <g>
                <g>
                  <path class="cls-13" d="m280.55,210.56c-.04.87.63,1.61,1.51,1.65s1.61-.63,1.65-1.51c.04-.87-.63-1.61-1.51-1.65-.87-.04-1.61.63-1.65,1.51Z"/>
                  <path class="cls-13" d="m278.31,208.93c.41-.43.94-.76,1.51-.97.57-.21,1.19-.31,1.81-.27.15,0,.3.04.46.06l.23.04c.08.01.15.04.22.06.15.05.29.09.44.14.14.06.28.12.41.19l.2.1.19.12.38.25c.24.18.46.39.67.59-.27-.13-.52-.29-.78-.42l-.4-.18-.2-.09-.2-.07c-.14-.05-.27-.09-.4-.14l-.41-.1c-.07-.01-.14-.04-.21-.05l-.21-.03c-.14-.01-.28-.05-.42-.04-.56-.05-1.13.03-1.68.16-.55.14-1.09.36-1.61.65Z"/>
                </g>
                <g>
                  <path class="cls-13" d="m297.12,211.33c-.04.87.63,1.61,1.51,1.65.87.04,1.61-.63,1.65-1.51.04-.87-.63-1.61-1.51-1.65s-1.61.63-1.65,1.51Z"/>
                  <path class="cls-13" d="m294.89,209.7c.41-.43.94-.76,1.51-.97.57-.21,1.19-.31,1.81-.27.15,0,.3.04.46.06l.23.04c.08.01.15.04.22.06.15.05.29.09.44.14.14.06.28.12.41.19l.2.1.19.12.38.25c.24.18.46.39.67.59-.27-.13-.52-.29-.78-.42l-.4-.18-.2-.09-.2-.07c-.14-.05-.27-.09-.4-.14l-.41-.1c-.07-.01-.14-.04-.21-.05l-.21-.03c-.14-.01-.28-.05-.42-.04-.56-.05-1.13.03-1.68.16-.55.14-1.09.36-1.61.65Z"/>
                </g>
                <path class="cls-13" d="m288.46,223.4c-.32-.14-.64-.29-.96-.44-.32-.18-.56-.47-.72-.79-.33-.65-.34-1.42-.19-2.1.15-.69.3-1.37.46-2.06.17-.68.37-1.36.62-2.01-.09.34-.18.68-.25,1.02-.08.34-.16.68-.23,1.02-.13.69-.28,1.37-.41,2.06-.07.34-.13.68-.1,1.02.02.34.1.68.24.99.14.31.35.59.64.78.3.18.61.34.91.52Z"/>
                <path class="cls-6" d="m292.98,226.01c-.09.35-.24.69-.44,1-.4.62-1.07,1.15-1.87,1.38-.8.23-1.68.12-2.34-.25-.67-.36-1.18-.9-1.44-1.61.32,0,.62,0,.89,0,.37,0,.7.02,1,0,.13,0,.25-.02.37-.02.12-.02.23-.02.34-.04.22-.03.41-.07.61-.13.39-.11.8-.28,1.28-.52.27-.14.55-.3.87-.48.24-.14.5-.28.79-.44.08.38.03.74-.05,1.1Z"/>
                <path class="cls-4" d="m292.24,225.36c-.04.31-.16.61-.31.88-.31.52-.85.97-1.52,1.16-.67.19-1.41.08-1.93-.24-.28-.17-.52-.38-.7-.63.37,0,.7.02,1,0,.13,0,.25-.02.37-.02.12-.02.23-.02.34-.04.22-.03.41-.07.61-.13.39-.11.8-.28,1.28-.52.27-.14.55-.3.87-.48Z"/>
                <path class="cls-13" d="m278.51,204.53c.09-.36.28-.67.51-.93.11-.13.24-.25.37-.37.07-.06.14-.11.21-.16.07-.05.14-.11.22-.14.61-.35,1.34-.53,2.06-.48.18,0,.36.04.53.07l.26.06c.09.02.17.06.25.09.17.06.33.13.49.21.15.09.3.19.44.29.07.05.14.1.21.16.06.06.13.12.18.18.12.12.23.25.34.39.1.14.18.29.26.45.08.16.14.32.19.5-.38.01-.69-.03-1-.06-.15,0-.3-.02-.44-.04-.07,0-.14-.02-.2-.03-.07,0-.14,0-.2-.01-.13,0-.26-.03-.38-.05-.13,0-.25-.01-.37-.03-.06,0-.12-.02-.18-.02-.06,0-.12,0-.17,0l-.17-.02c-.06-.01-.11-.01-.17-.01-.46-.04-.91-.04-1.43-.05-.52,0-1.08.01-1.81.02Z"/>
                <path class="cls-13" d="m295.09,205.3c.09-.36.28-.67.51-.93.11-.13.24-.25.37-.37.07-.06.14-.11.21-.16.07-.05.14-.11.22-.14.61-.35,1.34-.53,2.06-.48.18,0,.36.04.53.07l.26.06c.09.02.17.06.25.09.17.06.33.13.49.21.15.09.3.19.44.29.07.05.14.1.21.16.06.06.13.12.18.18.12.12.23.25.34.39.1.14.18.29.26.45.08.16.14.32.19.5-.38.01-.69-.03-1-.06-.15,0-.3-.02-.44-.04-.07,0-.14-.02-.2-.03-.07,0-.14,0-.2-.01-.13,0-.26-.03-.38-.05-.13,0-.25-.01-.37-.03-.06,0-.12-.02-.18-.02-.06,0-.12,0-.17,0l-.17-.02c-.06-.01-.11-.01-.17-.01-.46-.04-.91-.04-1.43-.05-.52,0-1.08.01-1.81.02Z"/>
              </g>
            </g>
            <g>
              <path class="cls-13" d="m302.07,194.6c-.94-2.46-3.57-3.85-6.12-3.18-1.91.5-4.27,1.98-6.79,5.47-.89,1.23-1.65,2.56-2.3,3.95-1.18,2.48-4.67,8.48-11.59,10.38l-1.14,10.25-.25-.13c-3.78-3.21-6.3-7.87-6.96-13.04-.05-.39-.1-.79-.14-1.2,0,0,.12,1.34-1.01,2.23-1.03.81-2.52.37-2.52.37,0,0,2.99-3.46,1.97-9.94-.92-5.85,1.75-9.46,7.13-12.08,0,0-3.86.31-4.37-3.27,0,0,8.24,4.1,14.32-2.45,7.46-8.04,16.48-6.32,18.18,1.31,0,0,2.13-4.21,5.28-1.53s6.21,6.95,11.42,9.46.64,16.58,8.55,20.13c0,0-4.41,1.71-5.63-3.15,0,0,4,10.8-11.07,17.24l1.55-10.18s-6.04-1.47-6.8-8.8c-.58-5.64-.62-8.98-1.71-11.84Z"/>
              <path class="cls-13" d="m300.43,183.24c.09-.38.22-.74.39-1.1.17-.35.37-.69.61-1.01.24-.32.53-.61.86-.87.33-.25.72-.45,1.14-.57.42-.12.87-.14,1.3-.08.43.06.84.19,1.21.37.75.36,1.36.91,1.88,1.48.52.58.97,1.21,1.41,1.84.43.63.86,1.26,1.29,1.89.43.63.82,1.28,1.32,1.81.24.27.52.49.81.7.15.1.3.2.45.29.16.09.31.18.47.26,1.28.68,2.7,1.16,4.12,1.63.34.11.74.24,1.12.42.38.18.74.4,1.08.67.33.28.63.62.85,1,.23.38.38.8.46,1.21.17.83.13,1.64.04,2.41-.09.77-.23,1.52-.37,2.26-.26,1.48-.5,2.95-.28,4.45l-.1.03c-.25-.72-.36-1.5-.4-2.27-.03-.77,0-1.54.07-2.3.06-.76.14-1.51.18-2.24.03-.73.02-1.46-.15-2.1-.09-.32-.21-.62-.38-.88-.17-.26-.39-.5-.64-.7-.25-.2-.54-.37-.85-.51-.31-.14-.63-.25-1-.38-.36-.13-.72-.26-1.07-.41l-.53-.21-.53-.23c-.7-.32-1.4-.66-2.06-1.1-.66-.43-1.26-.99-1.72-1.64-.46-.65-.78-1.34-1.17-1.98-.78-1.29-1.77-2.45-2.92-3.37-.57-.46-1.17-.87-1.78-1.16-.31-.14-.62-.26-.94-.32-.32-.06-.64-.05-.96,0-.63.12-1.23.5-1.75,1-.51.5-.97,1.1-1.35,1.75l-.1-.04Z"/>
              <path class="cls-13" d="m300.71,192.52c-.79-.46-1.68-.56-2.54-.48-.87.07-1.71.33-2.54.64-.83.31-1.66.69-2.4,1.2-.74.51-1.41,1.13-2.02,1.8l-.45.51-.43.52c-.29.34-.57.7-.85,1.05-.27.36-.55.71-.81,1.08l-.4.54-.39.55c-1.06,1.46-2.06,2.96-3.11,4.46l-.06-.03c.69-1.69,1.58-3.3,2.61-4.82.52-.76,1.09-1.47,1.7-2.17.6-.69,1.25-1.35,1.95-1.94.7-.59,1.41-1.17,2.14-1.72.73-.55,1.47-1.11,2.31-1.52.42-.2.86-.37,1.32-.47.23-.06.46-.1.69-.13.24-.02.47-.05.71-.04.47,0,.95.06,1.4.21.45.15.88.38,1.2.72l-.04.05Z"/>
              <path class="cls-13" d="m310.98,215.28c-1.2.07-2.42-.09-3.57-.47-.58-.19-1.14-.44-1.67-.76-.53-.31-1.02-.7-1.45-1.14-.86-.9-1.41-2.02-1.77-3.16-.37-1.15-.56-2.34-.63-3.54-.07-1.2,0-2.42.21-3.6.2-1.17.32-2.33.36-3.5.05-1.16-.02-2.33-.26-3.47-.13-.56-.29-1.12-.53-1.65-.24-.53-.53-1.05-.95-1.46l.04-.05c.26.17.47.38.67.61.2.23.38.48.53.74.16.26.3.54.41.82.12.28.22.57.31.86.35,1.17.47,2.4.45,3.61-.03,1.21-.21,2.42-.46,3.59-.23,1.15-.41,2.32-.45,3.49-.04,1.17.08,2.37.49,3.48.21.55.48,1.08.81,1.55.33.48.72.91,1.14,1.3.42.39.88.74,1.36,1.05.49.3,1.01.56,1.54.78,1.08.44,2.23.7,3.41.87v.06Z"/>
              <path class="cls-13" d="m265.43,200.62c-.16-.33-.29-.66-.41-1-.11-.34-.19-.69-.26-1.04-.07-.35-.11-.71-.14-1.07-.03-.36-.02-.72,0-1.08.1-.72.3-1.42.47-2.12.16-.69.29-1.39.49-2.1.05-.18.09-.36.16-.53.06-.17.12-.35.21-.52.08-.17.17-.33.26-.49.1-.16.2-.31.31-.47.43-.61.97-1.17,1.6-1.58.63-.41,1.33-.72,2.05-.89.72-.17,1.46-.24,2.19-.11v.11c-.67.23-1.3.49-1.91.79-.6.3-1.16.64-1.68,1.03-.52.38-1.03.79-1.46,1.28l-.32.38c-.1.13-.19.27-.3.4-.19.27-.4.54-.57.84-.18.29-.32.61-.45.93-.1.33-.2.66-.24,1.01-.1.69.03,1.39.07,2.07.04.34.05.68.05,1.02.02.34.01.68.02,1.03.01.34,0,.69,0,1.04,0,.35,0,.7-.05,1.07l-.1.02Z"/>
            </g>
            <g>
              <rect class="cls-17" x="306.93" y="213.29" width="7.45" height="12.37" rx="3.72" ry="3.72" transform="translate(610.8 453.12) rotate(-177.34)"/>
              <g>
                <path class="cls-8" d="m310.73,216.75c.39-.01.8.15,1.1.44.15.14.28.31.39.49.11.18.18.37.25.57.25.79.2,1.66-.14,2.43-.17.38-.42.74-.77,1.01-.17.14-.35.25-.58.33-.12.04-.27.06-.43.02-.16-.04-.3-.16-.36-.28-.14-.23-.15-.45-.16-.66,0-.21,0-.4.04-.6.06-.39.15-.76.28-1.13,0,.39,0,.77.02,1.14.01.19.03.37.06.54.04.17.09.34.16.43.04.04.06.05.09.05.02,0,.07,0,.13-.03.12-.05.26-.16.38-.27.24-.22.43-.5.57-.82.27-.63.35-1.36.23-2.05-.07-.34-.18-.68-.39-.97-.19-.3-.49-.51-.86-.65Z"/>
                <path class="cls-8" d="m309.86,218.25c-.17-.2-.26-.43-.31-.67-.05-.24-.05-.5.02-.76.04-.13.09-.26.18-.39.09-.12.22-.23.37-.29.31-.11.6-.01.78.16-.25.08-.44.16-.54.27-.09.1-.14.24-.19.41-.05.17-.09.37-.13.58-.05.21-.1.43-.19.68Z"/>
              </g>
            </g>
            <path class="cls-13" d="m320.19,207.97c.46.5.77,1.08,1.03,1.69.13.3.24.61.33.93.09.31.16.64.19.96.06.66-.01,1.33,0,1.97,0,.65.07,1.29.12,1.95l.03.5c0,.17,0,.33,0,.5,0,.17-.03.33-.05.5-.02.17-.05.33-.08.5-.06.33-.15.66-.24.98-.11.32-.23.64-.39.94-.15.31-.34.59-.53.87-.21.27-.41.54-.66.77-.12.12-.24.24-.36.35-.13.11-.26.21-.39.31-.13.11-.27.19-.41.28-.14.09-.29.17-.43.24l-.07-.08c.72-1.1,1.37-2.12,1.84-3.22.13-.27.24-.55.36-.82.1-.28.23-.56.31-.85.05-.14.1-.29.13-.44.04-.15.09-.29.13-.44.04-.15.08-.3.13-.45l.11-.46c.14-.61.2-1.25.12-1.88-.08-.63-.34-1.23-.52-1.82-.09-.3-.17-.6-.24-.9-.07-.3-.14-.61-.2-.91-.13-.61-.25-1.23-.34-1.89l.09-.05Z"/>
            <path class="cls-13" d="m291.62,176.85c-.77.2-1.51.41-2.24.64-.36.12-.72.24-1.08.37-.09.03-.18.06-.27.09-.09.03-.18.07-.26.1-.18.07-.36.12-.54.18-.36.13-.73.23-1.09.38-.18.07-.36.14-.54.22-.17.09-.34.18-.51.28-.08.05-.17.1-.25.15-.08.05-.16.11-.23.17-.15.12-.31.24-.45.36-.15.12-.28.27-.42.41-.14.14-.26.29-.39.43-.25.3-.47.62-.72.91-.25.31-.53.61-.79.91-.29.28-.58.57-.9.84-.33.26-.66.51-1.04.71-.74.4-1.59.68-2.46.67-.86-.01-1.75-.31-2.3-.96l.07-.08c.71.32,1.47.34,2.16.21.35-.07.68-.18,1.01-.32l.12-.05.12-.06.24-.12c.08-.04.16-.08.24-.12l.23-.14c.32-.17.61-.4.92-.6.16-.1.3-.23.45-.34.15-.12.3-.23.44-.35.28-.26.56-.51.86-.76.15-.13.31-.26.47-.39.16-.12.31-.26.48-.37.34-.23.65-.47.98-.69.17-.11.33-.23.49-.34l.24-.18c.08-.05.16-.11.24-.17.16-.12.32-.24.48-.36.16-.13.32-.23.49-.36.32-.25.67-.46,1.02-.67.18-.1.37-.18.55-.26.09-.04.19-.08.28-.11l.29-.09c.39-.13.79-.21,1.19-.28.4-.06.81-.1,1.22-.09.41,0,.81.04,1.21.15v.11Z"/>
            <path class="cls-12" d="m270.29,187.36c.56.17,1.12.29,1.69.36.57.08,1.14.11,1.71.11,1.14-.01,2.28-.18,3.35-.53.54-.17,1.07-.38,1.58-.64.26-.12.5-.27.75-.4l.36-.23c.12-.07.24-.15.36-.23.94-.65,1.81-1.41,2.61-2.25-.67.94-1.48,1.8-2.42,2.52-.23.19-.48.34-.72.51-.25.15-.5.31-.76.44-.52.28-1.07.5-1.63.69-1.13.36-2.32.51-3.49.46-1.17-.05-2.34-.3-3.4-.79Z"/>
            <path class="cls-12" d="m265.7,209.38c.28-.26.49-.57.65-.89.17-.33.3-.67.39-1.02.1-.35.17-.71.21-1.08l.06-.55v-.55c.03-.18.02-.37.01-.55l-.02-.55c-.03-.37-.06-.74-.1-1.11-.06-.37-.09-.74-.15-1.11-.06-.37-.12-.74-.17-1.12.14.35.25.71.37,1.07.11.36.19.74.27,1.11.08.37.12.75.17,1.13l.03.57c.01.19.02.38.01.57,0,.77-.13,1.54-.39,2.27-.13.37-.31.71-.53,1.03-.22.31-.5.6-.83.79Z"/>
            <path class="cls-12" d="m280.27,208.84c-.61.62-1.32,1.13-2.07,1.58-.37.23-.76.42-1.16.61-.4.18-.81.34-1.23.47-.84.26-1.71.43-2.59.44-.88.02-1.76-.12-2.57-.43.86.14,1.71.18,2.55.1.42-.04.84-.09,1.25-.19.41-.09.82-.19,1.23-.32.81-.25,1.59-.59,2.36-.97.76-.38,1.51-.81,2.23-1.29Z"/>
            <path class="cls-12" d="m291.98,188.6c-1.56.7-2.81,1.9-3.78,3.26-.48.69-.92,1.41-1.3,2.16-.39.75-.75,1.51-1.09,2.29-.69,1.55-1.32,3.13-2.08,4.66-.38.76-.8,1.51-1.29,2.22-.49.7-1.05,1.36-1.73,1.89.61-.59,1.12-1.27,1.55-2,.44-.72.81-1.48,1.16-2.25.69-1.54,1.3-3.13,1.99-4.69.7-1.55,1.46-3.1,2.52-4.47.52-.68,1.12-1.31,1.8-1.84.68-.52,1.44-.95,2.25-1.22Z"/>
            <path class="cls-12" d="m291.98,188.6c.37-.18.76-.34,1.14-.5.4-.12.8-.25,1.21-.34.21-.04.41-.07.62-.1.1-.01.21-.04.31-.04h.32c.21-.01.42-.03.64-.01l.63.06c.11,0,.21.04.31.06l.31.08c.21.04.41.12.61.2.1.04.2.08.3.12l.28.15.28.15.26.18c.69.49,1.28,1.13,1.62,1.89-.49-.67-1.11-1.21-1.8-1.62-.69-.41-1.45-.67-2.24-.8l-.6-.07c-.2-.02-.4,0-.6-.01h-.3c-.1,0-.2.01-.3.02-.2.02-.4.04-.6.06-.2.01-.4.07-.6.1l-.6.11c-.39.11-.79.21-1.2.31Z"/>
            <path class="cls-12" d="m320.87,214.35c-.02-.83-.05-1.65-.18-2.45-.13-.8-.37-1.57-.69-2.32-.15-.38-.32-.76-.47-1.15-.15-.39-.28-.79-.39-1.19-.22-.81-.35-1.64-.39-2.46.22.8.43,1.6.7,2.37.27.77.61,1.51.93,2.28.15.39.3.78.41,1.19l.08.31c.02.1.04.21.06.31.02.1.04.21.05.31l.03.32c.07.84,0,1.68-.15,2.49Z"/>
            <path class="cls-12" d="m313.81,213.43c-1.19-.49-2.27-1.23-3.23-2.09-.96-.86-1.81-1.87-2.49-2.98-.68-1.1-1.21-2.31-1.56-3.55-.35-1.25-.53-2.53-.54-3.82.18,1.27.46,2.52.86,3.72.21.6.43,1.19.7,1.76.13.29.28.57.42.85.16.27.31.55.48.82.66,1.08,1.46,2.07,2.35,2.96.45.44.93.87,1.43,1.26.5.4,1.02.76,1.58,1.08Z"/>
            <path class="cls-12" d="m301.09,185.4c-.11-.62-.1-1.27.06-1.91.08-.32.22-.63.45-.9.22-.28.58-.46.94-.49.36-.03.7.05,1.01.16.3.13.6.28.85.47.53.36.99.8,1.4,1.28-.53-.35-1.04-.7-1.58-1-.53-.29-1.11-.55-1.65-.49-.26.02-.51.14-.69.34-.19.2-.32.46-.43.74-.21.56-.31,1.18-.37,1.81Z"/>
            <path class="cls-12" d="m300.31,186.94c-.28-.62-.65-1.19-1.1-1.69-.44-.51-.94-.95-1.49-1.33-1.09-.76-2.36-1.25-3.66-1.51-1.3-.27-2.66-.29-3.98-.07-.66.11-1.31.28-1.94.51-.64.22-1.25.51-1.83.86,1.08-.84,2.37-1.39,3.72-1.69,1.35-.29,2.76-.3,4.12-.02.68.14,1.34.34,1.98.61.63.28,1.25.62,1.79,1.05,1.1.84,1.99,1.98,2.39,3.29Z"/>
            <g>
              <path class="cls-12" d="m270.57,203.34c-.55-.3-.94-.86-1.15-1.46-.05-.15-.09-.31-.13-.47l-.06-.48c0-.32,0-.64.05-.96.02-.16.05-.32.09-.47l.12-.46c.05-.15.11-.29.17-.44.06-.14.11-.29.19-.43.15-.27.29-.55.46-.81.18-.25.36-.51.55-.75-.11.29-.24.57-.37.85-.12.28-.22.57-.34.84-.1.29-.19.57-.28.86-.06.29-.16.58-.18.87-.1.58-.1,1.18.03,1.75.14.56.41,1.11.84,1.56Z"/>
              <path class="cls-12" d="m272.68,203.71c-.26.1-.56.13-.85.07-.29-.05-.58-.19-.8-.39-.22-.21-.39-.47-.5-.75-.05-.14-.09-.28-.12-.42-.02-.14-.04-.29-.06-.43l.37-.02c0,.26-.03.52-.05.78-.03.26-.06.52-.11.78-.06-.26-.1-.52-.13-.78-.03-.26-.06-.52-.07-.78l.37-.02c.03.13.06.25.08.38.04.12.07.25.12.36.09.23.22.44.37.63.16.18.37.32.6.42.24.1.5.16.78.17Z"/>
              <path class="cls-12" d="m277.42,192.04c-.86.73-1.64,1.54-2.34,2.4-.7.86-1.31,1.8-1.78,2.8-.24.5-.43,1.01-.58,1.54-.08.26-.14.53-.2.8-.04.27-.09.54-.11.82-.04.27-.03.55-.05.83.01.28,0,.55.04.83.03.56.16,1.1.27,1.66-.21-.52-.39-1.07-.48-1.63-.06-.28-.07-.56-.11-.85,0-.29-.03-.57,0-.86.01-.57.11-1.14.25-1.7.14-.56.34-1.1.58-1.62.25-.52.53-1.02.85-1.49.32-.47.68-.92,1.06-1.34.76-.84,1.62-1.6,2.59-2.19Z"/>
            </g>
            <path class="cls-12" d="m286.7,193.6c-.71,1.49-1.55,2.92-2.48,4.29-.93,1.37-1.96,2.67-3.11,3.87-.58.59-1.18,1.17-1.83,1.69-.65.52-1.33,1-2.07,1.4-.73.41-1.51.72-2.32.92-.81.19-1.65.26-2.47.15.83.02,1.64-.1,2.42-.35.78-.24,1.52-.59,2.21-1.01,1.39-.85,2.63-1.93,3.76-3.1.57-.58,1.11-1.2,1.63-1.83.53-.63,1.03-1.28,1.51-1.94.49-.66.96-1.33,1.42-2.02.46-.68.9-1.38,1.33-2.08Z"/>
            <path class="cls-12" d="m316.4,221.8c-.22.4-.49.77-.73,1.14-.24.37-.48.74-.66,1.13-.19.39-.32.79-.39,1.21-.07.42-.07.86-.02,1.32-.22-.4-.32-.87-.31-1.35,0-.47.14-.94.34-1.37.21-.42.47-.81.78-1.15.3-.35.64-.65.99-.94Z"/>
            <path class="cls-12" d="m317.45,199.85c-.25,1.86-.36,3.72-.37,5.59,0,1.87.08,3.73.31,5.58.07.46.13.92.2,1.38.08.46.16.91.25,1.38.09.46.17.93.23,1.39.06.47.11.94.13,1.41.04.94,0,1.92-.29,2.83-.28.93-.87,1.71-1.51,2.38.27-.38.54-.77.76-1.18.22-.41.39-.84.49-1.28.22-.89.23-1.82.16-2.74-.07-.92-.21-1.84-.38-2.75l-.24-1.39c-.08-.46-.12-.93-.19-1.4-.21-1.87-.26-3.75-.19-5.63.01-.47.05-.94.07-1.41.04-.47.08-.93.13-1.4.11-.93.23-1.86.42-2.78Z"/>
            <path class="cls-12" d="m323.22,211.54c-.43.03-.87-.08-1.27-.26-.4-.18-.77-.44-1.08-.74-.31-.31-.57-.67-.77-1.05-.11-.19-.18-.4-.26-.59-.06-.21-.12-.41-.16-.62.13.18.23.36.34.53l.18.26c.06.09.11.17.18.25.24.33.51.64.79.93.58.56,1.25,1.01,2.05,1.3Z"/>
            <path class="cls-12" d="m307.62,193.44c.77.7,1.49,1.46,2.14,2.28.66.81,1.25,1.69,1.73,2.63.47.94.82,1.95.99,3,.17,1.04.16,2.11-.01,3.13,0-1.04-.09-2.07-.31-3.07-.23-1-.58-1.96-1.04-2.87-.45-.92-1.01-1.78-1.61-2.62-.6-.84-1.24-1.65-1.88-2.48Z"/>
            <path class="cls-12" d="m301.14,188.03c.07-.57.19-1.14.38-1.69.09-.28.2-.55.35-.81.15-.25.33-.51.63-.65.15-.07.33-.09.49-.05.16.03.31.11.44.2.25.18.47.37.67.61.4.46.65,1.03.82,1.59.16.57.28,1.13.42,1.68.07.28.15.55.24.82.08.27.18.54.29.8.43,1.05,1.06,2.01,1.76,2.93-.86-.78-1.6-1.71-2.1-2.78-.25-.53-.45-1.09-.59-1.66-.16-.56-.25-1.13-.41-1.68-.14-.54-.35-1.06-.68-1.5-.16-.22-.36-.43-.57-.6-.21-.16-.46-.25-.69-.15-.23.09-.42.31-.57.54-.15.24-.27.49-.38.76-.21.53-.37,1.09-.49,1.65Z"/>
            <path class="cls-12" d="m310.52,185.83c.15.37.36.69.6,1,.12.15.25.3.37.44.14.13.26.28.41.41.56.53,1.18.99,1.84,1.39.32.22.67.39,1,.58.34.18.69.35,1.04.53l1.07.48c.36.15.72.3,1.08.47-.39-.08-.77-.18-1.15-.27-.38-.11-.75-.24-1.13-.37-.37-.15-.73-.31-1.09-.47-.35-.19-.71-.36-1.04-.58-.17-.11-.34-.21-.5-.33l-.48-.36c-.3-.26-.61-.52-.87-.83-.14-.14-.26-.31-.38-.46-.11-.17-.23-.33-.33-.5-.2-.35-.37-.72-.43-1.11Z"/>
          </g>
          <g class="cls-1">
            <path class="cls-2" d="m321.59,325.33s2.68-.87,4.56-2.43c0,0-4.14-1.03-1.82-7.25,0,0-6-18.56-1.81-34.86,0,0-5.85,25.04-.93,44.54Z"/>
          </g>
          <g class="cls-1">
            <path class="cls-2" d="m265.98,304.84v-.02c-.16-.58-4.43-16.44-3.83-32.31,0,0-2.93,7.62,1.19,23.92,1.2,4.73.78,9.73-1.17,14.21l-1.18,2.73,4.99-8.53Z"/>
          </g>
          <g class="cls-1">
            <path class="cls-2" d="m327.29,322.92s8.25-1.32,16,3.51c0,0-10.66-9.21-16-3.51Z"/>
          </g>
          <g class="cls-1">
            <path class="cls-2" d="m290.65,338.76s1.57,6.24-1.16,12.24h-5.1c2.5-.44,7.72-4.54,6.27-12.24Z"/>
          </g>
          <g class="cls-1">
            <path class="cls-2" d="m271.39,332.95s-1.72,1.26-2.89,0l-.77-18.21,3.65,18.21Z"/>
          </g>
          <path class="cls-2" d="m253.97,306.29c-.75-.67-1.57-1.26-2.41-1.81-.42-.27-.85-.53-1.29-.77l-.66-.36-.67-.33c-.22-.12-.45-.21-.68-.31-.23-.1-.46-.21-.69-.29l-.7-.28-.71-.25c-.47-.18-.95-.3-1.43-.45-.24-.08-.49-.13-.73-.2-.24-.06-.49-.13-.73-.2.25.03.5.06.75.09.25.04.5.06.75.12.49.11,1,.2,1.48.35.98.26,1.93.65,2.85,1.07.92.44,1.79.96,2.62,1.56.82.6,1.6,1.26,2.24,2.05Z"/>
          <path class="cls-2" d="m231.96,317.22c.77-.08,1.55.07,2.28.32.74.26,1.42.66,2.03,1.13.29.26.6.5.85.8.13.15.27.28.38.44.12.15.23.31.35.47.12.15.22.32.32.49l.29.5c.17.35.32.7.47,1.05-.22-.32-.42-.64-.63-.96l-.34-.46c-.11-.15-.22-.31-.35-.45-.12-.14-.25-.28-.36-.43-.12-.15-.26-.27-.39-.4-.25-.28-.55-.51-.83-.75-.59-.46-1.22-.85-1.91-1.15-.69-.3-1.41-.52-2.17-.6Z"/>
          <path class="cls-2" d="m224.28,320.02c1.24-.31,2.52-.47,3.81-.51,1.29-.03,2.58.06,3.84.34.63.14,1.25.32,1.86.56.6.24,1.19.53,1.73.88.55.35,1.05.77,1.5,1.23l.32.36c.11.12.2.25.3.38.2.25.36.53.53.8-.39-.51-.8-1-1.28-1.41-.47-.42-.98-.79-1.52-1.11-.55-.31-1.12-.58-1.71-.8-.59-.22-1.2-.39-1.81-.52-.61-.14-1.24-.23-1.87-.3-.63-.07-1.26-.1-1.9-.11-.63,0-1.27,0-1.9.04-.64.03-1.27.09-1.9.18Z"/>
          <path class="cls-2" d="m288.46,332c.83,1.42,1.47,2.96,1.96,4.54.49,1.58.83,3.21.97,4.86.07.83.09,1.66.05,2.49-.04.83-.12,1.66-.28,2.47-.29,1.63-.87,3.21-1.67,4.65.31-.76.64-1.52.85-2.31l.09-.29.07-.3c.05-.2.1-.4.15-.59.08-.4.17-.8.22-1.2.07-.4.1-.81.15-1.21.03-.41.06-.81.07-1.22.03-.81,0-1.63-.07-2.44-.06-.81-.17-1.62-.32-2.42-.14-.8-.33-1.6-.55-2.39-.22-.79-.46-1.57-.74-2.34-.27-.77-.59-1.53-.94-2.28Z"/>
          <path class="cls-2" d="m327.29,322.92c2.2-.34,4.45-.35,6.67-.09,1.11.13,2.21.34,3.29.64,1.08.3,2.14.69,3.15,1.17.25.13.51.24.75.38l.73.42c.47.31.95.61,1.38.96.88.69,1.71,1.47,2.39,2.36l.26.33.24.35c.16.23.33.46.47.7.28.49.57.96.8,1.48.49,1,.83,2.07,1.12,3.15l-.28-.78c-.09-.26-.18-.53-.29-.78l-.33-.76c-.05-.13-.12-.25-.18-.37l-.19-.37c-.24-.5-.55-.96-.84-1.43-.15-.23-.32-.45-.48-.67l-.24-.33-.27-.31c-.7-.85-1.51-1.6-2.38-2.27-.43-.34-.9-.63-1.36-.93l-.72-.41c-.24-.14-.49-.25-.74-.37-1.98-.95-4.13-1.54-6.32-1.86-1.09-.16-2.2-.25-3.31-.29-1.11-.04-2.22-.01-3.33.09Z"/>
          <path class="cls-2" d="m338.45,332.57c-.54-.88-1.14-1.72-1.76-2.54-.63-.81-1.29-1.6-2-2.33-.35-.37-.73-.72-1.11-1.06-.38-.34-.78-.66-1.19-.96-.82-.6-1.71-1.13-2.65-1.55.5.14.98.33,1.46.54.47.23.93.47,1.36.77.88.57,1.67,1.25,2.4,2,.36.38.71.76,1.04,1.17.33.41.64.82.93,1.25.59.86,1.11,1.76,1.52,2.71Z"/>
          <path class="cls-2" d="m325.19,314.02c.67-1.58,1.55-3.06,2.56-4.46,1.01-1.39,2.15-2.69,3.43-3.85.64-.57,1.32-1.12,2.03-1.61.35-.25.72-.47,1.09-.7.38-.21.75-.43,1.14-.62,1.53-.79,3.2-1.3,4.89-1.56-.83.22-1.66.43-2.45.75-.1.04-.2.07-.3.11l-.29.13c-.19.08-.39.16-.58.25-.38.19-.77.36-1.14.57-.38.2-.73.42-1.1.64-.35.23-.71.46-1.05.71-.35.24-.68.51-1.02.77-.33.27-.65.54-.97.83-1.27,1.13-2.41,2.4-3.45,3.74-.52.67-1.01,1.37-1.48,2.08-.47.71-.91,1.45-1.31,2.2Z"/>
          <path class="cls-2" d="m326.15,322.9c-1.07.93-2.31,1.65-3.61,2.22-1.3.57-2.68.98-4.08,1.22-1.4.24-2.84.3-4.26.2-1.42-.11-2.82-.39-4.16-.82,1.38.29,2.78.47,4.18.53.7.02,1.4.02,2.1-.03.35-.02.7-.06,1.04-.09.35-.05.69-.09,1.04-.15,1.38-.23,2.73-.61,4.03-1.12.65-.26,1.29-.54,1.92-.87.63-.32,1.23-.68,1.81-1.08Z"/>
          <path class="cls-2" d="m310.89,326.66c.58.5,1.18.98,1.79,1.44.61.46,1.24.9,1.87,1.32,1.27.84,2.59,1.61,3.96,2.27.68.34,1.38.64,2.09.91.71.28,1.43.51,2.16.72,1.47.41,2.98.67,4.51.75-.38,0-.77.03-1.15,0-.19,0-.38-.01-.58-.03l-.58-.05c-.77-.09-1.53-.21-2.28-.4-1.5-.36-2.96-.91-4.34-1.58-1.39-.67-2.71-1.47-3.97-2.37-1.25-.9-2.44-1.89-3.5-3Z"/>
          <path class="cls-2" d="m309.26,325.56c-.48-.17-.97-.28-1.46-.32-.49-.03-.99.02-1.46.16-.47.14-.91.35-1.32.62-.1.07-.2.14-.3.21l-.29.23-.56.5c-.41.34-.89.58-1.39.71-.5.13-1.03.16-1.54.09-.5-.08-1-.16-1.5-.22-.5-.06-1-.11-1.51-.15-2.01-.15-4.03-.26-6.03-.14-1,.06-2,.18-2.93.5-.46.16-.91.38-1.26.73l-.13.13-.11.15c-.08.09-.13.21-.18.31-.03.05-.05.11-.07.17l-.05.18c-.03.12-.04.25-.06.37h-.04c-.04-.51.14-1.04.49-1.44.35-.4.81-.67,1.29-.87.96-.4,1.99-.54,3.01-.63,1.02-.07,2.04-.05,3.05,0,1.01.06,2.02.17,3.03.32,1,.14,2,.31,3,.45.99.11,2-.25,2.71-.92.69-.72,1.59-1.37,2.61-1.61.51-.12,1.04-.15,1.55-.08.51.08,1,.25,1.45.48l-.02.03Z"/>
          <path class="cls-2" d="m271.39,332.95c1.31-.29,2.61-.56,3.92-.82l3.93-.78,3.93-.77,3.93-.78c-1.27.41-2.57.76-3.87,1.07-1.3.31-2.61.59-3.92.85-1.31.25-2.63.49-3.95.7-1.32.21-2.64.39-3.97.54Z"/>
          <path class="cls-2" d="m324.33,315.65c-.93-2.79-1.61-5.66-2.17-8.56-.28-1.45-.5-2.9-.69-4.36-.19-1.46-.34-2.93-.45-4.4-.05-.74-.08-1.47-.11-2.21-.02-.74-.04-1.47-.04-2.21,0-1.47.04-2.95.16-4.42.11-1.47.29-2.93.53-4.39l.2-1.09c.07-.36.15-.72.23-1.08.14-.72.35-1.43.53-2.14-.64,2.87-1.04,5.79-1.2,8.72l-.03.55-.02.55-.04,1.1c-.01.73-.03,1.47-.01,2.2,0,.73.03,1.47.05,2.2.04.73.07,1.47.13,2.2.18,2.93.57,5.84,1.05,8.74.24,1.45.52,2.89.84,4.33.3,1.44.66,2.87,1.05,4.28Z"/>
          <path class="cls-2" d="m326.15,322.9c-.35-.06-.68-.21-.99-.39-.31-.19-.59-.43-.82-.71-.24-.28-.42-.6-.57-.94-.14-.34-.23-.7-.28-1.06-.09-.72-.04-1.45.13-2.15.16-.7.4-1.37.72-2-.17.69-.33,1.37-.43,2.05-.02.17-.04.34-.06.51,0,.17-.03.34-.03.51-.01.34,0,.68.05,1.02.09.67.31,1.32.71,1.87.2.27.43.53.7.74.27.22.56.4.89.54Z"/>
          <path class="cls-2" d="m334.04,258.14c-1.47,1.42-2.77,3-3.96,4.65-.6.82-1.16,1.67-1.7,2.54l-.78,1.31c-.25.44-.48.9-.72,1.34-.25.44-.46.91-.68,1.36l-.33.69c-.05.12-.11.23-.16.35l-.15.35-.59,1.41c-.1.23-.18.47-.27.71l-.26.72c-.37.95-.63,1.93-.93,2.91-.16.48-.26.99-.38,1.48-.12.5-.24.99-.36,1.49.08-.5.17-1.01.26-1.51.1-.5.17-1.01.3-1.51l.38-1.49.1-.37c.03-.12.08-.24.12-.37l.24-.73c.61-1.96,1.45-3.84,2.38-5.67.94-1.83,2.06-3.56,3.3-5.19.62-.82,1.28-1.6,1.97-2.36.71-.74,1.43-1.47,2.22-2.12Z"/>
          <path class="cls-2" d="m265.98,304.84c-.39-1.3-.72-2.63-1.04-3.95-.16-.66-.3-1.33-.45-1.99l-.42-2c-.53-2.67-.94-5.37-1.3-8.07-.33-2.7-.57-5.42-.69-8.14-.14-2.72-.09-5.45.05-8.17,0,.68.01,1.36.01,2.04v1.02s.04,1.02.04,1.02l.06,2.04.12,2.04c.03.68.09,1.36.15,2.03.06.68.1,1.36.17,2.03l.21,2.03c.07.68.17,1.35.25,2.02.32,2.7.74,5.39,1.21,8.06l.36,2.01.4,2c.26,1.33.55,2.66.86,3.99Z"/>
          <path class="cls-2" d="m267.97,307.63c.69,1.25,1.45,2.45,2.26,3.62.81,1.17,1.66,2.31,2.56,3.41.91,1.09,1.84,2.17,2.84,3.17,1,1.01,2.05,1.97,3.15,2.86,2.19,1.8,4.61,3.33,7.22,4.43,2.61,1.12,5.41,1.75,8.26,1.91l-1.07-.03c-.18,0-.36-.01-.53-.02l-.53-.06c-.35-.04-.71-.07-1.06-.12l-1.06-.18c-.35-.05-.7-.16-1.05-.24-.35-.09-.7-.16-1.04-.28l-1.02-.33-1-.38c-.34-.12-.66-.27-.99-.42-.32-.15-.66-.29-.97-.46l-.95-.5-.93-.55c-1.22-.75-2.4-1.57-3.51-2.48-2.2-1.83-4.21-3.89-5.97-6.15-.88-1.13-1.71-2.29-2.49-3.49-.76-1.21-1.49-2.44-2.11-3.72Z"/>
          <path class="cls-2" d="m269.41,305.87c.41.43.87.8,1.36,1.13l.36.25c.12.08.25.15.38.23.13.07.25.15.38.22l.39.2c1.05.53,2.16.91,3.29,1.18l.86.17.22.04.22.03.44.05.44.06c.07,0,.15.02.22.03h.22s.88.06.88.06c.29.03.59,0,.88,0h.88c.59-.04,1.18-.1,1.77-.12-.29.06-.58.11-.88.16-.29.05-.59.11-.88.14l-.89.07c-.3.02-.59.05-.89.04-.6,0-1.2,0-1.79-.08l-.45-.05-.22-.02-.22-.04-.88-.17c-1.16-.28-2.3-.7-3.35-1.29-1.04-.59-2.01-1.34-2.73-2.28Z"/>
          <path class="cls-2" d="m260.99,300.82c-1.36-1.03-2.64-2.19-3.84-3.41-1.2-1.22-2.32-2.53-3.37-3.89-.26-.34-.53-.68-.77-1.03l-.74-1.06c-.24-.35-.46-.73-.69-1.09l-.34-.55c-.11-.18-.21-.37-.32-.56l-.62-1.13-.56-1.16-.27-.58-.24-.6c-.16-.4-.32-.8-.47-1.19.19.38.38.77.56,1.15l.28.58.31.56.61,1.12.66,1.1c.89,1.45,1.85,2.86,2.9,4.2,1.03,1.35,2.13,2.66,3.29,3.91l.88.93c.3.3.59.61.9.91.6.61,1.22,1.19,1.86,1.77Z"/>
          <path class="cls-2" d="m255.78,293.16c-.92-1.04-1.73-2.17-2.47-3.35-.73-1.18-1.38-2.42-1.91-3.71-.26-.65-.5-1.31-.68-1.98-.19-.67-.34-1.36-.42-2.05-.09-.69-.13-1.4-.07-2.09.06-.7.18-1.39.4-2.04-.3,1.36-.27,2.75-.04,4.09.11.67.27,1.34.48,2,.19.66.43,1.3.69,1.94.51,1.27,1.14,2.5,1.82,3.7.34.6.69,1.19,1.07,1.77.36.59.75,1.16,1.15,1.73Z"/>
          <path class="cls-2" d="m262.08,271.12c-.2-.87-.33-1.75-.44-2.63-.11-.88-.18-1.77-.23-2.66-.04-.89-.06-1.78-.01-2.67.04-.89.13-1.78.32-2.65-.04.89-.04,1.77-.03,2.66,0,.22.01.44.01.66l.02.66c.01.44.03.88.06,1.33.04.88.1,1.77.15,2.65.05.88.11,1.77.15,2.66Z"/>
          <g>
            <rect class="cls-12" x="298.33" y="284" width="14.29" height="1.15"/>
            <g>
              <rect class="cls-12" x="300.24" y="286" width="10.47" height="16.87"/>
              <rect class="cls-4" x="302.04" y="297.87" width="6.88" height=".36"/>
              <circle class="cls-4" cx="305.48" cy="285.78" r="1.52" transform="translate(-42.84 517.43) rotate(-76.72)"/>
              <rect class="cls-4" x="303.61" y="291.39" width="3.74" height="4.31"/>
              <rect class="cls-4" x="302.82" y="298.68" width="5.31" height=".36"/>
              <circle class="cls-12" cx="305.48" cy="285.78" r=".63"/>
            </g>
          </g>
          <path class="cls-17" d="m271.39,332.95s5.51,2.41,4.71,15.77c0,0-2.6.41-4.79,1.37-2.13.93-6.28.78-10.9-3.04-5.28-4.37-8.65-5.98-8.65-5.98,0,0-3.19-.64-4.38-1.16,0,0-1.17,1.2-2.93,1.85,0,0,.23,2.75-1.98,3.63-.3.12-.62-.08-.66-.39-.12-.92-.41-2.76-.9-4.18-.21-.59-.06-1.25.39-1.7.58-.57,1.36-1.38,1.91-2.11,0,0-1.15.18-2.63.22,0,0-.7,1.19-2.7,2.5,0,0,1,5.19-3.39,5.38-.3.01-.54-.24-.51-.54.07-.67.14-1.89-.07-3.15,0,0-.24,1.81-1.85,2.6-.3.15-.66-.06-.7-.4-.13-1.3-.49-4.31-1.19-6.49-.23-.72-.11-1.51.34-2.12,1.07-1.43,3.02-4.11,4.25-6.18.59-1,1.55-1.71,2.68-1.99,2.95-.72,8.74-2.24,12.35-3.82,1.34-.59,2.89-.45,4.11.35,0,0,10.15,6.79,13.57,8.98.83.53,2.09,1.3,3.91.58Z"/>
          <path class="cls-17" d="m234.2,329.79s.2,3.16-2.63,4.48c0,0-1.74.37-.87,2.36,0,0-.23,2.03-2.42,1.84-2.19-.19-3.13-2.61-3.13-2.61,0,0-1.18.25-2.19-.15,0,0-3.44.96-7.68-.13,0,0-.74,3.8-4.12,3.21-.35-.06-.58-.4-.5-.75.17-.69.44-1.94.66-3.42,0,0-.68-.2-.96-.44,0,0,.62,3.94-2.71,4.6-.31.06-.62-.13-.7-.44l-.45-1.61s-.05.78-.95,1.24c-.33.17-.73,0-.86-.34-.25-.72-.7-1.91-1.03-2.39,0,0,.35,1.19-.48,1.94-.31.29-.82.17-.98-.22-.26-.63-.72-1.65-1.33-2.62-.28-.44-.4-.97-.34-1.49.11-.97.25-2.61.17-3.96-.03-.47.2-.93.6-1.18l1.13-.74s.22-1.39.26-2.67c.02-.66.52-1.21,1.19-1.28l4.16-.42,4.86-2.27c.56-.26,1.18-.38,1.79-.34l3.85.24h0c.94-.7,2.17-.91,3.29-.56l1.63.51s2.24.74,4.15,2.44c.82.72,1.69,1.38,2.66,1.88,1.35.71,3.27,2.22,3.93,5.32Z"/>
          <path class="cls-8" d="m254.9,334.82c-.25.09-.51.13-.77.16-.26.03-.52.05-.79.06-.53.01-1.05,0-1.58-.03-.53-.03-1.05-.09-1.57-.13-.52-.04-1.04-.08-1.56-.09-.52-.02-1.04-.04-1.56-.04-.27,0-.51,0-.76.05-.24.05-.48.14-.7.25-.22.12-.41.28-.61.45l-.59.51c-.4.34-.8.68-1.21,1.01.37-.38.74-.74,1.11-1.11l.57-.54c.18-.18.39-.37.62-.51.23-.14.49-.25.76-.31.27-.06.55-.07.81-.07.53,0,1.05,0,1.58.02.53.02,1.05.06,1.57.11.52.05,1.04.12,1.56.18.52.06,1.04.1,1.56.11.52.02,1.05.02,1.56-.08Z"/>
          <path class="cls-8" d="m251.07,328.7c-.48.22-.99.34-1.51.44-.52.1-1.03.17-1.56.22-1.04.1-2.09.11-3.14.07-1.04-.04-2.08-.1-3.12-.12-1.03,0-2.05.48-2.7,1.28-1.22,1.68-2.44,3.37-3.7,5.04l-.47.62c-.16.21-.3.41-.42.63-.24.44-.38.93-.42,1.44-.11,1.03-.15,2.07-.1,3.11h-.03c-.14-1.03-.16-2.09-.09-3.13.02-.53.16-1.07.4-1.55.12-.24.28-.47.43-.68l.46-.63c.62-.84,1.26-1.66,1.89-2.49l.95-1.24.48-.62c.16-.2.32-.41.5-.61.72-.79,1.76-1.25,2.81-1.27,1.04,0,2.09-.02,3.13-.02,1.04.01,2.08.01,3.11-.05.52-.03,1.04-.07,1.55-.15.51-.07,1.03-.16,1.52-.32v.03Z"/>
          <path class="cls-8" d="m249.19,324.47c-.57.47-1.32.7-2.04.81-.73.12-1.46.16-2.19.21-.73.05-1.45.11-2.18.19-.72.09-1.44.21-2.16.36.69-.25,1.4-.44,2.13-.57.72-.13,1.46-.2,2.19-.26.73-.05,1.46-.08,2.18-.15.72-.07,1.44-.22,2.07-.59Z"/>
          <path class="cls-8" d="m212.77,326.1c-.14.76-.3,1.52-.48,2.28-.09.38-.18.75-.27,1.13-.09.38-.2.75-.28,1.12-.08.37-.14.75-.16,1.13-.02.19-.02.38-.02.57,0,.19,0,.39-.01.58-.03.78-.11,1.56-.32,2.31.05-.38.09-.77.1-1.16.02-.39.01-.77.01-1.16v-.58c-.02-.2-.02-.39,0-.59.02-.39.07-.79.15-1.17.19-.76.4-1.5.61-2.25.21-.75.44-1.49.69-2.22Z"/>
          <path class="cls-8" d="m218.55,320.21c-.2.29-.42.55-.65.81-.23.26-.46.51-.71.75-.25.23-.52.45-.77.69-.25.24-.47.5-.7.76-.22.26-.45.53-.68.78-.23.25-.47.5-.71.75-.49.48-1,.94-1.56,1.36l-.02-.02c.43-.55.89-1.06,1.36-1.55.24-.25.49-.48.74-.72.25-.24.5-.47.76-.7.26-.23.51-.46.74-.72.23-.25.44-.53.67-.79.23-.26.47-.5.72-.74.25-.24.51-.47.78-.68l.02.02Z"/>
          <path class="cls-8" d="m210.33,334.17c-.05-.56-.14-1.12-.23-1.67-.04-.28-.09-.55-.13-.83-.04-.28-.07-.56-.1-.84v-.03s0-.02,0-.02c.35-.59.59-1.24.79-1.89.09-.33.19-.66.26-.98.07-.33.13-.66.13-.98v-.12s.12-.03.12-.03c.22-.06.45-.14.67-.23.22-.1.43-.2.64-.33.2-.13.4-.27.58-.43.19-.16.36-.33.53-.51l.02.02c-.13.21-.27.42-.44.61-.17.19-.35.36-.56.51-.2.15-.42.29-.65.4-.23.11-.46.21-.72.27l.12-.15c0,.37-.09.71-.17,1.05-.09.34-.21.66-.35.98-.13.32-.28.63-.42.94-.14.31-.27.63-.4.95v-.04c.07.28.14.55.2.83.06.28.1.56.13.84.07.56.1,1.14.02,1.7h-.03Z"/>
          <path class="cls-8" d="m208.04,322.59c-.28.17-.56.33-.84.48-.28.15-.53.35-.75.57-.44.45-.73,1.02-.85,1.63-.03.15-.05.31-.06.46l-.02.49c-.02.32-.04.65-.05.97-.02.65-.03,1.29-.04,1.94,0,.32-.01.65-.04.97-.01.16-.03.33-.05.49-.02.16-.05.33-.07.48-.03.3.02.6.14.89.11.31.21.61.31.92.37,1.24.67,2.52.77,3.82h-.03c-.27-1.26-.63-2.5-1.03-3.73l-.3-.92c-.12-.31-.17-.67-.12-1.01.02-.18.06-.32.08-.48.03-.16.05-.32.07-.48.04-.32.08-.64.11-.96.06-.64.1-1.29.1-1.94,0-.32,0-.65-.02-.97l-.02-.49c0-.17,0-.34.03-.5.09-.67.43-1.3.92-1.75.24-.23.53-.41.83-.55.3-.13.6-.26.9-.38v.03Z"/>
          <path class="cls-8" d="m202.43,326.94c.03.72.03,1.45,0,2.18-.03.72-.09,1.45-.19,2.17-.03.19-.06.35-.05.52,0,.17.03.34.07.5.04.16.11.32.2.47.09.15.19.31.28.47.36.63.68,1.29.92,1.98-.34-.64-.72-1.26-1.1-1.86l-.3-.45c-.1-.16-.19-.34-.24-.52-.06-.18-.09-.38-.09-.57,0-.19.03-.39.05-.56.11-.71.18-1.43.25-2.15l.22-2.16Z"/>
          <path class="cls-8" d="m222.97,327.46c.22.94.49,1.86.87,2.73l.14.32.16.32c.05.11.11.21.17.31.06.1.11.21.18.31.25.41.55.77.87,1.14-.39-.28-.75-.62-1.05-1.02-.29-.39-.54-.82-.73-1.27-.19-.45-.34-.92-.45-1.39-.1-.48-.17-.96-.16-1.45Z"/>
          <path class="cls-8" d="m222.45,325.28c-.4.46-.84.88-1.29,1.29-.45.41-.92.8-1.4,1.17-.48.38-.98.72-1.5,1.05-.51.33-1.05.63-1.59.91l.08-.12c-.04.52-.1,1.03-.17,1.54-.08.51-.17,1.02-.3,1.52-.12.5-.26,1-.42,1.49-.17.49-.36.97-.59,1.43.17-.49.33-.97.46-1.47.13-.49.25-.99.34-1.49.09-.5.18-1.01.25-1.51.07-.51.13-1.02.16-1.52v-.08s.08-.04.08-.04c.53-.28,1.06-.57,1.57-.89.26-.15.51-.32.76-.49.25-.17.5-.34.75-.52.49-.35.97-.72,1.44-1.1.47-.38.93-.78,1.38-1.19Z"/>
          <path class="cls-8" d="m225.5,332.35c-.25.52-.36,1.1-.38,1.66-.02.57.07,1.14.2,1.69.07.28.15.56.26.82.11.26.27.51.46.72.38.43.9.74,1.44.9.55.16,1.13.19,1.67.06.54-.13,1.02-.46,1.3-.92.15-.23.26-.49.3-.75.04-.27,0-.54-.07-.81-.16-.54-.48-1.06-.56-1.65h.03c.16.55.52,1.02.74,1.58.11.28.17.6.13.91-.03.32-.15.61-.31.88-.16.26-.38.5-.64.67-.26.17-.55.29-.85.35-.6.13-1.23.05-1.78-.16-.56-.22-1.05-.56-1.46-.99-.2-.22-.38-.46-.52-.72-.14-.27-.25-.54-.35-.82-.19-.56-.26-1.17-.21-1.77.05-.59.23-1.19.58-1.67l.02.02Z"/>
          <path class="cls-8" d="m232.53,326.92c.38.57.57,1.3.48,2.01-.04.36-.15.7-.32,1.02-.07.16-.19.3-.29.45-.1.14-.2.27-.3.41-.38.56-.71,1.16-1,1.78-.29.62-.55,1.25-.78,1.9.12-.68.32-1.35.58-1.99.25-.65.58-1.27.96-1.85.1-.14.21-.28.31-.42.09-.14.2-.27.27-.41.09-.14.15-.29.21-.45.05-.16.1-.31.13-.48.06-.33.06-.66.02-1-.04-.34-.14-.67-.28-.98Z"/>
          <path class="cls-8" d="m234.78,328.84c-.31.59-.64,1.18-.99,1.75-.34.58-.71,1.13-1.03,1.72-.33.58-.63,1.17-.92,1.77-.3.6-.62,1.19-1.02,1.74.3-.6.55-1.22.82-1.83.25-.62.55-1.23.88-1.82.17-.29.34-.58.53-.86l.56-.83c.38-.55.77-1.1,1.17-1.63Z"/>
        </g>
        <g>
          <ellipse class="cls-5" cx="309.91" cy="217.13" rx="8.03" ry="5.11" transform="translate(78.64 516.64) rotate(-87.34)"/>
          <polygon class="cls-5" points="309.54 225.15 311.51 225.19 312.26 209.16 310.1 209.11 309.54 225.15"/>
          <ellipse class="cls-18" cx="311.89" cy="217.18" rx="8.03" ry="6.07" transform="translate(80.48 518.66) rotate(-87.34)"/>
          <path class="cls-18" d="m311.72,209.43s-.02,0-.03,0c-.15-.01-.27-.15-.25-.31.02-.17,1.54-16.72-4.57-23.3-1.7-1.83-3.87-2.73-6.43-2.67-.15.01-.28-.12-.29-.27,0-.15.12-.28.27-.29,2.74-.06,5.04.9,6.85,2.85,6.28,6.76,4.79,23.04,4.72,23.73-.01.14-.14.25-.28.25Z"/>
          <path class="cls-18" d="m313.02,209.54s-.02,0-.03,0c-.15-.01-.27-.15-.25-.31.02-.17,1.54-17.37-5-23.77-1.91-1.87-4.36-2.65-7.27-2.31-.15.02-.29-.09-.31-.25-.02-.15.09-.29.25-.31,3.09-.36,5.69.47,7.73,2.47,6.74,6.59,5.23,23.5,5.17,24.22-.01.15-.14.25-.28.25Z"/>
          <path class="cls-4" d="m312.82,223.56c-.06,0-.12,0-.17,0-1.29-.06-2.47-.78-3.32-2.02-.85-1.23-1.27-2.84-1.19-4.52.08-1.68.65-3.24,1.6-4.39.96-1.16,2.2-1.76,3.49-1.7,1.29.06,2.47.78,3.32,2.02.85,1.23,1.27,2.84,1.19,4.52h0c-.08,1.68-.65,3.24-1.6,4.39-.92,1.1-2.09,1.71-3.32,1.71Zm.24-12.46c-1.17,0-2.29.58-3.17,1.64-.93,1.12-1.49,2.64-1.56,4.28-.08,1.64.34,3.21,1.16,4.41.82,1.19,1.94,1.88,3.17,1.94,1.22.06,2.41-.52,3.34-1.63.93-1.12,1.49-2.64,1.56-4.28.08-1.64-.34-3.21-1.16-4.41-.82-1.19-1.94-1.88-3.17-1.94-.06,0-.11,0-.16,0Z"/>
          <path class="cls-18" d="m297.27,228.91c-.71,0-1.45-.04-2.21-.12l.06-.56c8.66.96,14.16-4.18,14.21-4.23l.39.41c-.05.05-4.82,4.51-12.46,4.51Z"/>
          <path class="cls-12" d="m297.3,229.94c-.78,0-1.57-.04-2.35-.13-.72-.08-1.24-.73-1.16-1.44.08-.72.73-1.23,1.44-1.16,1.21.13,2.43.15,3.62.05.72-.06,1.35.47,1.42,1.19.06.72-.47,1.35-1.19,1.42-.59.05-1.19.08-1.78.08Z"/>
          <ellipse class="cls-16" cx="313.02" cy="217.3" rx="4.62" ry="3.5" transform="translate(81.44 519.9) rotate(-87.34)"/>
          <polygon class="cls-16" points="313.23 212.68 314.36 212.68 314.15 221.92 312.8 221.91 313.23 212.68"/>
          <ellipse class="cls-12" cx="314.15" cy="217.3" rx="4.62" ry="3.5" transform="translate(82.52 521.03) rotate(-87.34)"/>
          <path class="cls-4" d="m314.44,220.57s-.06,0-.09,0c-1.37-.06-2.42-1.57-2.33-3.37.04-.86.33-1.67.83-2.26.5-.6,1.14-.91,1.81-.88,1.37.06,2.42,1.57,2.33,3.37-.08,1.75-1.21,3.14-2.55,3.14Zm.12-6.32c-.58,0-1.14.29-1.58.82-.47.56-.74,1.32-.78,2.15-.08,1.69.89,3.11,2.15,3.17,1.26.05,2.36-1.27,2.44-2.96.08-1.69-.89-3.11-2.15-3.17-.03,0-.05,0-.08,0Z"/>
        </g>
        <g>
          <rect class="cls-12" x="194.4" y="346.46" width="63.86" height="4.54"/>
          <path class="cls-12" d="m217.66,325.49l-2.09-.09h0l-112.88-4.67c-3.04-.13-5.52-2.72-5.8-6.05l-6.24-76.28c-.31-3.79,2.33-7.09,5.79-7.24l112.12-4.67,2.08-.09c3.22-.13,5.96,2.52,6.25,6.05l7.01,85.79c.33,3.99-2.61,7.39-6.25,7.24Z"/>
          <path class="cls-12" d="m161.6,336.46l6.06-49.77h-25.33l-6.47,53.15c-.72,5.88,3.44,11.1,8.84,11.1h39.01v-.77s-10.66-.99-13.85-1.93c-5.17-1.53-8.98-5.9-8.27-11.78Z"/>
          <g class="cls-1">
            <path class="cls-12" d="m217.66,325.49l-2.09-.09c3.64.15,6.56-3.07,6.24-7.06l-7.01-85.79c-.29-3.52-3.04-6.18-6.25-6.05h.02s2.08-.09,2.08-.09c3.22-.13,5.96,2.52,6.25,6.05l7.01,85.79c.33,3.99-2.61,7.39-6.25,7.24Z"/>
          </g>
          <g class="cls-1">
            <polygon class="cls-12" points="166.77 291.76 167.27 323.4 163.21 323.24 166.77 291.76"/>
          </g>
          <circle class="cls-9" cx="153.06" cy="297.65" r="3.7" transform="translate(-171.64 378.88) rotate(-76.83)"/>
          <g class="cls-1">
            <rect class="cls-12" x="231.64" y="346.46" width="26.63" height="4.54"/>
          </g>
          <path class="cls-11" d="m147.76,286.71c-.59.03-1.18.13-1.74.3-.56.18-1.09.45-1.57.77-.25.16-.47.35-.69.54l-.31.31c-.11.1-.19.22-.29.33-.36.45-.67.95-.9,1.48-.22.54-.37,1.1-.44,1.68l-.21,1.77c-.13,1.18-.29,2.36-.44,3.54l-.48,3.53-.24,1.76-.23,1.77c-.31,2.36-.57,4.72-.82,7.08-.25,2.36-.51,4.72-.79,7.08-.27,2.36-.55,4.72-.84,7.07-.58,4.71-1.21,9.42-1.9,14.12h-.04c.46-4.73.98-9.46,1.55-14.17.28-2.36.58-4.71.88-7.07.3-2.36.61-4.71.93-7.06.32-2.35.63-4.71.9-7.07l.2-1.77.19-1.77.38-3.54c.14-1.18.27-2.36.42-3.54l.23-1.77c.08-.6.24-1.19.49-1.75.24-.56.58-1.07.97-1.53.1-.11.2-.23.31-.33l.33-.31c.24-.19.47-.38.73-.54.51-.32,1.06-.58,1.64-.73.58-.16,1.18-.23,1.77-.22v.04Z"/>
          <path class="cls-11" d="m161.58,336.46c.27-2.76.57-5.52.88-8.27l.48-4.13c.16-1.38.34-2.75.51-4.13l.55-4.12.28-2.06.26-2.06c.35-2.75.66-5.51.97-8.26.3-2.76.61-5.51.93-8.27l.12-1.03.06-.52c.02-.17.02-.34.03-.5.02-.67-.04-1.35-.25-1.99-.2-.64-.51-1.25-.9-1.79-.39-.55-.89-1.01-1.44-1.39-.27-.2-.57-.35-.87-.5l-.47-.19c-.08-.03-.16-.06-.24-.08l-.24-.07c-.08-.02-.16-.05-.24-.07l-.25-.04-.25-.04-.12-.02h-.13s-.5-.04-.5-.04h-.52s-4.16-.04-4.16-.04c-2.77-.03-5.55-.07-8.32-.13v-.04c2.77-.06,5.55-.1,8.32-.13l4.16-.03c1.39-.07,2.88.26,4.05,1.09.59.41,1.12.9,1.54,1.48.42.58.75,1.23.95,1.91.22.68.28,1.41.25,2.12-.01.18-.02.36-.04.53l-.07.52-.13,1.03c-.35,2.75-.71,5.5-1.08,8.25-.37,2.75-.73,5.5-1.04,8.25l-.24,2.07-.22,2.07-.45,4.14c-.17,1.38-.32,2.75-.49,4.13l-.52,4.13c-.36,2.75-.73,5.5-1.13,8.24h-.04Z"/>
          <path class="cls-11" d="m153.06,293.95c.97,0,1.94.39,2.64,1.07.71.67,1.14,1.64,1.16,2.64.03.99-.36,2.01-1.06,2.73-.35.36-.78.66-1.25.86-.47.2-.98.3-1.49.3-.51,0-1.02-.11-1.49-.3-.47-.2-.89-.49-1.25-.86-.71-.73-1.09-1.74-1.06-2.73.02-1,.45-1.96,1.16-2.64.7-.68,1.67-1.07,2.64-1.07Zm0,0c-.49,0-.97.1-1.41.29-.45.19-.85.47-1.19.81-.67.69-1.04,1.65-1.01,2.6.02.95.43,1.87,1.11,2.51.67.65,1.58,1.02,2.51,1.01.92,0,1.84-.37,2.51-1.01.67-.64,1.09-1.56,1.11-2.51.03-.95-.34-1.91-1.01-2.6-.34-.34-.74-.63-1.19-.81-.45-.19-.93-.29-1.41-.29Z"/>
          <path class="cls-11" d="m208.54,226.5c1.11-.05,2.23.24,3.18.82.95.57,1.74,1.42,2.28,2.4.27.49.47,1.01.62,1.55.15.54.22,1.1.26,1.65l.28,3.31.56,6.62c.19,2.21.35,4.42.53,6.63l1.05,13.25c.17,2.21.36,4.42.54,6.62l.56,6.62,1.12,13.25,1.09,13.25c.37,4.42.71,8.83,1.06,13.25l.13,1.66c.04.55.1,1.1.1,1.66-.02,1.11-.29,2.23-.84,3.21-.53.98-1.33,1.82-2.29,2.38-.48.28-1,.49-1.54.62-.54.13-1.1.18-1.65.16v-.02c.55.02,1.11-.04,1.64-.18.53-.14,1.05-.35,1.52-.64.95-.57,1.72-1.4,2.24-2.37.53-.97.79-2.07.8-3.17,0-.55-.07-1.1-.11-1.65l-.14-1.66c-.38-4.42-.75-8.83-1.11-13.25l-1.08-13.25-1.05-13.25-.53-6.63c-.17-2.21-.35-4.42-.54-6.62l-1.12-13.25c-.18-2.21-.38-4.42-.55-6.62l-.52-6.63-.26-3.31c-.04-.55-.1-1.1-.24-1.63-.14-.53-.34-1.05-.61-1.53-.52-.97-1.29-1.81-2.22-2.39-.93-.58-2.04-.89-3.15-.85v-.02Z"/>
          <rect class="cls-11" x="122.24" y="293.73" width=".37" height="32.18" transform="translate(-187.99 430.73) rotate(-89.72)"/>
          <g>
            <rect class="cls-9" x="135.54" y="304.42" width=".99" height="2.83" transform="translate(-170.46 440.38) rotate(-89.72)"/>
            <path class="cls-9" d="m129.74,306.3l-4.88-.02v-.99s4.88.02,4.88.02v.99Zm-9.76-.05l-4.88-.02v-.99s4.88.02,4.88.02v.99Z"/>
            <rect class="cls-9" x="108.32" y="304.29" width=".99" height="2.83" transform="translate(-197.42 413.02) rotate(-89.72)"/>
          </g>
          <rect class="cls-11" x="188.52" y="286.78" width=".37" height="46.73" transform="translate(-122.35 497.34) rotate(-89.72)"/>
        </g>
        <g>
          <g>
            <g>
              <path class="cls-4" d="m251.17,101.96v81.75c0,3.6-2.92,6.52-6.52,6.52H111.22c-3.6,0-6.52-2.92-6.52-6.52v-81.75h146.47Z"/>
              <path class="cls-9" d="m251.17,96.56v5.4H104.7v-5.4c0-3.6,2.92-6.52,6.52-6.52h133.44c3.6,0,6.52,2.92,6.52,6.52Z"/>
              <g>
                <circle class="cls-12" cx="177.93" cy="145.79" r="15.91" transform="translate(-1.1 290.22) rotate(-78.22)"/>
                <polygon class="cls-4" points="175.28 153.47 168.55 147.26 170.74 144.89 175.2 149.01 185.09 139.19 187.36 141.48 175.28 153.47"/>
              </g>
              <path class="cls-12" d="m251.26,102.05H104.6v-5.49c0-3.65,2.97-6.61,6.61-6.61h133.44c3.65,0,6.61,2.97,6.61,6.61v5.49Zm-146.47-.19h146.29v-5.31c0-3.54-2.88-6.43-6.43-6.43H111.22c-3.54,0-6.43,2.88-6.43,6.43v5.31Z"/>
              <path class="cls-12" d="m244.65,190.32H111.22c-3.65,0-6.61-2.97-6.61-6.61v-81.85h146.66v81.85c0,3.65-2.97,6.61-6.61,6.61ZM104.79,102.05v81.66c0,3.54,2.88,6.43,6.43,6.43h133.44c3.54,0,6.43-2.88,6.43-6.43v-81.66H104.79Z"/>
              <circle class="cls-12" cx="112.09" cy="96" r="1.79"/>
              <circle class="cls-12" cx="119.94" cy="96" r="1.79"/>
              <circle class="cls-12" cx="127.8" cy="96" r="1.79"/>
            </g>
            <g>
              <circle class="cls-4" cx="251.65" cy="108.82" r="45"/>
              <path class="cls-12" d="m251.65,66.89c5.66,0,11.15,1.11,16.32,3.29,4.99,2.11,9.48,5.14,13.33,8.99,3.85,3.85,6.88,8.34,8.99,13.33,2.19,5.17,3.29,10.66,3.29,16.32s-1.11,11.15-3.29,16.32c-2.11,4.99-5.14,9.48-8.99,13.33s-8.34,6.88-13.33,8.99c-5.17,2.19-10.66,3.29-16.32,3.29s-11.15-1.11-16.32-3.29c-4.99-2.11-9.48-5.14-13.33-8.99-3.85-3.85-6.88-8.34-8.99-13.33-2.19-5.17-3.29-10.66-3.29-16.32s1.11-11.15,3.29-16.32c2.11-4.99,5.14-9.48,8.99-13.33,3.85-3.85,8.34-6.88,13.33-8.99,5.17-2.19,10.66-3.29,16.32-3.29m0-3.07c-24.85,0-45,20.15-45,45s20.15,45,45,45,45-20.15,45-45-20.15-45-45-45h0Z"/>
              <g>
                <g>
                  <path class="cls-12" d="m251.65,76.99c-.42,0-.77-.34-.77-.77v-7.37c0-.42.34-.77.77-.77s.77.34.77.77v7.37c0,.42-.34.77-.77.77Z"/>
                  <path class="cls-12" d="m251.65,149.46c-.42,0-.77-.34-.77-.77v-7.37c0-.42.34-.77.77-.77s.77.34.77.77v7.37c0,.42-.34.77-.77.77Z"/>
                </g>
                <g>
                  <path class="cls-12" d="m291.57,109.54h-7.37c-.42,0-.77-.34-.77-.77s.34-.77.77-.77h7.37c.42,0,.77.34.77.77s-.34.77-.77.77Z"/>
                  <path class="cls-12" d="m219.1,109.54h-7.37c-.42,0-.77-.34-.77-.77s.34-.77.77-.77h7.37c.42,0,.77.34.77.77s-.34.77-.77.77Z"/>
                </g>
              </g>
              <path class="cls-12" d="m251.65,68.75c5.41,0,10.66,1.06,15.6,3.15,4.77,2.02,9.06,4.91,12.74,8.59,3.68,3.68,6.57,7.97,8.59,12.74,2.09,4.94,3.15,10.19,3.15,15.6s-1.06,10.66-3.15,15.6c-2.02,4.77-4.91,9.06-8.59,12.74-3.68,3.68-7.97,6.57-12.74,8.59-4.94,2.09-10.19,3.15-15.6,3.15s-10.66-1.06-15.6-3.15c-4.77-2.02-9.06-4.91-12.74-8.59-3.68-3.68-6.57-7.97-8.59-12.74-2.09-4.94-3.15-10.19-3.15-15.6s1.06-10.66,3.15-15.6c2.02-4.77,4.91-9.06,8.59-12.74,3.68-3.68,7.97-6.57,12.74-8.59,4.94-2.09,10.19-3.15,15.6-3.15m0-.77c-22.55,0-40.84,18.28-40.84,40.84s18.28,40.84,40.84,40.84,40.84-18.28,40.84-40.84-18.28-40.84-40.84-40.84h0Z"/>
              <g>
                <g>
                  <path class="cls-12" d="m277.41,83.59c-.1,0-.2-.04-.27-.11-.15-.15-.15-.39,0-.54l2.61-2.61c.15-.15.39-.15.54,0,.15.15.15.39,0,.54l-2.61,2.61c-.07.07-.17.11-.27.11Z"/>
                  <path class="cls-12" d="m223.29,137.71c-.1,0-.2-.04-.27-.11-.15-.15-.15-.39,0-.54l2.61-2.61c.15-.15.39-.15.54,0,.15.15.15.39,0,.54l-2.61,2.61c-.07.07-.17.11-.27.11Z"/>
                </g>
                <g>
                  <path class="cls-12" d="m280.02,137.71c-.1,0-.2-.04-.27-.11l-2.61-2.61c-.15-.15-.15-.39,0-.54.15-.15.39-.15.54,0l2.61,2.61c.15.15.15.39,0,.54-.07.07-.17.11-.27.11Z"/>
                  <path class="cls-12" d="m225.89,83.59c-.1,0-.2-.04-.27-.11l-2.61-2.61c-.15-.15-.15-.39,0-.54.15-.15.39-.15.54,0l2.61,2.61c.15.15.15.39,0,.54-.07.07-.17.11-.27.11Z"/>
                </g>
              </g>
            </g>
            <g>
              <path class="cls-18" d="m368.17,124.54h-55.76c-1.81,0-3.29,1.47-3.29,3.29v24.66c0,1.81,1.47,3.29,3.29,3.29h4.77c.05,1.39-.16,3.96-2.1,5.63,0,0,5.33-.43,6.81-5.63h46.28c1.82,0,3.29-1.47,3.29-3.29v-24.66c0-1.81-1.47-3.29-3.29-3.29Z"/>
              <g>
                <circle class="cls-4" cx="321.95" cy="140.16" r="2.14"/>
                <path class="cls-4" d="m336.32,140.16c0,1.18-.96,2.14-2.14,2.14s-2.14-.96-2.14-2.14.96-2.14,2.14-2.14,2.14.96,2.14,2.14Z"/>
                <circle class="cls-4" cx="346.41" cy="140.16" r="2.14"/>
                <circle class="cls-4" cx="358.63" cy="140.16" r="2.14"/>
              </g>
            </g>
            <g>
              <path class="cls-18" d="m130.24,143.27h-55.76c-1.81,0-3.29,1.47-3.29,3.29v24.66c0,1.81,1.47,3.29,3.29,3.29h4.77c.05,1.39-.16,3.96-2.1,5.63,0,0,5.33-.43,6.81-5.63h46.28c1.82,0,3.29-1.47,3.29-3.29v-24.66c0-1.81-1.47-3.29-3.29-3.29Z"/>
              <g>
                <circle class="cls-4" cx="84.02" cy="158.89" r="2.14"/>
                <circle class="cls-4" cx="96.25" cy="158.89" r="2.14"/>
                <circle class="cls-4" cx="108.47" cy="158.89" r="2.14" transform="translate(-65.78 240.41) rotate(-80.75)"/>
                <circle class="cls-4" cx="120.7" cy="158.89" r="2.14"/>
              </g>
            </g>
            <g>
              <path class="cls-4" d="m117.44,207.17s3.4-.28,4.35-3.59h29.53c1.16,0,2.1-.94,2.1-2.1v-15.74c0-1.16-.94-2.1-2.1-2.1h-35.59c-1.16,0-2.1.94-2.1,2.1v15.74c0,1.16.94,2.1,2.1,2.1h3.04c.03.89-.1,2.53-1.34,3.59Z"/>
              <path class="cls-10" d="m117.44,207.17c.24-.05.49-.11.72-.19.24-.07.47-.16.69-.26.45-.2.87-.45,1.26-.76.2-.14.37-.32.54-.49.16-.19.33-.37.46-.57.29-.4.48-.86.68-1.32-.03.12-.06.24-.1.36-.04.12-.06.24-.12.36l-.15.35c-.05.12-.12.22-.19.33-.12.23-.29.41-.45.62-.18.18-.35.37-.56.52-.4.31-.84.57-1.32.75-.47.18-.97.29-1.47.31Z"/>
              <path class="cls-10" d="m118.78,203.58c.09.66.04,1.34-.17,1.98-.11.32-.26.63-.46.9-.19.28-.44.52-.71.71.45-.49.78-1.05.99-1.67.21-.61.3-1.26.35-1.92Z"/>
              <path class="cls-10" d="m121.78,203.58l14.1-.05,14.1-.02h.88c.3,0,.59.02.87-.05.56-.12,1.06-.48,1.34-.98.14-.25.23-.52.26-.81v-.21s.01-.22.01-.22v-.44s0-1.76,0-1.76v-7.05s-.01-3.53-.01-3.53v-1.76s0-.88,0-.88c0-.29-.04-.57-.14-.83-.2-.53-.65-.95-1.18-1.14-.27-.1-.54-.13-.84-.12h-.88s-3.53,0-3.53,0l-28.2-.03h-1.76s-.88,0-.88,0c-.3,0-.58.01-.85.11-.54.18-1,.61-1.22,1.13-.11.26-.16.55-.16.84v.88s0,7.05,0,7.05l-.02,7.05c0,.29-.01.59,0,.88.02.29.1.58.24.83.28.51.78.9,1.35,1.03.28.07.58.06.87.06h.88s1.76,0,1.76,0h-1.76s-.88,0-.88,0c-.29,0-.59.02-.88-.05-.58-.13-1.09-.52-1.38-1.04-.14-.26-.23-.55-.25-.85-.02-.3,0-.59-.01-.88l-.02-7.05v-7.05s0-.88,0-.88c0-.3.05-.6.17-.88.24-.56.71-1,1.29-1.2.14-.05.29-.08.44-.1.15-.02.3-.02.45-.02h.88s1.76,0,1.76,0l28.2-.03h3.53s.88,0,.88,0c.29,0,.61.03.9.14.58.21,1.05.67,1.27,1.24.11.28.16.6.15.89v.88s0,1.76,0,1.76v3.53s-.01,7.05-.01,7.05v1.76s0,.44,0,.44v.22s-.01.23-.01.23c-.03.3-.13.6-.28.86-.3.53-.83.91-1.43,1.03l-.22.03h-.23s-.44.01-.44.01h-.88s-14.1-.02-14.1-.02l-14.1-.05Z"/>
              <g>
                <circle class="cls-10" cx="121.82" cy="193.62" r="1.37" transform="translate(-88.78 282.93) rotate(-80.8)"/>
                <circle class="cls-10" cx="129.62" cy="193.62" r="1.37" transform="translate(-82.22 290.63) rotate(-80.8)"/>
                <circle class="cls-10" cx="137.43" cy="193.62" r="1.37" transform="translate(-75.66 298.33) rotate(-80.8)"/>
                <circle class="cls-10" cx="145.23" cy="193.62" r="1.37" transform="translate(-69.11 306.04) rotate(-80.8)"/>
              </g>
            </g>
            <g>
              <path class="cls-4" d="m348.31,194.3s3.4-.28,4.35-3.59h29.53c1.16,0,2.1-.94,2.1-2.1v-15.74c0-1.16-.94-2.1-2.1-2.1h-35.59c-1.16,0-2.1.94-2.1,2.1v15.74c0,1.16.94,2.1,2.1,2.1h3.04c.03.89-.1,2.53-1.34,3.59Z"/>
              <path class="cls-10" d="m348.31,194.3c.24-.05.49-.11.72-.19.24-.07.47-.16.69-.26.45-.2.87-.45,1.26-.76.2-.14.37-.32.54-.49.16-.19.33-.37.46-.57.29-.4.48-.86.68-1.32-.03.12-.06.24-.1.36-.04.12-.06.24-.12.36l-.15.35c-.05.12-.12.22-.19.33-.12.23-.29.41-.45.62-.18.18-.35.37-.56.52-.4.31-.84.57-1.32.75-.47.18-.97.29-1.47.31Z"/>
              <path class="cls-10" d="m349.65,190.71c.09.66.04,1.34-.17,1.98-.11.32-.26.63-.46.9-.19.28-.44.52-.71.71.45-.49.78-1.05.99-1.67.21-.61.3-1.26.35-1.92Z"/>
              <path class="cls-10" d="m352.66,190.71l14.1-.05,14.1-.02h.88c.3,0,.59.02.87-.05.56-.12,1.06-.48,1.34-.98.14-.25.23-.52.26-.81v-.21s.01-.22.01-.22v-.44s0-1.76,0-1.76v-7.05s-.01-3.53-.01-3.53v-1.76s0-.88,0-.88c0-.29-.04-.57-.14-.83-.2-.53-.65-.95-1.18-1.14-.27-.1-.54-.13-.84-.12h-.88s-3.53,0-3.53,0l-28.2-.03h-1.76s-.88,0-.88,0c-.3,0-.58.01-.85.11-.54.18-1,.61-1.22,1.13-.11.26-.16.55-.16.84v.88s0,7.05,0,7.05l-.02,7.05c0,.29-.01.59,0,.88.02.29.1.58.24.83.28.51.78.9,1.35,1.03.28.07.58.06.87.06h.88s1.76,0,1.76,0h-1.76s-.88,0-.88,0c-.29,0-.59.02-.88-.05-.58-.13-1.09-.52-1.38-1.04-.14-.26-.23-.55-.25-.85-.02-.3,0-.59-.01-.88l-.02-7.05v-7.05s0-.88,0-.88c0-.3.05-.6.17-.88.24-.56.71-1,1.29-1.2.14-.05.29-.08.44-.1.15-.02.3-.02.45-.02h.88s1.76,0,1.76,0l28.2-.03h3.53s.88,0,.88,0c.29,0,.61.03.9.14.58.21,1.05.67,1.27,1.24.11.28.16.6.15.89v.88s0,1.76,0,1.76v3.53s-.01,7.05-.01,7.05v1.76s0,.44,0,.44v.22s-.01.23-.01.23c-.03.3-.13.6-.28.86-.3.53-.83.91-1.43,1.03l-.22.03h-.23s-.44.01-.44.01h-.88s-14.1-.02-14.1-.02l-14.1-.05Z"/>
              <g>
                <circle class="cls-10" cx="352.69" cy="180.74" r="1.37" transform="translate(117.79 499.93) rotate(-80.78)"/>
                <circle class="cls-10" cx="360.49" cy="180.74" r="1.37" transform="translate(124.34 507.63) rotate(-80.78)"/>
                <circle class="cls-10" cx="368.3" cy="180.74" r="1.37" transform="translate(130.89 515.33) rotate(-80.78)"/>
                <circle class="cls-10" cx="376.1" cy="180.74" r="1.37" transform="translate(137.45 523.04) rotate(-80.78)"/>
              </g>
            </g>
            <g>
              <g>
                <path class="cls-12" d="m234.48,124.94c-.41-.28-.61-.68-.61-1.2,0-.05,0-.13.02-.23h1.52c-.02.22.03.39.15.51.12.13.3.19.55.19.22,0,.4-.05.52-.15.13-.1.19-.23.19-.41s-.08-.33-.24-.44c-.16-.11-.41-.24-.75-.38-.33-.14-.6-.27-.81-.39-.21-.12-.39-.29-.54-.5-.15-.21-.23-.47-.23-.79,0-.39.09-.73.29-1.02.2-.29.47-.51.83-.67.35-.15.76-.23,1.21-.23.41,0,.77.06,1.09.19.32.13.57.31.74.55.18.24.26.53.26.86,0,.09,0,.15,0,.19h-1.55s0-.06,0-.1c0-.16-.06-.29-.17-.39-.11-.1-.26-.15-.46-.15-.2,0-.37.05-.5.15-.13.1-.19.23-.19.41s.08.31.24.43c.16.12.41.25.74.41.34.15.61.3.82.43.21.13.4.31.55.52.15.22.23.49.23.81,0,.35-.09.67-.28.95-.19.28-.46.5-.81.65-.35.16-.76.23-1.24.23-.65,0-1.18-.14-1.58-.42Z"/>
                <path class="cls-12" d="m241.29,120.47l-.21,1.25h1.95l-.2,1.1h-1.95l-.24,1.34h2.21l-.2,1.15h-3.67l1.06-5.99h3.67l-.2,1.15h-2.21Z"/>
                <path class="cls-12" d="m248.52,119.74c.32.28.49.65.49,1.1,0,.13-.01.25-.03.37-.07.4-.24.75-.52,1.07-.28.31-.65.53-1.12.67l.96,2.37h-1.65l-.84-2.26h-.35l-.4,2.26h-1.46l1.06-5.99h2.45c.62,0,1.09.14,1.42.42Zm-1.02,1.34c0-.18-.06-.32-.17-.42-.12-.1-.29-.15-.52-.15h-.9l-.26,1.5h.9c.27,0,.48-.07.64-.2.16-.13.26-.32.3-.55.01-.09.02-.15.02-.18Z"/>
                <path class="cls-12" d="m251.31,119.32l.69,4.52,2.28-4.52h1.55l-3.18,5.99h-1.82l-1.07-5.99h1.55Z"/>
                <path class="cls-12" d="m257.9,119.32l-1.06,5.99h-1.46l1.06-5.99h1.46Z"/>
                <path class="cls-12" d="m258.85,120.72c.34-.46.76-.82,1.26-1.08.5-.26,1.04-.39,1.62-.39.71,0,1.29.19,1.73.56.44.38.69.89.75,1.54h-1.6c-.07-.24-.21-.43-.41-.56-.2-.13-.44-.19-.72-.19-.45,0-.84.16-1.17.46-.33.31-.54.72-.63,1.24-.03.16-.04.3-.04.42,0,.4.11.71.33.95.22.23.53.35.91.35.28,0,.54-.07.78-.2.24-.13.44-.32.61-.56h1.6c-.28.65-.71,1.16-1.29,1.53-.57.37-1.22.56-1.93.56-.51,0-.96-.1-1.34-.3-.38-.2-.67-.48-.88-.84-.2-.36-.31-.79-.31-1.27,0-.22.02-.43.06-.63.1-.59.32-1.12.66-1.58Z"/>
                <path class="cls-12" d="m266.71,120.47l-.21,1.25h1.95l-.2,1.1h-1.95l-.24,1.34h2.21l-.2,1.15h-3.67l1.06-5.99h3.67l-.2,1.15h-2.21Z"/>
              </g>
              <g>
                <g>
                  <path class="cls-18" d="m246,110.92v3.77h-12.13v-3.15c3.6-5.88,5.73-9.51,6.41-10.91.68-1.4,1.02-2.49,1.02-3.27,0-.6-.1-1.05-.31-1.34-.21-.3-.52-.44-.94-.44s-.73.16-.94.49c-.21.33-.31.98-.31,1.95v2.1h-4.94v-.8c0-1.24.06-2.21.19-2.93.13-.71.44-1.42.94-2.11.5-.69,1.15-1.21,1.95-1.57.8-.35,1.76-.53,2.88-.53,2.19,0,3.85.54,4.97,1.63,1.12,1.09,1.68,2.46,1.68,4.13,0,1.26-.32,2.6-.95,4.01-.63,1.41-2.49,4.4-5.59,8.98h6.04Z"/>
                  <path class="cls-18" d="m258.82,92.6v14.44h1.57v3.77h-1.57v3.89h-5.51v-3.89h-6.55v-3.77l4.76-14.44h7.3Zm-5.51,14.44v-9.4l-2.44,9.4h2.44Z"/>
                </g>
                <path class="cls-18" d="m270.27,107.04v1.67l-1.22,5.99h-1.9l1.36-6.28h-1.89v-1.38h3.65Z"/>
                <polygon class="cls-12" points="261.7 114.69 261.18 114.69 266.47 103.07 267 103.06 261.7 114.69"/>
              </g>
            </g>
          </g>
          <rect class="cls-11" x="89.21" y="350.72" width="303.03" height=".56"/>
          <g>
            <g>
              <path class="cls-4" d="m240.93,202.6c4.31-3.67,10.78-3.16,14.46,1.15,2.77,3.24,3.16,7.71,1.34,11.29l2.94,3.6-5.43-.43c-4.31,3.67-10.78,3.16-14.46-1.15-3.67-4.31-3.16-10.78,1.15-14.46Z"/>
              <g>
                <path class="cls-11" d="m259.67,218.64c-.23-.31-.47-.62-.71-.92-.24-.3-.48-.61-.73-.91-.25-.3-.49-.6-.74-.89-.25-.3-.5-.59-.76-.88.23.31.47.62.71.92.24.3.48.61.73.91.25.3.49.6.74.89.25.3.5.59.76.88Z"/>
                <path class="cls-11" d="m254.23,218.21c.45.05.9.1,1.36.14.45.04.9.08,1.36.12.45.04.91.07,1.36.1.45.03.91.05,1.36.07-.45-.05-.9-.1-1.36-.14-.45-.04-.9-.08-1.36-.12-.45-.04-.91-.07-1.36-.1-.45-.03-.91-.05-1.36-.07Z"/>
                <path class="cls-11" d="m256.73,215.05c.28-.56.52-1.15.7-1.75.18-.6.3-1.22.37-1.85.13-1.25.04-2.53-.29-3.75-.33-1.22-.89-2.38-1.63-3.39-.75-1.01-1.68-1.9-2.74-2.58-.53-.34-1.1-.63-1.68-.87-.59-.24-1.19-.42-1.81-.55-1.24-.25-2.53-.28-3.77-.07-1.25.21-2.46.65-3.55,1.3-.54.32-1.06.7-1.53,1.11-.48.42-.92.87-1.31,1.37-.78,1-1.38,2.14-1.75,3.35-.37,1.21-.52,2.49-.43,3.75.08,1.26.41,2.51.95,3.65.54,1.15,1.29,2.19,2.2,3.07.91.87,1.99,1.58,3.15,2.06,1.17.49,2.42.76,3.68.79,1.26.03,2.53-.17,3.71-.59,1.19-.42,2.29-1.07,3.25-1.89-.96.81-2.07,1.44-3.26,1.85-1.19.41-2.45.6-3.7.56-1.25-.04-2.5-.32-3.65-.8-1.15-.49-2.21-1.19-3.11-2.06-.45-.43-.86-.91-1.22-1.42-.36-.51-.68-1.05-.94-1.62-.53-1.13-.85-2.36-.93-3.61-.08-1.25.06-2.51.43-3.7.37-1.19.96-2.32,1.73-3.3.38-.49.82-.94,1.29-1.36.47-.41.98-.78,1.51-1.1,1.07-.64,2.26-1.08,3.5-1.29,1.23-.21,2.5-.19,3.73.06,1.23.25,2.41.72,3.46,1.39,1.06.67,1.98,1.55,2.73,2.55.75,1.01,1.31,2.15,1.64,3.36.34,1.21.44,2.48.32,3.73-.06.63-.18,1.24-.35,1.85-.17.6-.41,1.19-.68,1.75Z"/>
              </g>
            </g>
            <polygon class="cls-12" points="246.8 213.05 244.35 210.6 245.1 209.85 246.8 211.55 250.68 207.67 251.43 208.42 246.8 213.05"/>
          </g>
        </g>
      </g>
    </g>
  </g>
</svg>